<?xml version="1.0" encoding="UTF-8"?>
<svg id="_1080_x_1080_px_Logo_2" data-name="1080 x 1080 px Logo 2" xmlns="http://www.w3.org/2000/svg" viewBox="0 0 959.6 284.88">
  <defs>
    <style>
      .cls-1, .cls-2, .cls-3 {
        fill: #fff;
      }

      .cls-1, .cls-3 {
        stroke: #fff;
      }

      .cls-3 {
        stroke-miterlimit: 10;
      }
    </style>
  </defs>
  <g id="Text-3" data-name="Text">
    <g>
      <g>
        <path class="cls-1" d="M419.89,211.15v3.53h6.77v3.41h-6.77v6.72h-4.6v-17.16h12.63v3.5h-8.03Z"/>
        <path class="cls-1" d="M431.81,224.81v-17.16h13.3v3.5h-8.7v3.29h7.41v3.31h-7.41v3.55h9.13v3.5h-13.73Z"/>
        <path class="cls-1" d="M448.69,224.19v-3.98c1.84.76,4.1,1.24,6.08,1.24s3.24-.43,3.24-1.29c0-.98-.98-1.33-3.93-2.26-3.77-1.17-5.67-2.38-5.67-5.39,0-3.22,2.81-5.19,7.53-5.19,1.95,0,3.98.31,5.39.83v3.84c-1.38-.6-3.29-1.05-5.22-1.05-2.03,0-3.26.43-3.26,1.45,0,.88,1.19,1.41,3.91,2.29,3.6,1.19,5.84,2.38,5.84,5.36,0,3.29-2.74,5.1-7.58,5.1-2.22,0-4.72-.36-6.32-.95Z"/>
        <path class="cls-1" d="M474.5,211.15v13.65h-4.6v-13.65h-5.67v-3.5h15.94v3.5h-5.67Z"/>
        <path class="cls-1" d="M483.6,224.81v-17.16h4.6v17.16h-4.6Z"/>
        <path class="cls-1" d="M501.6,225.04h-.71l-9.96-17.4h5.03l2.98,5.46c.93,1.72,1.69,3.24,2.29,4.41.64-1.33,1.57-3.05,2.65-5.03l2.67-4.84h5l-9.94,17.4Z"/>
        <path class="cls-1" d="M518.45,207.41h.67l9.82,17.4h-4.84l-1.57-2.74h-7.55l-1.5,2.74h-4.84l9.82-17.4ZM521.26,219.23c-.81-1.57-1.72-3.29-2.45-5.05-.76,1.76-1.72,3.48-2.53,5.05h4.98Z"/>
        <path class="cls-1" d="M531.91,224.81v-17.16h4.6v13.65h7.79v3.5h-12.39Z"/>
      </g>
      <g>
        <path class="cls-3" d="M597.23,191.44c-19.99.32-61.32-4.22-84.32-15.35-23.5-11.13-28.66-28.84,12.26-54.84,63.24-43.49,38.35-59.25,84.24-59.72,23.46-.54,77.51,3.57,96.67,25.72,15.29,16.29-18.19,44.18-39.03,64.53-16.69,15.91-22.05,25.78-31.03,31.7-8.45,5.92-20.54,7.88-38.4,7.96h-.39ZM595.34,190.23c17.39-.12,29.78-1.96,38.57-7.59,9.32-5.63,15.05-15.06,31.24-30.37,20.51-19.97,54.16-47.67,40.29-63.91-7.4-11.15-27.04-17.68-45.11-21.36-18.55-3.68-35.52-4.51-48.66-4.27-45.12.46-23.48,15.94-85.78,58.87-82.41,50.88,26.77,69.34,69.04,68.62h.39ZM576.29,158.28c-23.64.62-32.28-13.97-1.47-35.41,18.28-13.37,34.47-23.85,47.29-26.82,18.61-4.66,41.99.72,28.31,19.97-21.19,23.66-50.14,42.97-73.76,42.26h-.37ZM577.21,157.08c20.73.57,43.36-13.23,65.84-33.9,13.46-12.94,12.41-23.08,2.06-25.97-16.06-4.5-34.5.62-61.29,19.99-35.9,22.59-34,40.61-6.98,39.88h.37Z"/>
        <g>
          <path class="cls-3" d="M591.16,187.61c-13.51.16-31.65-1.19-51.11-5.62-18.82-4.43-38.96-11.94-41.62-24.1-3.36-12.06,16.61-27.58,35.64-41.8,18.68-13.72,31.48-25.85,39.07-34.35,8.11-8.8,14.47-13.07,25.95-15.03,12.71-2.29,30.63-2.09,50.67.7,19.31,2.79,44.49,8.99,53.57,22.03,9.51,12.83-5.11,30.59-22.91,47.26-8.37,8.06-16.51,15.75-23.47,22.53-6.67,6.41-11.93,11.64-16.95,15.63-10.23,8.49-21.5,11.42-37.04,12.4-3.75.24-7.68.37-11.8.37-3.46,0,9.55,7.66,13.57,7.65,17.92,0,29.59-1.87,36.43-8.81,6.6-6.95,12.54-19.94,30.17-36.68,17.17-17.35,43.27-38.08,41.41-54.79-.87-16.39-28.7-26.9-53.98-32.03-26.06-5.22-48.15-6-63.46-5.02-14.35.86-21.02,4.03-24.17,11.83-2.9,7.5-7.45,19.5-25.77,34.16-18.4,15.67-49.99,34.23-53.91,49.72-4.73,14.57,15.71,24.5,37.77,30.99,22.61,6.49,46.85,9.54,62.52,10.35,4.66.23,8.98.32,12.98.27,1.62-.03-11.2-7.69-13.57-7.65Z"/>
          <path class="cls-3" d="M602.37,194.06c17.7-.15,29.87-1.91,37.25-9.06,7.01-7.06,14.11-20.23,32.01-36.89,17.46-17.21,42.62-37.62,39.77-53.9-1.91-15.99-29.46-25.89-53.59-30.63-24.54-4.75-45.46-5.43-60.28-4.41-14.07.91-20.91,4.1-24.68,11.93-3.47,7.49-9.09,19.45-27.52,33.92-18.59,15.45-49.2,33.68-52.59,48.82-4.17,14.28,15.84,23.91,37.15,30.16,21.88,6.25,45.08,9.11,60.35,9.84,4.34.2,8.24.21,12.14.21,1.71,0-10.22-7.65-12.68-7.65-13.66,0-30.89-1.2-49.44-5.35-17.92-4.15-37.16-11.27-40.27-23.09-3.64-11.72,14.97-26.67,33.74-40.7,18.38-13.52,31.86-25.63,39.95-34.13,8.7-8.83,15.34-13.14,26.72-15.15,12.46-2.31,29.61-2.17,48.55.3,18.44,2.48,42.72,8.14,52.47,20.56,10.31,12.42-3.14,29.9-20.92,46.55-8.13,7.85-16.29,15.48-23.38,22.15-6.87,6.39-12.36,11.68-17.57,15.72-10.66,8.6-21.99,11.59-37.25,12.67-4.02.3-8.24.43-12.61.47-3.43.02,8.74,7.68,12.68,7.65Z"/>
          <path class="cls-3" d="M578.93,154.46c-13.44.29-24.91-5.65-15.95-18.08,9.47-12.36,31.97-27.07,47.61-33.78,8.15-3.3,15.53-4.31,21.92-4.29,6.16.02,11.78,1.41,15.08,4.46,3.22,2.97,3.48,7.78-.43,13.71-3.69,5.67-11.08,12.74-18.31,18.31-7.65,5.84-16.37,11.06-24.6,14.53-9.58,4.04-17.56,5.15-25.32,5.15-3.05,0-8.33,7.66-4.59,7.65,7.92,0,15.57-1.24,24.15-5.13,8.11-3.67,17.02-9.39,26.24-15.99,19.46-13.73,40.23-32.56,32.95-42.37-6.41-9.18-24.35-10.34-38.43-4.84-15.33,6.56-43.71,25.39-61.38,41.69-7.71,7.84-9.77,15.02-5.61,19.76,4.42,5.09,13.24,7.07,22.09,6.87,2.29-.06,7.53-7.73,4.59-7.65Z"/>
          <path class="cls-3" d="M575.03,160.9c7.73.16,15.77-1.46,24.38-5.45,8.48-3.92,17.52-9.85,26.98-16.66,21.05-14.67,38.33-33.25,28.05-41.86-3.99-3.84-11.13-5.03-17.88-5.08-6.78-.05-13.85,1.44-21.62,4.91-15.15,7.52-42.14,24.93-56.69,39.6-6.88,7.43-8.35,14.1-4.22,18.44,4.47,4.71,12.54,6.1,21.01,6.1,2.28,0,7.94-7.65,5.01-7.65-12.49,0-23.72-4.59-16.12-16.34,7.11-10.45,26.91-24.27,41.71-31.19,15.68-7.19,29.44-7.87,38.01-3.95,10.12,4.45,3.19,18.32-14.33,31.63-7.11,5.6-15.6,10.85-23.7,14.35-9.6,4.15-18.02,5.65-25.57,5.49-2.97-.05-8.74,7.59-5.01,7.65Z"/>
        </g>
      </g>
      <g>
        <path class="cls-3" d="M895.88,188.42c-11.58.98-48.44.02-61.18.34-1.93-.07-3.72.18-5.73-.92-16.2-10.2-33.71-27.55-40.95-43.65-8.35-16.1-6.43-30.95-9.54-36.12-.37-1.61-.76-1.26-1.86.76.25,4.98-17.24,21.52-24.07,38.17-8.22,16.65-5.78,33.41,2.31,38.83,3.33,3.74-.22,2.73-4.06,2.94-4.4,0-11.23,0-18.3,0-9.04-.01-16.86.01-23.73,0-5.57-.12-6.1.29-9.18-2.25-9.34-7.4-13.46-17.78-8.93-29.42,3.94-11.64,16.52-24.54,26.94-36.95,10.57-12.41,19-24.34,18.29-34.04.2-9.7-8.72-17.18-11.93-20.69-1.74-1.72-.14-1.24,1.74-1.43,11.13.21,43.57-.42,55.69.21,2.23.52,3.51,1.54,6.26,3.23,34.75,20.16,37.43,66.87,49.1,76.71.5.71,1.18,1.9,1.64.39,2.25-10.73,9.64-27.2,12.06-42.72,2.99-15.52,1.02-30.1-2.28-37.05,1.48-1.4,4.07-.54,7.54-.79,4.56,0,10.89,0,17.13,0,7.11.06,17.91-.25,23,.23,1.26.31,1.15,1.35,1.22,2.53.17,16.17-.04,106.07-1.09,121.67-.02.01-.04.02-.07.03ZM894.6,187.18c.77-15.4,1.85-102.64,1.39-119.07-.05-1.15.03-2.27-1.1-2.65-5.01-.55-15.63-.2-22.61-.29-6.03,0-12.05,0-16.19,0-2.99.22-5.44-.57-6.34.98,3.35,7.21,4.66,22.18,1.3,38.08-2.82,15.9-10.32,32.74-12.15,43.68-.44,1.45-1.19.08-1.68-.55-3.81-4.08-10.06-16.84-15.46-31.08-5.9-14.24-10.94-29.98-23.84-40.02-3.42-3.09-6.91-5.63-9.57-7.43-3.37-2.25-5.29-3.61-7.98-3.61-10.4-.15-42.57,0-52.14-.03-1.95.17-3.27-.21-1.61,1.54,3.05,3.57,10.99,10.97,10.32,20.51.17,9.54-8.26,21.22-18.61,33.36-10.19,12.14-22.31,24.74-26.27,36.12-4.51,11.38-.87,21.53,7.69,28.77,2.6,2.75,6.83,1.91,11.32,2.06,5.97,0,14.84,0,22.91,0,6.52,0,12.5.01,16.02,0,3.6-.02,5.1,0,2.41-3.18-8.7-6.34-8.64-23.71.67-40.86,8.16-17.15,25.59-34.07,25.01-39.52.62-.95.79.22.98.66,3.65,5.24,1.61,20.44,9.57,36.98,6.88,16.54,23.75,34.4,40.32,44.95,1.96,1.13,3.74.88,5.67.95,12.4-.32,48.27.62,59.91-.34.02-.01.05-.02.07-.03Z"/>
        <g>
          <path class="cls-3" d="M896.54,184.6c-12.3.97-24.76.46-37.07.37-6.5-.04-13.01-.12-19.47-.1-2.58,0-5.12.14-7.73.05-1.99-.06-3.09-.58-4.81-1.89-1.24-.94-2.47-1.89-3.65-2.84-24.42-18.82-34.27-37.87-37.68-56.87-.85-3.89-1.58-7.78-2.46-11.66-.56-2.51-.89-5.42-2.06-7.66-1.55-3.14-6.48,4.17-7.97,6.37-.76,1.28-1.53,2.55-2.34,3.83-2.67,4.24-5.64,8.47-8.58,12.71-7.9,11.35-15.71,22.7-17.66,34.05-.89,5.19-.55,10.37,1.56,15.56,1.31,3.27,3.12,6.8,6.46,10.05.17.17.47.57.61.64-.38-.17-.47-2.26-.76-2.43-.06-.03-.51.13-.63.12-1.71-.15-3.3.05-4.89.07-4.37.05-8.81,0-13.2,0-9.4,0-18.76.02-28.12,0-1.63,0-3.24.09-5.03-.08-.35-.04-1.19-.3-1.47-.27.08,0,.49.18.56.27.47.65-.26-.29.29.27-2.1-2.12-3.96-4.26-5.32-6.38-3.36-5.23-4.34-10.45-3.65-15.68,3.23-24.57,43.32-49.14,46.16-73.7.92-7.98-2.11-15.97-11.53-23.95-.3-.25-.6-.52-.93-.78-2.73-2.16.96,3.17,2.07,3.31,1.25.13,2.25-.14,3.42-.13,2.13.03,4.23.03,6.32.03,5.85,0,11.64-.06,17.44-.09,6.01-.03,12.02-.06,18.07-.01,2.46.02,4.92.05,7.41.11.97.03,1.95.06,2.94.1,1.44.06,2.71.91,4.29,2.02,12.47,8.76,18.93,17.5,23.45,26.26,8.26,16.9,11.07,33.81,22.94,50.69.45.66.85,1.55,1.66,1.93,2.27,1.05,4.69-2.65,5.43-4.26,1.23-2.7,1.77-5.7,2.59-8.45,1.9-6.41,3.92-12.82,5.71-19.23,3.73-13.39,6.39-26.79,4.29-40.19-.38-2.45-.92-4.9-1.61-7.34-.29-1.02-.6-2.05-.93-3.06-.14-.45-.3-.91-.45-1.36-.09-.26-.6-1.76-.22-.65-.13,1.34-.3,2.67-.51,4.01.99-.78,2.61-.59,4.04-.54,2.1.07,4.15,0,6.22,0,4.6,0,9.19-.01,13.78,0,7.01.03,14,.06,20.96.16.04,0,1.1.28.6-.1-.32-.24-.03-.15-.05.38,0,.26,0,.53,0,.79,0,.68.01,1.37.02,2.05.02,1.59.04,3.19.06,4.79.06,4.59.1,9.18.1,13.77-.05,24.35-.94,48.71-1.19,73.07-.06,5.45-.1,10.9-.15,16.35-.02,2.03-.04,4.06-.08,6.1-.02.83-.04,1.67-.07,2.5-.01.35-.04.71-.05,1.06-.04,1.1.06-.7,0,.09.75-1.34,1.52-2.67,2.32-4.01-.02.01-.04.02-.07.03-1.72.83-2.43,3.32-2.38,4.97.04,1.31.74,3.06,2.35,2.21,2.87-1.5,2.67-6.34,2.83-9.18.16-2.69.25-5.38.32-8.08.21-7.66.25-15.33.26-22.99.01-18.29-.16-36.58-.24-54.87-.04-7.27-.08-14.55-.07-21.82,0-2.45.01-4.91.05-7.36.01-.96.07-1.92.04-2.87-.03-1.34-.09-2.88-1.11-3.84-.86-.81-2.12-.68-3.2-.74-5.7-.3-11.41-.14-17.09-.12-6.57.03-13.16,0-19.75,0-2.84,0-5.87-.2-8.62-.02-3.57.23-3.71,2.81-2.54,6.4,1.1,3.45,2.01,6.92,2.56,10.38,3.34,20.9-5.6,41.8-11.91,62.7-.56,1.82-1.07,4.31-1.71,5.82.66-.96,1.32-1.91,1.99-2.86-.08.07-.15.14-.23.22.74-.46,1.47-.92,2.21-1.38.53,0-.28-.94-.42-1.18-.19-.31-.38-.61-.57-.92-.5-.82-.99-1.65-1.46-2.47-1.22-2.12-2.36-4.25-3.42-6.37-2.84-5.66-5.14-11.32-7.4-16.97-5.34-13.01-9.9-26.03-25.03-39.04-3.02-2.58-6.49-5.16-10.52-7.74-4.02-2.65-9.76-6.22-13.7-6.39-7.37-.31-14.36-.26-21.36-.24-8.33.02-16.56.09-24.88.11-2.93,0-5.86.01-8.86-.02-1.47-.02-3.63-.25-3.77.51-.16,1.22,3.29,4.28,5.6,6.57,11.55,10.94,11.68,21.95,6.15,32.9-8.28,16.45-28.6,32.9-38.34,49.35-4.6,7.78-6.84,15.57-4.31,23.35,1.02,3.13,2.81,6.26,5.52,9.39,2.12,2.59,5.86,6.37,10.67,8.73,2.77,1.38,4.34,1.5,5.84,1.55,2.7.11,5.2.07,7.74.07,5.69,0,11.37-.01,17.07,0,6.04,0,12.07,0,18.12,0,4.27,0,9.31.84,6.81-3.5-1.33-2.55-3.72-5.34-5.35-8.08-1.52-2.55-2.59-5.09-3.27-7.63-1.84-6.91-.81-13.81,1.83-20.72,5.19-13.57,16.58-27.15,24.57-40.72.54-.93,1.08-1.86,1.59-2.78.2-.36.4-.73.6-1.1.35-.65,1.46-2.05-.06-.22-.88.83-1.79,1.67-2.71,2.5.06-.05.12-.09.19-.14-.49.23-.99.47-1.49.7-.7.12-.21-.06-.19.44,0,.17.07.33.1.48.04.19.08.39.12.58.11.58.23,1.15.33,1.73.26,1.37.49,2.75.73,4.12.65,3.78,1.29,7.56,2.13,11.35,2.11,9.63,5.81,19.26,13.1,28.88,6.94,9.29,17.24,18.56,30.35,27.78,2.31,1.64,4.87,3.63,7.45,5.07,3.52,1.96,7,1.22,9.8,1.2,5.59-.06,11.25,0,16.89.05,13.17.11,26.42.76,39.41-.33,2.62-.23,4.62-7.92,1.25-7.65Z"/>
          <path class="cls-3" d="M896.92,186.76c.59-5,.67-10.06.78-15.09.17-7.69.22-15.39.26-23.09.08-17.88.09-35.77.06-53.65-.02-6.9-.06-13.81-.07-20.71,0-2.18-.01-4.36.03-6.53.02-1.8.25-4.23-1.21-5.53-1.42-1.24-4.78-.76-6.5-.8-11.89-.27-23.96-.24-35.76.02-2.59.06-5.63-.52-6.59,1.65-.83,1.89.4,4.71,1.04,7.19,1.03,3.79,1.71,7.58,2,11.38,1.57,20.55-7.68,41.11-13.31,61.66-.48,1.69-.9,4.29-1.45,5.53.88-1.18,1.77-2.36,2.68-3.54-.07.06-.16.12-.24.18.67-.23,1.35-.45,2.02-.68-.55-.1-1.14-1.46-1.47-1.96-.51-.78-.99-1.56-1.47-2.34-1.23-1.99-2.37-3.99-3.44-5.99-3.06-5.7-5.51-11.39-7.78-17.08-5.23-12.78-9.05-25.56-21.55-38.34-2.97-3-6.44-6-10.61-9-2.18-1.57-4.55-3.14-7.13-4.71-2.59-1.59-5.73-3.43-8.3-3.83-3.2-.49-5.88-.15-8.59-.16-3.74-.01-7.45-.02-11.18-.02-7.84,0-15.66.02-23.5.03-3.14,0-6.28.01-9.44,0-1.15,0-2.3,0-3.37.05-2.43.13-1.27,1.79.88,4.27,1.8,2.07,4.26,4.4,5.87,6.56,1.81,2.39,3.1,4.78,3.94,7.17,2.24,6.37,1.27,12.73-1.6,19.1-7.41,16.4-27.48,32.81-37.86,49.22-4.79,7.58-7.52,15.15-5.98,22.73.68,3.34,2.18,6.67,4.7,10.01.97,1.28,2.09,2.57,3.37,3.85,1.57,1.6,3.62,3.64,6.35,5.11,3.27,1.77,5.59,1.88,7.4,1.94,2.49.08,4.76,0,7.13,0,5.91,0,11.82,0,17.74,0,5.58,0,11.18.01,16.75,0,1.77,0,4.02.22,5.14-.3,1.41-.65.37-2.75-.71-4.76-1.39-2.49-3.61-5.38-4.83-7.97-1.27-2.67-2.08-5.33-2.48-8-1.08-7.17.74-14.34,4.06-21.5,6.32-13.65,18.02-27.31,25.44-40.96.96-1.76,1.84-3.52,2.65-5.27-.67.99-1.36,1.99-2.09,2.99.1-.1.19-.21.29-.31-1.03.74-2.09,1.48-3.16,2.22-.4.07.02,1.14.09,1.48.13.56.26,1.13.38,1.69.3,1.39.56,2.77.82,4.16.7,3.78,1.31,7.57,2.08,11.36,1.92,9.7,5.08,19.41,11.73,29.1,6.39,9.46,16.15,18.91,28.91,28.31,2.51,1.86,5.12,3.71,7.83,5.55,3.73,2.52,6.62,2.22,9.76,2.17,5.58-.1,11.26-.02,16.92.02,7.6.06,15.2.14,22.78.11,3.37,0,6.73-.04,10.1-.12,1.33-.03,2.66-.08,3.99-.14,1.09-.05,2.45.05,3.42-.45,1.61-.83,2.38-3.32,2.4-4.97.01-1.31-.66-3.05-2.42-2.21.68-.32-.74-.11-.98-.1-.46.03-.93.05-1.39.07-1.34.06-2.68.1-4.01.14-3.11.08-6.21.11-9.31.12-7.05.03-14.11-.02-21.15-.08-6.39-.05-12.79-.11-19.15-.08-2.43.01-5.96.66-8.51-.25-1.28-.46-2.49-1.63-3.54-2.46-1.23-.98-2.44-1.95-3.61-2.93-23.5-18.86-32.34-37.9-35.73-56.9-1.41-6.48-2.52-13.02-4.85-19.42-.22-.62-.4-1.64-1.06-1.85-1.96-.66-4.95,3.86-5.97,5.53-.73,1.3-1.42,2.62-2.19,3.93-2.41,4.15-5.19,8.3-8.06,12.45-14.43,20.8-31.25,41.6-15.25,62.4.33.45,1.17,1.73,1.74,2.1-.16-.47-.3-.95-.42-1.43.04-1.31-.06-1.73-.47-1.28-.16-.05-.23.04-.37.04-.88.02-1.71.12-2.61.13-3.9.04-7.84.01-11.75.01-9.31,0-18.53.07-27.85,0-1.87-.01-3.65.08-5.58,0-.74-.03-1.64-.27-2.36-.31.87.05-.64-.1-.58-.21.08-.16,1.62,1.55.56.28-1.74-2.13-3.61-4.39-4.76-6.53-2.83-5.25-3.35-10.49-2.28-15.74,4.96-24.44,44.42-48.88,45.74-73.32.25-4.55-.83-9.1-3.68-13.64-1.05-1.67-2.34-3.35-3.9-5.03-.92-1.03-2.42-2.77-3.91-3.74.45.61.86,1.22,1.24,1.83.27,1.41.62,2.01,1.32,1.78.25.04.56-.03.78-.04.55-.03,1.1-.05,1.67-.05.88,0,1.77,0,2.65,0,2.26,0,4.52,0,6.77,0,5.89,0,11.75-.02,17.61-.03,5.51,0,11-.01,16.5.01,2.05,0,4.1.02,6.17.04,1.11.01,2.18.11,3.59.92,1.78,1.03,3.47,2.46,4.96,3.66,11.74,9.43,17.2,18.86,21.25,28.29,4.22,10.01,6.92,20.03,11.59,30.04,2.94,6.4,6.41,12.97,11.36,19.22.96,1.21,2.08,1.67,3.77.33,2.21-1.75,2.91-4.24,3.5-6.54.68-2.64,1.39-5.28,2.14-7.93,1.87-6.63,3.93-13.26,5.76-19.88,3.63-13.14,6.27-26.29,4.46-39.43-.59-4.31-1.7-8.64-3.17-12.94.07,1.5.07,3,.02,4.51.62-.8,3.17-.22,4.21-.23,1.86-.01,3.72-.04,5.58-.04,4.27,0,8.55-.01,12.81.01,3.62.02,7.21-.04,10.81-.04,1.72,0,3.45,0,5.18.05,1.16.03,2.92-.23,4.03.23.25.11,0-.93.09.23.01.1,0,.21,0,.31,0,.28,0,.56,0,.84,0,.65.02,1.31.02,1.96.03,1.65.05,3.3.08,4.95.06,4.46.09,8.92.08,13.37-.11,23.76-1.24,47.52-1.55,71.28-.08,5.35-.11,10.69-.16,16.04-.02,1.95-.03,3.9-.07,5.85-.02.77-.04,1.54-.06,2.32-.01.36-.04.72-.05,1.08-.03.91.07-.97-.01.11-.1,1.14-.08,3.56,1.74,3.41,1.65-.13,2.73-3,2.89-4.24Z"/>
        </g>
      </g>
      <g>
        <path class="cls-3" d="M482.92,188.42c.05.56-8.36.27-11.49.34-12.51-.14-27.48.29-38.92-.18-1.87-.25-3.44-1.1-5.43-2.31-4.83-3.43-17.49-11.74-14.94-22.5.97-10.75,17.13-23.95,33.36-37.17,16.21-13.21,32.51-26.44,33.66-37.25,2.71-10.81-9.73-19.21-14.86-22.76-5.66-3.16-1.97-2.52,1.42-2.62,10.48.02,30.41-.01,39.78,0,2.92,0,4.81-.01,6.23.18.99.14,1.83.39,2.84.86,3.9,3.08,18.02,10.48,18.2,20.28,1.63,9.8-10.69,22-26.26,34.71-15.32,12.71-33.91,25.91-39.28,37.72-6.33,11.81.55,22.22,14.06,29.32.97.6,1.69,1.06,1.65,1.34,0,.01,0,.02-.01.03ZM479.55,187.18c.09-.28-.58-.75-1.49-1.36-11.92-6.74-18.2-16.8-11.94-28.28,5.34-11.47,23.21-24.36,38.26-36.76,15.26-12.4,27.71-24.31,27.2-33.83.84-9.52-11.29-16.65-14-19.48-5.15-3.26-6.8-1.98-10.78-2.29-8.86-.02-28.11,0-37.98,0-3.45.11-6.55-.46-1.18,2.79,4.87,3.62,15.76,11.86,12.52,22.41-1.81,10.55-17.73,23.39-33.54,36.23-15.8,12.83-31.52,25.66-33.11,36.14-3.03,10.49,8.05,18.64,12.65,22.15,1.8,1.19,3.32,2.12,5.18,2.43,10.99.59,24.98.06,37.05.23,3.13-.05,11.15.2,11.15-.35,0-.01.01-.02.02-.03Z"/>
        <g>
          <path class="cls-3" d="M477.1,184.83c.24-.3-.5-.02-.73,0-.57.06-1.2.08-1.84.09-1.76.04-3.61.02-5.45,0-3.85-.03-7.67-.03-11.45-.02-8.97.02-17.68.19-26.97-.03-.95-.02-1.83.04-2.93-.09-.38-.05-.65-.04-1.2-.23-.25-.08.94.47.57.26-.73-.41-1.52-1.06-2.09-1.49-1.86-1.39-3.44-2.78-4.79-4.16-3.88-4.01-5.71-8-5.97-12.01-1.51-23.53,51.46-47.06,64.5-70.59,4.99-9,4.14-18-7.83-27-1.64-1.23-3.47-2.46-5.55-3.69-.38-.22-.75-.44-1.14-.67-5.38-3.05,4.6,2.84,2.98,2.75.21.02.52-.09.68-.11,1.52-.17,3.53-.05,5.31-.05,7.71,0,15.37,0,23.03,0,3.59,0,7.18,0,10.77,0,1.42,0,2.84,0,4.26,0,1.05,0,2.09,0,3.15.01.61,0,2,.26,2.42.14.22.04.45.09.67.13-.84-.52-1.72-1.04-2.64-1.56.17.12.46.27.65.4.38.24.8.5,1.18.75.98.63,1.9,1.27,2.76,1.9,2.23,1.64,4.07,3.29,5.57,4.93,9.67,10.6,5.07,21.21-5.01,31.81-24.16,25.41-79.92,50.83-47.65,76.24,1.37,1.08,2.9,2.16,4.59,3.23.71.45,1.45.9,2.22,1.35,4.7,2.71-2.76-1.66-2.08-2.31-1.69,1.06,12.39,8.73,12.95,7.18-.39-1.58-9.75-6.47-13.32-9.62-3.19-2.54-5.5-5.08-7.05-7.62-3.71-6.07-3.1-12.14.2-18.21,7.74-14.22,30.25-28.44,46.61-42.66,14.19-12.33,23.77-24.66,15.02-36.99-2.64-3.72-6.94-7.45-13.35-11.17-3.5-2.1-8.97-4.78-12.98-5.39-2.17-.34-3.46-.2-4.91-.21-1.87,0-3.72,0-5.58,0-8.16,0-16.3,0-24.47,0-3.61,0-7.23,0-10.85,0-1.69,0-4.13-.23-4.89.16-.97.5,1.92,2.41,4.77,4.38,3.4,2.4,5.44,3.53,8.49,5.93,1.92,1.55,3.5,3.11,4.8,4.66,3.84,4.62,5.05,9.25,4.34,13.87-3.82,24.86-63.17,49.72-66.91,74.58-1.17,7.8,3.05,15.61,16.33,23.41,2.33,1.39,5.3,2.97,8.64,4.14,4.36,1.52,5.92,1.18,7.66,1.22,4.82.13,9.35.14,13.85.13,8.83-.02,17.56-.09,26.59-.04,2.64.02,6.98.5,7.02-.58-.91-1.02-12.35-8.68-12.95-7.18Z"/>
          <path class="cls-3" d="M486.21,190.77c-1.61-2.27-8.38-6.14-12.23-9.66-2.77-2.44-4.76-4.87-6.06-7.31-3.12-5.84-2.34-11.69.92-17.54,7.63-13.68,28.79-27.37,44.87-41.06,14.14-12.04,24.35-24.08,17.91-36.13-1.93-3.61-5.34-7.21-10.59-10.81-2.58-1.8-6.17-4.02-10.32-5.53-3.31-1.21-5.03-1.36-6.47-1.39-1.85-.04-3.57,0-5.37,0-7.59,0-15.16,0-22.74,0-3.82,0-7.64,0-11.46,0-2.96,0-8.4-.76-5.86,1.57,3.55,3.27,11.71,8.19,15.06,12.52,3.52,4.3,4.76,8.59,4.32,12.89-2.54,24.4-59.77,48.8-66.58,73.2-2.24,8.02.93,16.04,13.36,24.06,1.84,1.19,4.01,2.5,6.59,3.62,4.9,2.11,6.75,1.96,8.78,2.04,4.76.18,9.16.19,13.51.18,8.54-.03,17.01-.08,25.72-.04,2.55.01,6.52.43,6.65-.62-.79-1.03-11.31-8.7-12.06-7.18.15-.18-.12,0-.5.02-.57.04-1.12.09-1.72.11-1.57.05-3.24.04-4.89.03-3.72-.02-7.43-.05-11.1-.04-8.73.02-17.16.25-26.28-.05-.93-.03-1.81.06-2.92-.12-.85-.14.11.22-.65-.28-.76-.49-1.45-1.13-2.04-1.63-1.66-1.4-3.05-2.81-4.21-4.21-3.32-4.04-4.63-8.08-4.41-12.11,1.28-23.23,53.24-46.46,65.04-69.69,4.35-8.55,3.25-17.1-7.82-25.65-1.45-1.12-3.05-2.25-4.9-3.38-4.97-3.05,3.61,2.91,2.33,2.65-.07-.02.61-.15.57-.15.7,0,1.35-.06,2.05-.07,1.64-.01,3.29-.02,4.94-.02,7.52,0,15.01,0,22.49,0,3.33,0,6.67,0,10,0,1.48,0,3.05.07,4.47.03.66-.02,1.26-.09,2.06,0,.28.03.92.22,1.12.19.18.08.37.15.54.23-1-.65-1.3-.81-.84-.49,3.36,2.61,6.52,5.42,8.33,8.03,7.19,10.31,1.66,20.61-8.65,30.92-24.41,24.41-75.57,48.83-47.7,73.24,1.22,1.06,2.57,2.12,4.09,3.18.7.49,1.44.98,2.21,1.47.29.19.59.38.9.57,3.38,1.94-2.72-.84-2.54-2.79-.09,1.08,2.22,3.15,5.58,4.98,1.94,1.11,7.2,3.3,6.48,2.21Z"/>
        </g>
      </g>
      <g>
        <path class="cls-3" d="M406.96,186.27c3.49,2.52.33,2.36-1.77,2.48-8.57.03-25.01.02-33.8,0-4.29.09-10.95-.81-19.44-5.94-16.17-9.28-15.69-21.91-22.44-26.26-7.58-4.89-20.75-3.08-32.61-3.45-6.24.25-11.8-1.49-14.68,7.19-2.77,6,.34,16.65,7.15,22.18,3.99,3.78,6.46,5.44,5.16,5.95-9.51.86-29.67.09-39.62.34-4.55-.32-7.75,1.14-12.1-2.63-10.57-5.32-16.17-22.45-1.14-42.22,11.94-19.77,44.52-42.19,38.91-58.08-.57-10.91-8.15-16.49-12.73-21.09-.45-1,1.61-.66,2.86-.77,12.84.01,55.31-.02,76.7,0,13.64.24,28.01.07,45.96,1.98,17.44,1.91,38.47,5.89,53.47,14.43,21.12,10.43,2.17,32.56-25.54,46.93-4.56,2.59-9.17,4.98-13.68,7.12-8.35,4.18-15.75,5.99-20.35,10.37-2.94,3.74-.41,6.15-.36,9.23.69,5.26-.32,12.49,4.8,19.49,2.67,4.1,8.86,8.55,15.03,12.59.07.05.14.1.21.15ZM403.28,185.07c-3.48-2.62-8.26-6-10.69-8.81-6.91-7.26-6.35-14.85-7.02-20.15.22-4.34-4.31-6.55-1.07-11.32,4.57-4.41,12.62-6.27,20.87-10.22,4.93-2.23,10.02-4.78,15.06-7.62,13.46-7.54,27.35-17.66,31.92-26.26,9.32-18.59-19.31-27.31-42.54-31.47-25.09-4.16-44.77-3.74-60.49-4.03-21.09,0-62.91,0-75.6,0-1.33.08-3.19-.2-2.98.73,3.96,4.38,11.16,9.97,11.31,20.67,4.79,15.54-26.7,37.47-38.76,56.84-14.96,19.37-10.49,36.18-.59,41.47,4.13,3.78,6.99,2.34,11.26,2.67,9.17-.26,28.89.58,37.67-.39,1.28-.56-1.18-2.32-4.84-6.2-6.01-5.48-8.21-15.64-5.38-21.57,3.33-8.92,8.29-7.27,14.91-7.5,12.46.38,26.13-1.48,33.97,3.39,7.07,4.3,5.7,16.65,20.93,26.25,7.83,5.13,14.44,6.09,18.71,5.99,8.23.02,23.23.03,31.23,0,2.11-.11,5.09.02,2.3-2.32-.06-.05-.12-.1-.18-.15ZM314.38,121.46c.11-.97,2.09-2.92,4.99-5.88,4-4.04,8.51-9.12,11.28-13.3,2.93-4.16,3.72-7.93,9.68-7.7,14,.01,27.56-.41,41.02.53,6.11.69,12.96,1.35,15.65,5.23,3.96,6.65-13.07,17.34-24.97,19.5-17.2,3.53-26.27,2.44-41.17,2.74-4.35,0-9.58.08-13.65,0-1.83-.07-2.86-.29-2.84-1,0-.04,0-.07,0-.11ZM316.86,120.36c.04.94,1.61.93,2.94,1.01,4.45.07,13.13-.02,18.38-.01,8.94,0,18.53-.07,29.5-1.69,6.53-1.09,10.72-1.95,16.18-4.43,6.39-3.02,11.9-8.44,11.97-12.06-.92-6.81-12.29-6.47-20.47-7.21-7.74-.34-16.75-.2-26.24-.23-3.96.36-9.61-1.01-13.26,1.43-1.3,1.09-2.14,2.53-3.08,3.89-2.25,3.62-7.33,9.7-11.43,13.78-2.59,2.68-4.35,4.47-4.48,5.4,0,.04,0,.08-.01.11Z"/>
        <g>
          <path class="cls-3" d="M404.12,185.66c-2.08-1.82-.68-1.25-1.73-.97-.43.12-1,.15-1.56.18-1.15.07-2.41.06-3.65.06-2.82,0-5.64,0-8.46,0-6.2,0-12.4,0-18.59,0-4.62,0-10.71.76-19.07-4.81-7.42-5.26-10.5-10.85-12.3-15.97-1.88-5.3-2.67-9.5-6.49-11.8-4.65-2.88-11.76-3.13-18.88-3.11-6.34.02-12.55-.24-19.06.07-2.11.1-4.49.63-7,2.19-3.49,2.16-6.1,5.48-7.12,8.46-2.15,6.05-1.23,12.18,3.26,18.24,1.02,1.37,2.23,2.75,3.64,4.12.52.51,1.08,1.01,1.65,1.52.5.46,1.91,1.87,2.66,2.28-.87-.49-1.44-1.69-1.23-1.64-.37-.09-.95.16-1.22.18-1.26.09-2.56.16-3.88.2-11.31.4-23.4.24-35.35.01-1.93-.04-3.91.65-6.81-.55.48.2.62.57.02-.06-.22-.23-.48-.47-.71-.7-.59-.6-1.15-1.19-1.66-1.79-2.94-3.39-4.77-6.77-5.69-10.15-2.83-10.43,2.96-20.86,11.4-31.29,19.06-23.54,51.69-47.09,29.07-70.63-1.03-1.07-2.16-2.15-3.36-3.22-.23-.21-1.36-1.21-1.09-.96.18.14-1.03-.93-1.35-1.21.98,1.18,1.8,2.36,2.48,3.54.03-.47,3.37-.07,4.29-.06,1.47,0,2.94,0,4.41,0,3.72,0,7.43,0,11.14,0,9.43,0,18.82,0,28.19,0,18.47,0,36.54-.23,55.67.43,19.03.69,47.63,2.66,68.32,14.28,20.64,10.09.91,32.65-28.11,46.36-4.39,2.25-8.65,4.17-12.82,5.9-4.17,1.72-8.17,3.4-12.17,5.85-4.22,2.59-8.12,5.78-9.19,8.57-.88,2.31-.12,3.97.58,5.68,1.7,4.06,1.76,9.37,4.54,15.02,1.49,3.05,3.72,6.16,7.35,9.21,1.86,1.56,4.05,3.12,6.5,4.7,1.02.66,2.11,1.33,3.2,1.99.57.36,2.2,1.38,1.55.92,1.51,1.14,6.13,3.55,7.59,3.41,1.29-.14-3.11-2.99-4.65-4.24-4.05-2.99-8.64-6.37-11.45-9.27-3.26-3.29-5.03-6.61-5.89-9.92-1.65-6.15.11-12.26.03-17.12-.03-1.98-.99-3.48-.14-5.72.07-.18.26-.45.29-.6.09-.15.18-.3.28-.45-.48.42-.95.84-1.41,1.27-.08.28-.57.2.17,0,.53-.15,1.83-.91,2.48-1.21,1.06-.49,2.13-.95,3.2-1.42,8.99-3.94,18.99-9,28.76-14.8,17.6-10.45,33.33-22.42,34.11-33.3.52-5.01-2.37-9.86-7.9-13.78-5.58-3.97-13.54-6.95-21.26-9.32-36.27-10.48-63.35-9.68-85.8-10.02-21.57-.32-42.03-.04-63.08-.04-4.02,0-8.05,0-12.08,0-1.63,0-3.48-.1-4.87.04-2.91.3.9,3.49,3.84,6.49,4.79,4.71,8.32,9.49,9.69,14.22,1.57,5.39.71,10.78-1.51,16.17-8.84,21.42-40.9,42.83-45.36,64.25-1.56,7.51.26,15.01,7.67,22.52,2.4,2.62,7.38,6.84,12.46,8.23,3.66,1.04,5.55.47,7.7.47,2.46,0,4.91,0,7.37,0,11.29,0,23.64.53,33.58-.21,4.75-.39-7.11-7.82-10.32-12.53-4.79-5.64-6.26-11.28-5.28-16.92.2-1.17.53-2.35.92-3.52.22-.63.41-1.26.71-1.88.25-.52.62-.94,0-.17-.27.34-.54.41-.4.43.1,0,.69-.31.84-.37.99-.33,2.01-.37,2.92-.41,5.71-.24,11.26,0,16.93-.05,6.57-.07,13.14.02,18.56,2.21,4.56,1.79,6.98,5.01,10.38,10.04,3.22,4.67,7.84,9.8,16.11,14.76,3.85,2.35,8.86,4.79,13.92,6.38,4.9,1.55,8.43,2.09,11.15,2.23,5.79.3,10.5.06,15.66.06,5.74,0,11.47,0,17.19,0,2.1,0,4.55.12,5.99-.18,2.15-.44-.99-2.64-4.75-5.52-1.61-1.13-4.93-3.86-7.04-4.42-2.29-.56.02,2.19,1.32,3.18Z"/>
          <path class="cls-3" d="M404.8,184.65c-4.63-3.58-8.54-6.86-11.24-10.34-2.71-3.52-3.96-7.05-4.36-10.52-.7-5.84.97-11.43-.26-15.37-.49-1.56-1.4-3.08-.32-5.29.05-.1.5-.86.53-.86.12-.03-2.25,2.02-2.31,2.12-.37.42-.93.46.21-.07.24-.11.49-.24.73-.37,1.89-.96,3.81-1.69,5.71-2.48,9.73-4.03,20.64-9.41,31.33-15.79,18.93-11.18,36.21-25.19,32.3-36.37-2.22-7.69-12.94-13.46-24.76-17.45-26.94-8.67-51.41-9.69-69.58-10.2-20.62-.55-39.78-.32-59.45-.32-9.95,0-19.91,0-29.89,0-1.59,0-3.2,0-4.76,0-1.51.01-2.74.05-2.66.95.12,1.17,2.14,3.12,3.88,4.99,4.57,4.82,8.05,9.78,9.2,14.63,5.33,22.39-28.39,44.79-42.15,67.19-5.71,9.28-8.03,18.56-2.8,27.84,1.55,2.74,3.74,5.48,6.71,8.21,1.91,1.79,4.54,3.92,7.88,5.22,3.97,1.54,6.12.95,8.11.93,10.95-.1,22.86.35,33.53.06,2.21-.06,5.2.12,6.59-.39,1.6-.61-1.99-3.65-4.38-6.15-2.81-2.8-5.57-5.74-7.3-8.62-1.77-2.93-2.7-5.86-2.91-8.79-.2-2.91.31-5.82,1.38-8.72.17-.59.97-3,1.5-3.24-.06.03-.81.88-.9,1.01-.2.28.18-.05.08-.05-.16,0,.4-.19.53-.23,1.73-.61,3.64-.48,5.23-.47,2.82.02,5.65.05,8.5.04,7.03-.04,14.36-.48,20.79.67,5.37.94,9.82,2.84,12.97,7.58,2.83,4.15,5.72,9.48,11.92,14.58,5.36,4.82,16.08,10.51,25.1,12.17,3.84.73,6.14.58,8.62.59,2.68,0,5.37,0,8.05.01,5.97,0,11.94,0,17.88,0,5.49-.01,10.42.38,2.05-5.69-1.56-1.16-4.44-3.85-6.54-4.42-2.17-.54-.28,2.17.97,3.18.35.33-1.23-1.49-1.05-1.42.08.04-.11.3-.23.31-.55.06-.91.24-1.48.29-1.08.1-2.3.09-3.51.09-2.81.01-5.62.01-8.42.02-6.06,0-12.11,0-18.16-.01-2.49,0-4.81.2-8.22-.6-3.77-.89-7.4-2.91-10.33-5.5-6.13-5.33-8.42-10.85-9.87-15.8-1.52-5.25-2.61-9.01-6.67-11.09-4.79-2.51-11.79-2.74-18.83-2.71-6.42.02-12.72-.1-19.2.06-1.81.05-3.82.28-6.1,1.39-3.36,1.63-6.33,4.55-7.92,7.24-1.73,2.85-2.31,5.86-2.42,8.73-.13,3.2.57,6.4,2.25,9.6,1.49,2.85,3.96,5.74,6.98,8.58-.47-.44.51.5.7.64,1.23.97.32.4.26.24-.05-.08-1.14-1.54-.72-1.35-.04-.02-.07.19-.15.18-1.26-.15-2.24.2-3.28.25-10.62.59-22.42.15-33.61.12-2.28,0-4.43.11-7.08-.32-1.1-.18-.24-.14-.49-.26-.06-.03.71.59.26.2-.24-.2-.44-.46-.64-.67-.5-.54-.97-1.08-1.42-1.62-2.69-3.25-4.36-6.51-5.19-9.76-2.61-10.21,3.03-20.42,11.28-30.63,18.8-23.27,51.18-46.53,30.53-69.79-2.08-2.29-3.52-3.59-5.35-5.38.89,1.34,1.56,2.67,2.06,4.01.34-.95,3.47-.49,5.11-.49,1.6,0,3.21,0,4.82,0,4.3,0,8.59,0,12.87,0,10.5,0,20.97,0,31.4,0,16.97,0,33.6-.22,51.31.55,16.59.74,38.25,2.44,56.91,10.41,7.9,3.51,14.23,8.63,14.11,15.1.35,8.77-12.83,20.4-28.17,29.15-4.54,2.63-9.1,4.9-13.67,6.98-4.01,1.82-7.66,3.17-11.46,4.71-8.15,3.3-18.19,9.11-18.9,14.3-.46,3.9,2.62,5.91,3.57,9.9,1.31,5.16,2.58,11.48,8.71,17.37,2.37,2.4,7.16,5.54,10.63,8,1.46,1.14,5.66,3.56,7.18,3.41,1.24-.13-2.65-2.99-4.15-4.24Z"/>
          <path class="cls-3" d="M319.74,117.96c.29-1.24,3.76-4.19,5.1-5.65,2.74-2.94,5.24-5.88,7.35-8.82.47-.42,4.19-5.99,3.82-6.1.12.06-.66.79-.71.84-.1.09-.2.18-.3.26-.8.48-.88.56-.23.24.27.01.94-.22,1.24-.26.93-.12,1.78-.07,2.65-.07,13.46.04,27.51-.71,40.04.57,5.14.53,10.84,1.18,13.4,4.05.98,1.11,1.26,2.75.18,4.74-.34.63-.77,1.25-1.4,1.93-.84.9.2-.11-.83.78-.59.49-.7.58-.31.26-.65.47-.76.56-.34.26-4.99,3.4-10.59,4.71-15.04,5.55-6.83,1.28-13.02,1.86-18.78,2.05-6.8.22-13.25.11-19.87.16-3.29.03-6.55.04-9.81.03-1.82,0-6.23.61-6.16-.82.11-2.11-10.52,5.04-10.76,7-.18,1.76,3.13,1.45,5.33,1.47,3.29.03,6.66-.01,9.99-.02,6.81-.02,13.54.06,20.56-.14,6.71-.19,14.02-.92,22.37-2.66,6.71-1.41,15.12-4.96,22.5-9.81,7.5-4.91,12.81-10.63,11.97-15.01-1-4.97-8.33-6.32-14.1-7.06-7.41-.93-15.23-1.01-23-1.05-4.1-.02-8.23,0-12.36.04-3.77.02-7.71-.32-11.55.08-6.77.74-9.87,8.8-14.06,13.83-2.74,3.7-6.08,7.4-9.71,11.11-2.9,2.97-7.24,6.75-7.93,9.24-.39,1.39,3.97-1.09,5.23-1.89,2.22-1.42,5.22-3.71,5.53-5.1Z"/>
          <path class="cls-3" d="M311.46,123.86c.45,1.64,3.55,1.35,6.16,1.37,2.78,0,5.6,0,8.41-.02,6.46-.03,12.79.06,19.49-.19,7.23-.27,14.99-.74,24.14-2.86,7.73-1.81,16.6-5.79,23.71-11.77,7.07-5.96,8.24-11.15,4.34-14.23-3.5-2.77-9.34-3.25-14.71-3.62-6.42-.45-12.93-.61-19.55-.62-6.49,0-13.01-.23-19.59-.05-3.32.09-6.36,1.05-9.12,3.96-3.04,3.17-5.17,6.74-7.91,10.19-2.61,3.32-5.65,6.64-8.91,9.95-2.44,2.49-6.24,5.93-6.47,7.9-.26,2.11,10.68-5.02,10.73-7,.06-.96,2.77-3.32,3.87-4.51,2.36-2.52,4.53-5.04,6.44-7.56.9-1.19,1.74-2.39,2.53-3.58.33-.51.65-1.02.97-1.53.13-.2.25-.39.37-.58.46-.68.5-.78.14-.29-.59.48-1.18.97-1.79,1.45.27-.13.54-.23.8-.3.53-.08,1.1-.23,1.63-.3,1.17-.15,2.29-.15,3.38-.14,11.23.18,22.91-.34,33.62.44,4.51.33,9.24.5,12.83,1.83,3.17,1.19,6.23,3.74,2.27,8.27-3.02,3.39-9.18,4.43-12.49,5.07-7.47,1.44-14.14,1.95-20.46,2.21-6.54.27-12.71.19-19.01.22-2.72.01-5.45.03-8.16.03-2.13,0-6.48.61-6.93-.71-.63-1.88-11.11,5.43-10.73,7Z"/>
        </g>
      </g>
      <g>
        <path class="cls-3" d="M245.13,87.25c-10.02-11.07-30.01-17.64-47.85-21.36-18.36-3.73-34.58-4.62-49.06-4.35-21.38.24-39.42,4.3-55.42,13.73-15.52,9.43-29,24.24-30.14,45.99-.66,26,5.06,43.71,20.44,54.84,14.81,11.13,39.28,15.67,62.84,15.35h.37c16.86-.08,31.15-2.04,39.87-7.96,9.5-5.92,13.45-15.79,27.64-31.7,18.19-20.36,49.62-48.24,31.3-64.53ZM212.2,152.27c-13.67,15.31-18.07,24.74-27.66,30.37-8.87,5.63-22.93,7.46-39.17,7.59h-.37c-22.74.36-46.51-4.08-61.06-14.96-15.08-10.88-20.94-28.22-20.05-53.66,5.28-42.93,45.24-58.41,85.23-58.87,14.5-.24,30.65.59,48.75,4.27,17.59,3.68,37.12,10.21,46.54,21.36,16.94,16.24-14.48,43.94-32.2,63.91Z"/>
        <g>
          <path class="cls-3" d="M246.82,83.75c-15.35-14.18-45.32-21.07-65.74-23.99-10.95-1.5-20.78-2.06-30.01-2.09-8.74-.03-17,.33-24.86,1.61-13.85,2.27-27.47,7.3-40.55,17.16-13.41,10.14-22.87,25-24.77,40.76-2.04,15.96.19,32.83,7.24,46.6,6.16,11.91,17.4,19.97,31.54,24.73,15.92,5.41,33.9,6.86,49.39,6.75,17.77-.13,32.97-1.94,41.34-9.13,8.24-7.08,12.06-20.2,27.61-36.9,15.21-17.4,40.12-38.13,35.42-54.76-.9-3.84-3.17-7.47-6.62-10.73-2.12-2.15-5.15,4.91-3.87,7,11.36,12.98-3.75,31.79-19.54,48.25-15.29,15.77-24.73,28.71-33.5,36.64-9.26,8.23-21.85,10.91-36.92,11.72-13.92.77-29.67.19-44.73-3.74-12.95-3.38-24.74-9.31-32.34-19.26-7.91-10.4-11.36-24.17-11.24-38.21.13-14.51,4.7-28.28,16.62-38.84,11.5-10.21,25.75-15.87,39.44-18.87,16.25-3.56,33.54-3.9,52.2-2.44,18.43,1.49,42.57,5.5,60.13,16.08,4.08,2.55,7.48,5.46,9.88,8.67,1.71,2.15,6.37-4.88,3.87-7Z"/>
          <path class="cls-3" d="M211.61,150.67c-14.46,15.62-20.81,24.59-31.95,29.63-10.37,5.05-25.55,6.17-39.67,6.12-25.17-.1-57.97-6.67-68.38-31.25-5.8-12.5-7.39-28.03-4.16-42.2,2.91-13.08,11.99-24.34,24.57-31.99,13.51-8.2,28.14-11.95,42.91-13.52,16.88-1.8,35.18-1.48,54.92,1.62,19.22,3.11,42.83,9.81,52.39,23,10.05,12.93-5.08,31.28-20.42,47.39-3.51,3.83-6.96,7.61-10.2,11.2-1.2,1.3-3.21,3.92-2.46,5.1.71,1.15,2.85-.9,3.69-1.89,13.62-17.17,39.82-37.58,39.64-54.99.49-16.7-25.41-28.06-48.32-33.77-23.47-5.75-42.93-6.64-60.19-6.16-15.84.44-29.92,3.06-44.15,10.15-12.9,6.5-25.68,17.24-32.38,30.98-7.61,15.44-7.6,33.88-3.52,49.8,3.5,13.41,10.67,24.18,22.49,31.33,12.57,7.69,29.5,11.09,44.96,12.31,17.79,1.38,35.24.78,47.09-3.07,12.27-3.75,16.42-11.52,25.54-25.11,2.48-3.56,5.4-7.45,8.84-11.47,1.05-1.28,3.24-3.94,2.76-5.1-.5-1.16-3.1.92-3.99,1.89Z"/>
        </g>
      </g>
    </g>
    <g>
      <g>
        <path class="cls-2" d="M150.94,106.71c-.12.05-.06.27.22.29.07-.1.13-.2.19-.3-.11,0-.23.02-.4,0Z"/>
        <path class="cls-2" d="M152.77,107.35c.26-.22.41-.62.08-.84-.09.39-.21.27-.38.71-.25.07-.48-.05-.46-.18-.08.07-.39-.07-.52.11.34.3.87.31,1.22-.01.12.05.07.15.07.22Z"/>
        <path class="cls-2" d="M164.47,112.54c.03-.06.05-.11.08-.17-.03.04-.06.1-.08.17Z"/>
        <path class="cls-2" d="M166.72,126.39c-.08-.07-.14-.08-.17-.06.09.06.16.1.17.06Z"/>
        <path class="cls-2" d="M168.15,128.43s-.06-.08-.09-.12c.01.06.04.12.09.12Z"/>
        <path class="cls-2" d="M164.47,112.54c-.07.14-.14.29-.21.43.08.04.13-.22.21-.43Z"/>
        <path class="cls-2" d="M154.94,104.98c-.04.07-.06.14-.06.21.03-.05.07-.11.1-.16-.01-.02-.02-.03-.04-.05Z"/>
        <path class="cls-2" d="M164.65,105.33s-.02-.09-.03-.13c-.04-.04-.09-.08-.14-.11.06.08.12.16.18.24Z"/>
        <path class="cls-2" d="M161.81,101.47c.08.03-.02-.25-.03-.36,0,.1-.05.15-.12.16.03.05.08.12.14.21Z"/>
        <path class="cls-2" d="M156.65,105.11s-.04.09-.05.13c.02-.03.04-.09.05-.13Z"/>
        <path class="cls-2" d="M164.82,109.24s-.07.02-.09.04c.03,0,.06-.01.09-.04Z"/>
        <path class="cls-2" d="M144.6,102.61s0,.03-.02.04c.05,0,.07,0,.02-.04Z"/>
        <path class="cls-2" d="M150.85,107.42s-.07-.01-.1-.02c-.02.05-.05.09-.06.14.05-.04.11-.08.16-.12Z"/>
        <path class="cls-2" d="M171.57,131.94s0-.01-.01-.02c-.13-.06-.07-.02.01.02Z"/>
        <path class="cls-2" d="M142.24,151.06c.33.53-1.01-.63-.45.15,0-.05.25.07.42.11.08.02.12,0,.15-.03.04-.02,0-.09-.12-.23Z"/>
        <path class="cls-2" d="M155.06,104.92s.08-.09.12-.14c-.07.06-.1.1-.12.14Z"/>
        <path class="cls-2" d="M141.78,151.21h0s.04.06.06.08c-.03-.03-.04-.05-.06-.08Z"/>
        <path class="cls-2" d="M167.2,134.78c.01.05.06.09.11.13,0-.03-.02-.07-.11-.13Z"/>
        <path class="cls-2" d="M174.19,133.55c.02.06.05.12.07.18-.02-.07-.04-.13-.07-.18Z"/>
        <path class="cls-2" d="M161.69,134.68c-.13-.04-.16-.08-.36-.06.01.02.02.03.04.04.08-.03.18-.04.32.02Z"/>
        <path class="cls-2" d="M156.2,134.34s.04.04.02.06c0,0,0,0,0,0,.04,0,.08-.01.11-.02-.2,0-.04-.02-.15-.03Z"/>
        <path class="cls-2" d="M131.95,103.56c.04-.12.11-.21.18-.28-.19.12-.64-.59-.18.28Z"/>
        <path class="cls-2" d="M155.08,105.1c-.05-.07-.05-.12-.02-.18-.03.04-.05.07-.08.11.03.04.06.07.1.07Z"/>
        <path class="cls-2" d="M160.58,136.85c-.29-.04-.58-.09-.86-.13.23.05.55.1.86.13Z"/>
        <path class="cls-2" d="M125.47,131.2c-.05,0-.1,0-.15-.01.05.02.1.03.15.01Z"/>
        <path class="cls-2" d="M157.19,136.54c-.11-.11-.25-.18-.38-.22-.04.02-.08.04-.11.07.16.05.33.1.5.15Z"/>
        <path class="cls-2" d="M132.14,103.28s0,0,0,0c0,0,0,0,0,0Z"/>
        <path class="cls-2" d="M131.63,97.31c-.64.08-.65.28-.56.37.09.11.31.22.31.35-.39.37-.53.43-.64.4-.13-.04-.26-.2-.44-.06-.17.39.07.91.14,1.28.12.37.33.62.37.89-.06.03-.06.14-.18,0,.28.39.48.86.7,1.35.25.46.49.97.88,1.25-.01.06-.04.09-.06.11.16-.15.37-.2.53-.21.18.32.59.55.37.72-.1-.2-.22-.19-.36-.27.1.1.2.21.3.31-.24.39-.38-.43-.68-.38.48.65,1.23,1.33,1.38,1.85-.34.2-.76-1.14-.76-.39-.08-.27-.17-.54-.26-.82-.32.73-.2-.49-.59.2.42,1.08.81,1.12,1.22,2.16.35.17.3-.16.64.01,1.14,1.31-.46,1.38.58,2.27.4.19.98.16,1.01.96-.19-.04-.38-.08-.57-.12.34.96.91.38.98,1.45-.25-.12-.45-.7-.45-.54-.12.75.45.38.62.87-.13.07-.26.14-.38.21.39.95.94,1.93.79,2.94-.11-.06-.21-.22-.38,0-.02.48-.25.98-.64,1.41-.03.04-.06.09-.09.13-.37.48-1.32,1.05-2.16,1.48-.12.19-.23.37-.35.56-.13.08-.32.05-.22-.08-.63.26.08.16-.12.41-.31.22-.53.13-.37-.06-.86.8-2.67,2.12-3.92,2.5.05-.06.11-.13.16-.19-.91.4-.63,1.03-1.54,1.28.04-.04.08-.09.12-.13-.93.5-1.81,1.12-2.61,1.75-.8.63-1.49,1.23-2.14,1.84.1.25-.24.66-.41,1.25-.18.58-.09,1.26.2,1.26.03.74.14,1.06.29,1.38.13.28.33.64.92,1.14.32.23.64-.05,1.04.05-.04.1-.07.2-.11.3.22-.03.41-.07.62-.1.05.15.09.3.14.46.13.02.25.04.38.05-.14-.06-.25-.24-.2-.32.6.07,1.27.61,1.23.76.46.02.93.03,1.39.02-.07.12-.3.12-.5.16.8-.17,0,.35.74.18-.06-.09.11-.17.15-.23.25.24.96.37,1.51.39-.06.06-.12.13-.19.19.91.22,2.01.26,2.98.56-.3-.2-.03-.53.29-.48-.02.12-.04.24-.07.35.29-.13-.23-.22.29-.33.34.16.02.44-.23.47.16.01.33.03.49.04-.03.1-.16.12-.26.23.3-.13.5.58.91.39-.01.03-.03.07-.04.1.2.1.36.2.49.3.15.09.27.17.37.26.13.12.16.1.18.13.07.12.12.26.16.43.27-.14.26.17.49.33-.05.67-.33,1.49-.39,2.41.07.64.2.15.32.42-.24.09-.26,1.06-.4.59.02,1.19.04,1.48.36,2.89.07-.18.09-.37.18-.29.06.25-.02.62-.13.61-.01-.02-.02-.04-.03-.06.5,1.54.27,3.91,1.41,5.09-.02-.02-.04-.04-.06-.07.3.43.63.86.98,1.28.35.63-.39-.33-.22.16,1.3,1.35,1.51,2.28,3.17,3.54.11.18.17.3.48.58.31.28.7.59,1.16.88.9.58,2.12,1.1,2.9,1.11.31-.05.62-.12.83-.25.19-.15.34-.33.46-.52.09-.32.24-.59.38-.78-.08-.02-.16-.04-.25-.07-.23-.39.16-.26.21-.44-.17-.06-.23.19-.34-.04-.16-1.24-.22-2.48-.02-3.74.19-1.25.59-2.52,1.11-3.76.39-.89-.76-.95.22-1.88.05.16.11.31.16.47.06-.24.14-.49.24-.71.03-.06.05-.11.08-.17.01-.03.03-.06.04-.08.02-.05.05-.09.08-.14.03-.05.06-.11.08-.16.01-.03.03-.06.04-.1.03-.06.06-.12.09-.18.24-.49.52-.96.83-1.42.63-.9,1.34-1.73,2.03-2.49-.05.13.02.19-.13.33.48-.15,1.22-.93,1.17-1.07.28-.13.14.11.34.1.2-.04.38-.19.57-.34.19-.12.38-.25.49-.16.04.02-.09.1-.15.15.1-.11.38-.15.6-.22.22-.05.39-.1.29-.22.17,0,.33-.01.5-.01.08,0,.17-.01.25-.02.17-.02.33-.03.5-.05.21-.06.6-.07.88.02.52-.3,1.37.24,1.68-.18-.24.44,1.39.51,2.04.36-.24.12.44.19.15.36.65.06,1.3.04,1.26-.2,1.04.66,2.64-.19,3.16.56,2.17-.08,4.23-.12,6.33-.3-.11.47-2.3.08-2.25.53.99-.08,1.79-.22,2.6-.38.83-.16,1.53-.25,2.8-.53.69-.13-.26.29-.49.41,1.26-.33,2.9-1.12,2.93-2.24.1-.53-.11-1.1-.36-1.52-.06-.11-.13-.23-.2-.32-.07-.08-.14-.15-.2-.23-.14-.15-.28-.31-.43-.43.05-.02.2.07.33.19-.2-.26-.39-.57-.57-.43.08.06.16.12.25.18,0,.26-.36.13-.72-.04-.17-.07-.38-.21-.56-.26-.16-.05-.28-.08-.33-.06.87-.13-.88-.97.32-1.05-.17-.09-.42-.16-.51-.03-.16-.2-.16-.31.18-.25-.82-.53-.75-.15-1.38-.69.09-.07.25,0,.41-.03-.48-.13-.97-.25-1.41-.75.08-.02.09-.13.24,0-.9-.74-1.89-.87-2.58-1.81.61-.1-.16-.38.11-.72-.18-.11-.35-.23-.52-.34,0,.1.01.21.02.31-.37-.38-.92-.5-1.11-.92.13.05.26.11.39.16-.24-.22-.47-.44-.7-.65.08.17.16.34.24.51-.51-.23-.38.41-.74-.18.12.07-.33-.39-.32-.74,0,0,0,0,0,0-.28-.09-.56-.16-.72-.5.04-.16.41-.28.44-.38-.44.08-.81-.77-1.28-.74.13.01.31-.13.33-.19-.11.02-.23.03-.34.05-.06-.24-.04-.29.12-.39-.33-.56-.32.54-.56-.26.05.04.07-.02.17.06-.33-.71-.9-1.17-.97-1.95.3-.43.28.53.51.1-.2-.44-.42-.89-.55-1.41-.11-.52-.16-1.09,0-1.69-.03.08-.05.15-.08.23-.23-.02-.13-.27.01-.56.18-.3.36-.63.35-.93-.02.15.19.18.15.15.11-.25.19-.51.25-.78,0-.02.02-.05.02-.07.12-.59.22-1.3.38-2.21.02.06.04.12.07.17.24-.5.42-1.33.58-1.88-.07-.18,0-.49-.19-.33.97-1.62.11-3.31.43-4.8.03.19.15.45.14.3-.08-.45-.19-.89-.33-1.34-.17.1-.08.17-.17.44-.14-.17-.31-.55-.41-.87.29.59.32,0,.34-.26-.05.04-.14-.04-.19-.02.08-.71-.39-.1-.58-1.05.04.01.08.03.12.04-.22-.35-.52-.65-.76-1.02.09-.22.35.34.52.33-.38-.58-1.07-.91-1.42-1.44.28.16.58.48.81.69-.26-.65-.42-.71-.89-1.13.02.01.03.03.05.04-.38-.33-.87-.66-1.37-.86.13.07.26.13.38.22-.48.07-.82.03-1.21.03-.37,0-.75.05-.84.41.25-.65-.13-.29-.38-.6-.25,0-.6.03-.61-.08-.05.38-.67.12-.62.73-.12-.07-.24.22-.46-.04-.2.35.25.08.36.21-.11.7-1.35.75-1.44,1.85-.31.79-.08,1.17-.45,1.9-.31.08-.18-.44-.18-.44-.4.22-.59.49-.78.88-.02-.13-.14-.12-.32-.12-.21.25.15.45-.3.63-.03-.14-.1-.34-.08-.55-.19.35-.35.75-.63,1.07-.21-.08.01-.37.03-.55-.28.37-.87.78-.86,1.1.11-.02.23-.04.34-.06-.15.1-.22-.17-.14-.27.21-.38.56-.23.66-.15-.07.07-.14.15-.22.22.7.34.96-.81,1.36-1.2.06.17.11.34.17.51.05-.24.1-.47.14-.71.18,0,.45.11.29.37.47-.15.13-.39.57-.48.06,0,.06.03.05.07.05-.13.11-.27.16-.4.03.13.3.18.09.32.69-.36.45-1.12.9-1.07,0,.02,0,.04-.01.06.47-.83-.22-.31-.13-1.14.34.09.69.18,1.02.26-.08-.11-.16-.21-.24-.32.07-.06.21-.19.3-.06.02-.43-.17-.07-.23-.38.56-.1.69-.98,1.25-.6-.11-.31-.47.12-.3-.34.63.4.31-.42.92-.35.14.31-.32.33.24.39-.21-.57.8-.16,1.04-.22-.09-.16.09-.22.39-.11.3.08.68.34,1.02.6-.05.01.23.3.5.71.27.42.52.94.61,1.29-.02,0-.04,0-.06-.01.38.1.62.83.81,1.37-.19-.03-.29-.12-.46-.41.05.16.1.33.14.49.13.12.22.28.32.61-.09-.05-.17-.09-.26-.14.15.66.49,1.37.34,2.22.21.08.6-.62.73.32-.11.02-.31.03-.36-.22.02.08.09.3.04.45-.06-.13-.12-.26-.18-.39-.09.38.16.23.13.54-.16-.03-.13.22-.26.15-.01-.08.08-.27.02-.4-.04.35-.17.77-.31.89.09-.02.22.03.21.3-.07.68-.23.2-.36.59.09.18-.1.6.14.65-.04.2-.16.22-.24.29.05.37-.36,1.66,0,1.29.01-.03.03-.06.04-.09,0,.02,0,.04,0,.06,0,0,0,0,0,0,0,0,0,0,0,0-.04,1.01-.62,2.03-.93,3.08,0-.01,0-.03.01-.04-.06.19-.12.37-.16.55-.03,0-.06,0-.09,0-.16.73-.39,1.63-.26,2.06-.02.2-.23.53-.33.48,0,.26.05.38.06.55.02.16-.02.37-.06.76-.2-.42-.16.26-.15-.46-.07.69-.22.95.18,1.44-.31-.07-.22.64-.04.86.02-.17.04-.34.06-.51.12.28.19.56.28.82-.13.03-.26.06-.39.09.07,1.42,1.67,1.31,1.58,2.5.41.05-.24-.61.18-.61.28.44.22,1.22.33,1.35.33.68.91.09,1.31.74.05-.17.27-.49.74-.14.32.44,0,.89-.32.7-.1-.09-.11-.17-.07-.19-.16-.1-.35-.22-.33.03.05-.01.1-.03.15-.04.06.29.6.84.3.86.4.22.3-.02.14-.3.34.65.78.81,1.24,1.43-.03-.13.01-.32.1-.24.7.89.56.16,1.18.64.18.44-.5.23.23.64.26.42-.2.31-.43.26.75.3.91,1.02,1.2,1.33-.13-.06-.26-.12-.39-.18.23.11.38.23.53.36.01-.11.03-.22.04-.33.14.18.29.31.2.38.33.04.21-.42.77-.27.13.3.87.54.67.84-.68-.74-.2.31-.9-.21.16.08.31.21.46.39,0,.05-.09.03-.15,0,.48.83.66.02,1.44.69-.27.03-.11.42,0,.46-.11-.09-.11-.21.02-.23.06-.02.15-.02.24,0,.09,0,.14-.03.22.01.24.53.54.43.69.69-.04-.1-.08-.21-.13-.32.24-.02.45.27.67.55-.15.08-.26-.23-.27-.09.26.08.3.33.19.49-.08.18-.25.29-.24.48-.26.05-.4-.17-.56-.15,0,.15-.13.13-.26.1-.08-.01-.16-.03-.24-.02-.09,0-.27.04-.46.12.26.19.35.14-.28.45.26-.05.49-.13.73-.19.19-.07.38-.14.46-.2-.08.15-.29.33-.61.49.51-.07.75-.32.9-.34-.12.26-.19.22.11.32-.34-.07-.55.03-.87.16-.31.13-.68.25-1.08.16,0-.2,0-.39,0-.59-1.08-.18-2.06.39-3.57.18.15.04.31.08.47.12-.25.23-.95,0-1.46.06.1-.19-.19-.28-.36-.42-.02.15-1.08-.09-1.34.29-.19-.1-.38-.21-.57-.31-1.14-.21-1.56.43-2.66.25.42-.18-.03-.37.78-.44-.37-.04-.69-.11-.75.02-.16-.15-1.14.16-1.39-.07-.19.07-.33.27-.73.21-.03-.04.04-.1.04-.1-.04.1-.7.06-.43.32-.87-.72-3.11-.3-4.02-.69.03,0-.05,0-.11.02-.06,0-.12.01-.18.02-.12.01-.24.02-.36.03-.24.02-.5.09-.75.13-.5.1-.99.23-1.4.39.05-.07,0-.09.15-.13-.59.11-.75.32-.9.53-.15.21-.3.39-.9.64-.73.09.55-.49.13-.37-.21-.22-.59.02-.98.35-.4.33-.79.74-1.24.92.05-.06.09-.11.14-.17-.69.32-1.02,1.25-1.65,1.99,0,0-.02-.07-.08-.05-.16.68-.72,1.72-1.04,2.49-.11-.34.07-.39-.25-.36-.16.33.43.1.14.74-.27.13-.66.54-.94.48.11-.21.23-.42.37-.63-.54.15-.48.81-.7,1.11-.04-.04-.08-.07-.12-.11-.42.98-.04,1.16-.42,2.16.05-.02.1-.04.15-.05.22.72-.37.37-.22,1.04-.15,0-.3,0-.45,0,0,.4.12,1.43.15,2.1-.28-.5-.32-1.31-.39-1.85-.1.35-.21,1.21-.02,1.48-.02-.16-.1-.38,0-.49.25.57.36,1.22.32,1.9-.88-.5-.28,1.66-1.04,1.65.08.31.04.53.01.76,0,.12-.08.18-.12.28-.05.08-.1.2-.15.19-.08.05-.2.05-.31.04-.13-.02-.29-.13-.41-.21.22.64-.2-.12-.37.25-.29-.19-.49-.39-.48-.42-.3-.38-.55-.76-.77-1.14-.08-.29.4.3.48.23-.63-.77-.06-.35-.37-.93-.09.16-.49-.22-.75-.71.08.24.17.48.26.72-1.12-1.09-.33-1.11-1.3-2.2.12.11.25.22.38.33-.49-.57-1.15-2.21-1.75-2.69.02-.12.12-.3.25-.04-.47-1.44-1.3-3.07-1.1-4.24.05.03.1.05.14.08-.06-.26-.29-.4-.16-.77.06,0,.14.08.14-.05-.05-.13-.26-.65-.17-1.01.05.09.1.17.15.26.19-1.36-.22-2.04-.2-3.23.42-.09.68-1.36.68-2.02.02,0,.04,0,.06,0-.02-.47-.12-.87-.28-1.2-.05-.11-.11-.22-.16-.33-.09-.09-.18-.16-.25-.21-.13-.09-.27-.18-.4-.27-.58-.28-1.17-.46-1.83-.61-.2-.4-.84-.66-1.57-.88-.73-.21-1.54-.36-2.13-.61.16.11-.2.33-.44.34-.26-.14-.97.16-.74-.23.03,0,.07.02.1.03-.06-.43-.73-.43-1.2-.52-.1.17-.2.34-.29.51-.47-.49-1.3-.58-2.04-.69-.72-.1-1.4-.28-1.54-.72-.32.01-.6-.14-.87-.17.06-.08.11-.16.17-.23-.12-.11-.2-.2-.26-.29-.08-.11-.05-.08-.07-.13,0-.07-.06-.12.01-.41.05.05.08.11.15.15.07-.19-.5-.76-.16-1.24.14.04.28.08.42.12.73-.83,1.97-1.32,2.89-2.35.01.06.04.18-.13.31.51-.34,2.27-1.11,1.8-1.45.19.29,1.3-.73,1.93-1.26,0,.09.01.19.02.28.43-.63.4-.71,1.19-1.28.22-.09.28.07-.02.17.74-.28.39-.51,1.28-.88-.07.11-.14.21-.21.32.71-.41.61-.45.87-.84.37-.34,1.33-.82,1.61-.74,0-.17.22-.58.64-.87.13,0,.04.17-.01.25.56-.37.88-.82,1.08-1.21-.02.03-.04.06-.06.08.28-.47.41-.85.8-1.29.11,0,.19-.05.25-.11-.28.66-.72,1.2-.94,1.45.02-.03.05-.07.07-.1-.12.15-.18.22-.17.2.09.03.23-.04.37-.14-.03.04-.06.08-.09.12.23-.12.49-.29.39.18.04-.06.09-.11.13-.17,0,0,0,.03,0,.05,0-.01.01-.03.02-.04-.04.06-.09.11-.13.17.42-.76.55-1.95.79-2.68.04-.04.07-.08.13-.1,0,.03.01.05.02.08.07-.18.07-.35.02-.49.08-.25.12-.41.12-.64.27-.13.08-.89,0-1.24-.34.1-.38-.36-.57.12.01-.06.06.05.11.29.02.05.03.11.06.14-.01,0-.02-.01-.03-.02.05.23.09.54.09.9-.18-.28-.34-.54-.21-.96-.25-.14-.52-.28-.65-.36.39-.57.33-1.51.57-1.7-.56-.91-1.1-2.26-2.05-2.71-.22-.26.02-.37.06-.5.15.14.23.34.37.4-.44-.51-.93-1.62-1.44-1.64-.2-.75.61.29,0-.65.07.03.14.06.2.1-.2-1.02-.92-1.71-1.61-2.47-.36-.38-.65-.76-.94-1.2-.22-.42-.41-.93-.28-1.32-.02.11-.03.17-.09.19,0-.12-.05-.27-.04-.37.01-.09.02-.18.03-.27.04-.07.08-.15.11-.22.08-.04.13-.11.22-.14.18-.06.39-.07.66-.06.32.04.65.09,1.02.18,1.46.36,3.13,1.06,4.52,1.97.83.51.98.37,1.55.48.03.11.06.22.09.33.32.06.64.11.96.17,1.34.47,1.71,1.73,3.35,2.27-.03-.09-.05-.18-.08-.27.49.35,1.66.92,1.45,1.04.07,0,.27-.06.41.14-.02.04-.04.09-.07.13.46.18.91.36,1.36.52.92.62-.47.45.98,1.23.6.24,1.77.22,1.58.04-.22-.09-.54-.29-.5-.44.17.03.34.06.51.09.22-.41.56-.75-.36-1.41-.25,0-.53-.03-.8-.07-.05-.1-.11-.21-.16-.31.21.1.41.18.61.28-.28-.35-.55-.28-.85-.31-.02-.13-.09-.25-.22-.37-.3-.02-.61-.03-.92-.06-.01-.2.49-.09.02-.46-.44-.05.18.52-.48.28-.29-.39-.1-.45-.63-.59-.01-.13.12-.13.32-.06-.46-.13-1.1-.6-1.43-.55-.3-.45-1.48-.82-1.27-1.12-.18,0-.92-.21-1.36-.43.97.04-1.62-.92-1.32-1.23-.77.04-2.23-.89-3.43-1.21.07,0,.19-.01.29.06-.64-.32-.83-.51-1.26-.77-.07.3-1.08-.04-1.59-.01-.84-.63.42-.23.12-.64.09.28-1.37-.22-1.03.12-.68-.42-.56-.27-1-.67.07.43-.58-.09-.98.12-.53-.18-.72-.26-.84-.34-.06-.03-.13-.05-.24-.06-.12-.02-.29.01-.51.13-.65.02.15-.47.21-.41ZM136.62,114.51s0,0,0,0c.02-.12.03-.23.03-.3,0,.06-.01.15-.03.3ZM136.12,115.69c.1-.13.2-.31.28-.49.13-.02.23.04.16.16-.04-.08-.24.19-.44.33ZM139.1,112.71c.07.24,0,.34-.06.38-.01-.12-.04-.25-.08-.43-.01,0-.03-.02-.05-.02.07.01.13.03.18.07Z"/>
        <path class="cls-2" d="M138.59,112.36s-.03-.05-.04-.09c-.02.05-.04.1-.06.15.04.02.08.04.12.06,0-.04-.02-.09-.03-.13Z"/>
        <path class="cls-2" d="M164.56,112.35s0,.02-.01.03c.02-.02.03-.05.05-.06-.02.02-.02.02-.04.03Z"/>
        <path class="cls-2" d="M124.15,130.86s.02-.05.03-.07c-.04,0-.08,0-.12.01.03.02.07.04.1.05Z"/>
        <path class="cls-2" d="M165.52,104.59s.03-.05.02-.11c-.01,0-.02.05-.02.11Z"/>
        <path class="cls-2" d="M163.13,100.98c-.21-.18-.43-.37-.7-.52.34.21.53.39.7.52Z"/>
        <path class="cls-2" d="M159.69,100.08c.02.06.05.09.07.13,0,0,0,0,0,0-.03-.04-.05-.09-.08-.13Z"/>
        <path class="cls-2" d="M176.14,132.41s.06.07.09.1c.24.21.09.06-.09-.1Z"/>
        <path class="cls-2" d="M166.84,124.63c.12.04.24.08.35.13-.11-.15-.2-.26-.35-.13Z"/>
        <path class="cls-2" d="M160.68,136.87s0,0,0,0c-.03,0-.07,0-.1-.01.03,0,.06.01.1.02Z"/>
        <path class="cls-2" d="M167.5,125.13c-.07-.18-.18-.3-.32-.37.09.12.18.29.32.37Z"/>
        <path class="cls-2" d="M153.44,106.15s-.07.02-.1.04c.01.02.02.03.02.05.03-.03.05-.06.08-.08Z"/>
        <path class="cls-2" d="M153.36,106.23s-.05.06-.08.08c.05-.02.09-.05.08-.08Z"/>
        <path class="cls-2" d="M153.11,106.48c.06-.05.12-.11.18-.17-.07.04-.17.08-.18.17Z"/>
        <path class="cls-2" d="M155.65,104.38s-.05-.07-.07-.1c0,.03.03.06.07.1Z"/>
        <path class="cls-2" d="M156.14,103.7c-.14.14-.51.23-.63.49.02.03.04.06.06.08-.06-.22.62-.29.57-.57Z"/>
        <path class="cls-2" d="M159.46,102.2c-.17.13-.33.26-.5.38.18.01.42.03.25.26.85-.29-.34-.09.26-.64Z"/>
        <path class="cls-2" d="M161.15,101.37c-.27.13.13.15.16.22.11-.15.14-.19-.16-.22Z"/>
        <path class="cls-2" d="M162.72,118.69c-.08.01-.16.02-.25.04,0,.37.1-.03.25-.04Z"/>
        <path class="cls-2" d="M164.56,121.12c.02-.12.03-.24.04-.35-.09.01-.18.03-.27.04.08.1.15.21.23.31Z"/>
        <path class="cls-2" d="M163.75,123.96s-.07-.05-.11-.08c.13.11.26.22.39.33-.09-.08-.18-.17-.28-.25Z"/>
        <path class="cls-2" d="M157.27,134.05c0,.11.01.21.02.32.31-.05.52-.4-.02-.32Z"/>
        <path class="cls-2" d="M144.98,144.38c-.2.07-.42.39-.33.67.1-.28.32-.51.33-.67Z"/>
        <path class="cls-2" d="M128.13,129.29c.09-.02.18-.04.28-.06-.16,0-.32,0-.48,0,.07.02.13.04.2.06Z"/>
      </g>
      <g>
        <g>
          <path class="cls-2" d="M161.94,102.66s-.04.09,0,.15c.04.07.1.11.34.21.11-.04.25-.05.39-.04-.12-.08-.25-.16-.39-.22-.07-.03-.15-.06-.22-.08-.05-.01-.07-.01-.11-.02Z"/>
          <path class="cls-2" d="M163.23,104.65c.26.26.61.6.8.39-.38-.28-.3-.38-.76-.65-.15-.24-.17-.47-.05-.46-.11-.06-.26-.48-.54-.52.2.47.37.81.74,1.23-.02.1-.13.02-.19,0Z"/>
          <path class="cls-2" d="M163.9,126.13s-.03-.08-.05-.12c0,.04.02.08.05.12Z"/>
          <path class="cls-2" d="M169.29,133.38c.07,0,.06-.04.02-.07-.04.02-.08.04-.02.07Z"/>
          <path class="cls-2" d="M167.39,132.86c.06.01.11.02.16.04-.06-.04-.12-.06-.16-.04Z"/>
          <path class="cls-2" d="M163.9,126.13c.04.11.08.21.13.32.12-.07-.04-.18-.13-.32Z"/>
          <path class="cls-2" d="M164.59,107.98c-.02-.09-.05-.16-.08-.22.01.07.03.14.04.21.01,0,.03.01.04.02Z"/>
          <path class="cls-2" d="M160.84,121.92s-.02-.07-.02-.1c-.05,0-.1,0-.16,0,.06.04.12.07.18.11Z"/>
          <path class="cls-2" d="M161.23,116.97c-.05.12.21.13.31.16-.09-.05-.12-.13-.11-.23-.05,0-.11.02-.2.07Z"/>
          <path class="cls-2" d="M163.59,109.01s-.02-.09-.03-.14c0,.04.02.1.03.14Z"/>
          <path class="cls-2" d="M162.06,124.59s-.07.08-.08.11c.03-.03.06-.06.08-.11Z"/>
          <path class="cls-2" d="M157.52,105.16s.03.02.04.04c0-.04-.02-.06-.04-.04Z"/>
          <path class="cls-2" d="M162.04,103.35s-.04,0-.07,0c0,.05.01.1.03.15,0-.05.02-.1.04-.15Z"/>
          <path class="cls-2" d="M162.32,132.1s.01,0,.02,0c.14-.02.07-.02-.02,0Z"/>
          <path class="cls-2" d="M139.44,134.22c-.32.54-.22-.68-.6.11.12-.1.35.53.6-.11Z"/>
          <path class="cls-2" d="M164.56,108.11c0,.07,0,.14,0,.21,0-.09,0-.16,0-.21Z"/>
          <path class="cls-2" d="M138.84,134.32s0,0,0,0c-.01.03-.02.05-.04.08.02-.03.03-.05.04-.08Z"/>
          <path class="cls-2" d="M149.48,133.9c.05.01.13,0,.2-.02-.02-.02-.07-.02-.2.02Z"/>
          <path class="cls-2" d="M159.2,132.33c-.06-.02-.12-.04-.19-.06.07.04.13.05.19.06Z"/>
          <path class="cls-2" d="M146.25,137.9c-.09.09-.15.11-.21.25.02,0,.04-.01.06-.03,0-.06.03-.13.15-.23Z"/>
          <path class="cls-2" d="M143.88,141.79s.06-.03.09-.05c.01-.04.03-.09.05-.13-.05.06-.09.12-.13.18Z"/>
          <path class="cls-2" d="M147.69,106.83c.04.12.04.21.04.31.05-.19.62.07-.04-.31Z"/>
          <path class="cls-2" d="M164.45,107.97c.06.03.09.07.11.14,0-.05-.01-.1-.02-.15-.04-.02-.07-.02-.09,0Z"/>
          <path class="cls-2" d="M148.05,138.97c-.15.2-.3.4-.44.6.14-.16.29-.38.44-.6Z"/>
          <path class="cls-2" d="M134.34,119.32s.09-.08.14-.12c-.06.03-.12.07-.14.12Z"/>
          <path class="cls-2" d="M146.58,141.42c-.15.07-.27.16-.36.27,0,.03,0,.07.03.1.11-.12.22-.25.33-.37Z"/>
          <path class="cls-2" d="M147.72,107.14s0,0,0,0c0,0,0,0,0,0Z"/>
          <path class="cls-2" d="M151.64,108.12c-.47-.06-.24.33-.36.53-.67,0-.26-.29-.43-.53-.37-.03-.8.24-1.09.05,0-.07-.04-.11.05-.15-.26.02-.6-.08-.91-.3-.16-.1-.33-.19-.5-.27-.04-.02-.09-.03-.13-.05-.06-.03-.19-.1-.26-.12-.09-.02-.17-.02-.26-.03-.02-.05-.02-.09-.02-.11-.02.2-.1.36-.2.46-.27-.15-.64-.13-.6-.39.16.11.24.05.36.04-.11-.03-.23-.07-.35-.1-.05-.43.46.16.6-.05-.6-.25-1.45-.48-1.84-.85.11-.32,1.11.59.69-.02.21.18.41.36.6.54-.21-.74.39.29.24-.45-.84-.65-1.1-.52-2.01-1.19-.32,0-.07.26-.39.27-1.55-.59-.69-1.33-2-1.6-.39.02-.67.29-1.38-.32.14-.05.28-.1.42-.16-1.07-.59-.8.12-1.86-.66.26-.03.91.32.76.2-.66-.62-.6-.09-1.18-.36-.01-.11-.02-.23-.04-.34-.16-.07-.32-.13-.48-.19-.17-.07-.49-.18-.73-.26-.52-.18-1.03-.32-1.48-.41-.93-.18-1.65-.18-2.24.05-.04-.11.08-.27-.34-.26-.12.06-.23.12-.36.18-.11.39-.15.71-.07,1.13.07.41.25.9.49,1.41.12.26.25.52.39.79.13.26.3.59.34.71.14.33.27.65.38.96.21.13.41.25.62.38.06.11-.03.25-.17.15.16.52.23-.04.5.15.18.26.02.42-.18.28.79.75,1.96,2.15,1.94,3.11-.06-.04-.12-.09-.18-.13.14.7,1.03.54.92,1.25-.03-.03-.07-.07-.1-.1.17.74.39,1.48.45,2.2.07.75-.05,1.33-.5,1.77.23.11.02.41-.18.69-.2.28-.43.53-.18.7-.45.28-.63.34-.87.44-.23.1-.47.23-1.07.58-.3.2-.19.58-.56.89-.06-.07-.13-.14-.19-.21-.11.2-.24.39-.37.59-.17-.03-.33-.06-.5-.09-.12.1-.23.2-.35.3.16-.08.41-.1.43-.02-.55.49-1.65.73-1.73.61-.48.35-.95.7-1.42,1.05-.02-.12.22-.29.39-.47-.68.7-.3-.18-.92.46.13,0,.03.18.04.24-.46.05-1.33.52-1.93.96,0-.08.01-.16.02-.24-1.17.65-2.41,1.51-3.53,2.84.48-.43.65-.08.38.28-.13,0-.26,0-.38-.01-.02.35.4-.34.23.29-.37.5-.56.23-.43-.16-.11.22-.25.55-.33.86-.12.04-.08-.19-.16-.28,0,.22-.23.61-.36,1.08-.05.23-.08.47-.09.68.02.21.15.36.26.45-.02.03-.05.06-.07.09.21.47.52.78.82,1.02.07.06.15.11.23.17.05.03.11.06.16.09.11.06.21.11.31.15.39.17.76.27,1.19.38.14-.27.44-.11.78-.27.56.25,1.14.61,1.87.73.57-.04.26-.21.57-.32-.08.26.64.38.18.49.87.13,1.11.16,2.26.21-.05-.13-.15-.21-.04-.28.21,0,.37.22.27.33-.02,0-.04,0-.07.01.7-.03,1.27.32,1.74.69.48.37.8.74,1.28.74-.02,0-.04,0-.05,0,.28.07.52.18.74.33.14.32-.28-.03-.3.3.39.17.43.54.43.89-.02.19-.02.36-.04.55,0,.17,0,.37.03.62-.82.96-.25,2.81-.69,4.01.05-.03.11-.07.16-.1.16.24-.1.36-.13.58.12-.06.14-.34.23-.19.2,2.36.21,5.04,1.49,7.6.13.24.25.37.4.49.19.18.35.27.5.37.34.2.52.4,1.27,1.37-.17-.05-.37-.12-.58-.22.33.3.66.58.99.79.33.22.64.36.98.55,1.28.32,1.87-.2,2.17-1.19.08-.24.12-.52.19-.78.04-.23.06-.36.09-.55.05-.35.07-.7.08-1.05.06.14.16.19.12.35.32-.24.32-1.31.14-1.4.1-.25.2.02.34-.1.24-.3-.03-1.03.28-1.12.05-.02.04.13.04.21-.04-.28.43-1.07.07-.97.38-.58.4-1.26.82-1.7-.13-.45.72-1.02.38-1.3.38.23.99-.96,1.08-1.43.03.19.36-.28.42-.05.3-.45.53-.89.27-.91.53-.29.76-.73.97-1.1.11-.19.21-.35.34-.46.06-.03.5-.4.64-.32.36-.57.83-1.03,1.37-1.42.55-.35,1.18-.67,1.85-.82-.11.41-1.41.4-1.27.85.96-.56,1.86-1.04,3.09-.95.3.06-.26.2-.4.28,1.33-.21,2.44.18,3.77.08-.02.04-.18.07-.32.09.24.02.52.13.59-.07-.09,0-.17.02-.26.03-.24-.34,1.26-.5,1.38-.65-.7.54,1.16.29.16.95.19-.02.44-.09.46-.23.23.07.28.15-.04.28,1-.04.73-.26,1.6-.22-.04.1-.23.13-.36.24.26-.09.52-.18.8-.23.13-.06.52-.05.83.02-.07.06-.01.14-.22.12,1.23.07,2.26-.34,3.56-.05-.54.4.42.18.39.56.4,0,.81-.01,1.22-.02-.16-.07-.32-.15-.47-.22,1.02.09,1.65-.14,2.48,0-.15.05-.34.1-.53.14.59,0,1.13-.02,1.57-.09-.34-.02-.69-.06-1.04-.11.58-.19-.62-.47.46-.36-.13.03.7.02,1.32.11,0,0,0,0,0,0,.08-.06.16-.12.29-.18.11-.06.4-.12.48-.33.15-.06.47.23.57.19-.26-.41-.54-1.06-1.4-1.39.23.09.58.14.63.12-.21-.08-.42-.15-.63-.22-.05-.18-.03-.22.3-.17-.65-.66-.6.2-1.12-.54.1.05.13.02.35.14-.39-.39-.93-.76-1.38-1.08-.2-.15-.39-.29-.58-.43-.16-.13-.3-.27-.42-.42.16-.44.6.39.68-.03-.93-.71-2.11-1.23-2.73-2.04.03.06.06.11.09.17-.58.31-.28-.75-.84-.93.12.06.38-.11.3-.09-.38-.57-1.08-.91-1.9-1.48.07,0,.14-.01.21-.02-.15-.37-.62-.78-.82-1.13-.2.02-.33-.17-.42.09-.04-.77-.47-1.13-.88-1.5-.42-.36-.79-.75-.66-1.45.04.12.23.19.19.1-.15-.24-.29-.49-.4-.76-.22.21-.12.2-.24.5-.18-.02-.34-.22-.4-.45.25.33.37-.22.48-.46-.07.07-.15.05-.23.11.37-.72-.51.17-.26-.69.04,0,.08-.01.12-.02-.08-.23-.24-.43-.16-.76.28-.21.1.26.32.19.01-.2-.11-.36-.17-.54-.05-.19-.06-.39.11-.62.04.17-.01.44.02.61.4-.52.32-.53.43-.86,0,.01,0,.02-.01.03.1-.26.21-.51.31-.76-.04.07-.08.13-.12.2-.52-.46.18-1.12,0-1.88.16.74.19.12.44.17.14-.2.31-.49.36-.41-.11-.36.35-.59.18-1.11.09-.02.13-.39.31-.29.07-.47-.18.1-.27.06-.07-.76.84-1.69.67-2.8.02-.94-.24-1.15-.29-2.03.16-.28.28.27.28.27.16-.45.16-.81.06-1.27.07.1.14.01.23-.12-.03-.36-.3-.26-.22-.73.1.09.26.2.36.38-.1-.43-.29-.87-.46-1.3.12-.11.27.27.39.43-.13-.51-.38-1.29-.66-1.44,0,.11,0,.21,0,.32-.06-.18.18-.09.25.04.28.42.05.61-.03.63-.04-.1-.08-.21-.12-.31-.41.31.31,1.25.27,1.88-.12-.1-.24-.19-.37-.29.11.22.21.44.31.66-.1.13-.29.2-.35-.11-.18.42.12.41-.09.76-.03.04-.05.02-.06-.02.03.15.05.3.07.44-.07-.09-.26.04-.18-.22-.27.75.11,1.28-.21,1.54,0-.02,0-.04-.01-.07-.09,1.09.25.14.38.98-.25.16-.51.31-.77.47.08.05.16.09.23.14-.04.11-.12.33-.21.28.07.44.13-.06.24.2-.38.52-.31,1.49-.77,1.59.15.2.31-.51.28.07-.51.15-.13.67-.49,1.16-.2-.15.08-.63-.29-.12.32.29-.39.99-.43,1.42.33-.02-.12.91-.15,1.59-.05,0-.18.33-.3.77-.04.22-.09.46-.14.69-.03.22-.06.43-.09.6-.02,0-.04,0-.06.01.38-.05.35.59.53.94-.23.11-.34.09-.49-.08.03.13.06.26.09.4.14.02.23.11.35.32-.1.03-.21.05-.31.08.17.5.68.75.8,1.43.27-.16.48-.95.96-.51-.12.12-.34.32-.49.22.04.04.22.08.22.22-.12-.02-.25-.03-.37-.05.05.32.27-.02.37.19-.2.15-.05.25-.22.34-.05-.03-.03-.23-.15-.24.1.25.16.59.08.79.1-.1.26-.2.4-.07.31.38-.13.32-.05.62.21-.02.27.34.56.11.09.11-.02.24-.06.34.28.09.85.86.94.39,0-.02-.02-.04-.03-.07.01,0,.03.01.04.02,0,0,0,0,0,0,0,0,0,0,0,0,.85.38,1.08,1.4,1.8,1.94-.03.03-.06.05-.09.08.46.3.87.82,1.34.94.11.12.1.41-.05.46.37.24.51.19.81.75-.48-.17-.03.22-.44-.21.33.46.28.67.99.88-.39.05.03.54.32.67-.05-.14-.1-.27-.14-.41.27.18.47.39.65.57-.13.07-.28.11-.42.16.11.17.05.16.09.22.02.04.06.06.12.08.17.05.34.1.51.14.39.11.94.39.27.37.7.21.14-.14.87.04.11.11-.08.18-.33.18-.25,0-.57-.04-.57-.02-.3.03-.1.12.12.29.21.15.35.31-.05.23.25.13,1.03.51.54.6-.74-.09-1.19-.59-1.08-.68.07,0,.16.04.21.08.07-.04.12-.09-.19-.24.04.04.09.09.13.13-.34-.14-.69-.16-.75-.36-.09.11.02.2.26.28-.27-.11-.38-.12-.53-.13-.19,0-.16,0-.68-.1.12.08.2.23.06.21-1.25-.25-.65.18-1.54.16-.43-.22.33-.42-.59-.34-.48-.17,0-.32.25-.4-.87.16-1.4-.27-1.81-.35.15-.02.3-.04.44-.06-.29.03-.41.02-.71,0,.14.09.11.17.18.26-.06-.01-.11-.03-.16-.04-.04,0-.08-.01-.12-.02-.03,0-.06,0-.09,0,0,0-.02,0-.03,0-.07-.02-.1-.05-.08-.1-.28.15.04.4-.5.6-.26-.12-.99.07-.95-.25.9.18.04-.32.85-.31-.17.03-.35,0-.55-.05-.02-.04.06-.06.13-.08-.74-.35-.57.32-1.5.21.21-.16-.05-.36-.21-.34.37.05.03.32-.39.41-.52-.21-.71.02-1.02-.04.11.04.22.07.33.11-.22.16-.5.1-.96.1.04-.14.44-.05.32-.13-.64.25-.89-.45-1.68-.29-.25-.14.14-.34-.11-.43-.89.19-.75-.28-1.72-.06.16.24.23.15-.48.44.51-.11.99-.16,1.48-.21-.34.1-.7.24-1.04.36.41,0,.95-.17,1.16-.11-.5.18-.42.12-.32.33-.41-.37-1.18.2-1.76.04.06-.2.13-.39.2-.59-.5-.07-1.06.11-1.63.35-.58.24-1.17.56-1.93.88.16-.07.34-.11.5-.15-.15.26-.88.5-1.29.85-.05-.17-.35-.02-.6.05.05.04-.2.23-.44.44-.22.23-.41.5-.32.64-.22.12-.48.27-.56.25-.99.84-.5,1.23-1.19,1.99.01-.33-.39-.03-.08-.63-.22.27-.44.49-.33.55-.23.1-.34.84-.66,1.01,0,.15.14.27-.07.55-.06.02-.08-.04-.08-.04.08.04-.2.51.17.35-1.1.56-1.34,2.28-2.14,2.75-.22.59-.46,1.3-.64,1.81-.04-.06-.09-.04-.04-.13-.44.61.37.68-.09,1.38-.44.25-.03-.49-.23-.3-.67-.19-.22.98-.73,1.3,0-.05,0-.09,0-.14-.16.14-.17.39-.16.69,0,.14,0,.29.01.45.01.1,0,.19-.03.27,0,0-.05-.06-.09-.09.11.23.15.54.09.83-.05.28-.25.57-.58.45.11-.27.18-.15.01-.54-.14,0,.05.4-.06.5-.03.03-.1.01-.22-.07-.19-.34-.41-.8-.31-1.06.08.1.16.19.24.28-.05-.29-.09-.34-.17-.39-.07-.04-.18-.09-.21-.18.04-.03.07-.05.11-.08-.06-.08-.13-.13-.21-.19-.08-.05-.21-.21-.31-.29-.21-.21-.42-.43-.63-.92-.02.04-.04.08-.06.13-.57-.44,0-.49-.47-.96.09-.08.19-.16.29-.25-.21-.33-.74-1.15-.93-1.77.33.3.66,1.01.97,1.42-.12-.35-.36-1.18-.57-1.32.07.13.19.29.18.44-.39-.36-.65-.9-.74-1.6.69-.03-.02-1.86.58-2.49-.27-1.18.22-2.49.38-3.93-.66.66.04-.42-.58-.17,0-.32.03-.46.08-.5.18-.36.33-.76.49-1.19.2-.34.11.3.25.23.11-.86.29-.45.47-1.09-.23.21-.33-.15-.33-.64-.05.26-.14.53-.21.79-.21-.47-.15-.74-.08-1.05.05-.29.11-.63-.34-.93.12.04.24.09.37.13-.19-.19-.48-.6-.9-.83-.41-.25-.9-.36-1.29-.22-.02-.1,0-.3.23-.26-1.05-.55-2.76-.25-3.43-.77.06-.04.12-.08.17-.13-.24,0-.53.19-.71-.01.05-.06.17-.13.08-.16-.14.03-.71.14-.94,0,.11-.04.22-.08.33-.12-1.01-.41-1.91.09-2.86,0,.21-.43-.56-.75-.94-.93.02-.02.03-.04.04-.06-.61-.18-1.08-.23-1.51-.32-.13-.04-.15-.01-.21-.01-.05,0-.11,0-.17-.02-.13-.03-.22-.13-.21-.28.16-.11.25-.17.37-.27.15-.16.36-.38.62-.61.52-.46,1.27-.97,1.96-1.26-.23.06-.12-.29.1-.47.34-.11.76-.76.87-.4-.04.02-.08.04-.12.06.4.18,1.02-.28,1.58-.57-.03-.16-.07-.32-.1-.48.86-.08,1.81-.67,2.68-1.26.88-.59,1.65-1.17,2.25-1.22.3-.34.76-.67,1.02-1.04.06.06.11.13.17.19,1.03-.78,1.64-1.23,2.5-2.58,0,.11,0,.22.01.34.57-.8-.27-1.16-.06-1.79.19-.06.36-.13.54-.2.18-.68.24-1.34.26-1.89,0-.58-.12-1.15-.5-1.62.08,0,.23,0,.3.16-.09-.53-.36-2.05-.96-1.66.44-.15-.44-1.08-.94-1.56.12,0,.24-.01.36-.02-.65-.33-.77-.31-1.25-.91-.05-.17.17-.22.21.01-.14-.56-.53-.3-.74-.96.11.05.22.11.34.16-.3-.53-.38-.45-.79-.66-.33-.29-.55-1.02-.32-1.17-.11-.01-.26-.07-.4-.17-.12-.07-.23-.16-.25-.27.1-.03.22.04.28.07-.04-.24-.24-.4-.45-.62-.21-.21-.42-.48-.21-.51.17.1.25.13.3.14.04.34.25.62.19.58.37.06.38-.02.99.25-.12-.05-.31-.15-.51-.3-.19-.14-.41-.36-.41-.48.02-.06.09-.08.2-.04.05.03.1.07.17.12,0,.01.01.03.02.04.09.03.1,0,.1-.05.13.07.2.12.28.15.2.28.27.2.37.25-.05-.3.17-.17-.04-.48.03.03-.03.02-.15-.01-.02,0-.05,0-.06,0,0,0,0-.02,0-.02-.11-.03-.26-.08-.43-.11-.01-.16.15-.23.44.03.04-.17.16-.3.26-.35.3.49,1.07,1.08,1.1,1.35,1.08.36,2.37,1.17,3.27,1.13.31.11.23.31.28.43-.19-.06-.37-.18-.5-.17.63.22,1.61.95,1.96.75.55.55-.57.02.35.56-.06,0-.13,0-.19,0,.68.8,1.5,1.11,2.4,1.42.11.04.23.07.34.11.01-.02.16.04.26.09.22.09.43.19.63.31.4.25.85.47,1.27.91-.13-.1-.18-.17-.18-.23,1.13.69,2.64.81,3.92.5,1.3-.29,2.38-.86,3.48-1.24.59-.27.52-.5.69-.88.1.06.2.11.29.17.09-.23.18-.45.26-.68.45-.77,1.63-.42,1.95-1.54-.08-.02-.16-.04-.25-.06.28-.24.64-.92.79-.69,0-.05-.1-.25.08-.26.05.04.09.08.14.12.11-.28.21-.55.33-.81.27-.17.38,0,.5.11.12.13.26.18.58-.01.09-.1.16-.27.18-.4,0-.12.03-.23,0-.29-.05-.03-.27-.1-.38-.25.08-.05.17-.08.27-.09-.03-.22.06-.41-.03-.63-.02-.1-.19-.26-.44-.37-.26-.12-.62-.19-.95-.15-.17.2-.25.4-.32.61-.11-.02-.23-.05-.35-.07.12-.11.24-.23.39-.33-.45-.02-.4.28-.42.52-.14-.07-.28-.09-.39-.04.02.26.03.52.05.78-.21-.1-.18-.48-.5-.28.04.36.53.14.39.58-.35.03-.47-.16-.5.22-.13-.06-.16-.17-.14-.31-.03.33-.4.62-.27.93-.4.01-.56.78-.92.41.03.15-.05.65-.23.85-.07-.76-.74.68-1.09.12.1.62-.83,1.02-1.25,1.56.01-.05.02-.16.09-.16-.34.15-.52.1-.77.11.18.36-.3.72-.53,1.03-.58-.22.09-.52-.22-.81.17.29-.59.53-.36.74-.41-.15-.33-.06-.58-.34.06.49-.28.16-.51.45-.51-.24-.15-.43-.66-.32-.22-.19.21-.28.2-.3ZM134.73,101.42s0,0,0,0c.15-.05.28-.08.37-.1-.08.02-.18.04-.36.1ZM134.35,102.6c-.03-.18-.08-.4-.07-.61.12.02.23.14.24.27-.09-.12-.12.16-.17.34ZM137.95,103.8s-.09-.04-.15-.12c.03,0,.06,0,.11,0,0-.01,0-.03,0-.04.02.06.03.11.04.16Z"/>
          <path class="cls-2" d="M137.96,103.43s.02,0,.04,0c-.03-.04-.06-.07-.09-.1,0,.03,0,.06-.01.08.02,0,.04.01.06.02Z"/>
          <path class="cls-2" d="M163.84,125.99s0,.01,0,.02c0-.02,0-.04,0-.07,0,.02-.01.03-.01.04Z"/>
          <path class="cls-2" d="M135.66,118.35s.03.03.04.05c.02-.04.04-.08.06-.11-.04.02-.07.04-.11.07Z"/>
          <path class="cls-2" d="M162.04,120.62s.05-.06.06-.11c-.02.01-.04.06-.06.11Z"/>
          <path class="cls-2" d="M162.23,118.04c.06-.14.13-.28.19-.42-.09.18-.15.31-.19.42Z"/>
          <path class="cls-2" d="M162.93,115.84s-.07-.03-.1-.04c0,0,0,0,0,0,.03.01.07.02.1.03Z"/>
          <path class="cls-2" d="M158.42,134.22s-.07,0-.1,0c-.25.03-.09.02.1,0Z"/>
          <path class="cls-2" d="M172.3,134.41c-.07.05-.13.11-.24.15.27-.02.44-.05.24-.15Z"/>
          <path class="cls-2" d="M148.1,138.9s0,0,0,0c-.02.02-.03.05-.05.07.02-.02.03-.04.05-.06Z"/>
          <path class="cls-2" d="M171.4,134.63c.34.03.54,0,.66-.06-.22.01-.51,0-.66.06Z"/>
          <path class="cls-2" d="M164.33,105.86s-.01-.07-.02-.11c-.02,0-.03,0-.04-.01.02.04.04.08.06.13Z"/>
          <path class="cls-2" d="M164.28,105.74s-.04-.09-.06-.13c.02.06.03.11.06.13Z"/>
          <path class="cls-2" d="M164.08,105.33c.05.09.09.18.14.28-.02-.1-.05-.22-.14-.28Z"/>
          <path class="cls-2" d="M164.48,108.99s.06.03.08.04c-.02-.02-.04-.04-.08-.04Z"/>
          <path class="cls-2" d="M164.42,109.93c.05-.22.25-.53.21-.86-.02-.01-.04-.02-.07-.04.12.16-.26.67-.14.89Z"/>
          <path class="cls-2" d="M162.49,113.69c.1-.26.2-.52.3-.78-.13.13-.31.3-.23-.06-.56.97.27-.19-.06.84Z"/>
          <path class="cls-2" d="M161.59,116.17c.08-.43-.15.01-.2,0,0,.27.01.34.2,0Z"/>
          <path class="cls-2" d="M166.87,129.54c-.09.06-.18.11-.27.17.24.18.09-.07.27-.17Z"/>
          <path class="cls-2" d="M170.49,130.74c-.05-.13-.15-.29-.16-.38-.11.03-.21.06-.32.08.07.04.14.08.21.12.09.06.18.12.28.18Z"/>
          <path class="cls-2" d="M169.09,132.35s-.07-.02-.1-.03c.1.04.21.08.32.12-.07-.03-.14-.06-.21-.09Z"/>
          <path class="cls-2" d="M144.01,141c.11.01.22.03.33.04.06-.22-.24-.41-.33-.04Z"/>
          <path class="cls-2" d="M139.93,145.38c.07-.17.01-.54-.2-.71.09.28.1.58.2.71Z"/>
          <path class="cls-2" d="M133.26,122.4c-.08.08-.16.16-.24.24.16-.12.33-.24.49-.36-.08.04-.17.08-.25.12Z"/>
        </g>
        <g>
          <path class="cls-2" d="M150.94,108.04c.12-.06.11-.24-.25-.32-.11.07-.22.14-.33.22.15.03.38.1.58.1Z"/>
          <path class="cls-2" d="M149.11,106.64c-.39-.03-.92,0-.84.36.49-.09.51.07,1.03-.07.3.1.46.33.37.41.13-.02.43.27.66.14-.3-.38-.75-.6-1.33-.67-.07-.12.06-.14.11-.18Z"/>
          <path class="cls-2" d="M136.35,110.39c0-.06-.01-.12-.02-.17,0,.05,0,.11.02.17Z"/>
          <path class="cls-2" d="M125.97,122.76c.12-.08.15-.14.14-.17-.1.09-.18.17-.14.17Z"/>
          <path class="cls-2" d="M123.14,124.47c.06-.04.1-.08.16-.12-.08.03-.14.07-.16.12Z"/>
          <path class="cls-2" d="M136.35,110.39c.01.15.02.3.03.45.14,0,.02-.24-.03-.45Z"/>
          <path class="cls-2" d="M144.86,105c.11.05.21.08.3.09-.09-.04-.17-.08-.26-.12-.01,0-.03.02-.04.03Z"/>
          <path class="cls-2" d="M132.47,103.44s-.04-.09-.07-.13c-.06-.03-.13-.06-.21-.08.09.07.18.14.28.21Z"/>
          <path class="cls-2" d="M132.75,98.09c-.22-.03-.1.25-.09.37.02-.11.12-.17.28-.17-.02-.05-.07-.12-.19-.21Z"/>
          <path class="cls-2" d="M144.02,103.32c.06.03.13.05.19.08-.05-.02-.13-.05-.19-.08Z"/>
          <path class="cls-2" d="M134.46,107.41s-.08.05-.09.08c.04-.01.07-.04.09-.08Z"/>
          <path class="cls-2" d="M157.47,106s-.03-.02-.04-.04c0,.04.01.06.04.04Z"/>
          <path class="cls-2" d="M151.05,107.33s.06,0,.1,0c.02-.05.03-.1.03-.15-.04.05-.09.1-.13.15Z"/>
          <path class="cls-2" d="M123.33,130.5s-.01-.01-.02-.02c-.12-.04-.06,0,.02.02Z"/>
          <path class="cls-2" d="M146.89,145.3c-.41.37-.1-.93-.61-.33.13-.02.26.85.61.33Z"/>
          <path class="cls-2" d="M144.72,104.88c-.08-.05-.16-.1-.25-.15.11.08.18.12.25.15Z"/>
          <path class="cls-2" d="M146.28,144.98s0,0,0,0c-.02.02-.03.04-.05.06.02-.03.03-.04.05-.06Z"/>
          <path class="cls-2" d="M132.75,132.86c.01-.05,0-.1-.02-.15-.01.03-.01.07.02.15Z"/>
          <path class="cls-2" d="M125.99,130.98c.05.03.11.06.16.09-.06-.05-.11-.07-.16-.09Z"/>
          <path class="cls-2" d="M135.46,134.24c0,.1-.02.14.04.24.01-.02.02-.03.03-.05-.04-.02-.08-.06-.06-.18Z"/>
          <path class="cls-2" d="M135.39,138.41s.04-.07.06-.1c0-.05,0-.1,0-.15-.02.08-.03.16-.05.25Z"/>
          <path class="cls-2" d="M164.28,105.32c.04-.1.1-.16.16-.2-.15.06-.39-.6-.16.2Z"/>
          <path class="cls-2" d="M144.94,104.88c-.07.03-.13.03-.22,0,.06.03.12.06.18.09.04-.02.06-.05.04-.09Z"/>
          <path class="cls-2" d="M137.64,133.12c.04.28.06.56.06.85.02-.25,0-.56-.06-.85Z"/>
          <path class="cls-2" d="M173.56,133.43s-.09-.07-.14-.1c.03.05.08.09.14.1Z"/>
          <path class="cls-2" d="M137.59,136.43c-.11.16-.18.32-.24.48.02.03.03.06.06.08.06-.19.12-.37.18-.56Z"/>
          <path class="cls-2" d="M164.44,105.12s0,0,0,0c0,0,0,0,0,0Z"/>
          <path class="cls-2" d="M162.29,102.3c.06.01.01-.3.04-.47.4.15.11.31.12.47.21.1.71.28.91.62-.03.04,0,.1-.11.05.54.38.78,1.44,1.25,2.07-.01.05-.04.07-.06.08.13-.1.29-.11.41-.09.09.32.35.6.16.71-.03-.2-.12-.22-.21-.31.06.11.11.22.16.34-.23.28-.19-.46-.42-.46.27.64.6,1.42.54,1.91-.27.07-.21-1.17-.4-.53,0-.25,0-.5,0-.75-.36.55-.05-.46-.45.04.07.98.3,1.12.23,2.12.16.25.24-.05.39.2.2,1.49-.79,1.03-.56,2.16.14.31.48.47.12,1.21-.09-.1-.17-.21-.26-.31-.27,1,.33.64-.18,1.66-.07-.2.12-.81.04-.66-.44.65.05.51-.11,1.04-.11.03-.21.05-.32.08-.28,1.1-.54,2.33-.82,3.64-.08-.06-.11-.28-.29.05-.06.36-.13.76-.13,1.15-.01.09,0,.02,0,.04-.22,1.31-.26,2.67-.05,3.69.15.1.32.17.48.25.04.1-.05.28-.15.21.11.51.19-.11.41.01.15.22,0,.44-.16.35.64.58,1.85,1.45,2.15,2.32-.06-.02-.13-.03-.19-.05.33.58,1.05.07,1.21.73-.04-.01-.08-.03-.12-.04.02.03.05.07.07.1.03.03,0,.01.04.07.06.1.12.18.18.26.12.17.26.31.39.46.28.28.56.56.84.83.56.54,1.09,1.06,1.37,1.65.54-.18,1.09,1.21,1.7.82.49.86.19.75,1.06,1.8.25.26.76.09,1.16.37-.09.07-.19.15-.28.22.25.07.51.14.76.21-.04.16-.09.32-.14.47.12.08.25.16.36.25-.07-.13-.1-.34.01-.38.3.19.5.53.56.8.04.25-.08.38-.19.4.16.06.3.24.22.44-.12-.09-.1-.17-.2-.24.24.33-.35-.16-.18.11.08.04.13.15.16.21-.08-.02-.12-.04-.21-.04-.13,0-.26.02-.39.05-.37.05-.77.13-1.13.19.04-.07.08-.15.13-.22-.58.06-1.33.03-2.13.06-.79,0-1.61,0-2.41-.05.55.14.32.49-.17.5-.03-.11-.06-.23-.1-.34-.37.18.46.16-.24.36-.6-.08-.29-.4.08-.48-.26.02-.51.04-.77.06-.01-.1.18-.14.26-.26-.37.18-1.13-.43-1.68-.12,0-.03,0-.07,0-.1-1.57-.15-2.32-.11-3.6-.2-.13.28-.62.18-1.06.38-.86-.16-1.77-.5-2.95-.5-.88.13-.33.23-.76.4.04-.27-1.2-.18-.51-.4-.76.06-1.27.15-1.84.3-.55.16-1.25.37-2.21.94.24-.01.49-.07.39.06-.34.18-.8.3-.8.17.03-.02.05-.05.08-.07-1.98,1.35-4.55,3.02-4.86,4.44,0-.03.01-.05.02-.08-.19.44-.36.88-.52,1.32-.38.52.03-.41-.36-.09-.45,1.51-1.26,2.08-1.4,3.3-1.12.51-.76,2.99-1.35,3.77.07.01.13.02.2.03.16.36-.15.27-.22.44.16.05.21-.2.3.02,0,.58-.02,1.15-.1,1.66-.02.26-.09.49-.13.74-.04.11-.07.22-.1.33-.02.06-.03.11-.04.11-.02.02-.04.04-.06.06-.11.09-.3,0-.41-.12-.06-.07-.03-.07-.13-.18-.27-.26-.54-.55-.81-.86-.74-.9-1.24-.34-1.82-1.7.17.1.35.2.53.3-1.83-1.98-2.38-4.23-3.08-6.18.09.1.18.09.22.28.1-.48-.27-1.58-.44-1.55-.02-.32.15-.11.22-.33.08-.46-.36-1.01-.14-1.29.03-.05.07.1.09.18-.12-.26,0-1.3-.25-.97.12-.74-.04-1.38.19-2.04-.24-.34.3-1.42-.11-1.45.21-.03.34-.43.36-.88.02-.45-.1-.94-.26-1.12.17.09.05-.51.28-.42-.06-.29-.18-.51-.34-.77-.22-.14-.35-.14-.42-.01-.04-.27-.16-.48-.34-.62-.18-.12-.4-.2-.6-.28-.41-.12-.77-.2-.76-.64-1.52-.32-2.91-.39-4.22-.51.26-.45,1.41.21,1.6-.26-1.32-.06-2.18.23-3.3-.08-.28-.11.25-.17.39-.22-1.26,0-2.25-.43-3.32-.48.02-.04.15-.05.26-.06-.2-.04-.43-.19-.49.01.07,0,.14,0,.21,0,.18.39-1.01.35-1.11.48.56-.42-.87-.54-.04-1.02-.13-.02-.33,0-.37.15-.16-.12-.18-.21.07-.28-.34-.09-.47-.1-.6-.08-.06,0-.12,0-.2-.01-.08-.01-.13-.03-.21-.13.07-.08.16-.04.24-.11-.1.02-.28-.01-.44-.08-.1-.03-.12-.1-.18-.16-.04-.07-.12-.15-.1-.25.06,0,.12-.07.13.03-.08-.24-.18-.49-.11-.91.12-.41.34-.88.88-1.25.03.55.39-.21.7.02.15-.17.29-.35.47-.52-.11.01-.22.03-.33.04.48-.38.81-.92,1.35-1.15-.11.13-.22.26-.32.4.33-.25.67-.5,1.01-.74-.23.09-.45.18-.68.28.48-.52-.32-.33.51-.74-.14.13.59-.36,1.02-.38,0,0,0,0,0,0,.24-.28.48-.56.99-.78.18.02.12.38.24.39.07-.2.46-.52.72-.68.38-.24.77-.48.9-.73-.1.14-.02.3.05.31.05-.12.1-.23.15-.35.34-.1.41-.09.43.06.95-.48-.51-.19.67-.67-.07.07-.01.07-.17.21.57-.29,1.08-.64,1.58-.99.48-.38.94-.75,1.47-1.05.55.04-.8.67-.26.65,1.42-1.1,2.53-2.65,3.15-4.02-.05.08-.1.17-.14.25-.27-.15-.1-.38.13-.69.26-.31.44-.71.33-1.05.03.17.34.21.27.16.23-1-.2-1.92-.88-3.13.07.04.15.08.22.12-.03-.55-.44-1.33-.63-1.88-.24-.11-.36-.42-.5-.16.09-1.86-2.15-2.97-2.18-4.6.1.17.36.38.29.25-.26-.4-.58-.79-.83-1.21-.21.14-.08.19-.14.49-.26-.13-.55-.48-.72-.79.48.55.42-.08.43-.34-.06.05-.19-.02-.26.02.12-.72-.6-.04-.74-.99.05.01.11.02.16.04-.23-.33-.56-.64-.63-1.01.27-.12.26.36.54.39-.11-.24-.32-.48-.48-.73-.14-.24-.23-.52,0-.61.03.21.06.46.18.66.32-.31.26-.3.38-.49,0,0-.01,0-.02.01.11-.11.28-.17.49-.14-.07-.02-.13-.04-.2-.05-.15-.4.18-.45.55-.39.4.06.85.19,1.35.15-.96.1-.12.18-.17.44.27.15.66.37.56.41.47-.07.8.45,1.53.42.02.1.54.22.4.38.65.2-.13-.21-.07-.29,1.07.13,2.24,1.35,3.76,1.75,1.27.52,1.63.41,2.8.93.3.33-.46.09-.46.09.53.46.97.7,1.57.95-.15,0-.07.12.04.3.44.25.47-.09.96.36-.15.02-.36.08-.62.03.55.25,1.13.41,1.69.65.05.22-.44.02-.68-.01.62.3,1.58.78,1.88.65-.11-.1-.22-.19-.32-.29.22.11,0,.25-.18.2-.6-.12-.66-.5-.65-.59.13.06.26.11.39.17-.1-.66-1.5-.8-2.25-1.3.17-.04.34-.08.51-.12-.31-.07-.62-.14-.94-.21-.12-.18-.12-.43.28-.24-.46-.49-.55-.18-.93-.64-.04-.06,0-.06.05-.04-.2-.08-.4-.16-.61-.23.15,0,.02-.27.34-.03-.92-.77-1.76-.71-2.05-1.16.03,0,.06.02.1.03-1.52-.68-.24.15-1.45-.15-.18-.32-.37-.65-.58-.97-.07.06-.14.11-.21.17-.15-.09-.46-.25-.39-.32-.63-.11.08.15-.3.16-.73-.6-2.1-.79-2.28-1.27-.27.1.74.44-.07.27-.26-.55-.94-.29-1.66-.72.17-.18.88.18.12-.28-.34.28-1.43-.52-2.05-.5.08.18-.28.16-.67.23-.43.04-.72.4-.73.83-.07-.08-.22.32-.16.85.05.53.25,1.15.36,1.54-.03,0-.05-.01-.08-.02.49.11.8.88,1.17,1.4-.26.02-.41-.06-.68-.34.09.17.17.34.26.51.2.1.33.25.57.57-.13-.02-.26-.05-.39-.07.4.69,1.09,1.31,1.34,2.21.33-.03.48-.87,1.16-.04-.14.07-.4.18-.6-.04.06.07.28.24.29.41-.15-.1-.31-.19-.46-.29.08.42.34.14.47.46-.24.06-.05.27-.25.28-.07-.07-.04-.29-.2-.39.13.36.23.81.12,1,.12-.07.32-.09.48.16.35.65-.17.31-.1.72.25.11.28.57.64.48.09.19-.06.27-.12.37.33.29.74,1.53.96,1.05,0-.03,0-.06-.01-.09.01.01.02.03.04.05,0,0,0,0,0,0,0,0,0,0,0,0,.82.99.63,2.31.76,3.34-.04,0-.08,0-.12,0,.12.63-.15,1.39-.17,1.89-.11.19-.46.38-.54.27-.16.48-.18.57-.85,1.12.21-.51-.27.07.26-.5-.54.52-.81.51-1.21,1.22.02-.33-.67.17-.94.42.19-.07.39-.13.58-.2-.32.27-.65.47-.97.68-.02-.12-.04-.24-.06-.35-1.54.59-2.14,2.1-3.61,2.15-.27.4.87-.3.66.11-.18.08-.36.14-.55.19-.09.02-.19.04-.28.06-.04,0-.09.02-.14.02-.07.02-.14.04-.21.06-.46.15-.62.13-.75.2-.95.38-.53.87-1.52,1.33.18.02.46.2-.15.72-.64.36-1.04.1-.71-.23.15-.1.24-.12.26-.09.18-.16.42-.37.1-.32,0,.05-.01.1-.02.15-.39.1-1.24.68-1.15.4-.4.41-.08.29.3.1-.9.41-1.23.85-2.04,1.43.16-.07.36-.07.25.04-.57.45-.63.61-.63.75,0,.13.05.22-.21.62-.42.41-.29-.42-.62.61-.32.64-.35.07-.33-.28-.04.3-.11.56-.15.83-.02.29-.06.58-.05.85.03.27.06.54.11.79.05.23.14.4.22.56-.13-.18-.28-.32-.38-.55.21.38.39.62.55.9-.01-.16-.02-.31-.03-.45.15.36.33.52.26.59.3.1.1-.43.61-.2.05.09.12.19.23.27.1.05.2.11.29.16.17.1.31.2.29.37-.76-.58-.02.36-.78-.04.19.07.32.16.51.32.01.05-.05.04-.12.03.67.71.51-.12,1.3.26-.17.13.06.39.21.4-.32-.13-.04-.34.3-.36.46.33.59.08.85.18-.09-.05-.19-.1-.28-.15.17-.14.42-.04.79,0-.02.15-.36,0-.25.1.51-.21.78.54,1.41.44.21.17-.1.33.1.46.7-.11.58.37,1.29.29-.09-.27-.15-.22.4-.37-.38,0-.76-.01-1.13-.02.27-.07.54-.15.82-.22-.32-.06-.74.03-.92-.05.4-.13.35-.08.27-.31.3.43.97-.05,1.38.27-.09.19-.17.39-.26.58.64.4,1.48-.07,2.36.31-.08-.06-.17-.12-.25-.17.24-.2.61.1.95.1-.14.18.01.31.07.47.08-.16.62.24.94-.1.08.13.14.27.2.42.29.21.55.18.81.17.27-.02.56-.04.76.25-.31.04-.22.37-.64.19.15.16.25.32.37.21,0,.11.12.08.2.16.12.11.2.26.14.42.09.05.31-.03.33.27-.03.05-.09.04-.09.04.1-.05.16.41.36.05-.26.55-.28,1.14-.32,1.78-.04.63-.08,1.28-.34,1.75,0,.69.11,1.52.15,2.14-.05-.03-.09.02-.08-.1-.09.9.52.41.47,1.44-.2.57-.22-.48-.28-.15-.54.27.25,1.17.12,1.91-.02-.05-.05-.1-.07-.15-.06.55.54,1.18.83,2.02,0,0-.06-.03-.08.02.49.49,1.08,1.54,1.65,2.32-.35-.19-.32-.33-.44-.13.25.35.26-.19.76.5.03.26.29.8.13.92-.17-.22-.32-.44-.48-.67-.06.42.61.86.84,1.23-.05,0-.1,0-.16-.01.41.5.74.75,1.08,1.01.34.26.66.52,1.31,1.09-.02-.05-.04-.1-.06-.16.92.43.59.7,1.63,1.15.11.16.24.33.39.49.37.16,1.08.39,1.48.26.41-.1.48-.48.53-.75.14.26.18.61-.02.82-.18.22-.7.24-1.2.12.42.16,1.06.27,1.38.14.34-.11.38-.42.3-.58,0,.17-.03.38-.23.4.06-.55-.12-1.2-.1-1.77.5.31.57-.06.59-.55.02-.49.02-1.09.38-1.18-.34-1.39.17-2.46.44-3.98-.75.26.08-.44-.58-.62.05-.36.11-.49.16-.5.23-.29.48-.59.74-.88.27-.17.01.39.17.42.33-.73.38-.2.74-.62-.26,0-.21-.4.08-.78-.19.15-.37.31-.56.46.18-1.2.91-.61,1.23-1.87-.01.15-.02.3-.03.45.23-.67,1.21-2.07,1.16-2.78.13-.06.37-.09.24.15.48-.58.9-1.25,1.43-1.8.51-.55,1.16-.99,1.7-1.05-.02.06-.04.12-.05.18.21-.13.34-.41.68-.36-.01.06-.08.17.03.15.11-.08.67-.42,1.03-.36-.11.07-.22.13-.32.21,1.31,0,2.31-.53,3.68-.54-.17.43,1.02.69,1.69.81-.01.02-.03.04-.04.06,1.9.19,3.41-.08,5.36-.09,1.05.58,3.99.52,6.24.75-.35-.09.06-.32.48-.41.57.06,1.45-.46,1.45-.06-.07,0-.13.01-.2.02.26.16.64.2,1.23.07.48-.08,1.37-.4,1.85-.74-.11-.16-.24-.31-.37-.46.76-.25,1.3-.95,1.19-1.71-.08-.77-.66-1.47-1.01-1.82-.81-.81-1.56-1.33-1.59-1.88-.42-.18-.78-.5-1.18-.64.09-.07.17-.13.26-.2-.74-.75-1.11-1.11-2.08-1.84.12,0,.23,0,.35,0-.5-.46-1.31.09-1.78-.3.07-.15.14-.3.22-.45-.84-.74-1.33-1.78-2.26-2.2.07-.03.18-.11.3,0-.07-.09-.16-.23-.24-.37-.03-.05-.01-.03-.08-.13-.04-.08-.12-.16-.14-.19-.07-.08-.13-.16-.19-.23-.26-.29-.52-.44-.71-.15.31-.32-.66-.79-1.12-1.05.1-.05.2-.11.29-.16-.58-.05-.69.02-1.12-.39-.05-.14.13-.27.17-.07-.13-.49-.45-.1-.6-.69.09.02.18.03.26.05-.21-.43-.28-.32-.58-.42-.25-.19-.24-.92,0-1.13-.17.03-.42-.13-.39-.46.09-.09.16,0,.2.03.07-.75-.2-1.05-.11-1.58.01-.06.02-.13.03-.19.02-.05.03-.11.06-.17.09-.04.13-.09.16-.14,0,.08-.01.16-.02.24,0,0,0,.15-.01.2-.07.52-.08.87-.09.84.25-.11.29-.63.63-.36-.09-.13-.17-.33-.25-.56,0-.06-.01-.23-.03-.21-.11-.22-.12-.53.01-.84.03-.03.06-.06.1-.08,0,.02,0,.04.01.05.05-.13.06-.24.06-.36.09-.19.14-.31.21-.5.2-.07.32-.71.43-1.04-.24.01-.07-.41-.39-.03.03-.05.01.06-.05.28,0,.05-.02.11-.02.14,0,0,0-.02-.01-.02-.06.21-.14.49-.23.8-.04-.25-.07-.52.18-.88-.1-.17-.2-.37-.23-.49.48-.43.91-1.28,1.13-1.38.17-1.02.52-2.41.17-3.12-.01-.3.17-.32.25-.42.02.18-.01.38.04.48,0-.6.13-1.75-.18-1.93.14-.73.28.46.23-.58.03.05.06.1.09.15.23-.98-.07-1.85-.48-2.72-.44-.9-.85-1.71-1.47-3,.1.18.14.27.12.32-.32-.53-.8-1.11-1.53-1.6-.72-.5-1.59-.74-2.14-.71-1.08.09-1.53.64-2.11,1.08,0,0,.01-.01.02-.02-.37.25-.74.51-1.13.76-.44.33-.21.58-.23.99-.12-.05-.25-.1-.38-.14.01.25.02.49.02.74-.26.86-1.54.58-1.87,1.73.09.02.18.04.28.06-.3.26-.88.95-1.01.7,0,.05.04.26-.17.26-.04-.04-.08-.09-.12-.13-.21.27-.45.51-.73.73-.42.09-.46-.07-.55-.2-.08-.13-.21-.25-.71-.16-.3.12-1.07.38-.94.51.18.03.48.16.51.32-.15,0-.31.01-.47.02-.06.22-.22.43-.21.65,0,.21.23.49,1.02.69.36-.11.7-.21.98-.38.13.05.25.1.38.15-.28.05-.53.15-.84.16.54.16.81-.11,1.06-.32.11.09.27.13.47.1.24-.24.41-.5.56-.76.2.11-.14.5.43.32.22-.37-.54-.18-.1-.61.44-.02.48.19.71-.21.13.06.12.19,0,.33.23-.35.77-.66.71-.99.48-.03.78-.87,1.11-.5,0-.16.11-.7.28-.94.11.81.73-.8,1.12-.25-.17-.67.64-1.19.82-1.79.01.05.04.16-.02.18.26-.2.46-.12.69-.16-.11-.13-.14-.27-.14-.4.02-.01.03-.03.05-.04,0-.24.12-.49.11-.75.67.14.23.55.65.82-.31-.3.27-.62-.07-.81.45.1.33.02.7.28-.32-.51.16-.13.17-.46.46.28.32.45.49.36.07.15-.01.29.01.29ZM162.86,117.1s0,0,0,0c.04-.16.07-.3.09-.38-.02.08-.04.19-.08.38ZM162.64,118.59c.01-.09.03-.2.05-.33,0-.03,0,0,0-.07,0-.05,0-.11.01-.18.1-.08.19-.05.18.1-.02-.02-.03,0-.05.03-.03.07-.04.06-.06.1-.04.11-.09.24-.14.36ZM165.04,115.44c-.03.21-.1.28-.15.3.03-.1.05-.21.08-.37,0,0-.01-.02-.02-.03.04.02.07.05.09.09Z"/>
          <path class="cls-2" d="M164.85,115.05s0-.05.01-.09c-.03.04-.06.08-.09.13.02.03.03.05.05.08.01-.04.02-.08.03-.12Z"/>
          <path class="cls-2" d="M136.32,110.19s0,.02,0,.03c0-.03,0-.05.02-.07,0,.02-.02.03-.03.04Z"/>
          <path class="cls-2" d="M172.38,132.46s.04-.03.07-.05c-.05-.01-.1-.03-.15-.04.03.03.06.06.08.09Z"/>
          <path class="cls-2" d="M133.56,102.46s.03-.05.03-.11c-.02,0-.02.05-.03.11Z"/>
          <path class="cls-2" d="M132.69,99.74c.07-.05.16-.08.25-.1-.13.01-.21.06-.25.1Z"/>
          <path class="cls-2" d="M134.67,99.86s.03-.07.04-.1c0,0,0,0,0,0-.01.03-.02.07-.03.1Z"/>
          <path class="cls-2" d="M126.57,129.11s.06,0,.08,0c.21,0,.07-.02-.08,0Z"/>
          <path class="cls-2" d="M127.99,122.7c-.11.12-.21.24-.33.35.22-.12.4-.22.33-.35Z"/>
          <path class="cls-2" d="M137.62,133.03s0,0,0,0c0,.03.01.06.02.09,0-.03-.01-.06-.02-.09Z"/>
          <path class="cls-2" d="M127.1,123.39c.24-.09.41-.21.56-.34-.19.09-.41.2-.56.34Z"/>
          <path class="cls-2" d="M147.31,106.53s.09.06.13.09c0-.02.02-.02.04-.03-.06-.02-.11-.04-.17-.06Z"/>
          <path class="cls-2" d="M147.47,106.59c.05.02.11.04.17.06-.07-.04-.13-.07-.17-.06Z"/>
          <path class="cls-2" d="M147.98,106.77c-.11-.04-.23-.08-.35-.12.11.06.24.15.35.12Z"/>
          <path class="cls-2" d="M143.7,104.17s-.06.03-.09.05c.03,0,.06-.02.09-.05Z"/>
          <path class="cls-2" d="M142.53,103.5c.27.18.59.58,1,.76.02-.01.05-.03.08-.04-.25,0-.73-.7-1.08-.72Z"/>
          <path class="cls-2" d="M137.58,99.83c.38.19.77.36,1.14.56-.18-.18-.44-.42.09-.2-1.44-.91.28.32-1.22-.36Z"/>
          <path class="cls-2" d="M133.99,98.44c.62.12-.05-.15-.04-.2-.38,0-.46,0,.04.2Z"/>
          <path class="cls-2" d="M136.07,115.79c-.08-.04-.17-.08-.25-.13-.13.3.1.04.25.13Z"/>
          <path class="cls-2" d="M133.77,119.54c.16-.05.32-.1.48-.16.01-.1.02-.2.04-.29-.17.15-.34.3-.51.45Z"/>
          <path class="cls-2" d="M130.43,119.54s.1-.08.15-.12c-.2.14-.39.28-.58.41.15-.1.29-.2.44-.3Z"/>
          <path class="cls-2" d="M135.23,137.62c.1-.05.2-.11.29-.16-.03-.23-.35-.21-.29.16Z"/>
          <path class="cls-2" d="M140.94,151.63c.05.11.15.26.38.46.26.22.57.44.83.55-.32-.21-.57-.45-.79-.64-.19-.17-.3-.29-.42-.38Z"/>
          <path class="cls-2" d="M177.17,135.11c-.03.16-.06.33-.11.5.14-.3.24-.61.23-.93-.03.14-.05.29-.11.42Z"/>
        </g>
      </g>
      <g>
        <path class="cls-2" d="M152.19,131.37c-.13.08-.2.28.04.26.11-.11.22-.21.34-.32-.13.02-.25.04-.38.06Z"/>
        <path class="cls-2" d="M153.36,132.12c.34-.14.75-.39.71-.72-.39.3-.39.16-.84.51-.24.02-.34-.14-.24-.26-.12.08-.3-.1-.53.09.15.28.53.33,1.01.15.05.08-.07.16-.11.22Z"/>
        <path class="cls-2" d="M168.93,129.44s.04.08.06.12c0-.04-.03-.08-.06-.12Z"/>
        <path class="cls-2" d="M162.17,120.56c.03.07.07.08.1.07-.04-.06-.08-.1-.1-.07Z"/>
        <path class="cls-2" d="M162.31,118.59s-.02.08-.03.12c.03-.05.05-.1.03-.12Z"/>
        <path class="cls-2" d="M168.93,129.44c-.05-.1-.1-.2-.15-.31-.13.06.05.17.15.31Z"/>
        <path class="cls-2" d="M156.61,131.58c-.08,0-.14.04-.21.07.06,0,.12-.02.19-.02,0-.02.01-.03.02-.05Z"/>
        <path class="cls-2" d="M172.1,134.05s-.08.02-.12.03c.01.03.03.07.07.12.02-.05.04-.1.06-.15Z"/>
        <path class="cls-2" d="M166.23,134.02c.14.02-.02-.26-.06-.38.01.11-.04.16-.14.17.04.05.1.12.2.21Z"/>
        <path class="cls-2" d="M157.54,132.84s-.1.02-.14.03c.04,0,.1-.02.14-.03Z"/>
        <path class="cls-2" d="M171.73,131.37c.06-.01.1-.04.11-.06-.06,0-.09.03-.11.06Z"/>
        <path class="cls-2" d="M140.95,145.59s.02.04.03.07c-.01-.04-.02-.07-.03-.07Z"/>
        <path class="cls-2" d="M143.72,142.89s-.01.05-.02.07c.05.03.09.07.14.09-.04-.05-.08-.11-.12-.16Z"/>
        <path class="cls-2" d="M163.4,114.79s0,.01,0,.02c0,.1.01.04,0-.02Z"/>
        <path class="cls-2" d="M137.56,100.88c.47.3.08.22-.18.19-.28-.04-.43-.02.14.34-.06-.07.18-.08.35-.11.17-.04.26-.11-.32-.42Z"/>
        <path class="cls-2" d="M156.72,131.63c.06,0,.12,0,.18.01-.08-.02-.14-.02-.18-.01Z"/>
        <path class="cls-2" d="M137.52,101.41s0,0,0,0c.04.02.08.05.11.07-.05-.03-.07-.05-.11-.07Z"/>
        <path class="cls-2" d="M164.02,105.02s-.06.07-.07.11c.02,0,.05-.03.07-.11Z"/>
        <path class="cls-2" d="M163.55,112.38c.03-.06.05-.12.08-.17-.04.07-.06.12-.08.17Z"/>
        <path class="cls-2" d="M159.8,101.98c-.11.03-.17.02-.27.13.02,0,.04,0,.07,0,.01-.06.06-.13.2-.14Z"/>
        <path class="cls-2" d="M157.63,104.43s.06,0,.09,0c.02-.03.03-.06.05-.09-.04.03-.09.06-.13.08Z"/>
        <path class="cls-2" d="M139.18,136.91c-.09.1-.17.17-.26.23.2-.1.22.45.26-.23Z"/>
        <path class="cls-2" d="M156.59,131.74c.03-.07.07-.1.14-.11-.04,0-.09,0-.13,0-.02.04-.03.08,0,.11Z"/>
        <path class="cls-2" d="M161.21,104.26s-.03,0-.04,0c0,0-.01,0-.02,0-.03.02-.05.03-.08.05.14-.08.11-.03.15-.06Z"/>
        <path class="cls-2" d="M130.91,122.72s-.09.08-.13.11c.06-.03.11-.07.13-.11Z"/>
        <path class="cls-2" d="M160.19,105.35c-.14,0-.25.02-.34.07,0,.03,0,.07.02.1.11-.06.21-.11.32-.17Z"/>
        <path class="cls-2" d="M138.92,137.15s0,0,0,0c0,0,0,0,0,0Z"/>
        <path class="cls-2" d="M139.62,141.04c-.06-.59-.37-.2-.58-.27-.17-.67.22-.38.38-.66-.12-.41-.46-.68-.45-1,.06-.04.08-.11.15-.05-.29-.4,0-1.36-.3-1.82.03-.05.07-.07.09-.09-.19.13-.37.18-.49.2.01-.26-.18-.43.06-.59-.02.16.07.15.14.21-.03-.08-.05-.17-.07-.25.36-.32.08.35.33.29-.06-.51-.26-1.07-.11-1.5.35-.16-.02.93.35.32-.07.22-.14.44-.21.66.58-.61-.08.39.53-.18.21-.86-.05-.9.19-1.74-.16-.15-.29.13-.45-.02-.14-1.11,1.05-1.18.72-2-.21-.18-.63-.1-.38-.83.13.02.27.04.4.06.03-.45-.13-.51-.26-.57-.13-.07-.22-.14-.19-.62.21.04.25.55.28.4.23-.74-.3-.27-.42-.65.11-.1.21-.2.32-.31-.04-.07-.11-.25-.2-.31-.08-.07-.16-.15-.24-.22-.15-.15-.36-.24-.54-.35-.39-.2-.81-.34-1.22-.49.12-.07.34-.11.24-.29-1.11-.31-2.19-.8-3.15-1.23-.19.07-.39.14-.58.21-.09-.02-.1-.16.03-.2-.36-.19-.13.18-.39.26-.25-.02-.22-.22-.02-.28-.88.11-2.37.17-2.97-.28.06-.02.13-.04.19-.06-.53-.23-.95.47-1.36.07.04,0,.09-.02.13-.03-.62-.23-1.31-.3-1.8-.54-.55-.26-.69-.52-.47-.76-.23.04-.19-.14-.09-.26.05-.06.08-.11.1-.18.03-.08.02-.17-.08-.26.72-.33.61-.14,1.63-.64.26-.15.27-.56.61-.84.05.08.1.16.15.24.12-.19.25-.38.38-.57.15.04.3.08.44.13.11-.09.22-.19.34-.28-.16.07-.37.07-.39-.01.52-.45,1.53-.66,1.61-.54.44-.34.88-.68,1.33-1.02.02.12-.2.29-.36.46.65-.69.27.19.87-.45-.13,0-.02-.18-.04-.23.44-.05,1.27-.52,1.86-.97,0,.08-.01.16-.02.23,1.15-.64,2.41-1.56,3.62-2.7-.52.34-.68.03-.38-.29.13.02.27.03.4.05.05-.3-.45.25-.21-.28.41-.4.59-.12.44.2.13-.2.26-.4.39-.6.12,0,.05.16.13.25,0-.16.31-.36.57-.61.25-.26.49-.55.41-.78.04,0,.08,0,.12-.01.7-1.39.64-2.02.64-3.04-.34.02-.28-.38-.58-.63,0-.71.08-1.56-.32-2.33-.41-.51-.34-.08-.65-.27.29-.14-.15-.9.27-.57-.29-.45-.48-.73-.72-1.04-.12-.15-.26-.32-.41-.49,0,.02-.03-.02-.05-.03-.04-.06-.09-.12-.13-.18-.09-.13-.2-.25-.32-.39-.04.17,0,.33-.14.28-.17-.2-.18-.53-.03-.54.02.02.04.03.07.05-.63-.59-.96-1.38-1.3-2.12-.08-.18-.16-.36-.25-.53-.06-.14,0-.11-.03-.17-.01-.06-.07-.1-.32-.23.02,0,.03.02.05.03-.2-.14-.43-.34-.63-.6.05-.14.37.33.65.39-.23-.2-.26-.35-.18-.36.07-.02.19.02.29.07.23.11.32.2.53.15-.08.33.79.72,1.58,1.07.81.36,1.67.76,2.08,1.27.01-.06.02-.12.03-.18.38.03.29.28.47.44.05-.12-.22-.31.01-.28,1.27.63,2.43,1.46,3.52,2.32.27.21.53.42.79.63.29.23.57.46.85.69.29.23.65.44.97.65.35.2.72.36,1.08.53,1.17.35.91-.66,2.21-.09-.14.11-.29.2-.45.3,2.38-.14,4.59-.68,5.87-1.96-.04.12.01.21-.14.3.48,0,1.13-.79.98-.95.21-.15.16.1.35.08.38-.12.42-.83.72-.77.05,0-.01.13-.04.18.09-.24.71-.71.36-.77.03-.02.05-.04.08-.06,0,0,.02,0,.02,0,.02,0,.11-.09.16-.13.1-.11.19-.22.27-.32.15-.21.28-.4.48-.5-.08-.46.68-.54.36-.94.18.19.39.11.56-.05.08-.07.15-.19.21-.27.05-.09,0-.12,0-.2.07.15.15.1.24.31.02-.03.06-.13,0-.4.16.31.19.21.33.25.11.02.26.18,0,.3.03.02.03,0,.07.06.04.07.08.14.13.22.08.15.16.3.23.45.14.29.25.63.36.95.21.63.34,1.23.4,1.84-.38-.08-.13-1.32-.57-1.29.32,1.11.65,1.81.44,2.94-.09.29-.15-.19-.21-.3.06,1.17-.38,2.24-.44,3.32-.04,0-.05-.12-.05-.24-.04.21-.19.48,0,.47,0-.07,0-.14,0-.21.35-.31.32.87.45.91-.42-.38-.42,1.04-.93.45,0,.14.03.32.16.29-.1.21-.19.27-.27.06-.13.77.16.5-.05,1.19-.09,0-.09-.14-.17-.2.08.35.16.68-.07,1.28-.05-.03-.14.05-.09-.13-.24,1.03.08,1.61-.19,2.72-.42-.16-.17.42-.54.63.04.18.07.36.14.51.06-.1.11-.2.17-.31.02.49.37.72.33,1.15-.07-.08-.15-.15-.22-.23.07.27.17.5.27.75,0-.17.01-.35.02-.52.32.29.47-.33.52.26-.08-.08.13.38,0,.72,0,0,0,0,0,0,.21.09.41.19.46.51-.08.15-.44.25-.5.35.4-.05.57.74,1.04.68-.12,0-.32.14-.34.19.11-.02.23-.04.34-.06.03.21,0,.26-.16.36.29.47.35-.51.55.17-.05-.02-.07.03-.17-.03.31.6.96.85,1.26,1.41-.23.43-.44-.33-.61.08.67.59,1.65,1.02,2.15,1.76-.02-.05-.05-.1-.07-.16.59-.31.19.69.75.84-.12-.05-.39.11-.31.09.34.51,1.01.83,1.91,1.41-.08,0-.15,0-.23,0,.15.35.68.75.95,1.08.24,0,.41.18.51-.05.1.39.07.5.24.64.14.13.38.24.67.39.28.14.62.32.82.5.17.17.29.36-.27.4.07-.1-.31-.31-.29-.25.09.12.03.24-.05.29-.08.06-.16.09-.25.12.56.26.4.16,1.04.33.2.18.07.32-.26.31.25-.18-.76-.42-1.1-.58.15.08.21.17.35.25-1.14-.49.61.52-.66.15-.03-.04-.06-.09-.09-.13-.26.04-.41.2-.81.13-.43-.31.23-.11.02-.35-.47-.02-.5.48-1.21.15.15-.06.45-.04.59-.11-.79-.38-.76-.3-1.16-.38.01,0,.03,0,.04.01-.31-.07-.61-.15-.92-.22.09.04.18.07.27.11-.07.71-1.12.04-1.64.47.53-.4-.03-.26-.14-.58-.25-.11-.6-.23-.56-.32-.24.23-.69-.26-1.03.08-.06-.11-.39-.04-.4-.3-.43.04.17.19.18.32-.64.29-1.79-.57-2.71-.18-.86.12-1.01.45-1.88.54-.28-.18.25-.35.24-.35-.45-.19-.77-.19-1.21-.11.1-.08.02-.16-.09-.29-.33,0-.28.35-.7.16.1-.1.23-.27.41-.37-.4.06-.82.21-1.25.26-.06-.18.32-.24.48-.34-.46.04-1.18.05-1.42.31.08.04.17.08.25.12-.17,0,0-.24.13-.28.45-.18.52.14.51.25-.1.01-.2.03-.31.04.13.61,1.2.01,1.76.1-.1.13-.21.27-.32.4.23-.1.45-.2.67-.3.12.12.19.37-.13.4.42.24.4-.11.77.15.04.04.02.06-.02.07.15-.03.3-.06.44-.09-.09.08.07.3-.21.22.81.31,1.28-.2,1.6.14-.02,0-.04.01-.07.02,1.1-.05.09-.29.84-.6.23.27.47.54.72.82.01-.1.03-.2.04-.3.12.02.36.06.35.18.38-.17-.11-.14.09-.32.65.33,1.49,0,1.82.5.1-.22-.62-.22-.09-.34.41.54.66-.03,1.31.25-.01.26-.61.07.07.36.06-.44,1.12.18,1.55.13-.24-.37.9-.08,1.59-.14.05.12,1.67.32,2.6.51.02.02.03.04.05.06-.25-.36.67-.29,1.1-.42.26.15.28.24.11.36.18-.03.35-.06.51-.1-.04-.11.04-.17.3-.3.07.06.14.13.21.19.14-.07.27-.15.37-.3.11-.16.08-.35.01-.49-.13-.29-.37-.54-.43-.81-.48-.06-.7.21-1.74-.32.14,0,.33.02.51.05.15.02.31.07.44.14-.08-.05-.38-.18-.38-.27.22.08.43.17.63.26-.06-.23-.46-.16-.63-.34.35.02.09-.14.39-.11.09.06.05.18.26.27-.15-.23-.29-.54-.19-.68-.15.04-.44.04-.69-.14-.6-.47.15-.24-.1-.59-.33-.06-.57-.51-.86-.3-.12-.11,0-.21.03-.31-.36-.11-1.03-.87-1.12-.45.01.02.02.04.03.06-.01,0-.03-.01-.05-.02,0,0,0,0,0,0,0,0,0,0,0,0-.97-.42-1.19-1.4-1.89-1.93.03-.02.06-.05.1-.07-.46-.29-.81-.77-1.24-.87-.09-.11-.05-.39.1-.44-.31-.22-.43-.18-.63-.69.4.13.06-.22.36.18-.23-.43-.16-.62-.73-.78.34-.08.06-.51-.15-.61.02.13.03.25.05.38-.2-.15-.32-.33-.43-.51.13-.06.25-.12.38-.18-.23-1.01-1.67-.71-1.4-1.78-.35-.01.11.52-.26.55-.19-.37.06-1.08,0-1.19-.07-.6-.71-.09-.8-.71-.09.14-.39.44-.64.08-.08-.44.36-.79.52-.61.04.09.01.15-.03.17.08.1.18.23.26,0-.04,0-.09.02-.13.03.05-.26-.08-.79.14-.77-.18-.22-.22-.02-.24.24.05-.59-.13-.81-.03-1.4-.07.11-.2.25-.2.16.19-.88-.22-.28-.18-.89.24-.41.39.02.36-.57.19-.41.32-.14.38-.02-.11-.52.36-1.09.47-1.41,0,.1.01.19.02.29-.02-.17.03-.32.06-.47-.09.07-.17.13-.26.2.09-.18.12-.34.21-.34-.09-.18-.39.17-.49-.19.18-.25.1-.76.4-.85-.3.78.3-.09.17.56,0-.12.04-.28.13-.46.04-.03.05.03.05.07.45-.73-.22-.34,0-1.12.13.11.34-.17.34-.29-.09.31-.29.14-.33-.16.25-.5.06-.56.14-.83-.04.1-.09.2-.13.3-.13-.12-.04-.37,0-.74.12-.02,0,.34.08.21-.17-.43.48-.87.4-1.45.15-.25.29.01.39-.21-.1-.66.31-.66.21-1.35-.22.17-.17.21-.33-.29.03.37.04.75.04,1.12-.07-.25-.14-.5-.22-.74-.03.33.05.72,0,.91-.12-.36-.07-.32-.26-.18.36-.41-.07-.92.15-1.42.17.02.34.05.5.07.24-.78-.25-1.47-.33-2.5,0,.11-.02.22-.03.33-.23-.15-.14-.63-.31-.98.18.04.19-.18.25-.33-.11.02-.25-.8-.66-.92-.02-.23-.07-.48-.16-.75-.37-.66-.77-.89-1.09-1.02-.16-.08-.33-.09-.51-.14-.18-.05-.38-.08-.62-.13.26-.15-.3-.43.49-.31-.42-.17-.79-.24-.74-.1-.14-.09-.35,0-.55.1-.18.13-.34.26-.52.26-.03.15.1.36-.11.53-.06-.02-.09-.08-.09-.08.08.08-.13.38.21.41-1.02-.06-1.05,1.45-1.9,1.46-.06.09-.12.19-.18.29-.05.06-.22.28-.25.36-.14.22-.28.43-.43.59-.03-.07-.08-.08,0-.12-.56.3.21.72-.49,1.05-.51-.01.15-.4-.11-.34-.56-.46-.57.64-1.26.58.02-.03.05-.07.07-.1-.44.02-.59.71-1.2.91,0,0,0-.07-.05-.09-.21.48-1,.86-1.65.99.16-.28.27-.17.09-.41-.27.07.18.4-.41.54-.21-.14-.64-.27-.69-.54.17,0,.35,0,.52-.01-.29-.35-.66,0-.94-.11.02-.05.03-.1.05-.15-.75-.08-.88.28-1.75-.09.02.05.03.09.04.14-.66.12-.29-.39-.92-.38.02-.14.05-.27.07-.41-.18-.06-.5-.16-.85-.27-.38-.13-.79-.29-1.11-.45.49-.02,1.32.32,1.78.42-.26-.17-1.11-.66-1.38-.61.15.05.37.08.48.21-.59-.01-1.19-.23-1.87-.66.54-.51-1.69-1.26-1.98-2.03-1.44-.54-2.68-1.6-4.49-2.37.51.78-.51-.22-.52.35-.48-.17-.69-.26-.74-.32-.52-.33-1.19-.69-1.83-.98-.26-.14-.16-.15-.02-.15.14,0,.41.09.33,0-.73-.26-.84-.28-1.01-.41-.15-.1-.26-.21-.78-.38.38.26-.11.27-.66.32.33.02.68.11,1.06.23-.54.13-.88.08-1.25.1-.18.01-.33.07-.44.17-.16.08-.12.33,0,.7-.11-.18-.17-.36-.25-.54.05.36.05.97.44,1.76.36.78,1.01,1.62,1.53,1.93,0,.15-.04.41-.34.05.19.3.25.39.37.56.11.15.24.31.37.45.26.3.53.58.79.86.51.55.93,1.07.97,1.52-.07,0-.14-.02-.21-.03.07.09.19.14.3.23.08.1.13.15.2.25.03.05.05.11.05.19-.08.01-.22-.02-.17.08.12.08.61.42.66.72-.11-.05-.21-.1-.32-.16.2.55.51.91.83,1.24.32.33.71.63.87,1.07-.55.13-.46.98-.57,1.38-.03,0-.05,0-.08,0,.01,1.14.38,1.87-.12,2.94-.48.21-.9.64-1.49,1.12-.31.23-.64.47-.97.7-.36.21-.72.41-1.06.56.24-.06.17.28-.04.45-.35.11-.69.74-.85.4.04-.02.07-.04.11-.06-.43-.17-1.03.27-1.53.55.06.16.12.31.18.47-1.73.13-3.33,2.18-4.38,2.06-.12.15-.27.27-.43.4-.17.15-.33.3-.45.46-.05-.07-.1-.15-.15-.22-.48.3-.82.53-1.18.87-.32.3-.82.81-1.1,1.74-.03-.13-.07-.27-.07-.41-.23.54-.06.9.14,1.16.21.26.45.43.6.74-.11.14-.2.27-.27.42.18.32.48.65.7.84.23.21.45.36.68.5.46.25.95.4,1.46.3-.04.06-.12.17-.27.15.22.06.57.23.89.31.33.07.63.06.68-.25-.16.38.89.22,1.43.14-.07.09-.14.17-.2.26.56-.28.62-.37,1.23-.37.11.06,0,.24-.13.14.36.22.47-.2.92.05-.1.05-.19.09-.29.14.43.11.44,0,.8-.15.34-.05.79.24.7.51.14-.14.5-.28.71-.15-.03.1-.15.13-.21.15.56.37,1.23-.02,1.48.42-.06.09-.06.15-.05.19-.48-.21-.91-.35-.85-.36-.16.25.21.43-.33.66.44-.08,1.29-.29,1.55.02,0,.03,0,.06-.02.11-.02,0-.04,0-.06,0,.06.07.15.08.25.07.08.1.1.17.2.24-.12.21.24.35.36.48.24-.25.36-.04.41-.39,0,.04-.06,0-.16-.07-.03-.01-.06-.03-.08-.03.01,0,.02,0,.03-.01-.09-.08-.23-.17-.4-.27.24-.05.49-.06.51.22.23-.09.48-.18.6-.2-.11.27-.09.55-.18.74-.06.24-.14.44-.25.55.34.41.22,1.35.67,1.7.03.21-.19.3-.28.4-.03-.12,0-.27-.07-.31.08.39-.15,1.32.19,1.35-.25.63-.28-.26-.34.55-.03-.03-.06-.06-.09-.09-.75,1.74.58,2.4-.06,4.36.04-.13.05-.2.11-.24-.11,1.05.09,2.08.38,3.12.15.52.31,1.03.48,1.55.18.54.29,1,.48,1.64.37.85.63.85.99,1.09,0,.13,0,.27.02.4.25.13.48.23.69.28.22.12.45.29.71.39.26.11.49.14.7.14.41,0,.81-.27.8-1.1-.08,0-.16-.01-.24-.03.09-.17.17-.53.25-.79.06-.22.14-.38.24-.29-.03-.06-.17-.22-.02-.3.05.02.11.05.16.07,0-.33,0-.65.03-.98.37-.6.56.41.97-.53.08-.39.04-1.23-.12-1.15-.08.14-.27.32-.42.25.03-.12.06-.24.09-.36-.39-.29-.68-.77-1.38-.13-.01.23-.02.46-.02.69-.1.02-.19.04-.29.07.07-.16.14-.31.21-.47-.32.16-.23.42-.19.67-.13-.02-.24.02-.33.11.06.25.12.5.19.75-.2-.03-.24-.42-.47-.12.1.35.47-.03.44.45-.29.15-.43-.02-.37.37-.13-.02-.18-.12-.18-.27.01.09,0,.17-.01.25,0,.04-.02.09-.02.13,0,.02,0,.04,0,.05,0,.07.02.15.11.28-.13-.05-.15.03-.19.09-.04.06-.09.07-.21-.23.06.14.09.62-.06.64.02-.41-.08-.4-.15-.47-.08-.07-.14-.19-.02-.49-.09.26-.18.21-.25.13-.05-.06-.05-.05-.13-.19-.08-.14-.18-.28-.3-.44.05.03.14.09.15.15-.11-.38-.02-.52-.03-.79-.37.03-.65-.55-.96-.82.21-.55.49.19.78-.03-.29.09-.51-.75-.7-.54.13-.41.03-.34.29-.59-.46.04-.15-.32-.47-.55.14-.57.4-.23.19-.78.11-.31.33.17.33.17ZM137.39,128.73s0,0,0,0c.1.04.18.08.23.1-.05-.02-.12-.05-.24-.09ZM136.44,128.36c.12.05.26.1.41.16-.04.11-.15.19-.24.14.1-.04-.08-.18-.17-.31ZM136.67,131.02c-.13-.04-.12-.11-.09-.17.05.03.12.06.2.1.01,0,.03-.01.04-.02-.05.04-.1.07-.15.09Z"/>
        <path class="cls-2" d="M137.15,130.85s.04,0,.06.02c0-.04,0-.07,0-.1-.04.02-.07.03-.11.05.02.01.04.03.05.04Z"/>
        <path class="cls-2" d="M169,129.58s0-.01-.01-.02c0,.02,0,.04,0,.06,0-.02.01-.03.02-.04Z"/>
        <path class="cls-2" d="M129.66,123.61s-.02-.04-.03-.06c-.02.04-.05.07-.07.11.04-.02.07-.04.11-.06Z"/>
        <path class="cls-2" d="M169.49,132.96s-.11-.06-.18-.09c.03.02.1.05.18.09Z"/>
        <path class="cls-2" d="M166.53,132.67c-.17-.05-.34-.1-.51-.14.23.08.39.12.51.14Z"/>
        <path class="cls-2" d="M164.12,132.33c0,.05.01.09.03.13,0,0,0,0,0,0-.01-.04-.02-.09-.03-.13Z"/>
        <path class="cls-2" d="M161.89,112.36s0-.06,0-.09c0-.2-.01-.07,0,.09Z"/>
        <path class="cls-2" d="M161.42,122.17c-.09-.04-.17-.09-.24-.16.03.16.07.26.24.16Z"/>
        <polygon class="cls-2" points="161.22 104.27 161.21 104.26 161.21 104.26 161.22 104.27"/>
        <path class="cls-2" d="M161.05,121.64c0,.18.05.29.13.37-.02-.13-.05-.28-.13-.37Z"/>
        <path class="cls-2" d="M154.78,131.39s-.06-.01-.09-.02c0,.02-.02.03-.03.04.04,0,.08-.02.12-.02Z"/>
        <path class="cls-2" d="M154.66,131.41s-.08.02-.12.02c.05,0,.09,0,.12-.02Z"/>
        <path class="cls-2" d="M154.28,131.48c.09-.02.17-.03.26-.05-.08,0-.17-.03-.26.05Z"/>
        <path class="cls-2" d="M157.51,131.77s.03-.07.04-.1c-.02.02-.03.05-.04.1Z"/>
        <path class="cls-2" d="M158.37,131.81c-.21-.04-.5-.27-.78-.23-.01.03-.02.05-.03.08.14-.14.61.31.82.15Z"/>
        <path class="cls-2" d="M162.5,133.44c-.29-.05-.58-.1-.87-.15.18.12.42.28.04.28,1.19.41-.3-.26.82-.13Z"/>
        <path class="cls-2" d="M165.26,133.81c-.44.01.1.16.12.22.24-.08.3-.1-.12-.22Z"/>
        <path class="cls-2" d="M166.05,126.12c.09-.06.17-.11.26-.17-.2-.17-.09.08-.26.17Z"/>
        <path class="cls-2" d="M163.14,125.26c0,.1,0,.2,0,.3.1-.03.2-.07.3-.1-.1-.07-.2-.13-.3-.2Z"/>
        <path class="cls-2" d="M163.95,122.71s.06.03.09.05c-.1-.08-.2-.16-.31-.23.07.06.14.12.21.18Z"/>
        <path class="cls-2" d="M157.73,103.81c.11.06.23.12.34.19.04-.17-.28-.47-.34-.19Z"/>
        <path class="cls-2" d="M149.19,107.66c-.06-.17-.29-.43-.55-.38.22.13.4.38.55.38Z"/>
        <path class="cls-2" d="M131.73,119.72c.07-.08.13-.15.2-.23-.15.11-.29.22-.43.34.08-.04.16-.07.23-.11Z"/>
      </g>
    </g>
  </g>
</svg>