<?xml version="1.0" encoding="UTF-8"?>
<svg id="_1080_x_1080_px_Logo_2" data-name="1080 x 1080 px Logo 2" xmlns="http://www.w3.org/2000/svg" viewBox="0 0 313.1 284.88">
  <defs>
    <style>
      .cls-1 {
        fill: #202020;
      }
    </style>
  </defs>
  <g id="Text-3" data-name="Text">
    <g>
      <g>
        <path class="cls-1" d="M159.9,99.94c-.26.1-.14.53.49.59.16-.19.29-.39.42-.58-.26.01-.53.04-.91,0Z"/>
        <path class="cls-1" d="M164,101.24c.6-.46.95-1.27.24-1.7-.1.42-.26.53-.4.69-.15.14-.28.35-.52.76-.57.15-1.07-.09-1.02-.36-.18.14-.87-.13-1.17.21.39.33.87.42,1.36.47.47-.06.98-.15,1.37-.51.27.09.14.31.13.44Z"/>
        <path class="cls-1" d="M190.15,112.78c.06-.12.11-.25.16-.37-.06.1-.12.23-.16.37Z"/>
        <path class="cls-1" d="M195.23,143.43c-.18-.16-.3-.19-.36-.15.19.13.35.23.36.15Z"/>
        <path class="cls-1" d="M198.49,147.91c-.08-.1-.14-.18-.21-.26.04.14.1.25.21.26Z"/>
        <path class="cls-1" d="M190.15,112.78c-.14.32-.29.64-.44.97.16.09.27-.49.44-.97Z"/>
        <path class="cls-1" d="M168.95,96.1c-.09.15-.13.29-.16.45.07-.12.15-.24.23-.35-.03-.03-.05-.06-.07-.1Z"/>
        <path class="cls-1" d="M190.5,96.74c-.02-.1-.05-.19-.08-.29-.09-.09-.19-.17-.3-.24.13.18.26.35.37.53Z"/>
        <path class="cls-1" d="M183.87,87.98c.19.06,0-.49-.02-.72-.03.21-.13.29-.29.3.06.11.16.24.31.41Z"/>
        <path class="cls-1" d="M172.51,96.18c-.04.09-.08.19-.13.28.03-.07.09-.19.13-.28Z"/>
        <path class="cls-1" d="M190.95,105.45c-.07.01-.14.04-.18.09.06,0,.12-.03.18-.09Z"/>
        <path class="cls-1" d="M145.63,90.9s-.02.05-.04.08c.1,0,.15,0,.04-.08Z"/>
        <path class="cls-1" d="M159.73,101.37c-.07-.02-.15-.03-.22-.05-.05.09-.1.18-.12.28.11-.08.23-.16.34-.23Z"/>
        <path class="cls-1" d="M206.2,155.67s-.02-.02-.03-.04c-.29-.15-.15-.05.03.04Z"/>
        <path class="cls-1" d="M140.73,198.48c.38.55-.15.25-.65-.06-.49-.29-.95-.55-.26.34.02-.17,2.08,1.01.92-.28Z"/>
        <path class="cls-1" d="M169.19,95.97c.09-.1.18-.21.28-.31-.14.12-.23.22-.28.31Z"/>
        <path class="cls-1" d="M139.81,198.76s0,0,0,0c.05.06.1.12.15.18-.06-.08-.1-.12-.15-.18Z"/>
        <path class="cls-1" d="M196.13,162.47c.04.1.14.19.25.27,0-.06-.05-.13-.25-.27Z"/>
        <path class="cls-1" d="M211.99,159.39c.05.13.1.26.15.4-.04-.17-.09-.29-.15-.4Z"/>
        <path class="cls-1" d="M183.87,162.14c-.28-.08-.35-.16-.8-.13.03.03.06.06.1.08.18-.06.39-.07.7.05Z"/>
        <path class="cls-1" d="M171.66,161.4c-.07.01-.08.02-.06.03,0,0,.01.02.02.03.02.02.03.03.05.05.03,0,.07-.02.1-.03.09-.02.18-.03.26-.05-.13,0-.29,0-.31,0-.03,0-.05,0-.07-.02-.01,0-.02,0-.04,0,0,0-.01,0-.02,0,0,0,0,0,0,0,0,0,.1,0,.06,0Z"/>
        <path class="cls-1" d="M117.98,92.72c.06-.27.19-.45.33-.6-.38.25-1.36-1.31-.33.6Z"/>
        <path class="cls-1" d="M169.23,96.35c-.09-.15-.1-.26-.03-.38-.06.08-.12.16-.18.23.06.09.12.15.21.15Z"/>
        <path class="cls-1" d="M181.61,166.49c-.65-.09-1.29-.19-1.93-.29.52.11,1.22.21,1.93.29Z"/>
        <path class="cls-1" d="M103.53,153.98c-.11,0-.22-.02-.34-.03.12.05.23.07.34.03Z"/>
        <path class="cls-1" d="M174.05,165.79c-.25-.21-.56-.35-.87-.44-.09.04-.18.07-.25.14.37.1.75.2,1.13.3Z"/>
        <path class="cls-1" d="M118.31,92.11s0,0,0,0c0,0,0,0,0,0Z"/>
        <path class="cls-1" d="M117.33,79.22c-.68.04-1.13.2-1.27.35-.17.15-.15.29-.06.41.18.24.62.44.59.73-.54.33-.78.62-.98.76-.21.14-.32.18-.46.14-.27-.07-.53-.41-.95-.09-.2.94.05,2.06.37,2.75.31.74.64,1.33.79,1.87-.12.07-.11.29-.36.02.57.82,1,1.89,1.51,2.95.51,1.06,1.11,2.11,1.92,2.76-.02.12-.06.19-.11.23.31-.32.72-.43,1.05-.44.39.72,1.26,1.22.84,1.6-.22-.44-.46-.43-.75-.61.22.23.43.47.64.7-.44.84-.83-.97-1.42-.86,1.04,1.44,2.64,2.98,3,4.13-.67.42-1.67-2.54-1.58-.89-.2-.6-.4-1.2-.62-1.8-.55,1.6-.47-1.09-1.17.42.97,2.37,1.77,2.5,2.72,4.8.72.39.58-.33,1.3.06,2.46,2.93-.77,3.01,1.42,5.01.82.44,1.99.4,2.13,2.16-.39-.1-.78-.2-1.17-.3.78,2.14,1.88.88,2.12,3.24-.51-.28-.97-1.57-.95-1.22-.17,1.64.94.86,1.34,1.95-.25.15-.51.29-.76.44.87,2.13,2.03,4.35,1.68,6.63-.21-.13-.42-.5-.77,0-.07,1.11-.6,2.25-1.5,3.25-.06.09-.12.17-.19.26-.4.55-1.19,1.2-2.05,1.78-.85.59-1.87,1.14-2.81,1.64-.27.4-.55.8-.82,1.2-.29.17-.7.13-.45-.15-1.39.6.16.32-.31.87-.7.48-1.16.32-.8-.09-1.96,1.74-6.02,4.64-8.75,5.53.13-.14.25-.27.38-.41-2.01.91-1.46,2.19-3.45,2.79.09-.09.18-.19.26-.28-2.05,1.11-4.02,2.49-5.76,3.87-1.76,1.39-3.29,2.74-4.66,4.07.18.52-.56,1.43-.9,2.7-.38,1.24-.2,2.71.39,2.71.02.38.02.73.07,1.01.05.26.1.52.16.78.05.26.1.46.2.64.08.18.16.37.24.53.29.58.73,1.36,2.02,2.43.71.49,1.38-.06,2.26.19-.07.2-.14.39-.21.59.47-.04.89-.1,1.36-.17.11.31.22.62.33.93.28.04.56.1.84.12-.3-.12-.56-.5-.45-.65.66.1,1.37.4,1.9.76.53.33.89.69.85.85,1.02.07,2.05.1,3.07.11-.15.23-.67.23-1.1.3,1.76-.32.05.7,1.66.4-.14-.17.24-.34.31-.46.57.5,2.14.78,3.38.83-.13.13-.26.25-.4.38,2.04.49,4.48.61,6.64,1.28-.68-.42-.12-1.08.59-.97-.04.24-.07.48-.1.71.63-.25-.52-.46.59-.66.77.35.11.9-.46.95.36.04.72.08,1.09.11-.06.21-.34.23-.54.45.32-.14.61.19.93.49.16.15.33.29.52.36.17.09.37.12.6.02-.03.07-.06.14-.08.21.22.12.43.23.62.34.17.12.34.23.49.34.16.1.31.2.46.29.13.11.25.21.37.31.11.08.28.24.32.25.08.05.05,0,.11.11.15.27.26.6.35.99.54-.28.54.44,1,.82-.08,1.5-.66,3.33-.8,5.4.13,1.42.39.34.64.95-.48.19-.53,2.35-.81,1.29-.02,1.3.05,2.16.15,3.03.1.88.24,1.84.61,3.41.14-.39.17-.81.35-.64.13.57-.02,1.37-.24,1.34-.02-.05-.05-.1-.07-.14,1.05,3.45.77,8.65,3.23,11.31-.04-.05-.08-.1-.13-.15.66.96,1.37,1.91,2.15,2.87.81,1.39-.83-.74-.44.34,1.37,1.52,2.31,2.8,3.23,4.01.93,1.21,2.01,2.49,3.83,3.83.19.34.52.73.97,1.17.27.24.39.39.88.76.42.33.89.66,1.41,1,2.01,1.34,4.81,2.55,6.58,2.59.35-.06.8-.03,1.07-.17.25-.15.57-.24.77-.43.18-.19.37-.38.55-.57.09-.17.18-.34.26-.5.27-.66.45-1.29.81-1.7-.17-.04-.33-.08-.5-.12-.45-.84.29-.58.39-.99-.36-.11-.43.45-.69-.06-.34-2.71-.5-5.47-.11-8.27.37-2.79,1.21-5.62,2.34-8.38.85-2-1.48-2.02.59-4.14.09.34.19.67.29,1.01.14-.54.33-1.07.56-1.57.06-.12.12-.25.18-.37.03-.06.06-.12.09-.18.05-.08.1-.17.14-.25.07-.12.13-.24.19-.36.03-.08.07-.15.1-.23.06-.14.13-.27.19-.41.53-1.09,1.16-2.14,1.86-3.16,1.4-2.02,3-3.87,4.59-5.58-.12.27.02.41-.32.71,1.04-.39,2.79-2.12,2.69-2.39.63-.31.3.2.75.16.45-.1.89-.44,1.33-.76.44-.27.87-.54,1.12-.38.08.05-.22.21-.36.31.24-.23.89-.33,1.39-.49.51-.1.91-.21.66-.45.39.01.77-.04,1.15-.04.19,0,.38-.02.57-.04.05,0,.09,0,.14-.01.02,0,.05,0,.07,0,.08,0,.16,0,.24-.01.2,0,.39-.03.61-.06.54-.12,1.37-.16,2.01.03,1.14-.6,3.08.51,3.74-.33-.5.88,3.12,1.05,4.56.77-.53.23.99.4.36.72,1.46.14,2.88.11,2.79-.38,2.35,1.36,5.84-.32,7.03,1.19,4.8-.12,9.36-.18,14.01-.56-.09.46-1.4.52-2.62.55-1.23.03-2.38.04-2.36.51,2.18-.14,3.96-.45,5.72-.75,1.79-.34,3.51-.56,6.01-1.09,1.38-.26-.58.59-.97.8.64-.18,1.22-.35,1.94-.62.69-.24,1.51-.63,2.14-1.03.64-.42,1.19-.9,1.59-1.45.38-.55.62-1.14.69-1.74.19-1.18-.38-2.54-.87-3.29-.51-.82-1.12-1.47-1.78-2.04.1-.05.42.18.71.42-.44-.53-.86-1.26-1.22-.96.17.14.35.28.53.42.03.57-.72.24-1.49-.15-.2-.1-.39-.19-.59-.3-.19-.12-.46-.24-.61-.28-.34-.12-.61-.2-.7-.16,1.82-.2-2-2.13.52-2.18-.37-.2-.91-.37-1.08-.11-.37-.43-.37-.66.35-.52-1.8-1.19-1.6-.38-3.01-1.59.17-.15.52.04.87-.01-1.04-.32-2.08-.62-3.08-1.72.17-.03.17-.27.5.03-1.99-1.64-4.13-2.01-5.7-4.07,1.28-.16-.39-.82.15-1.5-.39-.26-.77-.52-1.15-.77.02.22.05.44.07.66-.82-.84-2-1.15-2.45-2.06.28.13.56.25.84.38-.53-.49-1.05-.98-1.55-1.47.18.37.36.75.55,1.12-1.1-.55-.76.83-1.57-.46.27.16-.73-.86-.77-1.61,0,0,0,0,0,0-.59-.21-1.19-.41-1.58-1.15.07-.34.83-.54.88-.77-.91.12-1.79-1.73-2.77-1.72.28.05.63-.25.66-.37-.24.02-.48.04-.71.06-.14-.52-.11-.63.22-.81-.75-1.24-.62,1.11-1.2-.62.11.08.15-.03.37.15-.75-1.57-1.97-2.63-2.16-4.36.58-.9.6,1.2,1.04.29-.44-1-.9-2.03-1.18-3.18-.23-1.17-.33-2.46.03-3.8-.06.17-.11.34-.17.51-.46-.06-.24-.61.05-1.25.37-.67.75-1.4.76-2.08-.05.34.38.41.29.33.24-.57.42-1.14.57-1.76.01-.05.03-.1.04-.15.27-1.32.52-2.89.88-4.91.04.13.08.26.12.39.51-1.11.91-2.97,1.26-4.19-.14-.4.03-1.1-.37-.72,2.01-3.62.28-7.35.86-10.67.06.41.32,1,.28.67-.18-.99-.42-1.98-.73-2.97-.33.22-.14.38-.32.98-.3-.38-.66-1.21-.89-1.93.63,1.32.63,0,.66-.58-.09.1-.28-.1-.39-.05.09-1.58-.79-.23-1.28-2.34.08.03.17.06.25.09-.23-.39-.53-.75-.82-1.12-.29-.37-.57-.74-.85-1.15.15-.48.77.77,1.11.75-.38-.61-1.01-1.16-1.58-1.65-.3-.25-.58-.49-.83-.74-.27-.24-.51-.5-.73-.81.29.19.62.46.94.73.29.29.58.57.85.8-.3-.69-.54-1.1-.85-1.41-.32-.32-.55-.59-1.14-1.03.04.03.07.06.11.09-.83-.71-1.9-1.42-2.97-1.85.29.15.55.26.82.46-.52.04-.96.08-1.4.03-.39.05-.87-.07-1.26-.04-.82,0-1.65.11-1.89.86.24-.72.29-.79.06-.87-.2-.06-.57-.04-.8-.34-.53,0-1.28.11-1.3-.13-.11.39-.42.48-.76.61-.33.14-.7.3-.63.96-.24-.14-.53.49-.96-.05-.46.76.52.15.73.42-.16.74-.83,1.2-1.6,1.71-.69.56-1.42,1.21-1.59,2.38-.71,1.72-.27,2.51-1.1,4.11-.66.21-.33-.93-.34-.93-.86.51-1.27,1.1-1.71,1.95-.02-.27-.28-.24-.66-.21-.47.56.27.93-.71,1.37-.05-.29-.18-.71-.12-1.14-.45.76-.83,1.62-1.46,2.33-.45-.14.07-.78.14-1.16-.63.82-1.98,1.73-1.98,2.37.25-.05.5-.1.75-.15-.34.21-.47-.33-.28-.54.49-.81,1.23-.53,1.43-.39-.16.16-.32.32-.49.48.7.32,1.27-.13,1.74-.76.46-.64.81-1.45,1.29-1.89.11.35.21.7.3,1.05.15-.5.27-1,.37-1.52.38-.04.92.18.58.76,1-.37.31-.84,1.24-1.08.12-.01.13.05.11.14.13-.29.25-.58.36-.87.05.27.62.34.16.67,1.48-.85,1.03-2.44,1.98-2.38-.01.05-.02.09-.03.14,1.05-1.82-.43-.65-.17-2.42.71.15,1.42.3,2.12.45-.15-.22-.31-.44-.47-.65.15-.14.45-.42.64-.16.08-.92-.35-.13-.46-.78.61-.12.97-.68,1.35-1.09.4-.39.78-.68,1.34-.32-.22-.64-1,.3-.6-.68.63.37.83.18,1.01-.14.16-.33.38-.72,1.01-.67.26.63-.73.71.48.79-.19-.55.23-.7.82-.64.55-.02,1.23.25,1.54.15-.1-.18-.04-.27.13-.3.08-.02.19-.02.32-.02.13.01.3.08.46.13.34.07.74.32,1.14.53.4.28.82.52,1.2.85-.05,0,.08.19.31.45.23.28.53.69.85,1.14.62.93,1.2,2.1,1.43,2.88-.04-.01-.08-.02-.12-.03.77.22,1.33,1.87,1.76,3.06-.39-.06-.59-.27-.96-.91.12.37.23.73.33,1.1.27.27.46.62.68,1.35-.17-.1-.35-.21-.53-.31.34,1.47,1.04,3.04.75,4.93.43.17,1.19-1.4,1.47.7-.23.05-.62.07-.71-.48.03.18.19.65.08.99-.12-.29-.24-.58-.37-.87-.18.86.32.5.26,1.21-.33-.06-.26.49-.52.35-.02-.18.17-.59.05-.88-.08.79-.35,1.72-.63,2,.19-.04.44.06.42.65-.16,1.51-.45.46-.74,1.31.18.4-.22,1.33.26,1.43-.08.44-.33.49-.49.64.09.81-.79,3.69-.05,2.87.03-.07.06-.13.08-.2,0,.04,0,.08-.01.13,0,0,0,0,0,0,0,0,0,0,0,0-.13,2.24-1.35,4.52-2.04,6.83,0-.03.02-.06.03-.09-.14.41-.26.83-.36,1.23-.06,0-.11,0-.17,0-.21.81-.36,1.7-.55,2.52-.12.81-.19,1.57-.07,2.05-.04.44-.46,1.16-.67,1.05,0,.58.09.85.12,1.21.04.36-.04.82-.11,1.67-.42-.94-.32.55-.3-1.03-.12.8-.14,1.26-.15,1.74-.01.48.15.88.56,1.44-.3-.1-.42.25-.4.69.03.42.19.93.36,1.18.03-.37.06-.74.09-1.11.27.63.41,1.23.62,1.8-.26.05-.52.1-.78.15.08,1.53,1.03,2.29,1.87,2.97.85.68,1.64,1.28,1.64,2.56.85.15-.57-1.32.31-1.28.63.97.59,2.63.84,2.9.78,1.48,1.91.29,2.84,1.7.08-.35.5-1.01,1.54-.22.73.97.12,1.88-.59,1.46-.22-.2-.24-.36-.16-.42-.34-.22-.76-.52-.68.03.11-.02.21-.05.32-.07.16.63,1.37,1.86.74,1.87.86.5.63-.02.26-.61.79,1.42,1.74,1.8,2.78,3.15-.08-.29-.02-.68.18-.49,1.59,1.94,1.2.4,2.58,1.48.43.95-1.03.44.57,1.37.61.91-.38.64-.88.51,1.63.71,2.07,2.24,2.73,2.92-.28-.14-.57-.28-.85-.42.5.25.84.53,1.17.82.01-.23.02-.46.03-.69.33.4.66.69.48.83.7.11.38-.87,1.59-.49.32.64,1.91,1.21,1.53,1.85-1.54-1.62-.38.62-1.94-.52.35.18.69.47,1.03.88,0,.1-.18.05-.32-.02,1.15,1.81,1.41.11,3.15,1.6-.57.05-.19.86.1.99-.28-.24-.28-.46,0-.51.13-.03.31-.03.51,0,.22.04.3-.03.48.06.63,1.19,1.17,1,1.56,1.57-.11-.23-.22-.47-.33-.7.54.02.95.58,1.5,1.31-.29.18-.63-.61-.61-.28.6.26.71.9.52,1.25-.18.42-.47.67-.51,1.09-.27.09-.46-.03-.63-.12-.17-.1-.32-.18-.48-.18-.02.32-.31.28-.74.27-.44,0-.91-.05-1.82.28.62.38.78.26-.64.91,1.12-.23,2.3-.56,2.96-.92-.32.36-.99.76-1.66,1.1,1.07-.16,1.99-.76,2.25-.81-.13.28-.36.41-.34.48,0,.07.14.1.46.21-.74-.12-1.37.14-2.09.4-.72.26-1.54.52-2.44.35,0-.39,0-.79,0-1.18-2.45-.34-4.63.8-7.99.37.35.08.7.16,1.05.25-.56.46-2.12-.01-3.26.11.2-.39-.44-.57-.83-.85-.03.3-2.42-.2-2.97.56-.44-.21-.87-.43-1.3-.64-2.55-.45-3.42.84-5.88.45.92-.35-.1-.74,1.69-.88-.83-.09-1.54-.24-1.66.03-.38-.3-2.5.29-3.1-.17-.42.14-.71.53-1.61.4-.07-.09.09-.19.09-.19-.09.19-1.54.11-.93.63-.99-.74-2.74-.9-4.47-.98-.87-.04-1.73-.06-2.52-.12-.39-.03-.77-.06-1.13-.12-.18-.03-.37-.05-.54-.09-.09-.02-.18-.03-.27-.05-.06-.02-.08-.05-.11-.08-.03,0-.06,0-.09.02-.06,0,.07,0,0,0-.03,0-.06,0-.1,0-.13.01-.26.02-.39.04-.26.02-.53.05-.79.07-.53.03-1.1.18-1.64.27-.54.08-1.09.25-1.61.39-.26.07-.51.14-.76.21-.24.09-.48.17-.71.26.1-.15-.01-.18.34-.27-.64.13-1.07.3-1.36.49-.29.21-.45.42-.62.63-.35.43-.68.82-2,1.38-1.58.26,1.22-1.05.31-.77-.43-.43-1.27.08-2.13.8-.88.72-1.74,1.62-2.71,2.03.1-.12.2-.24.31-.36-1.49.72-2.27,2.73-3.66,4.36,0,0-.03-.14-.16-.1-.4,1.48-1.67,3.77-2.38,5.48-.19-.72.17-.86-.48-.76-.35.74.89.19.21,1.6-.57.31-1.39,1.24-1.98,1.12.25-.46.52-.93.8-1.39-1.11.36-1.06,1.8-1.52,2.46-.08-.08-.16-.16-.25-.23-.92,2.16-.16,2.53-.99,4.76.1-.04.21-.09.31-.13.41,1.57-.77.84-.49,2.31-.3,0-.6.01-.9.02-.02.89.22,3.15.27,4.63-.58-1.08-.64-2.87-.76-4.06-.2.79-.44,2.69-.05,3.28-.05-.35-.2-.84-.02-1.09.51,1.24.72,2.66.65,4.17-.86-.52-1.02.41-1.12,1.48-.1,1.07-.15,2.26-.92,2.33.23,1.27.03,2.28-.62,2.82-.09.08-.14.12-.19.13-.06.02-.1.03-.16.04-.12.02-.23.02-.35.02-.29-.05-.64-.28-.93-.47.17.59.13.57-.14.4-.22-.14-.54-.38-.79-.06-.91-.65-1.24-.98-1.25-1.06-.69-.84-1.29-1.69-1.81-2.54-.22-.64.87.68,1.03.54-1.45-1.72-.21-.78-.94-2.05-.15.34-1.03-.51-1.65-1.59.2.53.42,1.06.66,1.59-2.46-2.43-.85-2.43-2.97-4.89.26.25.53.49.81.74-1.09-1.28-2.61-4.9-3.85-6,.03-.26.2-.65.49-.08-1.1-3.21-2.84-6.85-2.46-9.44.1.06.19.12.29.18-.12-.57-.58-.91-.34-1.72.11.01.28.18.29-.1-.1-.29-.52-1.47-.36-2.26.1.19.2.39.31.58.36-3.02-.41-4.55-.37-7.19.42-.11.76-.83,1.01-1.72.23-.9.36-1.96.35-2.66.04,0,.08,0,.13-.01-.04-1.01-.26-1.89-.61-2.61-.11-.24-.22-.47-.33-.71-.1-.11-.2-.18-.29-.26-.08-.07-.16-.13-.25-.2-.28-.21-.57-.42-.86-.61-1.24-.62-2.53-1.05-3.97-1.41-.48-.84-1.9-1.41-3.5-1.88-1.61-.45-3.4-.81-4.72-1.31.37.24-.39.67-.94.66-.59-.29-2.11.29-1.66-.49.08.02.15.04.23.06-.16-.87-1.64-.89-2.69-1.1-.2.34-.4.68-.6,1.01-1.08-1-2.93-1.22-4.55-1.49-.82-.12-1.58-.29-2.18-.54-.63-.24-1.1-.58-1.27-1.04-.7,0-1.34-.34-1.93-.44.11-.16.23-.31.34-.47-.52-.45-.9-1.01-.8-.99-.07-.32-.18-.47,0-1.19.09.13.15.26.27.35.2-.53-.94-1.71-.16-2.8.3.06.58.12.87.2.79-.93,1.93-1.71,3.07-2.51,1.15-.8,2.33-1.64,3.38-2.76.02.12.07.36-.31.66,1.13-.77,5.03-2.52,4.03-3.17.38.58,2.89-1.62,4.31-2.78,0,.19.01.39.02.58.99-1.33.93-1.5,2.7-2.74.48-.2.61.12-.05.36,1.63-.64.89-1.08,2.84-1.93-.16.23-.33.45-.49.68,1.56-.9,1.35-.97,1.95-1.82.83-.75,2.94-1.82,3.52-1.68,0-.36.52-1.23,1.45-1.89.27,0,.06.35-.06.53,1.2-.81,1.91-1.78,2.36-2.63-.04.06-.08.11-.12.17.62-1.04.93-1.88,1.76-2.83.23,0,.39-.11.51-.26-.61,1.45-1.57,2.63-2.04,3.19.05-.07.1-.13.15-.2-.25.32-.38.47-.36.41.17.07.46-.1.75-.29-.06.08-.12.16-.18.24.5-.28,1.06-.67.81.37.09-.11.17-.23.26-.34,0,.01,0,.05-.01.08.01-.02.02-.05.04-.07-.09.11-.17.23-.26.34.4-.8.83-1.87,1.07-2.93.28-1.06.42-2.07.72-2.91.08-.08.15-.16.26-.23.01.06.03.12.04.18.14-.4.14-.76.05-1.07.16-.55.23-.89.23-1.39.55-.28.14-1.96-.04-2.72-.67.21-.79-.82-1.14.25.02-.13.13.12.24.63.04.11.07.25.13.32-.02-.01-.04-.03-.07-.04.1.51.2,1.18.21,1.98-.35-.61-.7-1.2-.46-2.12-.5-.32-1.07-.63-1.33-.82.75-1.23.56-3.3,1.03-3.72-1.22-2.04-2.43-5.04-4.41-6.06-.47-.57,0-.81.06-1.09.31.32.51.75.79.89-.94-1.15-2.08-3.61-3.1-3.69-.49-1.66,1.28.68-.07-1.43.14.07.28.15.42.22-.52-2.26-2.07-3.81-3.56-5.52-.75-.85-1.48-1.71-2.04-2.68-.53-.95-.93-2.07-.72-3-.05.25-.06.39-.18.44-.19-1.25-.14-2.01.67-2.32.67-.29,2.29-.12,3.89.3,3.28.84,6.98,2.38,10.13,4.38.89.53,1.44.76,1.94.88.48.12.87.1,1.5.24.08.23.16.45.24.68.7.14,1.41.28,2.13.45,2.95,1.09,3.92,3.72,7.53,5-.07-.19-.13-.37-.2-.56,1.11.78,3.68,2.06,3.26,2.3.15.01.58-.1.91.34-.04.09-.08.18-.13.27,1.01.42,2.01.83,3,1.2,1.01.69.79.89.69,1.16-.09.25-.08.61,1.56,1.44.65.24,1.62.43,2.38.44.76.02,1.26-.07,1.06-.25-.49-.19-1.2-.62-1.14-.92.38.08.75.15,1.12.22.2-.4.54-.77.52-1.21-.03-.46-.36-.93-1.42-1.67-.57-.03-1.17-.12-1.79-.22-.13-.21-.25-.42-.38-.65.47.23.93.42,1.38.63-.65-.73-1.24-.63-1.91-.72-.05-.27-.22-.53-.52-.77-.66-.07-1.33-.12-2.03-.23-.05-.4,1.06-.13,0-.95-.97-.14.43,1.09-1.02.53-.66-.84-.26-.95-1.42-1.27-.04-.27.24-.25.68-.1-1.01-.31-2.45-1.35-3.15-1.28-.7-.95-3.29-1.84-2.87-2.44-.39-.02-2.02-.51-2.99-1.01,2.12.17-3.6-2.02-2.95-2.63-.81,0-2.1-.51-3.41-1.08-1.28-.58-2.93-1.35-4.18-1.67.14,0,.43,0,.65.14-1.41-.7-1.83-1.11-2.78-1.66-.16.58-2.39-.18-3.51-.17-1.86-1.31.95-.43.29-1.26.18.57-3.03-.55-2.3.16-1.48-.86-1.22-.57-2.16-1.39.11.87-1.27-.21-2.18.2-1.14-.37-1.44-.58-1.69-.72-.13-.07-.25-.11-.48-.11-.12,0-.25,0-.44.04-.2.04-.44.11-.71.21-.67.04-.61-.2-.3-.44.16-.11.38-.21.57-.27.19-.07.3-.08.31-.08ZM128.35,117.14s-.01,0-.01,0c.05-.28.06-.53.08-.68-.01.14-.03.34-.07.68ZM127.23,119.8c.23-.3.45-.69.64-1.12.27-.06.45.08.3.36-.07-.17-.51.44-.94.76ZM133.32,113.18c.15.53.02.74-.11.83-.03-.26-.08-.55-.16-.94-.03-.01-.06-.04-.09-.05.14.03.27.07.37.16Z"/>
        <path class="cls-1" d="M132.28,112.39c-.03-.07-.06-.11-.09-.2-.04.12-.08.23-.1.34.08.05.17.1.25.14-.02-.09-.04-.19-.06-.28Z"/>
        <path class="cls-1" d="M190.34,112.34s-.02.04-.03.07c.03-.05.06-.1.1-.13-.03.04-.05.04-.07.07Z"/>
        <path class="cls-1" d="M100.61,153.2s.03-.09.05-.14c-.09,0-.18.01-.27.02.07.04.15.08.22.12Z"/>
        <path class="cls-1" d="M192.18,95.1s.05-.1.04-.24c-.03.01-.03.11-.04.24Z"/>
        <path class="cls-1" d="M186.87,87.15c-.46-.39-.95-.79-1.52-1.12.74.45,1.16.84,1.52,1.12Z"/>
        <path class="cls-1" d="M179.39,85.22c.03.11.09.19.14.26,0,0,.01,0,.01,0-.05-.09-.1-.17-.15-.26Z"/>
        <path class="cls-1" d="M215.86,157.05c.06.07.13.14.2.2.51.48.2.12-.2-.2Z"/>
        <path class="cls-1" d="M195.28,139.72c.26.09.51.19.75.32-.25-.33-.46-.57-.75-.32Z"/>
        <path class="cls-1" d="M181.82,166.52s0,0,0,0c-.08,0-.14-.02-.22-.02.07.01.14.02.21.03Z"/>
        <path class="cls-1" d="M196.73,140.85c-.18-.4-.4-.65-.7-.81.21.26.4.63.7.81Z"/>
        <path class="cls-1" d="M165.6,98.72c-.07.03-.15.06-.22.09.03.03.04.07.04.09.06-.06.12-.12.18-.18Z"/>
        <path class="cls-1" d="M165.42,98.9c-.06.06-.12.12-.18.18.11-.05.19-.11.18-.18Z"/>
        <path class="cls-1" d="M164.83,99.45c.14-.1.27-.24.41-.36-.17.09-.38.18-.41.36Z"/>
        <path class="cls-1" d="M170.49,94.74c-.05-.07-.1-.14-.15-.21.01.06.06.13.15.21Z"/>
        <path class="cls-1" d="M171.58,93.24c-.31.31-1.09.54-1.36,1.12.04.06.08.11.12.17-.1-.46,1.33-.69,1.24-1.29Z"/>
        <path class="cls-1" d="M178.65,89.69c-.37.27-.72.58-1.1.87.38,0,.88.02.5.52,1.81-.72-.71-.16.6-1.39Z"/>
        <path class="cls-1" d="M182.4,87.8c-.61.28.27.31.32.44.26-.31.35-.39-.32-.44Z"/>
        <path class="cls-1" d="M186.34,126.38c-.16.02-.33.04-.49.06-.01.82.19-.06.49-.06Z"/>
        <path class="cls-1" d="M190.15,131.93c.02-.25.04-.51.07-.76-.19.02-.37.03-.56.05.16.24.33.47.49.71Z"/>
        <path class="cls-1" d="M188.75,137.96c-.08-.06-.16-.12-.24-.18.28.25.55.51.84.74-.21-.18-.4-.37-.6-.56Z"/>
        <path class="cls-1" d="M174.02,160.8c.02.21.04.42.07.64.69-.09,1.12-.8-.07-.64Z"/>
        <path class="cls-1" d="M147.02,183.6c-.42.17-.88.88-.7,1.51.22-.62.67-1.15.7-1.51Z"/>
        <path class="cls-1" d="M109.23,150.26c.2-.04.4-.07.61-.11-.35,0-.7-.01-1.05-.02.15.04.3.08.45.13Z"/>
      </g>
      <g>
        <g>
          <path class="cls-1" d="M184.31,90.93c-.09.04-.09.17,0,.3.09.14.23.22.73.44.23-.06.51-.08.81-.05-.25-.17-.54-.33-.82-.47-.16-.07-.31-.12-.46-.17-.12-.03-.17-.03-.25-.05Z"/>
          <path class="cls-1" d="M187.19,95.23c.55.59,1.28,1.34,1.65.88-.78-.63-.63-.83-1.59-1.44-.33-.54-.4-1.03-.16-1-.13-.08-.26-.33-.45-.58-.19-.25-.46-.52-.72-.57.46,1.01.86,1.76,1.66,2.7-.03.22-.26.04-.38,0Z"/>
          <path class="cls-1" d="M188.93,142.9c-.04-.09-.08-.18-.12-.27.01.09.05.18.12.27Z"/>
          <path class="cls-1" d="M201.36,159.27c.17,0,.17-.07.11-.14-.11.04-.21.07-.11.14Z"/>
          <path class="cls-1" d="M196.55,158.14c.13.03.25.05.37.08-.13-.07-.26-.12-.37-.08Z"/>
          <path class="cls-1" d="M188.93,142.9c.1.23.2.46.3.69.24-.14-.11-.4-.3-.69Z"/>
          <path class="cls-1" d="M190.1,102.62c-.03-.19-.09-.35-.17-.49.03.15.06.3.08.46.03.01.06.02.09.04Z"/>
          <path class="cls-1" d="M182.2,133.5c-.02-.08-.03-.15-.05-.23-.09-.02-.2-.03-.32-.03.12.09.25.17.37.26Z"/>
          <path class="cls-1" d="M183.04,122.59c-.09.26.41.29.62.36-.18-.12-.23-.3-.21-.52-.1,0-.23.05-.41.16Z"/>
          <path class="cls-1" d="M188.13,104.91c-.02-.11-.03-.21-.05-.32.02.08.03.22.05.32Z"/>
          <path class="cls-1" d="M184.91,139.41c-.07.08-.13.16-.15.22.07-.05.12-.13.15-.22Z"/>
          <path class="cls-1" d="M174.76,96.58s.06.05.09.08c-.01-.08-.04-.13-.09-.08Z"/>
          <path class="cls-1" d="M184.51,92.31s-.1,0-.15,0c.01.1.03.2.06.3.02-.1.05-.2.09-.29Z"/>
          <path class="cls-1" d="M185.2,156.54s.03,0,.04.01c.31-.04.14-.04-.04-.01Z"/>
          <path class="cls-1" d="M134.21,161.01c-.65,1.19-.41-1.53-1.19.2.24-.21.68,1.2,1.19-.2Z"/>
          <path class="cls-1" d="M190.05,102.9c0,.15.02.31.01.46.01-.21,0-.35-.01-.46Z"/>
          <path class="cls-1" d="M133.02,161.21s0,0,0,0c-.02.06-.05.12-.07.18.03-.07.05-.11.08-.18Z"/>
          <path class="cls-1" d="M156.92,160.41c.11.02.27-.02.42-.07-.04-.03-.14-.03-.42.07Z"/>
          <path class="cls-1" d="M178.31,156.93c-.14-.04-.28-.09-.42-.13.15.07.29.11.42.13Z"/>
          <path class="cls-1" d="M149.76,169.21c-.19.2-.31.24-.46.57.04-.02.08-.04.12-.06.01-.14.08-.29.33-.51Z"/>
          <path class="cls-1" d="M144.55,177.85c.06-.03.12-.07.18-.11.03-.09.07-.19.11-.28-.1.13-.19.26-.29.4Z"/>
          <path class="cls-1" d="M152.55,100.28c.1.25.12.45.11.64.09-.4,1.35.19-.11-.64Z"/>
          <path class="cls-1" d="M189.84,102.6c.12.07.18.15.21.3-.01-.11-.02-.22-.03-.32-.07-.03-.14-.05-.18.02Z"/>
          <path class="cls-1" d="M153.35,171.38c-.33.44-.66.89-.97,1.33.29-.36.64-.84.97-1.33Z"/>
          <path class="cls-1" d="M123.24,128.02c.11-.09.21-.17.32-.26-.14.07-.26.16-.32.26Z"/>
          <path class="cls-1" d="M150.09,176.83c-.32.17-.56.38-.76.62.01.08.01.16.06.22.23-.28.47-.56.71-.84Z"/>
          <path class="cls-1" d="M152.67,100.92s0,0,0,0c0,0,0,0,0,0Z"/>
          <path class="cls-1" d="M161.51,103.29c-1.1-.1-.55.67-.84,1.08-1.52-.04-.6-.63-1.01-1.11-.86,0-1.79.36-2.47.03,0-.13-.11-.22.11-.3-.3.04-.63-.05-.97-.19-.35-.12-.71-.33-1.08-.54-.37-.2-.74-.43-1.13-.62-.2-.1-.32-.13-.73-.34-.09-.03-.17-.06-.26-.1-.05,0-.09-.01-.14-.02-.1,0-.19-.02-.28-.02-.05-.11-.06-.18-.05-.24-.01.41-.18.74-.37.93-.6-.34-1.4-.34-1.34-.86.37.25.51.12.77.11-.25-.08-.5-.16-.76-.24-.17-.91,1.01.38,1.29-.04-1.33-.57-3.18-1.14-4.07-1.94.19-.65,2.46,1.34,1.48.02.46.39.92.79,1.37,1.18-.53-1.56.87.64.46-.92-1.89-1.42-2.44-1.19-4.46-2.66-.68-.01-.13.52-.81.51-3.41-1.37-1.63-2.8-4.48-3.49-.84,0-1.43.53-3.02-.78.31-.09.61-.19.91-.28-2.37-1.31-1.73.16-4.11-1.51.56-.03,2,.74,1.66.48-1.48-1.32-1.31-.23-2.6-.84-.03-.23-.06-.46-.1-.69-.69-.29-1.41-.56-2.17-.81-.47-.15-.95-.31-1.43-.46-.58-.19-1.15-.35-1.7-.48-2.24-.56-4.03-.64-5.38-.14-.06-.22.26-.57-.68-.53-.25.12-.52.25-.81.39-.27.86-.36,1.63-.09,2.65.23,1,.77,2.16,1.37,3.34.3.55.58,1.11.86,1.66.17.36.33.71.49,1.06.32.72.62,1.43.89,2.1.44.28.87.57,1.3.85.14.25-.03.55-.32.32.38,1.14.46-.08,1.03.35.41.58.09.92-.34.6,1.7,1.69,4.25,4.81,4.3,6.94-.12-.1-.25-.2-.37-.31.36,1.55,2.15,1.24,1.98,2.8-.07-.08-.14-.15-.21-.23.41,1.65.9,3.31,1.03,4.91.02.4.05.82.03,1.19-.03.36-.07.71-.12,1.05-.11.33-.23.65-.37.94-.15.3-.38.57-.58.81.22.12.23.36.1.64-.12.28-.3.62-.56.93-.44.64-.97,1.21-.48,1.56-.97.65-1.38.81-1.89,1.04-.49.23-1.02.55-2.36,1.35-.68.45-.5,1.23-1.33,1.94-.13-.14-.26-.28-.39-.42-.26.43-.57.84-.87,1.27-.36-.04-.71-.09-1.07-.13-.26.22-.53.43-.79.65.37-.18.89-.24.93-.08-1.24,1.07-3.66,1.66-3.83,1.43-1.05.76-2.11,1.52-3.19,2.28-.03-.24.51-.62.89-1-1.55,1.5-.62-.35-2.05,1.03.29,0,.04.36.06.49-1.01.15-2.93,1.19-4.26,2.15.02-.17.04-.33.06-.5-1.3.71-2.62,1.55-3.93,2.57-1.3,1.02-2.62,2.17-3.81,3.64,1.03-.94,1.35-.23.76.57-.26,0-.52,0-.79,0-.07.75.85-.75.44.6-.77,1.06-1.15.49-.87-.32-.13.26-.25.52-.37.79-.1.29-.2.59-.3.88-.23.06-.12-.42-.3-.59.03.19-.14.52-.31.92-.15.41-.35.9-.51,1.42-.11.51-.18,1.05-.21,1.53,0,.06,0,.12,0,.18.02.05.04.1.06.15.05.1.09.19.14.28.1.17.23.31.36.41-.04.07-.09.13-.13.2.47,1.04,1.23,1.76,1.84,2.21.51.36.96.59,1.4.78.86.37,1.65.59,2.61.86.29-.53.95-.2,1.7-.51,1.26.53,2.56,1.29,4.18,1.57,1.25-.05.55-.4,1.22-.63-.16.52,1.45.79.45.99,1.93.31,2.47.37,5,.53-.14-.27-.37-.43-.12-.56.47.02.84.46.64.68-.05,0-.09.02-.14.02,1.53-.03,2.83.72,3.9,1.51,1.09.79,1.85,1.59,2.91,1.65-.04,0-.08,0-.11-.01.61.19,1.14.45,1.61.81.17.37,0,.34-.17.31-.2-.03-.42-.04-.42.3.83.44.94,1.29.95,2.08-.04.43-.03.81-.08,1.25-.01.21-.01.42,0,.63,0,.25,0,.51.05.77-1.67,2.11-.57,6.25-1.44,8.91.11-.07.22-.14.33-.22.31.55-.19.81-.26,1.29.25-.12.28-.75.46-.4.42,5.25.54,11.19,3.44,16.86.56,1.06,1.15,1.26,1.67,1.53.14.08.25.12.42.26.17.16.36.34.56.57.41.47.84,1.13,1.7,2.23-.42-.18-.87-.42-1.35-.71.75.76,1.52,1.46,2.31,2.02.79.59,1.53.93,2.35,1.37.62.13,1.29.15,1.87.17.28-.02.5-.12.75-.17.2-.12.4-.23.61-.35.72-.58,1.14-1.56,1.44-2.69.05-.13.09-.28.11-.42.02-.12.05-.23.07-.35.04-.18.08-.37.11-.56.06-.37.13-.75.18-1.12.1-.75.17-1.52.2-2.3.11.29.32.4.23.76.65-.55.7-2.9.33-3.09.21-.56.4.03.7-.24.5-.67,0-2.26.63-2.47.1-.04.08.29.07.45-.07-.62.94-2.39.21-2.12.81-1.29.92-2.79,1.79-3.77-.22-.98,1.55-2.28.89-2.87.75.46,2.12-2.16,2.37-3.2.04.4.77-.64.87-.15.67-1,1.19-1.97.66-1.99,1.14-.68,1.65-1.65,2.15-2.47.25-.42.48-.77.78-1.03.07-.06.15-.12.23-.17.04-.02.08-.05.12-.07.1-.08.19-.15.29-.23.24-.2.29-.19.4-.22.1-.03.21-.04.33-.05.23-.31.45-.62.68-.93.23-.31.52-.54.78-.82.51-.59,1.14-.99,1.75-1.46,1.28-.79,2.71-1.49,4.22-1.81-.12.48-.93.57-1.65.86-.36.13-.72.24-.96.39-.24.18-.36.35-.29.55.14-.09.28-.17.41-.26.14-.07.28-.14.42-.2.28-.14.55-.28.82-.42.54-.27,1.1-.45,1.66-.68,1.13-.37,2.31-.6,3.7-.49.69.12-.57.39-.87.56,2.97-.42,5.47.39,8.39.23-.05.08-.38.14-.69.17.54.04,1.17.28,1.31-.13-.19.02-.38.03-.57.05-.56-.7,2.73-.97,2.98-1.27-1.5,1.06,2.6.6.45,1.91.41-.04.95-.18.99-.46.51.14.63.31-.07.57,2.19-.06,1.58-.51,3.52-.42-.07.2-.5.26-.79.49.57-.17,1.14-.35,1.75-.45.2-.02.17-.06.32-.07.16,0,.31-.01.48,0,.33,0,.68.04,1.05.12-.14.11-.02.28-.48.24,2.73.16,4.97-.65,7.89-.03-1.17.79.95.37.89,1.12.29-.02.58-.03.87-.05.32-.01.49-.04,1.01-.03-.38-.15-.52-.29-.71-.42.29.03.87.04,1.38.03.5,0,.98-.03,1.44-.05.91-.04,1.7-.06,2.66.09-.4.09-.86.17-1.34.25,1.34.03,2.63.02,3.73-.09-.77-.06-1.57-.16-2.34-.28.81-.17.45-.42.32-.58-.14-.17-.16-.24,1.02-.12-.33.06,1.59.06,2.92.23,0,0,0,0,0,0,.17-.13.36-.23.62-.35.24-.13.66-.19,1.02-.53.05-.07.11-.16.13-.24.31-.15.94.49,1.15.39-.22-.45-.57-1.05-1.04-1.62-.46-.58-1.13-1.16-2.05-1.48.49.2,1.2.26,1.28.2-.44-.16-.89-.3-1.33-.44-.21-.44-.18-.53.46-.47-.82-.78-1.07-.6-1.29-.48-.24.11-.4.2-1.11-.65.22.11.24.02.71.27-.46-.43-.98-.86-1.51-1.26-.51-.39-1.1-.82-1.44-1.05-.79-.55-1.53-1.08-2.07-1.77.28-.92,1.32.89,1.44,0-2.05-1.59-4.62-2.81-6.02-4.59.07.12.14.25.22.37-1.19.6-.69-1.63-1.88-2.07.25.14.78-.19.62-.15-.87-1.25-2.37-2.05-4.18-3.35.14,0,.29-.02.43-.02-.37-.81-1.39-1.72-1.85-2.48-.42.02-.71-.4-.88.15-.16-1.64-1.12-2.46-2-3.3-.9-.82-1.69-1.71-1.48-3.22.1.26.5.44.41.24-.33-.54-.63-1.11-.87-1.71-.43.43-.24.44-.46,1.06-.38-.06-.71-.52-.83-1.04.53.74.74-.44.94-.97-.14.15-.31.09-.46.21.73-1.55-1.03.33-.54-1.55.08,0,.17-.02.25-.03-.07-.27-.19-.51-.28-.77-.07-.27-.1-.57-.04-.93.56-.46.2.58.64.46.03-.45-.21-.81-.33-1.23-.09-.43-.11-.88.24-1.39.07.39-.04.99.02,1.37.81-1.14.65-1.18.89-1.91-.01.02-.02.05-.03.07.22-.57.44-1.14.65-1.7-.09.15-.17.3-.26.45-.53-.51-.38-1.17-.21-1.87.21-.71.46-1.47.32-2.33.28,1.66.37.26.86.37.29-.44.65-1.1.74-.92-.21-.8.74-1.32.44-2.48.18-.04.28-.87.64-.66.17-1.06-.36.23-.55.13-.1-1.68,1.79-3.76,1.49-6.22.06-2.09-.44-2.55-.55-4.49.31-.61.57.6.56.6.33-1.01.33-1.81.12-2.82.15.21.27.02.45-.27-.08-.81-.61-.58-.45-1.61.2.19.53.44.73.85-.22-.96-.62-1.92-.96-2.89.24-.25.56.6.79.95-.28-1.12-.83-2.85-1.41-3.2.01.24.02.47.02.71-.12-.4.35-.2.5.09.58.94.13,1.35-.02,1.4-.08-.23-.16-.46-.25-.69-.81.68.68,2.77.63,4.17-.24-.21-.49-.42-.74-.63.22.49.44.98.64,1.47-.19.28-.58.45-.69-.24-.36.95.25.9-.18,1.7-.07.09-.1.04-.12-.05.05.33.1.66.14.98-.13-.2-.52.1-.36-.48-.55,1.67.21,2.84-.44,3.43,0-.05-.01-.1-.02-.15-.22,2.43.49.3.72,2.17-.51.35-1.03.71-1.56,1.06.15.1.31.2.46.29-.08.25-.25.73-.43.62.12.96.27-.13.47.44-.79,1.15-.71,3.31-1.64,3.54.28.45.65-1.14.56.16-1.03.34-.29,1.48-1.05,2.58-.38-.33.2-1.39-.58-.27.61.65-.84,2.19-.95,3.14.33-.01.27.49.09,1.19-.15.69-.43,1.59-.46,2.34-.1-.02-.37.73-.62,1.69-.09.48-.19,1.01-.3,1.51-.05.48-.11.95-.18,1.32-.04,0-.08.01-.13.02.37-.03.55.3.7.73.07.22.12.47.17.72.07.23.15.47.24.67-.46.22-.68.17-.99-.23.06.29.13.58.19.87.29.06.46.27.73.73-.21.05-.42.1-.63.14.37,1.11,1.43,1.71,1.75,3.19.55-.32.89-1.99,1.93-.99-.24.25-.68.65-.99.41.09.09.46.2.47.51-.26-.05-.51-.1-.77-.14.13.68.56-.01.78.44-.39.29-.08.53-.42.7-.11-.08-.08-.49-.33-.54.23.54.39,1.29.24,1.7.19-.21.52-.41.81-.11.68.84-.24.67-.04,1.32.43-.01.6.76,1.18.3.21.24-.02.51-.09.73.6.23,1.87,1.91,2.02.93-.02-.05-.04-.09-.06-.14.03.01.06.03.09.05,0,0,0,0,0,0,0,0,0,0,0,0,1.82.9,2.44,3.09,4.01,4.31-.06.05-.12.1-.19.15,1,.69,1.92,1.84,2.93,2.13.25.26.27.89-.06.96.81.55,1.09.46,1.8,1.67-1.03-.41-.04.47-.96-.49.75,1,.67,1.44,2.19,1.95-.82.07.14,1.14.76,1.44-.12-.3-.24-.59-.36-.89.59.41,1.02.85,1.47,1.29-.29.1-.58.19-.87.29.17.3.37.56.61.78.1.1.27.24.34.29.04.03.09.05.15.07.23.08.59.14,1,.27.4.12.85.3,1.09.48.23.18.25.36-.39.37.65.19.75.12.79.01.06-.09.06-.23.8-.06.26.26-.04.45-.52.49-.47.05-1.07-.03-1.08.03-.06.02-.12.03-.16.04-.41.08.06.31.38.61.34.28.45.55-.34.4.48.26,1.96,1,.76,1.18-1.61-.18-2.27-1.16-1.95-1.34.17-.01.34.08.42.16.2-.08.35-.18-.26-.48.07.09.13.17.2.26-.68-.29-1.47-.32-1.44-.71-.28.21-.1.39.39.55-.54-.22-.79-.24-1.13-.26-.14,0-.27-.02-.41-.02-.19-.02-.39-.03-.6-.05-.41-.04-.84-.1-1.31-.2.27.16.47.46.16.43-2.79-.53-1.43.34-3.41.29-.97-.45.7-.83-1.35-.69-1.09-.34-.01-.65.53-.8-1.93.31-3.13-.58-4.06-.74.33-.04.65-.08.98-.11-.29.03-.55.04-.79.03-.12,0-.23-.01-.35-.02-.15-.01-.29-.02-.44-.03.06.04.14.09.18.13.03.04.05.09.08.13.05.09.11.17.16.26-.13-.03-.25-.06-.35-.08-.06-.01-.18-.03-.27-.04-.02,0-.04,0-.07,0,.03,0-.15,0-.11,0,0,0-.01,0-.02,0-.02,0-.04-.01-.06-.02-.15-.04-.24-.1-.2-.19-.62.29.13.8-1.06,1.19-.59-.24-2.2.12-2.15-.52,2.02.39.05-.65,1.86-.61-.37.05-.78.01-1.24-.11-.04-.08.13-.12.28-.15-1.7-.73-1.24.62-3.31.38.44-.32-.14-.73-.52-.7.83.11.1.64-.81.81-1.19-.44-1.57.02-2.25-.1.24.08.49.15.73.23-.46.32-1.1.18-2.1.18.06-.28.96-.09.68-.25-1.37.49-2.03-.92-3.74-.62-.57-.29.27-.68-.28-.87-.99.2-1.39.05-1.83-.09-.45-.12-.92-.25-1.96-.04.36.48.53.29-1.03.89.57-.12,1.11-.19,1.64-.25.53-.06,1.1-.15,1.62-.18-.74.21-1.53.48-2.26.71.92-.02,2.08-.34,2.57-.22-1.08.35-.93.24-.68.65-.93-.73-2.59.4-3.91.1.13-.39.26-.78.39-1.18-.54-.09-1.14,0-1.74.15-.6.15-1.18.31-1.83.61-.63.29-1.27.52-1.96.87-.69.37-1.44.65-2.26,1.04.36-.16.73-.24,1.09-.34-.35.52-1.94,1.09-2.84,1.84-.09-.34-.74,0-1.28.15.1.08-.44.48-.96.96-.48.5-.9,1.08-.73,1.38-.46.25-1.04.62-1.22.59-1.11.91-1.35,1.6-1.57,2.24-.22.65-.39,1.27-1.13,2.12.07-.71-.81-.03-.1-1.34-.49.59-.96,1.09-.74,1.21-.48.24-.79,1.84-1.47,2.23-.03.32.26.57-.21,1.21-.12.04-.17-.08-.17-.08.16.08-.45,1.13.3.74-2.31,1.3-2.96,5.05-4.62,6.16-.5,1.31-1.03,2.87-1.42,4.01-.08-.12-.19-.09-.06-.28-.93,1.38.71,1.46-.25,3.03-.91.6-.04-1.08-.45-.64-1.35-.35-.49,2.18-1.54,2.93,0-.1,0-.21,0-.31-.34.32-.36.89-.35,1.54,0,.33.01.67,0,1.01-.02.33-.09.72-.15.84,0,0-.1-.11-.19-.14.24.43.33,1.07.19,1.67-.07.3-.2.57-.4.78-.22.15-.55.32-.89.13.15-.2.24-.32.27-.41.03-.09-.02-.2-.2-.58-.13.04-.14.12-.12.32.02.18.07.43,0,.54-.05.1-.23.1-.57-.16-.4-.69-.9-1.64-.66-2.08.18.22.36.43.56.63-.1-.56-.19-.67-.37-.8-.17-.11-.42-.25-.49-.45.08-.03.17-.06.25-.09-.04-.05-.08-.09-.11-.13-.02-.02-.04-.04-.06-.06-.04-.04-.07-.09-.11-.13-.14-.17-.28-.33-.4-.47-.26-.28-.49-.51-.72-.74-.45-.46-.9-.97-1.38-2.06-.03.09-.07.18-.1.28-1.21-1.01-.07-1.09-1.04-2.14.19-.18.37-.35.56-.53-.46-.74-1.58-2.57-2-3.95.69.68,1.38,2.26,2.04,3.19-.27-.77-.82-2.62-1.25-2.94.14.3.41.65.38.99-.8-.82-1.37-2.02-1.58-3.57,1.37-.04-.1-4.12,1.1-5.5-.55-2.63.45-5.52.79-8.73-1.32,1.44.08-.93-1.15-.42.02-.72.07-1.01.17-1.1.17-.42.36-.81.52-1.25.16-.45.31-.9.48-1.34.39-.72.22.67.49.51.15-.94.24-1.17.41-1.36.17-.18.36-.3.53-.99-.45.45-.67-.34-.68-1.41-.09.56-.27,1.14-.4,1.69-.44-1.04-.33-1.61-.2-2.28.08-.61.19-1.34-.76-2.01.25.1.51.2.76.31-.41-.42-1.04-1.31-1.95-1.82-.88-.55-1.94-.81-2.77-.56-.06-.2-.05-.62.45-.52-2.31-1.2-6.03-.67-7.55-1.74.12-.08.24-.17.37-.25-.53-.03-1.14.37-1.55-.05.1-.11.36-.25.15-.32-.31.05-1.53.26-2.06-.03.24-.08.47-.15.71-.23-2.26-.87-4.18.11-6.28-.12.43-.86-1.32-1.55-2.16-1.93.03-.04.06-.08.09-.11-.68-.2-1.28-.33-1.83-.45-.55-.12-1.08-.22-1.54-.33-.22-.04-.48-.14-.61-.16-.11,0-.24-.02-.36-.06-.12-.04-.24-.11-.33-.22-.07-.11-.08-.27-.08-.43.31-.22.48-.31.88-.78.35-.4.83-.9,1.41-1.42,1.17-1.06,2.86-2.2,4.4-2.86-.51.14-.23-.58.26-.97.76-.27,1.72-1.64,1.93-.92-.09.04-.18.09-.26.13.85.33,2.25-.68,3.49-1.33-.06-.32-.13-.64-.19-.97,1.88-.25,3.99-1.54,5.93-2.83,1.95-1.3,3.65-2.56,4.95-2.73.34-.36.76-.73,1.16-1.11.41-.37.82-.74,1.11-1.14.11.13.22.26.33.39.58-.42,1.09-.79,1.54-1.19.47-.38.9-.75,1.31-1.18.42-.41.85-.85,1.27-1.39.45-.52.87-1.15,1.31-1.88,0,.24,0,.48,0,.72.63-.83.48-1.5.28-2.07-.17-.58-.53-1.09-.28-1.8.38-.14.73-.28,1.1-.44.09-.37.17-.73.25-1.1.05-.36.1-.71.14-1.07.1-.75.12-1.32.13-1.98-.03-1.28-.29-2.53-1.09-3.59.16,0,.47,0,.61.38-.2-1.16-.88-4.52-2.07-3.7.88-.3-1-2.4-2.07-3.48.24,0,.49-.01.73-.02-1.37-.76-1.6-.72-2.66-2.07-.12-.36.32-.46.43.04-.36-1.23-1.11-.68-1.63-2.15.24.13.47.25.71.38-.68-1.17-.84-1.01-1.69-1.5-.71-.65-1.25-2.25-.82-2.58-.42-.05-1.31-.6-1.58-1.3.08-.06.19-.05.28-.03.11.05.22.13.29.18-.14-.3-.15-.36-.22-.49-.06-.12-.14-.22-.23-.33-.17-.21-.39-.42-.61-.64-.42-.43-.87-.99-.47-1.15.32.17.48.22.58.22.11.76.59,1.38.46,1.32.35.05.48-.05.71-.05.22-.01.55.12,1.09.29-.23-.07-.6-.25-.98-.54-.37-.27-.81-.71-.79-.96.05-.12.22-.16.45-.08.1.06.19.13.32.23,0,.02.02.05.02.08.18.06.22.02.24-.08.27.14.41.24.57.29.32.52.54.39.76.5.07-.25.11-.35.28-.38.08-.02.12-.05.1-.12-.03-.08-.11-.19-.2-.34.06.06-.09.03-.35-.05-.06,0-.13-.02-.16,0,0-.01.01-.03.02-.04-.26-.07-.59-.18-.96-.26.06-.29.5-.38,1.04.12.2-.28.58-.49.87-.54.9,1.11,2.69,2.39,2.75,2.94,2.4.84,5.31,2.64,7.23,2.64.69.26.54.66.67.92-.41-.13-.82-.4-1.09-.39,1.38.52,3.59,2.12,4.31,1.74,1.26,1.2-1.23-.02.84,1.2-.14,0-.27,0-.41,0,1.57,1.73,3.36,2.45,5.33,3.18.6.23.76.2,1.3.49.46.23.92.46,1.39.71.92.53,1.85,1.1,2.87,1.95-.29-.22-.43-.34-.43-.48,1.25.73,2.7,1.21,4.2,1.38,1.5.17,3.03.04,4.45-.28,2.87-.64,5.25-1.9,7.63-2.8,1.3-.6,1.14-1.09,1.55-1.88.21.11.41.21.62.31.21-.48.41-.96.6-1.44,1.03-1.65,3.49-1.07,4.26-3.46-.17-.04-.34-.07-.51-.11.6-.53,1.42-2.04,1.72-1.57,0-.12-.19-.52.18-.57.09.08.18.16.28.24.26-.6.49-1.19.76-1.75.58-.38.8-.06,1.05.17.25.25.54.35,1.24-.1.21-.23.39-.6.47-.85.03-.12.06-.25.07-.33.01-.1.05-.17-.01-.23-.14-.08-.63-.21-.86-.5.18-.1.38-.18.63-.18-.06-.44.14-.81-.06-1.26-.05-.2-.39-.52-.93-.75-.55-.25-1.3-.38-2-.29-.38.4-.56.85-.73,1.28-.24-.04-.48-.08-.72-.12.25-.25.53-.5.85-.72-.95,0-.87.61-.94,1.12-.29-.14-.58-.15-.82-.05.01.54,0,1.09.03,1.64-.42-.18-.33-1.01-1.02-.54.03.77,1.1.24.75,1.18-.74.11-.96-.29-1.05.53-.28-.11-.32-.35-.26-.65-.11.71-.89,1.37-.66,2-.84.07-1.26,1.72-1.97.98.06.31-.17,1.37-.57,1.82-.07-1.59-1.63,1.52-2.33.38.14,1.32-1.91,2.22-2.87,3.42.03-.11.07-.33.21-.36-.76.37-1.14.22-1.7.3.35.75-.75,1.49-1.27,2.17-1.28-.36.24-1.08-.41-1.65.35.6-1.38,1.13-.88,1.53-.91-.28-.73-.07-1.28-.63.1.97-.64.29-1.19.9-1.16-.47-.34-.88-1.51-.65-.52-.36.48-.59.47-.61ZM124.02,88.17s-.01,0-.01,0c.34-.12.65-.16.85-.21-.18.04-.43.08-.84.22ZM123.21,90.9c-.11-.43-.23-.94-.22-1.44.25.03.47.27.5.58-.19-.26-.24.4-.28.86ZM130.24,92.74c-.11.05-.2-.09-.29-.24.07.01.15.02.27.02,0-.02,0-.05,0-.07,0,.11.02.21.01.28Z"/>
          <path class="cls-1" d="M130.48,92.1s.06-.01.11,0c-.05-.07-.11-.13-.17-.19-.03.05-.06.09-.08.14.05.01.1.03.14.04Z"/>
          <path class="cls-1" d="M188.79,142.58s.01.03.02.05c0-.05-.01-.09,0-.14,0,.04-.02.06-.03.09Z"/>
          <path class="cls-1" d="M126.2,125.87s.06.07.09.1c.05-.08.1-.16.15-.25-.08.05-.16.1-.24.15Z"/>
          <path class="cls-1" d="M184.57,130.79c.05-.05.09-.13.13-.24-.04.03-.08.12-.13.24Z"/>
          <path class="cls-1" d="M184.97,125.01c.13-.31.27-.62.4-.92-.19.4-.31.69-.4.92Z"/>
          <path class="cls-1" d="M186.5,120.09c-.07-.06-.13-.07-.19-.09,0,0,0,0,0,0,.07.03.13.05.2.08Z"/>
          <path class="cls-1" d="M176.78,160.71c-.08,0-.15,0-.23,0-.55.05-.19.05.23,0Z"/>
          <path class="cls-1" d="M207.43,161.34c-.18.11-.35.23-.61.33.62-.03,1.02-.12.61-.33Z"/>
          <path class="cls-1" d="M153.46,171.24s0,0,0,0c-.04.05-.07.1-.1.15.04-.05.07-.1.11-.14Z"/>
          <path class="cls-1" d="M205.26,161.8c.77.08,1.25,0,1.56-.12-.51.03-1.15.02-1.56.12Z"/>
          <path class="cls-1" d="M189.5,97.92c-.01-.08-.03-.17-.04-.25-.03,0-.06-.01-.08-.03.04.09.08.19.12.28Z"/>
          <path class="cls-1" d="M189.38,97.64c-.04-.1-.09-.19-.13-.29.04.13.07.25.13.29Z"/>
          <path class="cls-1" d="M188.95,96.74c.1.2.2.41.3.61-.05-.21-.11-.48-.3-.61Z"/>
          <path class="cls-1" d="M189.91,104.85c.06.03.11.06.17.1-.03-.05-.09-.08-.17-.1Z"/>
          <path class="cls-1" d="M189.78,106.94c.1-.49.5-1.19.43-1.91-.04-.03-.09-.05-.13-.08.25.36-.52,1.48-.3,1.99Z"/>
          <path class="cls-1" d="M185.75,115.32c.21-.58.43-1.16.63-1.74-.27.29-.63.67-.46-.13-1.18,2.16.55-.42-.17,1.87Z"/>
          <path class="cls-1" d="M183.81,120.82c.19-.96-.29.03-.39-.02,0,.61,0,.75.39.02Z"/>
          <path class="cls-1" d="M195.58,150.45c-.18.11-.36.22-.54.34.54.4.19-.15.54-.34Z"/>
          <path class="cls-1" d="M203.22,153.2c-.08-.23-.16-.46-.25-.69-.22.05-.44.1-.67.15.3.18.6.37.91.55Z"/>
          <path class="cls-1" d="M201.29,157.12c-.07-.02-.13-.04-.2-.05.19.06.41.14.64.24-.15-.06-.29-.12-.44-.18Z"/>
          <path class="cls-1" d="M144.88,176.12c.22.02.45.04.67.06.13-.49-.45-.87-.67-.06Z"/>
          <path class="cls-1" d="M135.51,185.8c.13-.37-.03-1.18-.48-1.58.2.62.27,1.29.48,1.58Z"/>
          <path class="cls-1" d="M120.61,134.44c-.18.17-.36.34-.54.51.37-.26.73-.52,1.1-.78-.19.09-.38.18-.56.27Z"/>
        </g>
        <g>
          <path class="cls-1" d="M159.95,102.61c.13-.05.18-.18.11-.31-.04-.06-.09-.12-.2-.18-.12-.06-.29-.1-.48-.16-.23.14-.46.28-.69.41.19.05.39.09.58.14.2.06.54.08.67.1Z"/>
          <path class="cls-1" d="M155.85,99.62c-.86-.11-1.99-.1-1.78.67,1.05-.14,1.11.2,2.22-.06.67.23,1.04.71.84.87.28-.03.96.59,1.46.34-.69-.78-1.69-1.28-2.97-1.47-.17-.25.12-.28.22-.35Z"/>
          <path class="cls-1" d="M127.64,107.96c-.02-.13-.04-.26-.06-.38-.01.11.01.24.06.38Z"/>
          <path class="cls-1" d="M104.57,135.58c.26-.19.34-.31.32-.37-.23.2-.41.36-.32.37Z"/>
          <path class="cls-1" d="M98.39,139.41c.12-.1.23-.18.34-.27-.16.07-.31.16-.34.27Z"/>
          <path class="cls-1" d="M127.64,107.96c.04.33.08.66.11.98.29,0,.01-.52-.11-.98Z"/>
          <path class="cls-1" d="M146.46,95.86c.24.11.45.18.66.22-.2-.09-.38-.18-.58-.28-.03.02-.05.04-.09.06Z"/>
          <path class="cls-1" d="M119.02,92.51c-.05-.1-.1-.2-.15-.29-.13-.07-.28-.13-.44-.19.19.16.39.32.58.48Z"/>
          <path class="cls-1" d="M119.5,80.81c-.4-.07-.2.51-.19.74.07-.23.27-.32.57-.33-.05-.11-.16-.24-.38-.41Z"/>
          <path class="cls-1" d="M144.45,92.31c.14.06.28.12.43.18-.11-.05-.3-.12-.43-.18Z"/>
          <path class="cls-1" d="M123.48,101.3c-.09.05-.16.11-.18.17.08-.02.14-.09.18-.17Z"/>
          <path class="cls-1" d="M174.18,98s-.06-.05-.08-.08c0,.09.02.13.08.08Z"/>
          <path class="cls-1" d="M160.18,101.18c.07,0,.14,0,.21,0,.03-.1.06-.2.07-.3-.09.1-.19.2-.28.3Z"/>
          <path class="cls-1" d="M98.82,152.4s-.02-.02-.04-.03c-.27-.09-.13-.02.04.03Z"/>
          <path class="cls-1" d="M150.85,185.48c-.85.85-.15-2.03-1.21-.66.26-.05.5,1.85,1.21.66Z"/>
          <path class="cls-1" d="M146.15,95.59c-.18-.11-.37-.22-.55-.34.24.17.41.27.55.34Z"/>
          <path class="cls-1" d="M149.64,184.81s0,0,0,0c-.03.05-.07.1-.1.14.04-.06.07-.09.11-.14Z"/>
          <path class="cls-1" d="M119.75,157.67c.02-.11-.02-.2-.06-.3-.03.06-.02.14.06.3Z"/>
          <path class="cls-1" d="M104.66,153.58c.12.06.24.12.36.19-.14-.1-.25-.15-.36-.19Z"/>
          <path class="cls-1" d="M125.8,160.88c0,.21-.03.3.09.53.02-.04.04-.08.05-.12-.09-.06-.16-.15-.14-.41Z"/>
          <path class="cls-1" d="M125.66,170.22c.04-.06.07-.14.11-.21,0-.1,0-.22,0-.33-.04.18-.07.36-.11.54Z"/>
          <path class="cls-1" d="M189.77,96.71c.08-.22.19-.35.31-.46-.3.15-.84-1.33-.31.46Z"/>
          <path class="cls-1" d="M146.61,95.62c-.14.07-.27.06-.46-.03.14.07.27.14.4.21.08-.04.12-.1.07-.18Z"/>
          <path class="cls-1" d="M130.16,158.67c.09.6.14,1.21.15,1.84.03-.54-.02-1.21-.15-1.84Z"/>
          <path class="cls-1" d="M210.64,159.05c-.1-.08-.2-.15-.3-.23.08.11.17.2.3.23Z"/>
          <path class="cls-1" d="M130.06,165.91c-.23.35-.37.71-.48,1.06.03.06.06.14.11.17.12-.4.24-.81.37-1.23Z"/>
          <path class="cls-1" d="M190.08,96.25s0,0,0,0c0,0,0,0,0,0Z"/>
          <path class="cls-1" d="M184.95,89.65c.27.1.08-.58.17-.91.48.15.6.41.55.55-.04.15-.17.31-.13.51.53.25,1.62.76,2.08,1.5-.06.08,0,.23-.22.1,1.19.89,1.8,3.26,2.78,4.67-.03.1-.06.16-.1.18.25-.22.56-.26.8-.2.22.71.73,1.34.38,1.58-.08-.44-.26-.48-.43-.69.12.25.23.5.34.75-.45.63-.42-1.02-.87-1.03.57,1.42,1.28,3.16,1.18,4.26-.52.17-.46-2.61-.81-1.18,0-.56,0-1.12-.03-1.68-.68,1.23-.13-1.02-.89.1.18,2.19.66,2.5.52,4.73.31.55.48-.11.79.44.4,3.3-1.58,2.32-1.15,4.81.27.68.95,1.02.2,2.67-.17-.23-.33-.45-.51-.68-.58,2.23.64,1.4-.43,3.69-.12-.45.27-1.79.11-1.46-.92,1.46.07,1.13-.27,2.3-.21.06-.43.12-.64.18-.63,2.44-1.22,5.16-1.86,8.05-.15-.13-.22-.63-.59.1-.08.47-.16.96-.23,1.48-.04.25-.05.53-.08.8-.01.13,0,.28-.01.42,0,.1,0,.1,0,.09,0,0,0-.02,0-.03-.06.47-.13.94-.2,1.41-.04.47-.09.95-.13,1.42-.13,1.88,0,3.63.3,5.11.31.23.67.4,1,.59.09.23-.07.6-.3.44.27,1.11.39-.21.85.07.32.49.05.94-.3.73,1.35,1.31,4,3.3,4.72,5.18-.14-.04-.27-.09-.41-.13.77,1.26,2.21.26,2.63,1.7-.09-.04-.18-.07-.27-.11.06.08.11.15.17.23.02.02.03.04.04.07,0,0,.02.05.06.1.13.21.26.4.4.57.27.37.57.69.87,1.02.61.62,1.24,1.24,1.87,1.84,1.25,1.19,2.43,2.36,3.11,3.61,1.12-.33,2.47,2.66,3.7,1.9,1.15,1.86.51,1.6,2.51,3.91.57.58,1.62.27,2.5.89-.19.15-.38.3-.57.45.56.16,1.08.34,1.64.51-.05.34-.14.68-.22,1.01.26.19.56.37.79.57-.17-.29-.26-.74-.03-.82.67.44,1.13,1.19,1.3,1.8.14.6.03,1.08-.2,1.08.18.16.35.27.43.43.07.09.06.17.06.28.04.12-.04.2-.06.31-.22-.18-.17-.36-.35-.51.16.15.15.24.09.25-.06.02-.15-.03-.24-.08-.2-.08-.3-.24-.24.07.19.08.21.32.25.44-.2-.03-.34-.04-.59-.02-.33.03-.69.08-1.06.16-.85.11-1.77.3-2.58.43.1-.15.19-.3.29-.45-.35.02-.71.05-1.07.08-.38,0-.77,0-1.16.01-.85.01-1.72.02-2.59.03-1.77.01-3.6,0-5.4-.14,1.24.28.75,1-.35,1-.08-.23-.16-.45-.24-.68-.81.35,1.04.33-.52.71-1.34-.17-.68-.8.15-.96-.57.03-1.14.07-1.7.1-.03-.2.38-.27.56-.51-.81.35-2.56-.88-3.75-.27,0-.07-.01-.13-.02-.2-3.51-.33-5.17-.26-8.02-.46-.27.55-1.35.35-2.33.73-1.92-.34-3.98-1.03-6.59-1.06-1.94.26-.71.47-1.65.8.06-.54-2.67-.35-1.16-.79-1.66.14-2.79.33-4.03.64-.63.17-1.29.37-2.08.68-.39.15-.83.35-1.29.55-.45.23-.94.49-1.46.78.53-.04,1.06-.18.84.08-.74.38-1.75.67-1.75.41.06-.05.12-.1.18-.15-2.2,1.52-4.64,3.1-6.66,4.83-2.02,1.72-3.56,3.44-3.96,4.98.02-.06.03-.11.05-.17-.43.97-.83,1.94-1.19,2.91-.42.59-.4.36-.36.08.03-.28.04-.59-.37-.24-1.07,3.31-2.75,4.63-3.1,7.3-2.31,1.21-1.62,6.66-2.8,8.45.14.02.27.03.41.05.32.77-.29.62-.43,1,.32.09.41-.47.6,0-.01,1.3-.02,2.56-.17,3.7-.04.59-.17,1.11-.25,1.65-.07.25-.14.5-.2.76-.02.06-.03.12-.05.18-.02.05-.02.05-.04.07-.04.04-.11.16-.16.24-.22.29-.34.23-.5.2-.16-.04-.35-.17-.45-.28-.05-.06-.09-.11-.11-.15,0,0,0-.02-.01-.03-.07-.06-.14-.13-.21-.19-.15-.14-.28-.25-.45-.4-.63-.59-1.27-1.26-1.88-1.96-.88-1.01-1.49-1.22-2.11-1.55-.6-.32-1.23-.73-1.91-2.26.37.23.74.45,1.12.68-4.05-4.43-5.4-9.4-6.9-13.76.19.24.36.2.46.64.17-1.05-.63-3.52-.95-3.45-.05-.71.29-.24.42-.71.15-1.01-.74-2.26-.32-2.87.07-.1.15.24.19.4-.24-.58,0-2.88-.5-2.18.24-1.66-.07-3.09.39-4.55-.24-.39-.08-1.16.03-1.86.12-.7.18-1.33-.23-1.35.42-.06.68-.92.72-1.91.03-.99-.21-2.05-.54-2.47.16.11.2-.17.24-.45.03-.27.07-.55.31-.45-.15-.65-.37-1.09-.74-1.66-.48-.32-.72-.3-.86-.04-.12-.57-.38-1.04-.77-1.32-.4-.27-.86-.46-1.29-.63-.89-.29-1.67-.47-1.69-1.37-3.3-.76-6.37-.94-9.25-1.23.52-.89,3.13.48,3.49-.47-2.89-.17-4.75.39-7.25-.27-.62-.24.54-.32.83-.44-2.78-.06-4.99-.95-7.36-1.12.04-.08.31-.1.56-.11-.44-.09-.95-.41-1.07,0,.15.02.31,0,.46.02.23.38-.34.59-.95.67-.62.08-1.34.09-1.44.23.61-.44.08-.66-.32-1-.41-.32-.75-.63.12-1.09-.3-.04-.72-.01-.78.27-.36-.25-.41-.45.13-.56-.76-.23-1.03-.25-1.32-.23-.14,0-.27,0-.44-.05-.08-.02-.17-.05-.25-.08-.06-.04-.13-.1-.26-.22.06-.08.16-.09.26-.09.1-.01.18-.04.27-.12-.53.05-1.52-.29-1.61-1.23.12,0,.24-.14.29.09-.12-.32-.22-.58-.28-.93-.06-.35-.02-.77.07-1.23.24-.92.82-1.95,1.97-2.81-.01,1.15.88-.47,1.49-.04.33-.38.69-.76,1.06-1.14-.24.04-.48.08-.71.13,1.08-.86,1.83-2.01,3.03-2.53-.25.28-.5.57-.74.85.72-.55,1.48-1.1,2.26-1.64-.5.21-1,.43-1.49.64,1.08-1.13-.66-.66,1.17-1.58-.32.28,1.31-.81,2.25-.88,0,0,0,0,0,0,.54-.6,1.1-1.2,2.22-1.7.4.02.23.77.48.79.09-.23.33-.48.66-.76.15-.12.31-.26.49-.4.05-.05.13-.09.17-.12.11-.06.21-.13.32-.19.85-.51,1.74-1.03,2.02-1.55-.22.29-.06.62.07.63.12-.25.24-.5.36-.74.75-.25.89-.24.93.07,2.09-1.08-1.1-.36,1.51-1.45-.17.14-.04.15-.39.44,2.55-1.25,4.5-3.08,6.75-4.52,1.16.02-1.75,1.51-.61,1.4,1.56-1.18,2.99-2.66,4.19-4.19,1.2-1.53,2.1-3.13,2.81-4.65-.11.19-.22.37-.33.56-.53-.32-.1-.82.33-1.51.46-.68.96-1.57.69-2.32.07.37.69.46.55.36.41-2.18-.46-4.24-1.92-6.94.15.09.31.18.46.27-.1-1.19-1.02-2.94-1.46-4.15-.49-.25-.78-.93-1.04-.39,0-2.07-1.19-3.69-2.39-5.29-1.21-1.59-2.42-3.18-2.58-4.95.21.38.79.86.62.55-.6-.9-1.22-1.75-1.8-2.69-.4.31-.14.43-.23,1.08-.52-.29-1.15-1.07-1.54-1.77,1.03,1.22.84-.16.83-.74-.11.12-.39-.04-.53.03.15-1.6-1.22-.1-1.6-2.21.11.03.22.06.33.08-.5-.73-1.19-1.43-1.36-2.25.52-.27.55.81,1.1.87-.25-.54-.68-1.07-1.02-1.64-.28-.53-.47-1.15-.02-1.38.04.42.12,1.04.36,1.5.15-.21.27-.35.33-.47.1-.1.15-.19.18-.27.07-.15.08-.29.23-.47-.01,0-.02.02-.04.03.24-.26.59-.4,1.03-.35-.14-.04-.27-.07-.41-.09-.25-.81.5-.92,1.37-.78.88.13,1.89.42,3.02.37-2.14.13-.28.36-.38.86.6.32,1.49.78,1.25.86,1.04-.09,1.79.98,3.41.97.06.2,1.2.48.9.8,1.45.45-.3-.43-.17-.59,1.15.16,2.46.9,3.85,1.72,1.39.81,2.85,1.7,4.58,2.19,2.82,1.19,3.59.99,6.18,2.18.69.72-.98.13-.98.13,1.2,1,2.19,1.54,3.5,2.11-.32-.02-.14.24.12.63.99.55.99-.15,2.11.84-.32.03-.77.13-1.34,0,1.21.56,2.5.95,3.73,1.5.14.45-.95,0-1.46-.09,1.37.68,3.5,1.75,4.14,1.52-.24-.21-.49-.41-.73-.62.48.24.03.51-.37.39-1.3-.3-1.49-1.09-1.46-1.27.29.13.58.25.87.38-.29-1.37-3.35-1.8-5.01-2.9.37-.07.73-.14,1.09-.2-.68-.18-1.37-.35-2.05-.53-.27-.39-.32-.89.58-.47-1.05-1.04-1.22-.43-2.1-1.41-.09-.12-.02-.12.11-.08-.44-.18-.89-.36-1.34-.54.32.01.03-.56.74-.02-2.07-1.66-3.9-1.62-4.57-2.58.07.02.14.05.21.07-3.38-1.54-.51.29-3.17-.45-.4-.67-.85-1.35-1.34-2.03-.15.11-.3.21-.45.32-.34-.2-1.04-.55-.87-.69-1.38-.27.18.32-.64.29-.8-.63-1.99-1.08-3.01-1.5-1.01-.41-1.85-.74-2.07-1.25-.59.17,1.65.94-.16.52-.57-1.12-2.08-.66-3.68-1.57.37-.35,1.96.43.27-.55-.4.26-1.17-.02-2.03-.37-.85-.34-1.84-.75-2.48-.74.16.37-.54.3-1.45.45-.95.08-1.6.89-1.63,1.84-.15-.13-.43.68-.28,1.84.13,1.15.6,2.53.85,3.39-.05-.01-.11-.03-.16-.04.99.26,1.7,1.97,2.5,3.12-.53.04-.84-.14-1.41-.76.2.38.39.75.58,1.13.42.22.7.55,1.21,1.28-.27-.06-.53-.12-.8-.18.84,1.56,2.37,2.9,2.95,4.91.67-.05.87-1.9,2.35-.03-.28.15-.8.37-1.22-.12.14.16.6.54.65.91-.32-.22-.65-.44-.98-.65.22.92.7.33,1.02,1.03-.47.11-.06.59-.48.59-.14-.16-.12-.65-.45-.86.32.8.56,1.8.35,2.21.23-.14.63-.17.99.37.79,1.44-.31.66-.11,1.57.51.26.63,1.27,1.35,1.09.21.42-.09.59-.2.81.71.65,1.67,3.41,2.05,2.37-.01-.07-.02-.14-.03-.2.02.03.05.07.08.11,0,0,0,0,0,0,0,0,0,0,0,0,1.77,2.23,1.48,5.12,1.73,7.45-.08,0-.16.01-.25.02.28,1.42-.35,3.13-.43,4.22-.21.43-.96.87-1.1.62-.25.52-.34.84-.58,1.18-.11.17-.26.35-.46.57-.22.21-.52.45-.91.75.55-1.11-.56.17.64-1.09-1.26,1.14-1.74,1.19-2.74,2.72.05-.36-.33-.25-.77.02-.45.27-1.01.68-1.29.98.42-.16.83-.33,1.25-.49-.7.62-1.4,1.09-2.15,1.53-.02-.24-.04-.49-.06-.73-1.72.73-2.92,1.82-4.12,2.83-1.2.99-2.38,1.88-3.96,1.98-.64.84,1.94-.67,1.43.18-.39.18-.81.32-1.23.43-.21.06-.41.1-.62.15-.1.02-.2.04-.3.06-.15.05-.3.09-.44.14-.12.04-.3.13-.38.15-.08.02-.16.04-.24.06-.16.04-.3.07-.43.1-.26.06-.46.12-.57.19-2.09.87-1.25,1.86-3.43,2.9.4.03.97.38-.41,1.49-1.42.81-2.25.32-1.49-.4.32-.23.53-.28.56-.2.4-.35.95-.81.24-.66-.02.1-.03.2-.05.3-.85.24-2.73,1.53-2.51.94-.89.89-.2.6.63.18-1.96.94-2.72,1.87-4.48,3.19.35-.15.78-.17.52.06-1.26.98-1.37,1.37-1.4,1.63-.01.27.07.45-.49,1.34-.47.42-.6.23-.72.17-.11-.05-.27.01-.59,1.18-.37.64-.49.75-.6.51-.11-.24-.07-.73-.05-1.07-.25,1.18-.5,2.39-.45,3.61.03,1.22.37,2.24.71,2.91-.28-.36-.57-.75-.8-1.22.44.83.81,1.39,1.18,1.91-.04-.31-.07-.61-.09-.9.35.69.72,1.11.59,1.24.32.15.35-.1.45-.29.1-.21.26-.29.8-.06.09.16.26.36.52.55.21.11.43.23.63.34.39.21.7.44.66.78-.83-.62-.85-.45-.86-.23-.02.22.05.53-.81.08.39.15.7.34,1.11.69.03.1-.12.08-.25.04.74.8,1.02.68,1.32.56.3-.14.64-.31,1.52.08-.36.25.16.8.48.83-.72-.28-.12-.69.63-.71,1.02.7,1.31.19,1.89.42-.21-.11-.42-.22-.63-.33.36-.28.91-.06,1.74.04-.03.3-.79,0-.55.19,1.11-.39,1.75,1.14,3.14.96.48.35-.19.67.25.93,1.54-.2,1.31.76,2.88.63-.23-.54-.35-.44.85-.73-.84-.03-1.67-.05-2.5-.08.59-.14,1.19-.28,1.79-.42-.72-.13-1.64.03-2.04-.13.88-.26.76-.15.56-.6.71.89,2.13-.07,3.08.6-.18.39-.35.78-.52,1.16,1.45.83,3.27-.09,5.24.72-.19-.12-.38-.24-.58-.36.51-.38,1.36.23,2.11.26-.28.37.06.63.2.95.16-.32,1.39.53,2.05-.15.19.27.35.56.49.87.32.23.62.34.93.37.29.05.56.06.85.05.57,0,1.2-.03,1.66.61-.66.04-.42.75-1.34.32.33.35.58.72.81.5,0,.05.02.1.06.14.03.03.07.06.12.08.11.04.15.06.28.18.26.25.43.61.33.95.19.13.63-.03.67.64-.07.11-.19.09-.19.09.2-.11.33.93.72.15-.52,1.21-.56,2.53-.66,3.95-.09,1.41-.19,2.85-.71,3.89,0,1.54.22,3.38.32,4.75-.11-.06-.17.04-.15-.23-.17,2,1.05.94.98,3.21-.38,1.25-.47-1.09-.57-.34-1.09.58.55,2.6.33,4.23-.05-.11-.1-.23-.16-.34-.08,1.22,1.17,2.64,1.84,4.49,0,0-.13-.06-.17.03,1.03,1.11,2.35,3.45,3.61,5.17-.74-.44-.7-.75-.91-.3.55.77.51-.41,1.62,1.14.1.57.71,1.76.39,2.03-.37-.49-.73-.99-1.07-1.48-.06.91,1.37,1.92,1.89,2.73-.11-.01-.22-.02-.32-.03.47.57.88.98,1.25,1.33.4.36.76.64,1.12.93.75.57,1.45,1.16,2.9,2.43-.05-.11-.1-.23-.15-.34,1.03.55,1.31.85,1.61,1.19.25.3.77.82,1.91,1.29.21.32.48.67.8,1,.86.39,2.5.95,3.39.68.93-.21,1.07-1.06,1.17-1.62.29.52.38,1.24-.06,1.73-.42.49-1.58.52-2.75.2.24.1.5.18.79.25.29.08.6.16.87.18.29.04.58.06.8.02.24-.02.49-.04.65-.13.39-.12.54-.41.66-.63.12-.23.05-.48-.03-.64-.03.16.02.38-.07.54-.09.16-.21.3-.41.35.03-.6.03-1.23-.08-1.84-.02-.15-.03-.29-.03-.47-.03-.16-.06-.33-.09-.5-.05-.33-.04-.64-.03-.98,1,.63,1.15-.2,1.16-1.29.04-1.08.01-2.41.72-2.65-.7-3.04.32-5.45.91-8.82-1.52.64.17-.98-1.14-1.32.13-.8.24-1.09.34-1.12.49-.66,1-1.33,1.55-1.99.57-.39,0,.85.31.9.72-1.63.78-.47,1.55-1.41-.53.03-.4-.86.23-1.71-.4.35-.79.7-1.17,1.06.2-1.3.72-1.67,1.23-2.05.53-.4,1.02-.69,1.46-2.14-.04.33-.07.65-.09.98.52-1.47,2.67-4.59,2.68-6.12.28-.14.77-.23.48.3,1.06-1.3,2.05-2.81,3.26-4.03,1.18-1.23,2.66-2.2,3.88-2.39-.05.12-.09.24-.14.36.48-.29.8-.87,1.56-.8-.03.13-.2.35.06.29.26-.18,1.52-.88,2.34-.78-.24.14-.49.27-.71.43,1.51-.05,2.78-.27,4.08-.55,1.3-.27,2.62-.56,4.14-.54-.35.87,2.32,1.4,3.81,1.66-.03.04-.06.08-.09.12,4.22.42,7.57-.09,11.89-.08,1.17.58,3.4.87,5.96,1.06,1.28.09,2.63.17,3.96.24,1.33.08,2.61.15,3.92.27-.76-.18.14-.64,1.04-.83.6.03,1.43-.18,2.07-.33.64-.17,1.11-.24,1.11.17-.15.02-.29.03-.44.05.55.31,1.43.37,2.57.12.28-.05.56-.12.85-.18.28-.06.68-.24,1.01-.36.35-.14.69-.27,1.03-.4.34-.14.66-.36.97-.54-.19-.34-.4-.66-.63-.97.44-.13.78-.36,1.15-.61.17-.13.37-.26.51-.4.13-.16.26-.32.38-.49.11-.17.25-.35.32-.53.06-.19.12-.39.16-.59.12-.4.1-.82.03-1.24-.04-.43-.18-.83-.35-1.21-.08-.19-.17-.39-.27-.58-.1-.17-.19-.3-.29-.45-.38-.6-.84-1.08-1.27-1.55-1.77-1.79-3.41-2.94-3.56-4.12-.9-.41-1.7-1.12-2.57-1.47.17-.13.35-.26.52-.39-1.66-1.64-2.49-2.43-4.63-4.07.25.01.5.02.74.04-1.11-1.01-2.77.05-3.81-.8.13-.31.27-.62.4-.94-1.87-1.65-3.02-3.88-5.04-4.9.13-.07.37-.21.64.03-.17-.19-.36-.51-.54-.82-.02-.04-.04-.08-.06-.11-.01-.02-.02-.04-.03-.06,0-.02-.01-.03-.08-.12-.1-.18-.26-.34-.3-.41-.14-.18-.29-.36-.43-.52-.58-.64-1.14-1-1.51-.39.62-.63-1.47-1.74-2.47-2.35.2-.1.4-.2.6-.31-1.23-.18-1.44-.04-2.39-.96-.12-.31.24-.56.36-.12-.32-1.07-.96-.26-1.31-1.57.18.05.37.1.55.15-.47-.95-.6-.73-1.24-.99-.53-.45-.56-2.04-.09-2.48-.35.06-.85-.33-.8-1.07.18-.18.31,0,.4.08.02-.5.03-.93-.04-1.28-.03-.37-.09-.69-.16-.99-.05-.31-.06-.62-.05-.94,0-.08.01-.16.02-.25.02-.15.04-.31.05-.43.02-.15.07-.3.15-.48.18-.08.27-.18.33-.3-.01.16-.04.35-.04.48,0,.12,0,.23,0,.34-.01.14-.03.28-.04.41-.04.34-.08.65-.11.9-.03.49-.04.78-.06.73.5-.22.59-1.4,1.26-.74-.1-.19-.21-.42-.29-.69-.05-.14-.09-.28-.14-.42,0-.06-.03-.03-.03-.16,0-.11,0-.23-.02-.32,0-.05-.01-.1-.02-.14,0-.03-.01-.03-.02-.04-.01-.02-.03-.05-.04-.07-.21-.41-.19-1.18.07-1.83.06-.07.12-.13.2-.19,0,.04.01.08.02.13.12-.3.15-.56.14-.81.19-.43.32-.7.46-1.12.4-.15.69-1.6.93-2.33-.49.03-.11-.92-.78-.05.07-.11.01.14-.12.63-.02.11-.05.24-.05.31,0-.02-.02-.03-.03-.05-.14.48-.32,1.09-.52,1.78-.08-.56-.1-1.16.42-1.96-.19-.39-.36-.83-.43-1.08.98-.97,1.9-2.86,2.36-3.08.41-2.27,1.15-5.35.47-6.92-.02-.67.34-.71.51-.93.04.39-.03.83.06,1.06,0-1.33.29-3.88-.34-4.27.28-1.62.57,1,.45-1.28.06.11.13.22.19.33.44-2.19-.2-4.11-1.07-6.04-.44-.97-.94-1.94-1.47-3-.54-1.06-1.05-2.18-1.84-3.62.23.4.32.59.29.7-.73-1.17-1.8-2.43-3.39-3.5-.78-.53-1.68-.97-2.5-1.21-.82-.25-1.56-.35-2.17-.32-1.22.05-2.04.44-2.75.88-.71.45-1.29.98-1.9,1.49.01-.01.03-.03.04-.04-.8.58-1.61,1.15-2.43,1.71-.95.76-.49,1.26-.57,2.13-.26-.09-.51-.18-.77-.27,0,.53,0,1.05-.03,1.58-.62,1.86-3.25,1.42-4.08,3.9.19.03.38.07.57.1-.65.59-1.98,2.09-2.23,1.58-.02.12.07.53-.39.56-.08-.09-.17-.17-.25-.26-.24.3-.5.56-.79.82-.28.26-.56.55-.89.75-.93.22-1.01-.11-1.19-.37-.17-.26-.45-.49-1.59-.28-.4.04-.96.4-1.45.5-.49.17-.91.37-.72.5.41.07,1.07.34,1.14.66-.35,0-.69.01-1.04.02-.13.45-.48.85-.44,1.29,0,.22.15.45.48.7.34.22.91.57,1.77.71.78-.22,1.52-.41,2.12-.78.27.1.54.2.81.3-.6.12-1.16.32-1.82.35.61.21,1.01.07,1.38-.07.36-.16.66-.36.93-.6.24.18.58.24,1.01.18.52-.49.9-1.05,1.25-1.59.42.22-.33,1.03.9.63.49-.77-1.15-.33-.17-1.25.95-.08,1.01.35,1.54-.51.26.12.24.38-.03.68.52-.74,1.69-1.45,1.59-2.13,1.03-.1,1.72-1.92,2.39-1.17,0-.34.29-1.5.67-2.02.18,1.72,1.58-1.79,2.36-.65-.31-1.41,1.43-2.61,1.86-3.92.02.12.06.35-.06.38.57-.46,1-.32,1.5-.43-.22-.27-.28-.55-.26-.83.03-.03.06-.05.1-.08.01-.53.29-1.08.31-1.59,1.42.21.43,1.13,1.32,1.64-.63-.59.64-1.35-.06-1.69.98.17.7-.03,1.51.51-.66-.99.38-.33.46-.93.58.25.69.51.8.64.1.14.16.17.39.12.14.19.08.29.05.39-.03.09-.08.16-.08.16ZM186.66,122.86s-.01,0-.01,0c.07-.36.15-.65.19-.84-.04.18-.1.41-.18.84ZM186.19,126.15c.03-.19.06-.39.09-.62,0,0,0-.04.01-.23,0-.14,0-.29.03-.44.21-.19.37-.11.35.24-.03-.04-.06,0-.09.06-.03.05-.07.24-.1.26-.01.03-.04.05-.05.07-.02.07-.05.14-.07.21-.05.15-.11.3-.16.44ZM191.11,119.2c-.08.47-.22.62-.33.69.05-.22.12-.48.19-.82-.01-.02-.03-.04-.04-.06.08.05.15.1.18.19Z"/>
          <path class="cls-1" d="M190.75,118.32c.01-.07,0-.11.03-.2-.07.1-.14.19-.2.28.03.06.07.12.09.18.02-.09.05-.18.07-.26Z"/>
          <path class="cls-1" d="M127.57,107.51s0,.04.01.07c0-.06.01-.12.04-.16-.01.05-.04.06-.05.09Z"/>
          <path class="cls-1" d="M208,156.84s.09-.07.13-.1c-.11-.03-.21-.06-.32-.09.06.07.13.13.19.2Z"/>
          <path class="cls-1" d="M121.1,90.38s.06-.11.04-.24c-.04.01-.04.12-.04.24Z"/>
          <path class="cls-1" d="M119.1,84.18c.15-.13.34-.19.53-.25-.27.05-.44.14-.53.25Z"/>
          <path class="cls-1" d="M123.62,84.41c.07-.07.08-.13.09-.19,0,0,0,0-.01,0-.03.07-.05.13-.08.2Z"/>
          <path class="cls-1" d="M105.78,149.83c.06.01.13.02.18.02.45,0,.16-.03-.18-.02Z"/>
          <path class="cls-1" d="M108.95,135.26c-.24.26-.47.51-.74.75.5-.26.89-.48.74-.75Z"/>
          <path class="cls-1" d="M130.12,158.48s0,0-.01,0c.02.07.03.12.05.19-.01-.06-.02-.13-.04-.19Z"/>
          <path class="cls-1" d="M106.96,136.77c.53-.21.91-.47,1.25-.76-.41.21-.9.45-1.25.76Z"/>
          <path class="cls-1" d="M151.93,99.25c.1.06.19.13.29.19.01-.03.05-.05.08-.05-.12-.05-.25-.09-.37-.14Z"/>
          <path class="cls-1" d="M152.3,99.39c.12.04.24.09.36.13-.15-.09-.29-.16-.36-.13Z"/>
          <path class="cls-1" d="M153.42,99.8c-.25-.09-.51-.18-.76-.28.24.14.53.32.76.28Z"/>
          <path class="cls-1" d="M143.84,94.04c-.06.03-.13.06-.19.09.07,0,.14-.03.19-.09Z"/>
          <path class="cls-1" d="M141.23,92.54c.6.4,1.35,1.24,2.26,1.66.05-.02.1-.05.16-.07-.53-.02-1.67-1.51-2.42-1.59Z"/>
          <path class="cls-1" d="M130.1,84.61c.85.41,1.7.79,2.52,1.23-.41-.38-.98-.89.18-.4-3.2-1.96.64.67-2.71-.83Z"/>
          <path class="cls-1" d="M122.15,81.56c1.36.27-.11-.31-.09-.4-.84-.03-1.01-.03.09.4Z"/>
          <path class="cls-1" d="M127.11,120.04c-.16-.09-.33-.17-.49-.26-.35.68.2.08.49.26Z"/>
          <path class="cls-1" d="M121.76,128.2c.35-.12.69-.23,1.04-.35.04-.2.08-.4.12-.6-.39.32-.77.64-1.16.95Z"/>
          <path class="cls-1" d="M114.55,128.53c.11-.09.22-.17.33-.26-.43.31-.87.62-1.3.92.32-.22.65-.44.97-.66Z"/>
          <path class="cls-1" d="M125.35,168.45c.2-.12.39-.23.59-.35-.05-.51-.69-.48-.59.35Z"/>
          <path class="cls-1" d="M138.11,199.58c.23.48,1.15,1.43,2.41,2.04-1.34-.95-1.88-1.67-2.41-2.04Z"/>
          <path class="cls-1" d="M218.08,162.81c-.07.37-.16.74-.28,1.13.16-.34.3-.69.41-1.03.12-.34.09-.71.11-1.06-.07.32-.1.65-.24.96Z"/>
        </g>
      </g>
      <g>
        <path class="cls-1" d="M162.72,154.76c-.28.15-.4.55.13.52.24-.21.47-.42.71-.63-.28.04-.56.07-.84.11Z"/>
        <path class="cls-1" d="M165.41,156.29c.75-.27,1.65-.78,1.55-1.42-.85.59-.87.31-1.84,1.01-.54.03-.77-.29-.56-.53-.26.15-.68-.22-1.17.18.37.57,1.21.67,2.26.32.12.16-.14.32-.24.44Z"/>
        <path class="cls-1" d="M199.88,150.26c.05.09.09.18.14.27-.02-.09-.07-.18-.14-.27Z"/>
        <path class="cls-1" d="M184.83,130.67c.07.16.15.19.22.16-.09-.13-.17-.23-.22-.16Z"/>
        <path class="cls-1" d="M185.06,126.29c-.02.09-.04.17-.06.26.07-.12.11-.22.06-.26Z"/>
        <path class="cls-1" d="M199.88,150.26c-.12-.23-.24-.46-.35-.69-.23.13.13.39.35.69Z"/>
        <path class="cls-1" d="M172.72,155.28c-.18.02-.33.07-.48.14.15-.02.29-.03.43-.04.02-.03.03-.07.05-.1Z"/>
        <path class="cls-1" d="M206.9,160.5c-.1.03-.19.06-.29.08,0,.07.04.16.09.25.07-.11.14-.22.19-.33Z"/>
        <path class="cls-1" d="M193.67,160.35c.3.05.08-.52.04-.77-.03.23-.17.32-.39.35.05.11.16.24.35.42Z"/>
        <path class="cls-1" d="M174.68,157.82c-.11.02-.22.03-.32.05.09-.02.23-.03.32-.05Z"/>
        <path class="cls-1" d="M205.7,154.38c.1-.04.16-.1.18-.16-.1.02-.15.08-.18.16Z"/>
        <path class="cls-1" d="M138.01,186.94c.03.05.04.08.06.12-.03-.08-.05-.13-.06-.12Z"/>
        <path class="cls-1" d="M144.02,180.22c-.02.05-.03.11-.05.16.09.07.18.13.27.19-.08-.11-.15-.23-.22-.34Z"/>
        <path class="cls-1" d="M187.42,117.76s-.01.02-.02.04c0,.23.02.1.02-.04Z"/>
        <path class="cls-1" d="M130.63,87.29c.62.49.07.4-.39.36-.22-.02-.56-.08-.58,0-.06.06.24.29.66.6-.16-.27,1.89-.02.32-.97Z"/>
        <path class="cls-1" d="M172.96,155.38c.14,0,.28.01.42.03-.19-.04-.31-.05-.42-.03Z"/>
        <path class="cls-1" d="M130.32,88.25s0,0,0,0c.06.04.12.08.19.13-.08-.05-.12-.08-.19-.13Z"/>
        <path class="cls-1" d="M188.73,96.05c-.07.05-.11.14-.14.24.05,0,.09-.06.14-.24Z"/>
        <path class="cls-1" d="M187.85,112.38c.05-.13.11-.26.16-.39-.08.15-.13.28-.16.39Z"/>
        <path class="cls-1" d="M179.5,89.53c-.26.06-.39.05-.59.31.05.01.09,0,.14,0,.03-.14.12-.29.45-.32Z"/>
        <path class="cls-1" d="M174.89,94.87c.06,0,.12,0,.18,0,.03-.06.07-.13.11-.19-.1.07-.19.13-.29.2Z"/>
        <path class="cls-1" d="M133.65,166.99c-.17.22-.35.38-.52.51.4-.22.43,1.01.52-.51Z"/>
        <path class="cls-1" d="M172.65,155.6c.08-.14.18-.2.32-.22-.1,0-.2,0-.3,0-.05.08-.07.16-.02.22Z"/>
        <path class="cls-1" d="M182.74,93.86s-.16.05-.26.13c-.12.08-.24.16-.36.24.12-.05.24-.13.36-.21.06-.05.12-.08.18-.11.03-.02.05-.03.08-.05Z"/>
        <path class="cls-1" d="M115.38,135.18c-.1.08-.2.16-.3.25.13-.06.24-.14.3-.25Z"/>
        <path class="cls-1" d="M180.19,96.53c-.29,0-.52.07-.72.18,0,.07,0,.14.04.21.23-.13.46-.26.69-.4Z"/>
        <path class="cls-1" d="M133.12,167.5s0,0,0,0c0,0,0,0,0,0Z"/>
        <path class="cls-1" d="M134.58,176.19c-.15-1.3-.75-.45-1.18-.64-.36-1.51.43-.84.74-1.45-.26-.93-.92-1.52-.91-2.25.11-.08.15-.23.3-.1-.59-.89,0-3.03-.6-4.06.07-.1.13-.16.19-.2-.37.28-.74.39-.99.41.03-.58-.36-.97.13-1.3-.05.36.14.35.27.48-.05-.19-.1-.38-.14-.56.72-.71.15.78.65.66-.12-1.14-.5-2.4-.18-3.35.69-.35-.06,2.08.69.72-.15.49-.29.98-.43,1.47,1.17-1.32-.17.87,1.06-.38.44-1.9-.08-2,.42-3.88-.3-.33-.58.26-.88-.07-.23-2.49,2.13-2.56,1.5-4.39-.42-.4-1.25-.27-.76-1.86.27.04.53.1.8.16.06-.99-.27-1.12-.53-1.28-.27-.16-.44-.34-.4-1.37.42.11.53,1.23.59.9.43-1.57-.61-.61-.87-1.44.21-.21.42-.42.63-.63-.06-.11-.11-.22-.17-.34-.04-.06-.06-.15-.12-.2-.05-.05-.09-.1-.14-.14-.17-.16-.34-.32-.51-.48-.33-.34-.77-.53-1.17-.78-.84-.45-1.76-.78-2.65-1.12.25-.14.71-.19.47-.59-2.42-.72-4.84-1.77-6.99-2.66-.42.13-.83.27-1.24.4-.21-.05-.24-.33.05-.4-.8-.39-.26.36-.83.5-.54-.06-.51-.46-.08-.57-1.91.19-5.19.27-6.56-.68.14-.04.28-.07.41-.11-1.2-.49-2.04.9-2.99.08.09-.01.19-.03.28-.05-.68-.24-1.4-.42-2.12-.58-.33-.09-.66-.19-.99-.28-.3-.12-.62-.22-.91-.35-.54-.27-1.07-.58-1.28-.94-.16-.18-.16-.31-.16-.45.02-.15.06-.28.17-.41-.46.07-.37-.33-.16-.59.11-.16.23-.31.29-.5.1-.2.1-.41-.09-.61.34-.23.7-.35.92-.44.24-.09.41-.15.64-.22.44-.13.88-.36,2.06-.93.59-.35.63-1.19,1.4-1.8.1.16.2.32.31.47.29-.4.57-.81.87-1.21.32.07.64.14.95.21.25-.2.5-.41.76-.61-.35.16-.82.19-.85.02,1.17-.98,3.38-1.49,3.54-1.26.98-.74,1.97-1.48,2.98-2.22.03.24-.47.61-.83.97,1.46-1.47.58.36,1.93-1.02-.27.01-.04-.36-.06-.48.96-.15,2.8-1.2,4.11-2.16-.02.16-.04.32-.06.48,1.27-.67,2.6-1.62,3.94-2.55.66-.53,1.34-1.06,2.02-1.6.68-.52,1.32-1.18,2-1.76-1.12.75-1.43.11-.76-.58.28.03.55.05.83.08.15-.64-.97.57-.4-.57.89-.88,1.23-.29.89.39.29-.44.58-.87.87-1.31.24.01.09.34.24.53.03-.35.67-.79,1.23-1.34.53-.56,1.04-1.2.91-1.68.08-.01.17-.02.25-.03,1.52-3.02,1.39-4.41,1.38-6.65-.68.04-.57-.85-1.18-1.4.04-.81-.03-1.62-.09-2.5-.05-.89-.29-1.77-.71-2.63-.88-1.13-.71-.19-1.34-.62.27-.14.19-.63.14-1.01-.06-.36-.1-.59.36-.23-.63-1-1.06-1.63-1.59-2.31-.26-.34-.55-.7-.91-1.11.03.07-.03,0-.04,0-.03-.04,0,.02-.07-.07-.09-.13-.19-.26-.29-.4-.2-.28-.44-.56-.7-.87-.05.36.04.72-.26.61-.37-.45-.43-1.16-.12-1.18.05.04.09.07.14.1-1.35-1.31-2.15-3.07-2.93-4.7-.38-.81-.77-1.59-1.18-2.25-.12-.25-.18-.24-.67-.5.03.02.06.03.1.05-.38-.25-.84-.66-1.24-1.2.03-.2.23,0,.45.21.24.22.51.41.77.48-.18-.18-.37-.38-.39-.5-.03-.12.03-.18.11-.2.16-.04.42.05.63.15.22.11.42.22.59.29.09.03.17.06.27.07.13.02.12-.03.47.05.78,1.06,2.45,1.79,4.26,2.61,1.8.81,3.72,1.72,4.69,2.8.02-.12.03-.24.05-.36.83.11.67.61,1.08.95.09-.25-.51-.65-.01-.57,2.83,1.43,5.43,3.26,7.9,5.15.61.46,1.2.92,1.79,1.38.65.5,1.29,1,1.91,1.5.65.5,1.44.95,2.16,1.41.76.42,1.58.78,2.38,1.14,2.55.75,1.91-1.28,4.78-.12-.31.23-.63.41-.97.58,2.62-.13,5.07-.49,7.28-1.18,2.2-.69,4.16-1.69,5.54-3.06-.1.26,0,.43-.32.63,1.03-.02,2.46-1.75,2.16-2.07.46-.33.34.2.74.13.82-.28.96-1.78,1.58-1.69.11.01-.03.27-.1.39.2-.51,1.55-1.58.82-1.66.06-.05.12-.09.18-.14,0,.02.04-.01.04,0,.08-.05.25-.21.36-.31.22-.23.41-.47.58-.7.34-.46.62-.88,1.05-1.11-.14-.96,1.46-1.23.82-2.05.37.39.82.19,1.18-.18.37-.35.66-.86.71-1.19.03.18.22.15.28.23.08.06.17.14.28.33.05-.06.14-.26-.01-.77.21.29.29.4.4.44.1.03.22.04.35.09.13.05.27.15.31.27.02.06.02.13-.02.19-.05.04-.12.13-.21.27.4.61.76,1.28,1.07,1.96.15.34.29.68.42,1.03.13.36.25.72.37,1.08.46,1.41.74,2.74.86,4.09-.75-.17-.31-2.94-1.18-2.87.69,2.48,1.35,4.04.93,6.55-.18.64-.3-.42-.42-.65.1,2.59-.82,4.98-.99,7.38-.07-.01-.09-.27-.09-.52-.09.47-.39,1.07-.02,1.05,0-.15.02-.31.02-.46.71-.69.6,1.92.85,2.01-.41-.42-.63.15-.88.67-.24.52-.51.99-.99.34-.02.32.05.71.31.64-.2.46-.39.61-.54.13-.3,1.71.29,1.09-.16,2.63-.19,0-.16-.3-.33-.45.14.77.27,1.52-.2,2.83-.09-.06-.28.11-.18-.28-.12.56-.19,1.07-.22,1.56-.01.48,0,.94,0,1.4.04.92-.03,1.83-.26,3.07-.84-.38-.35.92-1.08,1.35.09.39.15.79.28,1.14.11-.22.21-.43.34-.66.03.53.23.94.39,1.33.19.38.35.75.31,1.23-.15-.18-.31-.35-.46-.53.15.59.38,1.12.59,1.66,0-.38,0-.76.01-1.14.66.66.94-.68,1.07.62-.16-.18.3.84.05,1.57h0c.43.23.85.47.99,1.15-.15.32-.88.48-.99.7.81-.07,1.24,1.65,2.21,1.57-.25-.03-.64.27-.68.38.23-.03.47-.07.7-.1.08.46.04.56-.3.75.66,1.04.67-1.05,1.17.42-.11-.06-.15.05-.37-.08.7,1.32,2.11,1.92,2.79,3.13-.43.9-.97-.74-1.26.11,1.43,1.35,3.62,2.33,4.83,3.92-.06-.11-.12-.23-.18-.34,1.18-.62.53,1.5,1.71,1.87-.25-.12-.78.21-.62.17.81,1.15,2.24,1.9,4.17,3.24-.15,0-.3,0-.45,0,.4.8,1.56,1.74,2.19,2.5.47,0,.85.4.96-.13.05.2.12.39.19.56.06.17.2.39.23.48.1.23.22.39.39.54.32.29.83.53,1.43.83.59.3,1.29.67,1.73,1.06.21.19.36.38.34.56-.02.16-.2.35-.79.4.16-.22-.62-.66-.56-.51.18.26.04.52-.15.62-.18.12-.39.19-.61.25,1.07.51.79.32,2.08.65.34.35-.04.64-.77.63.38-.17-.02-.39-.54-.58-.39-.14-1.09-.4-1.52-.56.27.16.37.33.61.49-2.23-.98,1,1.03-1.61.27-.04-.08-.07-.17-.11-.26-.64.08-1.08.37-1.95.23-.76-.61.6-.21.29-.68-1.07-.05-1.46.92-2.87.27.37-.12,1.06-.07,1.42-.19-1.56-.76-1.55-.6-2.42-.77.03,0,.06.01.09.02-.67-.15-1.33-.3-1.99-.45.19.07.37.15.56.22-.56,1.38-2.6.05-4,.87,1.4-.77.07-.51-.05-1.14-.53-.22-1.28-.47-1.15-.64-.65.45-1.48-.52-2.42.14-.11-.21-.88-.09-.82-.59-1.01.07.33.38.31.63-.74.28-1.77-.01-2.83-.28-1.07-.27-2.17-.51-3.31-.13-1.98.22-2.39.87-4.33,1.04-.6-.37.6-.68.6-.68-.98-.38-1.72-.39-2.71-.25.23-.16.06-.32-.18-.57-.75-.01-.67.68-1.58.3.23-.21.54-.54.94-.73-.9.11-1.86.4-2.82.5-.12-.37.71-.47,1.09-.67-1.04.07-2.67.08-3.2.6.19.08.38.17.57.25-.38,0,0-.48.3-.56,1.01-.35,1.16.3,1.15.5-.23.02-.46.05-.69.07.28,1.22,2.68.05,3.95.23-.25.27-.5.53-.75.8.51-.19,1.01-.39,1.52-.58.25.25.37.74-.32.81.91.5.91-.22,1.69.31.08.08.04.12-.05.14.33-.06.67-.11,1-.17-.21.16.11.61-.49.44,1.75.64,2.88-.39,3.54.31-.05.01-.1.03-.15.04,2.47-.08.24-.59,2.02-1.19.45.56.91,1.1,1.4,1.65.06-.2.11-.4.17-.6.26.05.78.13.72.37.9-.35-.21-.28.29-.64,1.35.67,3.35.02,3.93,1.04.31-.44-1.32-.46-.07-.69.73,1.1,1.5-.06,2.84.53-.13.53-1.39.14,0,.73.32-.88,2.44.39,3.42.29-.36-.75,2.06-.14,3.65-.25.05.24,3.59.67,5.54,1.06.02.04.04.08.06.12-.2-.36.31-.52.91-.58.6-.09,1.37-.12,1.89-.25.5.32.53.5.05.77.43-.06.82-.13,1.2-.22-.04-.24.16-.36.76-.65.13.13.26.27.39.4.33-.16.63-.34.86-.67.25-.35.19-.77.04-1.09-.29-.66-.81-1.2-1.03-1.85-.47-.07-.84.13-1.29.14-.36.04-1.26-.17-2.16-.67.25,0,.61,0,.96.03.31.04.63.11.9.28-.17-.11-.8-.39-.84-.59.45.16.9.34,1.33.53-.22-.56-.96-.32-1.37-.74.68,0,.09-.35.68-.32.21.13.2.43.64.61-.42-.53-.88-1.27-.77-1.62-.26.12-.78.16-1.34-.22-1.33-1.04.13-.59-.48-1.41-.3-.04-.65-.36-.85-.49-.2-.13-.42-.21-.7,0-.27-.25-.07-.5-.03-.71-.73-.23-2.18-1.92-2.25-.97.03.05.05.09.08.14-.03-.01-.06-.03-.1-.05,0,0,0,0,0,0,0,0,0,0,0,0-1.99-.94-2.6-3.14-4.1-4.3.06-.05.12-.1.18-.15-.97-.64-1.79-1.69-2.7-1.92-.22-.23-.18-.83.13-.92-.69-.48-.96-.36-1.44-1.48.85.32.09-.44.78.41-.55-.9-.41-1.33-1.64-1.72.71-.12.07-1.08-.38-1.32.05.27.09.54.14.82-.43-.34-.7-.73-.97-1.12.26-.11.52-.23.77-.34-.58-2.17-3.58-1.69-3.13-3.97-.73-.07.28,1.12-.49,1.16-.43-.81.01-2.32-.11-2.55-.13-.65-.46-.73-.84-.8-.38-.07-.77-.16-.87-.84-.17.3-.76.9-1.31.1-.18-.96.68-1.69,1.03-1.27.08.19.04.34-.04.38.17.23.38.52.53.02-.09.01-.18.03-.27.04.08-.57-.21-1.75.25-1.69-.37-.52-.45-.07-.47.5.08-1.31-.29-1.81-.09-3.15-.14.25-.4.55-.41.35.39-1.98-.45-.64-.34-2.02.48-.9.77.08.73-1.27.41-.92.64-.31.76-.02-.2-1.18.78-2.43,1.02-3.15,0,.22.01.43.02.65-.03-.38.07-.72.16-1.06-.18.14-.35.29-.53.43.18-.41.27-.75.44-.76-.18-.4-.79.38-.97-.44.37-.57.24-1.71.84-1.91-.65,1.75.61-.19.31,1.26,0-.28.11-.62.28-1.03.08-.06.1.06.1.17.94-1.64-.42-.75.08-2.51.24.24.69-.37.7-.66-.19.7-.59.31-.66-.36.54-1.12.15-1.25.32-1.85-.09.22-.18.45-.28.67-.25-.26-.06-.83.03-1.64.25-.04-.01.75.16.47-.32-.95,1.01-1.95.86-3.24.3-.55.57.02.79-.47-.18-1.45.63-1.47.44-3.01-.44.38-.33.47-.67-.63.05.83.07,1.66.07,2.49-.13-.55-.27-1.1-.43-1.64-.06.73.1,1.59-.03,2.02-.23-.79-.15-.7-.52-.39.74-.93-.14-2.04.3-3.16.34.05.67.1,1.01.15.47-1.73-.52-3.24-.75-5.53,0,.25-.02.49-.03.74-.46-.34-.33-1.41-.69-2.17.36.08.36-.4.47-.73-.21.05-.58-1.81-1.4-1.98,0-.19-.02-.38-.04-.58-.03-.23-.13-.53-.2-.81-.79-1.49-1.7-2.09-2.42-2.43-.18-.1-.37-.16-.56-.23-.19-.04-.39-.08-.59-.14-.1-.03-.21-.06-.32-.1-.1-.02-.21-.04-.33-.06-.23-.04-.49-.14-.75-.15.25-.19.14-.36.11-.51-.02-.14.06-.27.99-.08-.47-.17-.93-.34-1.24-.38-.3-.02-.48.01-.43.15-.31-.18-.8,0-1.22.25-.38.31-.75.57-1.14.61-.04.31.3.68-.11,1.02-.12-.03-.18-.17-.18-.17.16.16-.31.81.4.85-1.07-.02-1.64.8-2.17,1.61-.53.82-1.05,1.64-1.92,1.7-.13.21-.27.45-.42.65-.04.05-.08.1-.11.15-.06.07-.12.15-.18.22-.09.14-.17.27-.26.41-.31.48-.63.95-.96,1.31-.06-.14-.16-.16,0-.26-1.21.7.37,1.51-1.14,2.27-1.08.03.36-.85-.2-.7-.59-.45-.89-.09-1.25.36-.35.47-.8,1.03-1.5,1,.05-.07.11-.14.16-.21-.49.05-.8.43-1.2.85-.38.45-.85.92-1.52,1.16,0,0,0-.13-.09-.18-.25.53-.83.92-1.51,1.33-.7.33-1.5.64-2.23.77.36-.56.6-.34.22-.82-.61.14.39.8-.93,1.09-.48-.28-1.43-.53-1.55-1.08.39,0,.78-.01,1.17-.02-.34-.36-.69-.36-1.06-.28-.37.06-.75.14-1.06.04.03-.1.07-.2.1-.3-.22-.02-.41-.02-.58,0-.17,0-.33-.02-.48,0-.29,0-.54.05-.81.09-.53.11-1.07,0-2.06-.38.04.1.07.19.11.29-1.43.19-.69-.82-2.04-.87.04-.28.07-.56.1-.84-.4-.14-1.09-.38-1.88-.65-.83-.31-1.74-.67-2.44-1.03,1.05.01,2.87.79,3.89,1.04-.35-.23-.88-.54-1.53-.87-.64-.32-1.24-.57-1.53-.53.33.13.82.21,1.05.49-1.26-.08-2.59-.59-4.1-1.55,1.11-1-3.79-2.77-4.51-4.37-3.18-1.24-5.96-3.53-9.95-5.23,1.15,1.61-1.14-.48-1.13.66-.91-.32-1.24-.47-1.31-.58-.39-.28-1.1-.67-1.74-1.01-.34-.18-.69-.37-1.03-.55-.18-.1-.36-.19-.54-.29-.17-.08-.35-.15-.52-.22-.56-.31-.31-.31.08-.26.37.04.97.26.84.07-.87-.37-1.29-.46-1.63-.61-.33-.13-.51-.24-.66-.35-.31-.22-.5-.44-1.74-.86.78.55-.5.43-1.79.55.74.05,1.55.24,2.41.53-1.42.16-2.12.1-2.93.17-.39.04-.72.19-.96.43-.39.17-.21.81.07,1.67-.23-.41-.39-.81-.59-1.24.05.22.09.48.13.76.06.29.12.61.18.95.2.72.45,1.57.96,2.48.12.22.23.45.34.67.14.23.3.45.45.67.3.44.58.85.88,1.23.15.18.32.37.46.51.11.1.22.19.33.28.22.17.45.31.68.4-.02.24-.21.62-.64.15,1.65,2.78,5.15,5.31,5.39,7.35-.15-.02-.29-.05-.44-.07.16.2.42.33.63.5.16.21.31.37.43.56.08.12.12.25.12.42-.16.02-.44-.05-.34.16.26.19,1.31.95,1.44,1.61-.22-.12-.45-.24-.68-.37.22.61.51,1.12.84,1.56.3.45.63.84.98,1.21.67.75,1.51,1.43,1.86,2.42-.53.12-.76.67-.87,1.29-.06.31-.06.64-.09.95-.05.3-.09.59-.12.82-.05,0-.1,0-.16,0,.05,2.58.74,4.27-.44,6.67-.5.26-1.03.62-1.52,1.08-.49.46-1.19.94-1.78,1.5-.69.53-1.44,1.07-2.19,1.57-.81.49-1.61.94-2.36,1.28.52-.15.33.56-.15.93-.78.27-1.57,1.6-1.88.91.08-.04.17-.09.25-.13-.92-.3-2.27.66-3.38,1.28.12.31.23.63.34.94-3.76.43-7.43,4.79-9.67,4.66-.27.31-.62.59-.96.87-.37.32-.73.64-1,.98-.1-.15-.2-.3-.3-.45-.52.3-.97.64-1.38.93-.41.29-.8.62-1.18.98-.19.18-.38.36-.58.57-.19.23-.38.47-.59.73-.1.14-.2.25-.3.41-.1.18-.2.36-.31.55-.21.38-.41.78-.55,1.31-.04-.29-.09-.63-.08-.91-.27.54-.31,1.11-.27,1.52.06.43.27.78.45,1.08.43.6.91,1,1.25,1.68-.21.3-.36.59-.5.92.98,1.45,1.96,2.15,2.97,2.77,1.01.54,2.09.86,3.21.7-.09.11-.25.34-.59.29.48.12,1.27.49,1.98.66.74.16,1.38.14,1.48-.47-.32.76,1.97.48,3.18.33-.14.17-.28.35-.43.52,1.21-.54,1.34-.73,2.67-.71.25.12.03.49-.28.28.81.47,1.02-.39,2.03.13-.21.09-.41.18-.62.27.95.23.97.03,1.74-.28.74-.09,1.77.53,1.6,1.06.3-.27,1.07-.55,1.54-.27-.05.21-.31.26-.45.3,1.28.79,2.69.03,3.29.94-.11.18-.11.3-.08.38-1.07-.47-2.03-.77-1.91-.79-.32.49.52.89-.65,1.33.96-.14,2.81-.5,3.41.15,0,.07,0,.13-.03.22-.04,0-.08,0-.12.01.14.14.34.18.55.18.18.21.25.37.46.52-.14.22.03.4.24.57.19.19.45.35.59.49.48-.51.76-.03.83-.79.01.08-.12,0-.35-.16-.06-.03-.12-.07-.18-.07.02,0,.04-.02.06-.02-.2-.18-.52-.38-.89-.61.51-.07,1.05-.08,1.12.52.47-.16,1.01-.32,1.26-.35-.08.28-.13.57-.16.85-.03.29-.03.51-.13.73-.1.52-.25.97-.47,1.19.34.49.49,1.25.63,2,.14.75.28,1.5.74,1.89.06.46-.38.65-.57.89-.06-.26,0-.6-.13-.71.15.88-.36,2.95.33,3.04-.52,1.4-.55-.59-.7,1.2-.06-.07-.12-.13-.18-.2-1.55,3.84,1.08,5.39-.16,9.7.07-.29.1-.44.22-.53-.41,4.69,1.73,9.13,3.03,13.93.29.74.57,1.12.96,1.5.35.34.68.53,1.12.86-.02.24-.02.51,0,.77.59.38,1.12.66,1.62.83.51.29,1.03.67,1.6.9.57.23,1.1.29,1.56.24.47-.04.9-.23,1.22-.66.34-.4.51-1.13.51-1.96-.16.02-.35.04-.51.04.11-.21.18-.49.27-.79.07-.27.14-.55.21-.8.14-.49.3-.85.51-.67-.05-.12-.34-.47-.04-.66.11.05.21.09.32.14,0-.72.05-1.43.12-2.15.78-1.34,1.1.85,2.01-1.25.19-.85.17-2.69-.16-2.5-.18.31-.58.71-.88.58.07-.27.13-.53.21-.8-.77-.59-1.33-1.61-2.82-.16-.04.5-.06,1.01-.08,1.51-.2.06-.39.12-.59.17.14-.35.3-.7.45-1.05-.66.38-.49.93-.44,1.47-.26-.02-.49.07-.67.26.1.54.22,1.09.35,1.63-.4-.04-.47-.89-.96-.21.18.76.96-.11.88.93-.61.35-.88,0-.77.84-.26-.04-.36-.25-.36-.56.03.36-.08.76-.15,1.12-.09.42-.04.54.15.81-.3-.03-.33.14-.41.28-.08.13-.2.17-.47-.38.05.14.13.41.13.69,0,.27-.09.52-.24.53.05-.77-.17-.74-.34-.9-.19-.16-.32-.4-.07-.93-.2.46-.41.32-.58.12-.24-.33-.74-1.33-1.25-2,.1.07.3.2.31.34-.27-.85-.1-1.16-.15-1.75-.75.05-1.37-1.24-2-1.86.38-1.21,1.01.44,1.57-.04-.57.19-1.08-1.69-1.45-1.22.23-.9.04-.74.54-1.29-.93.07-.31-.71-.98-1.25.26-1.27.79-.5.34-1.71.2-.67.67.39.67.39ZM129.78,148.91s0-.01,0-.01c.21.09.39.17.51.22-.11-.04-.26-.1-.52-.21ZM127.69,148.08c.25.1.57.22.9.36-.07.21-.29.37-.49.28.21-.08-.2-.38-.41-.64ZM128.55,153.61c-.29-.09-.28-.24-.22-.36.11.07.28.12.45.22.02,0,.06-.03.08-.04-.11.08-.22.15-.31.18Z"/>
        <path class="cls-1" d="M129.54,153.29s.08,0,.12.04c0-.08,0-.15-.02-.22-.08.03-.16.06-.23.09.04.03.08.06.12.09Z"/>
        <path class="cls-1" d="M200.05,150.57s-.02-.03-.03-.05c.01.05.02.09,0,.14,0-.04.02-.06.02-.09Z"/>
        <path class="cls-1" d="M112.58,137.14s-.05-.07-.07-.11c-.06.08-.11.16-.17.23.08-.04.16-.08.24-.12Z"/>
        <path class="cls-1" d="M201.73,158.31c-.09-.06-.21-.12-.35-.17.06.04.19.1.35.17Z"/>
        <path class="cls-1" d="M195.1,157.67c-.37-.1-.74-.2-1.1-.29.49.16.83.24,1.1.29Z"/>
        <path class="cls-1" d="M189.7,156.95c-.02.1-.01.18,0,.25,0,0,0,0,.01,0,0-.08,0-.17-.01-.25Z"/>
        <path class="cls-1" d="M184.54,112.39c.01-.07.02-.13.02-.19,0-.45-.02-.15-.02.19Z"/>
        <path class="cls-1" d="M183.41,134.09c-.19-.1-.35-.22-.49-.36.07.34.16.58.49.36Z"/>
        <path class="cls-1" d="M182.75,93.86s0,0,0,0c0,0,0,0,0,0,0,0,0,0,.01,0Z"/>
        <path class="cls-1" d="M182.62,132.91c0,.39.13.63.3.82-.06-.28-.12-.61-.3-.82Z"/>
        <path class="cls-1" d="M168.57,154.85c-.07-.01-.14-.03-.21-.04-.01.04-.04.07-.06.09.09-.02.18-.03.28-.05Z"/>
        <path class="cls-1" d="M168.29,154.9c-.09.01-.18.03-.27.04.11,0,.21.02.27-.04Z"/>
        <path class="cls-1" d="M167.43,155.04c.19-.03.39-.06.58-.1-.18-.02-.39-.06-.58.1Z"/>
        <path class="cls-1" d="M174.73,155.68c.04-.07.07-.14.11-.2-.05.04-.08.11-.11.2Z"/>
        <path class="cls-1" d="M176.68,155.79c-.46-.09-1.1-.55-1.76-.47-.03.05-.06.11-.09.16.34-.29,1.36.63,1.84.31Z"/>
        <path class="cls-1" d="M185.58,159.12c-.63-.11-1.26-.21-1.89-.32.36.25.86.58.02.57,2.52.85-.59-.54,1.87-.25Z"/>
        <path class="cls-1" d="M191.61,159.91c-1,.02.16.32.17.45.58-.15.7-.19-.17-.45Z"/>
        <path class="cls-1" d="M193.51,143c.17-.12.34-.23.51-.35-.45-.36-.18.15-.51.35Z"/>
        <path class="cls-1" d="M187.28,140.91c.01.22.03.43.04.65.2-.06.4-.13.61-.19-.22-.15-.43-.31-.65-.46Z"/>
        <path class="cls-1" d="M188.69,135.56c.07.04.13.08.2.12-.22-.18-.44-.36-.66-.54.15.14.31.28.46.42Z"/>
        <path class="cls-1" d="M175.17,93.53c.23.12.46.24.69.36.11-.37-.53-.98-.69-.36Z"/>
        <path class="cls-1" d="M155.97,102.07c-.16-.35-.7-.9-1.25-.83.51.29.93.83,1.25.83Z"/>
        <path class="cls-1" d="M117.43,128.95c.15-.16.31-.32.46-.48-.33.24-.65.49-.98.73.17-.08.34-.17.52-.25Z"/>
      </g>
    </g>
  </g>
</svg>