<?xml version="1.0" encoding="UTF-8"?>
<svg id="_1080_x_1080_px_Logo_2" data-name="1080 x 1080 px Logo 2" xmlns="http://www.w3.org/2000/svg" viewBox="0 0 313.1 284.88">
  <defs>
    <style>
      .cls-1 {
        fill: #b78fd6;
      }

      .cls-2 {
        fill: #202020;
      }
    </style>
  </defs>
  <g id="Text-3" data-name="Text">
    <g>
      <path class="cls-1" d="M245.13,87.25c-10.02-11.07-30.01-17.64-47.85-21.36-18.36-3.73-34.58-4.62-49.06-4.35-21.38.24-39.42,4.3-55.42,13.73-15.52,9.43-29,24.24-30.14,45.99-.66,26,5.06,43.71,20.44,54.84,14.81,11.13,39.28,15.67,62.84,15.35h.37c16.86-.08,31.15-2.04,39.87-7.96,9.5-5.92,13.45-15.79,27.64-31.7,18.19-20.36,49.62-48.24,31.3-64.53ZM212.2,152.27c-13.67,15.31-18.07,24.74-27.66,30.37-8.87,5.63-22.93,7.46-39.17,7.59h-.37c-22.74.36-46.51-4.08-61.06-14.96-15.08-10.88-20.94-28.22-20.05-53.66,5.28-42.93,45.24-58.41,85.23-58.87,14.5-.24,30.65.59,48.75,4.27,17.59,3.68,37.12,10.21,46.54,21.36,16.94,16.24-14.48,43.94-32.2,63.91Z"/>
      <g>
        <path d="M246.82,83.75c-15.35-14.18-45.32-21.07-65.74-23.99-10.95-1.5-20.78-2.06-30.01-2.09-8.74-.03-17,.33-24.86,1.61-13.85,2.27-27.47,7.3-40.55,17.16-13.41,10.14-22.87,25-24.77,40.76-2.04,15.96.19,32.83,7.24,46.6,6.16,11.91,17.4,19.97,31.54,24.73,15.92,5.41,33.9,6.86,49.39,6.75,17.77-.13,32.97-1.94,41.34-9.13,8.24-7.08,12.06-20.2,27.61-36.9,15.21-17.4,40.12-38.13,35.42-54.76-.9-3.84-3.17-7.47-6.62-10.73-2.12-2.15-5.15,4.91-3.87,7,11.36,12.98-3.75,31.79-19.54,48.25-15.29,15.77-24.73,28.71-33.5,36.64-9.26,8.23-21.85,10.91-36.92,11.72-13.92.77-29.67.19-44.73-3.74-12.95-3.38-24.74-9.31-32.34-19.26-7.91-10.4-11.36-24.17-11.24-38.21.13-14.51,4.7-28.28,16.62-38.84,11.5-10.21,25.75-15.87,39.44-18.87,16.25-3.56,33.54-3.9,52.2-2.44,18.43,1.49,42.57,5.5,60.13,16.08,4.08,2.55,7.48,5.46,9.88,8.67,1.71,2.15,6.37-4.88,3.87-7Z"/>
        <path d="M211.61,150.67c-14.46,15.62-20.81,24.59-31.95,29.63-10.37,5.05-25.55,6.17-39.67,6.12-25.17-.1-57.97-6.67-68.38-31.25-5.8-12.5-7.39-28.03-4.16-42.2,2.91-13.08,11.99-24.34,24.57-31.99,13.51-8.2,28.14-11.95,42.91-13.52,16.88-1.8,35.18-1.48,54.92,1.62,19.22,3.11,42.83,9.81,52.39,23,10.05,12.93-5.08,31.28-20.42,47.39-3.51,3.83-6.96,7.61-10.2,11.2-1.2,1.3-3.21,3.92-2.46,5.1.71,1.15,2.85-.9,3.69-1.89,13.62-17.17,39.82-37.58,39.64-54.99.49-16.7-25.41-28.06-48.32-33.77-23.47-5.75-42.93-6.64-60.19-6.16-15.84.44-29.92,3.06-44.15,10.15-12.9,6.5-25.68,17.24-32.38,30.98-7.61,15.44-7.6,33.88-3.52,49.8,3.5,13.41,10.67,24.18,22.49,31.33,12.57,7.69,29.5,11.09,44.96,12.31,17.79,1.38,35.24.78,47.09-3.07,12.27-3.75,16.42-11.52,25.54-25.11,2.48-3.56,5.4-7.45,8.84-11.47,1.05-1.28,3.24-3.94,2.76-5.1-.5-1.16-3.1.92-3.99,1.89Z"/>
      </g>
    </g>
    <g>
      <g>
        <path class="cls-2" d="M150.94,106.71c-.12.05-.06.27.22.29.07-.1.13-.2.19-.3-.11,0-.23.02-.4,0Z"/>
        <path class="cls-2" d="M152.77,107.35c.26-.22.41-.61.08-.84-.09.39-.21.27-.38.71-.25.07-.48-.05-.46-.18-.08.07-.39-.07-.52.11.34.3.87.3,1.22-.01.12.05.07.15.07.22Z"/>
        <path class="cls-2" d="M164.47,112.54c.03-.06.05-.11.08-.17-.03.04-.06.1-.08.17Z"/>
        <path class="cls-2" d="M166.72,126.39c-.08-.07-.14-.08-.17-.06.09.06.16.1.17.06Z"/>
        <path class="cls-2" d="M168.15,128.43s-.06-.08-.09-.12c.01.06.04.12.09.12Z"/>
        <path class="cls-2" d="M164.47,112.54c-.07.14-.14.29-.21.43.08.04.13-.22.21-.43Z"/>
        <path class="cls-2" d="M154.94,104.98c-.04.07-.06.14-.06.21.03-.05.07-.11.1-.16-.01-.02-.02-.03-.04-.05Z"/>
        <path class="cls-2" d="M164.65,105.33s-.02-.09-.03-.13c-.04-.04-.09-.08-.14-.11.06.08.12.16.18.24Z"/>
        <path class="cls-2" d="M161.81,101.47c.08.03-.02-.25-.03-.36,0,.1-.05.15-.12.16.03.05.08.12.14.21Z"/>
        <path class="cls-2" d="M156.65,105.11s-.04.09-.05.13c.01-.03.04-.09.05-.13Z"/>
        <path class="cls-2" d="M164.82,109.24s-.07.02-.09.04c.03,0,.06-.01.09-.04Z"/>
        <path class="cls-2" d="M144.6,102.61s0,.03-.02.04c.05,0,.07,0,.02-.04Z"/>
        <path class="cls-2" d="M150.85,107.42s-.07-.01-.1-.02c-.02.05-.05.09-.06.14.05-.04.11-.08.16-.12Z"/>
        <path class="cls-2" d="M171.57,131.94s0-.01-.01-.02c-.13-.06-.07-.02.01.02Z"/>
        <path class="cls-2" d="M142.24,151.06c.33.53-1.01-.63-.45.15,0-.05.25.07.42.11.08.02.12,0,.15-.03.04-.02,0-.09-.12-.23Z"/>
        <path class="cls-2" d="M155.06,104.92s.08-.09.12-.14c-.07.06-.1.1-.12.14Z"/>
        <path class="cls-2" d="M141.78,151.21s0,0,0,0c.02.03.04.05.06.08-.03-.03-.04-.05-.06-.08Z"/>
        <path class="cls-2" d="M167.2,134.78c.01.05.06.09.11.13,0-.03-.02-.07-.11-.13Z"/>
        <path class="cls-2" d="M174.19,133.55c.02.06.05.12.07.18-.02-.07-.04-.13-.07-.18Z"/>
        <path class="cls-2" d="M161.69,134.68c-.13-.04-.16-.08-.36-.06.01.02.02.03.04.04.08-.03.18-.04.32.02Z"/>
        <path class="cls-2" d="M156.2,134.34s.04.04.02.06c0,0,0,0,0,0,.04,0,.08-.01.12-.02-.2,0-.04-.02-.15-.03Z"/>
        <path class="cls-2" d="M131.95,103.56c.04-.12.11-.21.18-.28-.19.12-.64-.59-.18.28Z"/>
        <path class="cls-2" d="M155.08,105.1c-.05-.07-.05-.12-.02-.18-.03.04-.05.07-.08.1.03.04.06.07.1.07Z"/>
        <path class="cls-2" d="M160.58,136.85c-.29-.04-.58-.09-.87-.13.23.05.55.1.87.13Z"/>
        <path class="cls-2" d="M125.47,131.2c-.05,0-.1,0-.15-.01.05.02.11.03.15.01Z"/>
        <path class="cls-2" d="M157.19,136.54c-.11-.11-.25-.18-.38-.22-.04.02-.08.04-.11.07.16.05.33.1.5.15Z"/>
        <path class="cls-2" d="M132.14,103.28s0,0,0,0c0,0,0,0,0,0Z"/>
        <path class="cls-2" d="M131.63,97.31c-.64.08-.65.28-.56.37.09.11.31.22.31.35-.39.37-.53.43-.64.4-.13-.04-.26-.2-.44-.06-.17.39.07.91.14,1.28.12.37.33.62.37.89-.06.03-.06.14-.18,0,.28.39.48.86.7,1.35.25.46.49.97.88,1.25-.01.06-.04.09-.06.11.16-.15.37-.2.53-.21.18.32.59.55.37.72-.1-.2-.22-.19-.36-.27.1.1.2.21.3.31-.24.39-.38-.43-.68-.38.48.65,1.23,1.33,1.38,1.85-.35.2-.76-1.14-.76-.39-.08-.27-.17-.54-.26-.82-.32.73-.2-.49-.59.2.42,1.08.81,1.12,1.22,2.16.34.17.3-.16.64.01,1.14,1.31-.46,1.38.58,2.27.4.19.98.16,1.01.96-.19-.04-.38-.08-.57-.12.34.96.91.38.98,1.45-.25-.12-.45-.7-.45-.54-.12.75.45.38.62.87-.13.07-.26.14-.38.21.39.95.94,1.93.79,2.94-.11-.06-.21-.22-.38,0-.02.48-.25.98-.64,1.41-.03.04-.06.09-.09.13-.37.48-1.32,1.05-2.16,1.48-.12.19-.23.37-.35.56-.13.08-.32.05-.22-.08-.63.26.08.16-.12.41-.31.22-.53.13-.37-.06-.86.8-2.67,2.12-3.92,2.5.05-.06.11-.13.16-.19-.91.4-.62,1.03-1.54,1.28.04-.04.08-.09.12-.13-.93.5-1.81,1.12-2.61,1.75-.8.63-1.49,1.23-2.14,1.84.1.25-.24.66-.41,1.25-.18.58-.09,1.27.2,1.26.03.74.14,1.06.29,1.38.13.28.33.64.92,1.14.32.23.64-.05,1.04.05-.04.1-.07.2-.11.3.22-.03.41-.07.62-.1.05.15.09.3.14.46.13.02.25.04.38.05-.14-.06-.25-.24-.19-.32.6.07,1.27.61,1.23.76.46.02.93.03,1.39.02-.07.12-.31.12-.5.16.8-.17,0,.35.74.18-.06-.09.11-.17.15-.23.25.24.96.37,1.51.39-.06.06-.12.13-.19.19.91.22,2.01.26,2.98.56-.3-.2-.03-.53.29-.48-.02.12-.04.24-.07.35.29-.13-.23-.22.29-.33.34.16.02.44-.23.47.16.01.33.03.49.04-.03.1-.16.12-.26.23.3-.13.5.58.91.39-.01.03-.03.07-.04.1.2.1.36.2.49.3.15.09.27.17.37.26.13.12.16.1.18.13.07.12.12.26.16.43.27-.14.26.17.49.33-.05.67-.33,1.49-.39,2.41.07.64.2.15.32.42-.24.09-.26,1.06-.4.59.02,1.19.04,1.48.36,2.89.07-.18.09-.37.18-.29.06.25-.02.62-.13.61-.01-.02-.02-.04-.03-.06.5,1.54.27,3.91,1.41,5.09-.02-.02-.04-.04-.06-.07.3.43.63.86.98,1.28.35.63-.39-.33-.22.16,1.3,1.35,1.51,2.28,3.17,3.54.11.18.17.3.48.58.31.28.7.59,1.16.88.9.58,2.12,1.1,2.9,1.11.31-.05.61-.12.83-.25.19-.15.35-.33.46-.52.09-.32.24-.58.38-.78-.08-.02-.17-.04-.25-.07-.23-.39.16-.26.21-.44-.17-.06-.23.19-.34-.04-.16-1.24-.22-2.48-.02-3.74.19-1.25.59-2.52,1.11-3.76.39-.89-.76-.95.22-1.88.05.16.11.31.16.47.06-.24.14-.49.24-.71.03-.06.05-.11.08-.17.01-.03.03-.06.04-.08.02-.05.05-.09.08-.14.03-.05.06-.11.08-.16.01-.03.03-.06.04-.1.03-.06.06-.12.09-.18.24-.49.52-.96.83-1.42.63-.9,1.34-1.73,2.03-2.49-.05.13.02.19-.13.33.48-.15,1.22-.93,1.17-1.07.28-.14.14.11.34.1.2-.04.38-.19.57-.34.19-.12.38-.25.49-.16.04.03-.09.1-.15.15.1-.11.38-.15.6-.22.22-.05.39-.1.29-.22.17,0,.34-.01.5-.01.08,0,.17-.01.25-.02.17-.02.34-.03.5-.05.21-.06.6-.07.88.02.52-.3,1.37.24,1.68-.18-.24.44,1.39.51,2.04.36-.24.12.44.19.15.36.65.06,1.3.04,1.26-.2,1.04.66,2.64-.19,3.16.56,2.17-.08,4.23-.12,6.33-.3-.11.47-2.3.08-2.25.53.99-.08,1.79-.22,2.6-.38.83-.16,1.53-.25,2.8-.53.69-.13-.26.29-.49.41,1.26-.33,2.9-1.12,2.93-2.24.1-.53-.11-1.1-.36-1.52-.06-.11-.13-.23-.2-.32-.07-.08-.14-.15-.2-.23-.14-.15-.28-.31-.43-.43.05-.02.2.07.33.19-.2-.26-.39-.57-.57-.43.08.06.16.12.25.18,0,.26-.36.13-.72-.04-.17-.07-.38-.21-.56-.26-.16-.05-.28-.08-.33-.06.87-.13-.88-.97.32-1.05-.17-.09-.42-.16-.51-.03-.16-.2-.16-.31.18-.25-.82-.53-.75-.15-1.38-.69.09-.07.25,0,.41-.03-.48-.13-.97-.25-1.41-.75.08-.02.09-.13.24,0-.9-.74-1.89-.87-2.58-1.81.61-.1-.16-.38.11-.72-.18-.11-.35-.23-.52-.34,0,.1.01.21.02.31-.37-.38-.92-.5-1.11-.92.13.05.26.11.39.16-.24-.22-.47-.44-.7-.65.08.17.16.34.24.51-.51-.23-.38.41-.74-.18.13.07-.33-.39-.32-.74,0,0,0,0,0,0-.28-.09-.56-.16-.72-.5.04-.16.41-.28.44-.38-.44.08-.81-.77-1.28-.74.13.01.31-.13.33-.19-.11.01-.23.03-.34.05-.06-.24-.04-.29.12-.39-.33-.56-.32.54-.56-.26.05.04.07-.02.17.06-.33-.71-.9-1.17-.97-1.95.3-.43.28.53.51.1-.2-.44-.42-.89-.55-1.41-.11-.52-.16-1.09,0-1.69-.03.08-.05.15-.08.23-.23-.02-.13-.27.01-.56.18-.3.36-.63.35-.93-.02.15.19.18.15.15.11-.25.19-.51.25-.78,0-.02.01-.05.02-.07.12-.59.22-1.3.38-2.21.02.06.04.12.07.17.24-.5.42-1.33.58-1.88-.07-.18,0-.5-.19-.33.97-1.62.11-3.31.43-4.8.03.19.15.45.14.3-.08-.45-.19-.9-.33-1.34-.17.1-.08.17-.17.44-.15-.17-.32-.55-.41-.87.29.59.32,0,.34-.26-.04.04-.14-.04-.19-.02.08-.71-.39-.1-.58-1.05.04.01.08.03.12.04-.22-.35-.52-.65-.76-1.02.09-.22.35.34.52.33-.38-.58-1.07-.91-1.42-1.44.28.16.58.48.81.69-.26-.65-.42-.71-.89-1.13.02.01.03.03.05.04-.38-.33-.87-.66-1.37-.86.13.07.26.13.38.22-.48.07-.82.03-1.21.03-.37,0-.75.05-.84.41.25-.65-.13-.29-.38-.6-.25,0-.6.03-.61-.08-.04.38-.67.12-.62.73-.12-.07-.24.22-.46-.04-.2.35.25.08.36.21-.11.7-1.35.75-1.44,1.85-.31.79-.08,1.17-.44,1.9-.31.08-.18-.44-.18-.44-.4.22-.59.49-.78.88-.02-.13-.14-.12-.32-.12-.21.25.15.45-.3.63-.03-.14-.1-.34-.08-.55-.2.35-.35.75-.63,1.07-.21-.08.01-.37.03-.55-.28.37-.87.78-.86,1.1.11-.02.23-.04.34-.06-.15.1-.22-.17-.14-.27.21-.38.56-.23.66-.15-.07.07-.14.15-.22.22.7.34.96-.81,1.36-1.2.06.17.11.34.17.51.05-.24.1-.47.14-.71.18,0,.44.11.29.37.47-.15.13-.39.57-.48.06,0,.06.03.05.07.05-.13.11-.27.16-.4.03.13.3.18.09.32.69-.36.45-1.12.9-1.07,0,.02,0,.04-.01.06.47-.83-.22-.32-.13-1.14.34.09.69.18,1.02.26-.08-.11-.16-.21-.24-.32.07-.06.21-.19.3-.06.02-.43-.17-.07-.23-.38.56-.1.69-.98,1.25-.6-.12-.31-.47.12-.3-.33.63.4.31-.42.92-.35.14.31-.32.33.24.39-.21-.57.8-.16,1.04-.22-.09-.16.08-.22.39-.11.3.08.68.34,1.02.6-.05.01.23.3.5.71.27.42.52.94.61,1.29-.02,0-.04,0-.06-.01.38.1.62.83.81,1.37-.19-.02-.29-.12-.46-.41.05.16.1.33.14.49.13.12.22.28.32.61-.09-.05-.17-.09-.26-.14.15.66.49,1.37.34,2.22.21.08.6-.62.73.33-.12.02-.31.03-.36-.22.02.08.09.29.04.45-.06-.13-.12-.26-.18-.39-.09.38.16.23.13.54-.16-.03-.13.22-.26.15-.01-.08.08-.27.02-.4-.04.35-.17.77-.31.89.1-.02.22.03.21.3-.07.68-.22.2-.36.59.09.18-.1.6.14.65-.04.2-.16.22-.24.29.05.37-.36,1.66,0,1.29.01-.03.03-.06.04-.09,0,.02,0,.04,0,.06,0,0,0,0,0,0,0,0,0,0,0,0-.04,1.01-.62,2.03-.93,3.08,0-.01,0-.03.01-.04-.06.19-.12.37-.16.55-.03,0-.06,0-.09,0-.16.73-.39,1.63-.26,2.06-.02.2-.23.53-.33.48,0,.26.05.38.06.55.02.16-.02.37-.06.76-.2-.42-.16.26-.15-.46-.07.69-.22.95.18,1.44-.31-.07-.22.64-.04.86.02-.17.04-.34.06-.51.12.28.19.56.28.82-.13.03-.26.06-.39.09.07,1.42,1.67,1.31,1.58,2.5.4.05-.24-.61.18-.61.28.44.22,1.22.33,1.35.33.68.9.09,1.31.74.05-.17.27-.49.74-.14.32.44,0,.89-.32.7-.1-.09-.11-.17-.07-.19-.16-.1-.35-.22-.33.03.05-.01.1-.03.15-.04.06.29.6.84.3.86.4.22.3-.02.14-.3.34.65.78.81,1.24,1.43-.03-.13.01-.32.1-.24.7.89.56.16,1.18.64.18.44-.5.23.23.64.26.42-.2.31-.43.26.75.3.91,1.02,1.2,1.33-.13-.06-.26-.12-.39-.18.23.11.38.24.53.36.01-.11.03-.22.04-.33.14.18.29.31.2.38.33.04.21-.42.77-.27.13.3.87.54.67.84-.68-.74-.2.3-.9-.21.16.08.31.21.46.39,0,.05-.09.03-.15,0,.49.83.66.02,1.44.69-.28.03-.11.42,0,.46-.11-.09-.11-.21.02-.23.06-.02.15-.02.24,0,.09,0,.14-.03.22.01.24.53.54.43.69.69-.04-.11-.08-.21-.13-.32.24-.01.45.27.67.55-.15.08-.26-.23-.27-.09.26.08.29.33.19.49-.08.18-.25.29-.24.48-.26.05-.4-.17-.56-.15,0,.15-.13.13-.26.1-.08-.01-.16-.03-.24-.02-.09,0-.27.04-.46.12.26.19.35.14-.28.45.26-.05.49-.13.73-.19.19-.07.38-.14.46-.2-.08.15-.29.33-.61.49.51-.07.75-.32.9-.34-.12.26-.19.22.11.32-.34-.07-.55.03-.87.16-.31.13-.68.24-1.08.16,0-.2,0-.39,0-.59-1.08-.18-2.06.39-3.57.18.15.04.31.08.47.12-.25.23-.95,0-1.46.06.1-.19-.19-.29-.36-.42-.02.15-1.08-.09-1.34.29-.19-.1-.38-.21-.57-.31-1.14-.21-1.56.43-2.66.25.42-.18-.03-.37.78-.44-.37-.04-.69-.11-.75.02-.16-.14-1.14.16-1.39-.07-.19.07-.33.27-.73.21-.03-.04.04-.1.04-.1-.04.1-.7.06-.43.32-.87-.72-3.11-.3-4.02-.69.03,0-.05,0-.11.01-.06,0-.12.01-.18.02-.12.01-.24.02-.36.03-.24.01-.5.09-.75.13-.5.1-.99.24-1.4.39.05-.07,0-.09.15-.13-.59.11-.75.32-.9.53-.15.2-.3.39-.9.64-.73.1.55-.49.13-.37-.2-.22-.59.02-.98.35-.4.33-.79.74-1.24.92.05-.06.09-.11.14-.17-.69.32-1.02,1.25-1.65,1.99,0,0-.02-.07-.08-.05-.16.68-.72,1.72-1.04,2.49-.11-.34.07-.39-.25-.36-.15.33.43.1.14.74-.26.13-.66.54-.94.48.11-.21.23-.42.37-.63-.54.15-.48.82-.7,1.11-.04-.04-.08-.08-.12-.11-.42.98-.04,1.16-.42,2.16.05-.02.1-.04.15-.05.22.72-.37.37-.22,1.04-.15,0-.3,0-.45,0,0,.4.12,1.43.15,2.1-.28-.5-.32-1.31-.39-1.85-.1.35-.21,1.21-.02,1.48-.02-.16-.1-.38,0-.49.25.57.36,1.22.32,1.9-.88-.5-.28,1.66-1.04,1.65.08.31.04.53.01.76,0,.12-.08.18-.12.28-.05.08-.1.19-.15.19-.08.05-.2.05-.31.04-.13-.02-.29-.13-.41-.21.22.64-.2-.12-.37.25-.29-.19-.49-.39-.48-.42-.3-.38-.55-.76-.76-1.14-.08-.29.4.3.48.23-.63-.77-.07-.35-.37-.93-.09.16-.49-.22-.75-.71.08.24.17.48.26.72-1.12-1.09-.33-1.11-1.3-2.2.12.11.25.22.38.33-.49-.57-1.15-2.21-1.75-2.69.02-.12.11-.3.25-.04-.47-1.44-1.3-3.07-1.1-4.24.05.03.09.05.14.08-.06-.26-.29-.4-.16-.77.06,0,.14.08.14-.05-.05-.13-.26-.65-.17-1.01.05.09.1.17.15.26.19-1.35-.22-2.03-.2-3.23.43-.09.68-1.36.68-2.02.02,0,.04,0,.06,0-.02-.47-.12-.87-.28-1.2-.05-.11-.11-.22-.16-.33-.09-.09-.18-.16-.25-.21-.13-.09-.27-.18-.4-.27-.58-.28-1.17-.45-1.83-.61-.2-.4-.84-.66-1.57-.88-.73-.21-1.54-.36-2.13-.61.16.11-.2.33-.44.34-.26-.14-.97.16-.74-.23.03,0,.07.02.1.03-.06-.43-.73-.43-1.2-.52-.1.17-.2.34-.29.51-.47-.49-1.3-.58-2.04-.69-.72-.1-1.4-.28-1.54-.72-.32.01-.6-.14-.87-.17.06-.08.11-.16.17-.23-.12-.11-.2-.2-.26-.29-.08-.11-.05-.08-.07-.13,0-.07-.06-.12.01-.41.05.05.08.11.15.15.07-.19-.5-.76-.16-1.24.14.04.28.08.42.12.73-.83,1.97-1.32,2.89-2.35.01.06.04.18-.13.31.51-.34,2.27-1.11,1.8-1.45.19.29,1.3-.73,1.93-1.26,0,.09.01.19.02.28.43-.63.4-.71,1.19-1.28.22-.09.29.07-.02.17.74-.28.39-.51,1.28-.88-.07.11-.14.21-.21.32.71-.4.61-.45.87-.84.37-.34,1.33-.82,1.61-.74,0-.17.22-.58.64-.87.13,0,.04.17-.01.25.56-.37.88-.81,1.08-1.21-.02.03-.04.06-.06.08.28-.47.41-.85.8-1.29.11,0,.19-.05.25-.11-.28.66-.72,1.19-.94,1.45.02-.03.05-.07.07-.1-.12.15-.18.22-.17.2.09.03.23-.05.37-.14-.03.04-.06.08-.09.12.23-.12.49-.29.39.18.04-.06.09-.11.13-.17,0,0,0,.03,0,.05,0-.01.01-.03.02-.04-.04.06-.09.11-.13.17.42-.76.55-1.95.79-2.68.04-.04.07-.08.13-.1,0,.03.01.05.02.08.07-.18.07-.35.02-.49.08-.25.12-.41.12-.64.28-.13.08-.89,0-1.24-.34.1-.38-.36-.57.12.01-.06.06.05.11.29.02.05.03.11.06.14-.01,0-.02-.01-.03-.02.05.23.09.54.09.9-.17-.28-.34-.54-.21-.96-.25-.14-.52-.28-.65-.36.39-.57.33-1.51.57-1.7-.56-.91-1.1-2.26-2.05-2.71-.22-.26.02-.37.06-.5.15.14.23.34.37.4-.43-.51-.93-1.62-1.44-1.64-.2-.75.61.29,0-.65.07.03.14.06.2.1-.2-1.02-.92-1.71-1.61-2.47-.36-.38-.65-.76-.94-1.2-.22-.42-.41-.93-.28-1.32-.02.11-.03.17-.09.19,0-.12-.05-.27-.04-.37,0-.09.02-.18.03-.27.04-.07.08-.15.11-.22.08-.04.13-.11.22-.14.18-.06.39-.08.66-.06.32.04.65.09,1.02.18,1.46.36,3.12,1.06,4.52,1.97.83.51.98.37,1.55.48.03.11.06.22.09.33.32.06.64.11.96.17,1.34.47,1.71,1.73,3.35,2.27-.02-.09-.05-.18-.08-.27.49.35,1.65.92,1.45,1.04.07,0,.27-.06.41.14-.02.04-.04.09-.07.13.46.18.91.36,1.36.52.92.62-.47.45.98,1.23.6.24,1.77.22,1.58.04-.22-.09-.54-.29-.5-.44.17.03.34.06.51.09.22-.41.56-.75-.36-1.41-.26,0-.52-.03-.8-.07-.05-.1-.11-.21-.16-.31.21.1.41.18.61.28-.28-.35-.55-.28-.85-.31-.02-.13-.09-.25-.22-.37-.3-.02-.61-.03-.92-.06-.01-.2.49-.09.02-.46-.44-.05.18.52-.48.28-.28-.39-.1-.45-.63-.59-.01-.13.12-.13.32-.06-.46-.13-1.1-.6-1.43-.55-.3-.45-1.48-.82-1.27-1.12-.18,0-.92-.21-1.36-.43.97.04-1.62-.91-1.32-1.23-.77.04-2.23-.89-3.43-1.21.07,0,.19,0,.29.06-.64-.32-.83-.51-1.26-.77-.07.3-1.08-.04-1.59-.01-.84-.63.42-.23.12-.64.09.28-1.37-.22-1.03.12-.68-.42-.56-.27-1-.67.07.43-.58-.09-.98.12-.53-.18-.72-.26-.84-.34-.07-.03-.13-.05-.24-.06-.12-.02-.29.01-.51.13-.65.02.15-.47.21-.41ZM136.62,114.51s0,0,0,0c.02-.12.03-.23.03-.3,0,.06-.01.15-.03.3ZM136.12,115.69c.1-.13.2-.3.28-.49.13-.02.23.04.16.16-.04-.08-.24.19-.44.33ZM139.1,112.71c.07.24,0,.34-.06.38-.01-.12-.04-.25-.08-.43-.01,0-.03-.02-.05-.02.07.01.13.03.18.07Z"/>
        <path class="cls-2" d="M138.59,112.36s-.03-.05-.04-.09c-.02.05-.04.1-.05.15.04.02.08.04.12.06,0-.04-.02-.09-.03-.13Z"/>
        <path class="cls-2" d="M164.56,112.35s0,.02-.01.03c.02-.02.03-.05.05-.06-.02.02-.02.02-.04.03Z"/>
        <path class="cls-2" d="M124.15,130.86s.02-.05.03-.07c-.04,0-.08,0-.12.01.03.02.07.04.1.05Z"/>
        <path class="cls-2" d="M165.52,104.59s.03-.05.02-.11c-.01,0-.02.05-.02.11Z"/>
        <path class="cls-2" d="M163.13,100.98c-.21-.18-.43-.37-.7-.52.34.21.53.39.7.52Z"/>
        <path class="cls-2" d="M159.69,100.08c.02.06.05.09.07.13,0,0,0,0,0,0-.03-.04-.05-.09-.08-.13Z"/>
        <path class="cls-2" d="M176.14,132.41s.06.07.09.1c.24.21.09.06-.09-.1Z"/>
        <path class="cls-2" d="M166.84,124.63c.12.04.24.08.35.13-.11-.15-.2-.26-.35-.13Z"/>
        <path class="cls-2" d="M160.68,136.87s0,0,0,0c-.03,0-.07,0-.1-.01.03,0,.06,0,.1.02Z"/>
        <path class="cls-2" d="M167.5,125.13c-.07-.18-.18-.3-.32-.37.09.12.18.29.32.37Z"/>
        <path class="cls-2" d="M153.44,106.15s-.07.02-.1.04c.01.02.02.03.02.05.03-.03.05-.06.08-.08Z"/>
        <path class="cls-2" d="M153.36,106.23s-.05.06-.08.08c.05-.03.09-.05.08-.08Z"/>
        <path class="cls-2" d="M153.11,106.48c.06-.05.12-.11.18-.17-.07.04-.17.08-.18.17Z"/>
        <path class="cls-2" d="M155.65,104.38s-.05-.07-.07-.1c0,.03.03.06.07.1Z"/>
        <path class="cls-2" d="M156.14,103.7c-.14.14-.51.23-.63.49.02.03.04.06.06.08-.06-.22.62-.29.57-.57Z"/>
        <path class="cls-2" d="M159.46,102.2c-.17.13-.33.26-.5.38.18.01.42.03.25.26.85-.29-.34-.09.26-.64Z"/>
        <path class="cls-2" d="M161.15,101.37c-.27.13.13.15.16.22.11-.15.14-.19-.16-.22Z"/>
        <path class="cls-2" d="M162.72,118.69c-.08.01-.16.02-.25.04,0,.37.1-.03.25-.04Z"/>
        <path class="cls-2" d="M164.56,121.12c.02-.12.03-.24.04-.35-.09.01-.18.03-.27.04.08.1.15.21.23.31Z"/>
        <path class="cls-2" d="M163.75,123.96s-.07-.05-.11-.08c.13.11.26.22.39.33-.09-.08-.18-.17-.28-.25Z"/>
        <path class="cls-2" d="M157.27,134.05c0,.11.01.21.02.32.31-.05.52-.4-.02-.32Z"/>
        <path class="cls-2" d="M144.98,144.38c-.2.07-.42.39-.33.67.1-.28.32-.51.33-.67Z"/>
        <path class="cls-2" d="M128.13,129.29c.09-.02.19-.04.28-.06-.16,0-.32,0-.48,0,.07.02.13.04.2.06Z"/>
      </g>
      <g>
        <g>
          <path class="cls-2" d="M161.94,102.66s-.04.09,0,.15c.04.07.1.11.34.21.11-.03.24-.05.39-.04-.12-.08-.25-.16-.39-.22-.07-.03-.15-.06-.22-.08-.05-.01-.08-.01-.11-.02Z"/>
          <path class="cls-2" d="M163.23,104.65c.26.26.61.6.8.39-.38-.28-.3-.38-.76-.65-.15-.24-.17-.47-.05-.46-.11-.06-.26-.47-.54-.52.2.47.37.81.74,1.23-.02.1-.13.02-.19,0Z"/>
          <path class="cls-2" d="M163.9,126.13s-.03-.08-.05-.12c0,.04.02.08.05.12Z"/>
          <path class="cls-2" d="M169.29,133.38c.07,0,.06-.04.02-.07-.04.02-.08.04-.02.07Z"/>
          <path class="cls-2" d="M167.39,132.86c.06.01.11.02.16.04-.06-.04-.12-.06-.16-.04Z"/>
          <path class="cls-2" d="M163.9,126.13c.04.11.08.21.13.32.12-.07-.04-.18-.13-.32Z"/>
          <path class="cls-2" d="M164.59,107.98c-.02-.09-.04-.16-.08-.22.01.07.03.14.04.21.01,0,.03.01.04.02Z"/>
          <path class="cls-2" d="M160.84,121.92s-.02-.07-.02-.1c-.05,0-.1,0-.16,0,.06.04.12.07.18.11Z"/>
          <path class="cls-2" d="M161.23,116.97c-.04.12.21.13.31.16-.09-.05-.12-.13-.11-.23-.05,0-.11.03-.2.07Z"/>
          <path class="cls-2" d="M163.59,109.01s-.02-.09-.03-.14c0,.04.02.1.03.14Z"/>
          <path class="cls-2" d="M162.06,124.59s-.06.08-.08.11c.03-.03.06-.07.08-.11Z"/>
          <path class="cls-2" d="M157.52,105.16s.03.02.04.04c0-.04-.02-.06-.04-.04Z"/>
          <path class="cls-2" d="M162.04,103.35s-.04,0-.07,0c0,.05.01.1.03.15,0-.05.02-.1.04-.15Z"/>
          <path class="cls-2" d="M162.32,132.1s.01,0,.02,0c.14-.02.07-.02-.02,0Z"/>
          <path class="cls-2" d="M139.44,134.22c-.32.54-.22-.68-.6.11.12-.1.35.53.6-.11Z"/>
          <path class="cls-2" d="M164.56,108.11c0,.07,0,.14,0,.21,0-.09,0-.16,0-.21Z"/>
          <path class="cls-2" d="M138.84,134.32s0,0,0,0c-.01.03-.02.05-.04.08.02-.03.02-.05.04-.08Z"/>
          <path class="cls-2" d="M149.48,133.9c.05.01.13,0,.2-.02-.02-.02-.07-.02-.2.02Z"/>
          <path class="cls-2" d="M159.2,132.33c-.06-.02-.12-.04-.19-.06.07.04.13.05.19.06Z"/>
          <path class="cls-2" d="M146.25,137.9c-.09.09-.15.11-.21.25.02,0,.04-.01.06-.03,0-.06.03-.14.15-.23Z"/>
          <path class="cls-2" d="M143.88,141.79s.06-.03.09-.05c.01-.04.03-.09.05-.13-.04.06-.09.12-.13.18Z"/>
          <path class="cls-2" d="M147.69,106.83c.04.12.04.21.04.31.05-.19.62.07-.04-.31Z"/>
          <path class="cls-2" d="M164.45,107.97c.06.03.09.07.11.14,0-.05-.01-.1-.02-.15-.04-.02-.07-.02-.09,0Z"/>
          <path class="cls-2" d="M148.05,138.97c-.15.2-.3.4-.44.6.13-.16.29-.38.44-.6Z"/>
          <path class="cls-2" d="M134.34,119.32s.09-.08.14-.12c-.06.03-.12.07-.14.12Z"/>
          <path class="cls-2" d="M146.58,141.42c-.15.07-.27.17-.36.27,0,.03,0,.07.03.1.11-.12.22-.25.33-.37Z"/>
          <path class="cls-2" d="M147.72,107.14s0,0,0,0c0,0,0,0,0,0Z"/>
          <path class="cls-2" d="M151.64,108.12c-.47-.06-.24.33-.36.53-.67,0-.26-.29-.43-.53-.37-.03-.8.24-1.09.05,0-.07-.04-.11.05-.15-.26.02-.6-.08-.91-.3-.16-.1-.33-.19-.5-.27-.04-.02-.09-.03-.13-.05-.06-.03-.19-.1-.26-.12-.09-.02-.17-.02-.26-.03-.02-.05-.02-.09-.02-.11-.02.2-.1.36-.2.46-.27-.15-.64-.13-.6-.39.16.12.23.05.36.04-.11-.03-.23-.07-.35-.1-.05-.43.46.16.6-.05-.6-.25-1.45-.48-1.84-.85.11-.32,1.11.59.69-.02.21.18.41.36.6.54-.21-.74.39.29.24-.45-.84-.65-1.1-.52-2.01-1.19-.31,0-.07.26-.39.27-1.55-.59-.69-1.33-2-1.6-.39.01-.67.29-1.38-.32.14-.05.28-.1.42-.16-1.07-.59-.8.12-1.86-.66.26-.03.91.32.76.2-.66-.62-.6-.09-1.18-.36-.01-.11-.02-.23-.04-.34-.15-.07-.32-.13-.48-.19-.17-.07-.49-.18-.73-.26-.52-.18-1.03-.32-1.48-.41-.93-.18-1.65-.18-2.24.05-.04-.11.08-.27-.34-.26-.11.06-.23.12-.36.18-.11.39-.15.71-.07,1.13.07.41.25.9.49,1.41.12.26.25.52.39.79.13.26.3.59.34.71.14.33.27.65.38.96.21.13.41.25.62.38.06.11-.03.25-.17.15.16.52.23-.04.5.15.18.26.02.42-.18.28.79.75,1.96,2.15,1.94,3.11-.06-.04-.12-.09-.18-.13.14.7,1.03.54.92,1.25-.03-.03-.07-.07-.1-.1.17.74.39,1.48.45,2.2.07.75-.05,1.33-.5,1.77.23.11.02.41-.18.69-.2.28-.43.53-.18.7-.45.28-.63.34-.87.44-.23.1-.47.23-1.07.58-.3.2-.19.58-.56.89-.06-.07-.13-.14-.19-.21-.11.2-.24.39-.37.59-.17-.03-.33-.06-.5-.09-.12.1-.23.2-.35.3.16-.08.41-.1.43-.02-.55.49-1.65.73-1.73.61-.48.35-.95.7-1.42,1.05-.02-.12.22-.29.39-.47-.68.7-.3-.18-.92.46.13,0,.03.18.04.24-.46.05-1.33.52-1.93.96,0-.08.01-.16.02-.24-1.17.65-2.41,1.51-3.53,2.84.48-.43.65-.08.38.28-.13,0-.26-.01-.38-.02-.02.35.4-.34.23.29-.37.5-.56.23-.43-.16-.11.22-.25.55-.33.85-.12.04-.08-.19-.16-.28,0,.22-.23.61-.36,1.08-.05.23-.08.47-.09.68.02.21.15.36.26.45-.02.03-.05.06-.07.09.21.47.52.78.82,1.02.07.06.15.11.23.17.05.03.11.06.16.09.11.06.21.1.31.15.39.17.76.27,1.19.38.14-.27.44-.11.78-.27.56.25,1.14.61,1.87.73.57-.04.26-.21.57-.32-.08.26.64.38.18.49.87.13,1.11.16,2.26.21-.05-.13-.16-.21-.04-.28.21,0,.37.22.27.33-.02,0-.04,0-.07.01.7-.03,1.27.32,1.74.69.48.37.8.74,1.28.74-.02,0-.04,0-.05,0,.28.07.52.18.74.33.14.32-.28-.03-.3.3.39.17.43.54.43.89-.02.19-.02.36-.04.55,0,.17,0,.37.03.62-.82.96-.25,2.81-.69,4.01.05-.03.11-.07.16-.1.16.24-.1.36-.13.58.12-.06.14-.34.23-.19.2,2.36.21,5.04,1.49,7.6.13.24.25.37.4.49.19.18.35.27.5.37.34.2.52.4,1.27,1.37-.18-.05-.37-.12-.58-.22.33.3.66.58.99.79.33.22.64.36.98.55,1.28.32,1.88-.2,2.17-1.19.08-.24.12-.52.19-.78.04-.23.06-.36.09-.55.04-.35.07-.7.08-1.05.06.14.16.19.12.35.32-.24.32-1.31.14-1.4.1-.25.2.02.34-.1.24-.29-.03-1.03.28-1.12.05-.02.04.13.04.21-.04-.28.43-1.07.07-.97.38-.58.4-1.26.82-1.7-.13-.46.72-1.02.38-1.3.38.23.99-.96,1.08-1.43.03.19.36-.28.42-.05.3-.45.53-.89.27-.91.53-.29.75-.73.97-1.1.11-.19.21-.35.34-.46.06-.03.5-.4.64-.32.36-.58.83-1.03,1.37-1.42.55-.35,1.18-.67,1.85-.82-.11.41-1.41.4-1.27.85.96-.56,1.86-1.04,3.09-.95.3.06-.26.2-.4.28,1.33-.21,2.44.18,3.77.08-.02.04-.18.07-.32.09.24.02.52.13.59-.07-.09,0-.17.02-.26.03-.24-.34,1.26-.5,1.38-.65-.7.54,1.16.29.16.95.18-.02.44-.09.46-.23.23.07.28.15-.04.28.99-.04.73-.26,1.6-.22-.04.1-.23.13-.36.24.26-.09.52-.18.8-.23.13-.06.52-.05.83.02-.06.06-.01.14-.22.12,1.23.07,2.26-.34,3.56-.05-.54.4.42.18.39.56.4,0,.81-.01,1.22-.02-.16-.07-.32-.15-.48-.22,1.02.09,1.64-.14,2.48,0-.15.05-.34.1-.53.14.59,0,1.13-.02,1.57-.09-.34-.02-.69-.06-1.04-.11.58-.19-.62-.47.46-.36-.13.03.7.02,1.32.11,0,0,0,0,0,0,.08-.06.16-.12.29-.18.11-.06.4-.12.48-.33.15-.06.47.23.57.19-.26-.41-.54-1.06-1.4-1.39.23.09.58.14.63.12-.21-.08-.42-.15-.63-.22-.05-.18-.02-.22.3-.17-.65-.66-.6.2-1.12-.54.1.05.13.02.35.14-.39-.39-.93-.76-1.38-1.08-.2-.15-.39-.29-.58-.43-.16-.13-.3-.27-.42-.42.16-.44.6.39.68-.03-.93-.71-2.11-1.23-2.73-2.04.03.06.06.11.09.17-.58.31-.28-.75-.84-.93.12.06.38-.11.3-.09-.38-.57-1.08-.91-1.9-1.48.07,0,.14-.01.21-.02-.15-.37-.62-.78-.82-1.12-.2.02-.33-.17-.42.09-.04-.77-.47-1.13-.88-1.5-.42-.36-.79-.75-.66-1.45.04.12.23.19.19.1-.15-.24-.29-.49-.4-.76-.22.21-.12.2-.24.5-.18-.02-.34-.22-.4-.45.25.33.37-.22.48-.46-.07.07-.16.05-.23.11.37-.72-.51.17-.26-.69.04,0,.08-.01.12-.02-.08-.23-.23-.43-.16-.75.28-.22.1.26.32.19.01-.2-.11-.36-.17-.54-.05-.19-.06-.39.1-.62.04.17-.01.44.03.61.4-.52.32-.53.43-.86,0,.01,0,.02-.01.03.1-.25.21-.51.31-.76-.04.07-.08.13-.12.2-.52-.46.18-1.12,0-1.88.16.75.19.12.44.17.14-.2.31-.49.36-.41-.11-.36.35-.59.18-1.11.09-.02.13-.39.31-.29.07-.48-.18.1-.27.06-.07-.76.84-1.69.67-2.8.02-.94-.23-1.15-.29-2.03.16-.28.28.27.28.27.16-.45.16-.81.06-1.27.07.1.13,0,.23-.12-.03-.36-.3-.26-.22-.73.1.09.26.2.36.38-.1-.44-.29-.87-.46-1.3.12-.11.27.27.38.43-.13-.51-.38-1.29-.66-1.44,0,.11,0,.21,0,.32-.06-.18.18-.09.25.04.28.42.05.61-.03.63-.04-.1-.08-.21-.12-.31-.41.31.31,1.25.27,1.88-.12-.1-.24-.19-.37-.29.11.22.21.44.31.66-.09.13-.29.2-.35-.11-.18.42.12.41-.09.76-.03.04-.05.02-.06-.02.03.15.05.3.07.44-.07-.09-.26.04-.18-.22-.27.75.11,1.28-.21,1.54,0-.02,0-.05-.01-.07-.09,1.09.25.14.38.98-.25.16-.51.31-.77.47.08.05.16.09.23.14-.04.11-.12.33-.21.28.07.44.13-.06.24.2-.38.52-.31,1.49-.77,1.59.15.2.31-.51.28.07-.51.15-.13.67-.49,1.16-.2-.15.08-.63-.29-.12.32.29-.39.99-.43,1.42.33-.02-.12.91-.15,1.59-.05,0-.18.33-.3.77-.04.22-.09.46-.14.69-.03.22-.06.43-.09.6-.02,0-.04,0-.06.01.38-.05.35.59.53.94-.23.11-.34.09-.49-.08.03.13.06.26.09.4.14.02.23.11.35.32-.1.03-.21.05-.31.08.17.5.68.75.8,1.43.27-.16.47-.95.96-.51-.12.12-.34.32-.49.22.04.04.22.08.22.22-.12-.02-.25-.03-.37-.05.05.32.27-.02.37.19-.2.14-.05.25-.22.34-.05-.03-.03-.23-.15-.24.1.25.16.59.08.79.1-.11.26-.2.4-.07.31.38-.13.32-.05.62.21-.02.27.34.56.11.09.11-.02.24-.06.34.29.09.85.86.94.39,0-.02-.02-.04-.03-.07.01,0,.03.01.04.02,0,0,0,0,0,0,0,0,0,0,0,0,.85.38,1.08,1.4,1.8,1.94-.03.03-.06.05-.09.08.46.3.87.82,1.34.94.11.12.1.41-.05.46.37.24.5.19.81.75-.48-.17-.03.22-.44-.21.33.46.28.67.99.88-.39.05.03.54.32.67-.05-.14-.1-.27-.14-.41.27.18.47.39.65.57-.12.07-.28.11-.42.16.11.17.05.16.09.22.02.04.06.06.12.08.17.05.34.1.51.14.39.11.94.39.27.37.7.21.14-.14.87.04.11.11-.08.18-.33.18-.25,0-.57-.04-.57-.02-.3.03-.1.12.12.29.21.15.35.31-.05.23.25.13,1.03.51.54.6-.74-.08-1.19-.59-1.08-.68.07,0,.16.04.21.08.08-.04.12-.09-.19-.24.04.04.09.09.13.13-.34-.14-.69-.16-.75-.36-.09.11.02.2.26.28-.27-.11-.38-.12-.53-.13-.19,0-.16,0-.68-.1.12.08.2.23.06.21-1.25-.25-.65.18-1.54.16-.43-.22.33-.42-.59-.34-.48-.17,0-.32.25-.4-.87.16-1.4-.27-1.81-.35.15-.02.3-.04.44-.06-.29.03-.41.02-.71,0,.14.09.11.17.18.26-.06-.01-.11-.03-.16-.04-.04,0-.08-.01-.12-.02-.03,0-.06,0-.09,0,0,0-.02,0-.03,0-.07-.02-.1-.05-.08-.1-.28.15.04.4-.5.6-.26-.12-.99.07-.95-.25.9.18.04-.32.85-.31-.17.03-.35,0-.55-.05-.02-.04.06-.06.13-.08-.74-.35-.57.32-1.5.21.21-.16-.04-.36-.22-.34.37.05.03.32-.39.41-.52-.21-.71.02-1.02-.04.11.04.22.07.33.11-.22.16-.5.1-.96.1.04-.14.44-.05.32-.13-.63.25-.89-.45-1.68-.29-.25-.14.14-.34-.11-.43-.89.19-.75-.28-1.72-.06.16.24.23.15-.48.44.51-.11.99-.15,1.48-.21-.34.1-.7.24-1.04.36.41,0,.95-.17,1.16-.11-.5.18-.42.12-.32.33-.41-.37-1.18.2-1.76.04.06-.2.13-.39.2-.59-.5-.07-1.06.11-1.63.35-.58.24-1.17.56-1.93.88.16-.07.33-.11.5-.15-.15.26-.88.5-1.29.85-.05-.17-.35-.02-.6.05.05.04-.2.22-.44.44-.22.23-.41.5-.32.64-.22.12-.47.27-.56.25-.99.84-.5,1.23-1.19,1.99.01-.33-.39-.03-.08-.63-.22.27-.44.49-.33.55-.23.1-.34.84-.66,1.01,0,.15.14.27-.07.55-.06.02-.08-.04-.08-.04.08.04-.2.51.17.35-1.1.56-1.34,2.27-2.14,2.75-.22.59-.46,1.3-.64,1.81-.04-.06-.09-.04-.04-.13-.44.61.37.68-.09,1.38-.44.25-.03-.49-.23-.3-.67-.19-.22.98-.73,1.3,0-.05,0-.09,0-.14-.16.14-.17.4-.16.69,0,.14,0,.29.01.45.01.1,0,.19-.03.27,0,0-.05-.06-.09-.09.11.23.15.54.09.83-.05.28-.25.57-.58.45.11-.27.18-.15.01-.54-.14,0,.05.4-.06.5-.03.03-.1.01-.22-.07-.19-.34-.41-.8-.31-1.06.08.1.16.19.24.28-.05-.29-.09-.34-.17-.39-.07-.04-.18-.09-.21-.18.04-.03.07-.05.11-.08-.06-.08-.13-.13-.21-.19-.07-.05-.21-.21-.31-.29-.21-.21-.42-.43-.63-.92-.02.04-.04.08-.06.13-.57-.44,0-.49-.47-.96.1-.08.19-.16.29-.25-.21-.33-.74-1.15-.93-1.77.33.3.66,1.01.97,1.42-.12-.35-.36-1.18-.57-1.32.07.13.19.29.18.44-.39-.36-.65-.9-.74-1.6.69-.03-.02-1.86.58-2.49-.27-1.18.22-2.49.38-3.93-.66.66.04-.42-.58-.17,0-.32.03-.46.08-.5.18-.36.33-.76.49-1.19.2-.34.11.3.25.23.11-.86.29-.45.47-1.09-.22.21-.33-.15-.33-.64-.05.26-.14.53-.21.79-.21-.47-.15-.74-.08-1.05.05-.29.11-.63-.34-.93.12.04.24.09.37.13-.19-.19-.48-.6-.9-.83-.41-.25-.9-.36-1.29-.22-.02-.1,0-.3.23-.26-1.05-.55-2.76-.25-3.43-.77.06-.04.12-.08.17-.13-.24,0-.53.19-.71-.01.05-.06.17-.13.08-.16-.14.03-.71.14-.94,0,.11-.04.22-.08.33-.12-1.01-.41-1.91.09-2.86,0,.21-.43-.56-.75-.94-.93.01-.02.03-.04.04-.06-.61-.18-1.08-.23-1.51-.32-.13-.04-.15-.01-.21-.01-.05,0-.11,0-.17-.02-.13-.03-.22-.13-.21-.28.16-.11.25-.17.37-.27.15-.16.36-.38.62-.61.52-.46,1.27-.97,1.96-1.26-.23.06-.12-.29.1-.47.34-.11.76-.76.87-.4-.04.02-.08.04-.12.06.39.18,1.02-.28,1.58-.57-.03-.16-.07-.32-.1-.48.86-.08,1.81-.67,2.68-1.26.88-.59,1.64-1.17,2.25-1.22.3-.34.76-.67,1.02-1.04.06.06.11.13.17.19,1.03-.78,1.64-1.23,2.5-2.58,0,.11,0,.22.01.34.57-.8-.27-1.16-.06-1.79.19-.06.36-.13.54-.2.18-.68.24-1.34.26-1.89,0-.58-.12-1.15-.5-1.62.08,0,.23,0,.3.16-.09-.53-.36-2.05-.96-1.66.44-.15-.44-1.08-.94-1.56.12,0,.24-.01.36-.02-.65-.33-.77-.31-1.25-.91-.05-.17.17-.22.21.01-.14-.56-.53-.3-.74-.96.11.05.22.11.34.16-.3-.53-.38-.45-.79-.66-.33-.29-.55-1.02-.32-1.17-.11-.01-.26-.07-.4-.17-.12-.07-.23-.16-.25-.27.1-.03.22.04.28.07-.03-.24-.24-.4-.45-.62-.21-.21-.42-.48-.21-.51.17.1.25.13.31.14.04.34.25.62.19.58.37.06.38-.02.99.25-.12-.05-.32-.15-.51-.3-.19-.14-.41-.36-.41-.48.02-.06.09-.08.2-.04.05.03.1.07.17.12,0,.01.01.03.02.04.09.03.1,0,.1-.05.13.07.2.12.28.15.2.28.27.2.37.25-.05-.3.17-.17-.04-.48.03.03-.03.02-.15-.01-.02,0-.05,0-.06,0,0,0,0-.02,0-.02-.11-.03-.26-.08-.43-.11-.01-.16.15-.23.44.03.04-.17.16-.3.26-.35.3.49,1.07,1.08,1.1,1.35,1.08.36,2.37,1.17,3.27,1.13.31.11.23.31.28.43-.19-.06-.37-.18-.5-.17.63.22,1.61.95,1.96.75.55.55-.58.02.35.56-.06,0-.13,0-.19,0,.68.8,1.5,1.11,2.4,1.42.11.04.23.07.34.11.01-.02.16.04.26.09.22.09.43.19.63.31.4.25.85.47,1.27.91-.13-.1-.18-.17-.18-.23,1.12.69,2.64.81,3.92.5,1.3-.29,2.38-.86,3.48-1.24.59-.27.52-.5.69-.88.1.06.2.11.29.17.09-.23.18-.45.26-.68.45-.77,1.63-.42,1.95-1.54-.08-.02-.16-.04-.25-.06.28-.24.64-.92.79-.69,0-.05-.1-.25.08-.26.05.04.09.08.13.12.11-.28.21-.55.33-.81.27-.17.38,0,.5.11.12.13.26.18.58-.01.09-.1.16-.27.18-.4,0-.12.03-.23,0-.29-.05-.03-.27-.1-.38-.25.08-.05.17-.08.27-.09-.03-.22.06-.41-.03-.63-.02-.1-.19-.25-.44-.37-.26-.12-.62-.19-.95-.15-.17.2-.25.4-.32.61-.11-.02-.23-.05-.35-.07.12-.11.24-.23.39-.33-.45-.02-.4.28-.42.52-.14-.07-.28-.09-.39-.04.02.26.03.52.05.78-.2-.1-.18-.48-.5-.28.04.37.53.14.39.58-.36.03-.47-.16-.5.22-.13-.06-.16-.17-.14-.31-.03.33-.4.62-.27.93-.4.01-.56.78-.92.41.03.15-.05.65-.23.85-.07-.76-.74.68-1.09.12.1.62-.83,1.02-1.25,1.56,0-.05.03-.16.09-.16-.34.15-.52.1-.77.11.18.36-.3.72-.53,1.03-.58-.22.09-.52-.22-.81.17.29-.59.53-.36.74-.41-.16-.33-.06-.58-.34.06.49-.28.16-.51.45-.51-.24-.15-.43-.66-.32-.22-.19.21-.28.2-.3ZM134.73,101.42s0,0,0,0c.15-.05.28-.08.37-.1-.08.02-.18.04-.36.1ZM134.35,102.6c-.03-.18-.08-.4-.07-.61.12.02.23.14.24.27-.09-.12-.12.16-.17.34ZM137.95,103.8s-.09-.05-.15-.12c.03,0,.07,0,.11,0,0-.01,0-.03,0-.04.02.06.03.11.04.16Z"/>
          <path class="cls-2" d="M137.96,103.43s.02,0,.04,0c-.03-.04-.06-.07-.09-.1,0,.03,0,.06-.01.08.02,0,.04.01.06.02Z"/>
          <path class="cls-2" d="M163.84,125.99s0,.01,0,.02c0-.02,0-.04,0-.07,0,.02-.01.03-.01.04Z"/>
          <path class="cls-2" d="M135.66,118.35s.03.03.04.05c.02-.04.04-.08.06-.11-.04.02-.07.04-.11.07Z"/>
          <path class="cls-2" d="M162.04,120.62s.05-.06.06-.11c-.02.01-.04.06-.06.11Z"/>
          <path class="cls-2" d="M162.23,118.04c.06-.14.13-.28.19-.42-.09.18-.15.31-.19.42Z"/>
          <path class="cls-2" d="M162.93,115.84s-.07-.03-.1-.04c0,0,0,0,0,0,.03.01.07.02.1.03Z"/>
          <path class="cls-2" d="M158.42,134.22s-.07,0-.1,0c-.25.03-.09.02.1,0Z"/>
          <path class="cls-2" d="M172.3,134.41c-.07.05-.13.11-.24.15.27-.02.44-.05.24-.15Z"/>
          <path class="cls-2" d="M148.1,138.9s0,0,0,0c-.02.02-.03.05-.05.07.02-.02.03-.04.05-.06Z"/>
          <path class="cls-2" d="M171.4,134.63c.34.03.54,0,.66-.06-.22.01-.5.01-.66.06Z"/>
          <path class="cls-2" d="M164.33,105.86s-.01-.08-.02-.11c-.02,0-.03,0-.04-.01.02.04.04.08.06.13Z"/>
          <path class="cls-2" d="M164.27,105.74s-.04-.09-.06-.13c.02.06.03.11.06.13Z"/>
          <path class="cls-2" d="M164.08,105.33c.05.09.09.18.14.28-.02-.1-.05-.21-.14-.28Z"/>
          <path class="cls-2" d="M164.48,108.99s.06.03.08.04c-.02-.02-.04-.04-.08-.04Z"/>
          <path class="cls-2" d="M164.42,109.93c.05-.22.25-.54.21-.86-.02-.01-.04-.02-.07-.04.12.16-.26.66-.14.89Z"/>
          <path class="cls-2" d="M162.49,113.69c.1-.26.2-.52.29-.78-.13.13-.31.3-.23-.06-.56.97.27-.19-.06.84Z"/>
          <path class="cls-2" d="M161.59,116.17c.08-.43-.15.01-.2,0,0,.27.01.34.2,0Z"/>
          <path class="cls-2" d="M166.87,129.54c-.09.06-.18.11-.27.17.24.18.09-.07.27-.17Z"/>
          <path class="cls-2" d="M170.49,130.74c-.05-.13-.15-.29-.16-.38-.11.03-.21.06-.32.08.07.04.14.08.21.12.09.06.18.12.28.18Z"/>
          <path class="cls-2" d="M169.09,132.35s-.07-.02-.1-.03c.11.04.21.08.32.12-.07-.03-.14-.06-.21-.09Z"/>
          <path class="cls-2" d="M144.01,141c.11.01.22.03.33.04.06-.22-.24-.41-.33-.04Z"/>
          <path class="cls-2" d="M139.93,145.38c.07-.17.01-.54-.2-.71.09.28.1.58.2.71Z"/>
          <path class="cls-2" d="M133.26,122.4c-.08.08-.16.16-.24.24.16-.12.33-.24.49-.36-.08.04-.17.08-.25.12Z"/>
        </g>
        <g>
          <path class="cls-2" d="M150.94,108.04c.12-.06.11-.24-.25-.32-.11.07-.22.14-.33.22.15.03.38.1.58.1Z"/>
          <path class="cls-2" d="M149.11,106.64c-.39-.03-.92,0-.84.36.49-.09.51.07,1.03-.07.3.1.46.33.37.41.13-.02.43.27.66.14-.3-.38-.75-.6-1.33-.67-.07-.12.06-.14.11-.18Z"/>
          <path class="cls-2" d="M136.35,110.39c0-.06-.01-.12-.02-.17,0,.05,0,.11.02.17Z"/>
          <path class="cls-2" d="M125.97,122.76c.12-.08.15-.14.14-.17-.1.09-.18.17-.14.17Z"/>
          <path class="cls-2" d="M123.14,124.47c.06-.05.1-.08.16-.12-.08.03-.14.07-.16.12Z"/>
          <path class="cls-2" d="M136.35,110.39c.01.15.02.3.03.45.14,0,.02-.24-.03-.45Z"/>
          <path class="cls-2" d="M144.86,105c.11.05.21.08.3.09-.09-.04-.17-.08-.26-.12-.01,0-.03.02-.04.03Z"/>
          <path class="cls-2" d="M132.47,103.44s-.04-.09-.07-.13c-.06-.03-.13-.06-.21-.08.09.07.18.14.28.21Z"/>
          <path class="cls-2" d="M132.75,98.09c-.23-.03-.1.25-.09.37.02-.11.12-.17.28-.17-.02-.05-.07-.12-.19-.21Z"/>
          <path class="cls-2" d="M144.02,103.32c.06.03.13.05.19.08-.05-.02-.13-.05-.19-.08Z"/>
          <path class="cls-2" d="M134.46,107.41s-.08.05-.09.08c.04-.01.07-.04.09-.08Z"/>
          <path class="cls-2" d="M157.47,106s-.03-.02-.04-.04c0,.04.01.06.04.04Z"/>
          <path class="cls-2" d="M151.05,107.33s.06,0,.1,0c.01-.05.03-.1.03-.15-.04.05-.09.1-.13.15Z"/>
          <path class="cls-2" d="M123.33,130.5s0,0-.02-.02c-.12-.04-.06,0,.02.02Z"/>
          <path class="cls-2" d="M146.89,145.3c-.41.37-.1-.93-.61-.33.13-.02.26.85.61.33Z"/>
          <path class="cls-2" d="M144.72,104.88c-.08-.05-.16-.1-.25-.15.11.08.18.12.25.15Z"/>
          <path class="cls-2" d="M146.28,144.98s0,0,0,0c-.02.02-.03.04-.05.06.02-.03.03-.04.05-.06Z"/>
          <path class="cls-2" d="M132.75,132.86c.01-.05,0-.1-.02-.15-.01.03-.01.07.02.15Z"/>
          <path class="cls-2" d="M125.99,130.98c.05.03.11.06.16.09-.06-.05-.11-.07-.16-.09Z"/>
          <path class="cls-2" d="M135.46,134.24c0,.1-.02.14.04.24.01-.02.02-.03.03-.05-.04-.02-.08-.06-.06-.18Z"/>
          <path class="cls-2" d="M135.39,138.41s.04-.06.06-.1c0-.05,0-.1,0-.15-.02.08-.03.16-.05.25Z"/>
          <path class="cls-2" d="M164.28,105.32c.04-.1.1-.16.16-.2-.15.06-.39-.6-.16.2Z"/>
          <path class="cls-2" d="M144.94,104.88c-.07.03-.13.03-.22,0,.06.03.12.06.18.09.04-.02.06-.05.04-.09Z"/>
          <path class="cls-2" d="M137.64,133.12c.04.28.06.56.06.85.02-.25,0-.56-.06-.85Z"/>
          <path class="cls-2" d="M173.56,133.43s-.09-.07-.14-.1c.03.05.08.09.14.1Z"/>
          <path class="cls-2" d="M137.59,136.43c-.11.16-.18.32-.24.48.02.03.03.06.06.08.06-.19.12-.37.18-.56Z"/>
          <path class="cls-2" d="M164.44,105.12s0,0,0,0c0,0,0,0,0,0Z"/>
          <path class="cls-2" d="M162.29,102.3c.06.01.01-.3.04-.47.4.15.11.31.12.47.21.1.71.28.91.62-.03.04,0,.1-.11.05.54.38.78,1.44,1.25,2.07-.02.05-.04.07-.06.08.13-.1.29-.11.41-.09.09.32.35.6.16.71-.03-.2-.12-.22-.21-.31.06.11.11.22.16.34-.23.28-.19-.46-.42-.46.26.64.6,1.42.54,1.91-.27.07-.21-1.17-.4-.53,0-.25,0-.5,0-.75-.36.55-.05-.46-.45.04.07.98.3,1.12.23,2.12.16.25.24-.05.39.2.2,1.49-.79,1.03-.56,2.16.14.31.48.47.12,1.21-.09-.1-.17-.21-.26-.31-.27,1,.33.64-.18,1.66-.07-.2.12-.81.04-.66-.44.65.05.51-.11,1.04-.11.03-.21.05-.32.08-.28,1.1-.54,2.33-.82,3.64-.08-.06-.11-.28-.29.05-.06.36-.13.76-.13,1.15-.01.1,0,.02,0,.04-.22,1.31-.26,2.67-.05,3.69.15.1.32.17.48.25.04.1-.05.28-.15.21.11.51.19-.11.41.01.15.22,0,.44-.16.35.64.58,1.86,1.45,2.15,2.32-.06-.02-.13-.03-.19-.05.34.58,1.05.07,1.21.73-.04-.01-.08-.03-.12-.04.02.03.05.07.07.1.02.03,0,.01.04.07.06.09.12.18.18.26.12.17.26.31.39.46.28.28.56.56.84.83.56.54,1.09,1.06,1.37,1.65.54-.18,1.09,1.21,1.7.82.49.86.19.75,1.06,1.8.25.26.76.09,1.16.37-.09.07-.19.15-.28.22.25.07.51.14.76.21-.04.16-.09.32-.14.47.12.08.25.16.36.25-.07-.13-.1-.34.01-.38.3.19.5.53.56.8.04.25-.08.38-.19.4.16.06.3.24.22.44-.12-.09-.1-.17-.2-.24.24.33-.35-.16-.18.11.08.04.13.15.16.21-.08-.02-.12-.04-.21-.04-.13,0-.26.02-.39.05-.37.05-.77.13-1.13.19.04-.07.08-.15.13-.22-.58.06-1.33.03-2.13.06-.79,0-1.61,0-2.41-.05.55.14.32.5-.17.5-.03-.11-.06-.23-.1-.34-.37.18.46.16-.24.36-.6-.08-.29-.4.08-.48-.26.02-.51.04-.77.06-.01-.1.18-.14.26-.26-.37.18-1.13-.43-1.68-.12,0-.03,0-.07,0-.1-1.57-.15-2.32-.11-3.6-.2-.14.28-.62.18-1.06.38-.86-.16-1.77-.5-2.95-.5-.88.13-.33.23-.76.4.04-.27-1.2-.18-.51-.4-.76.06-1.27.15-1.84.3-.55.15-1.25.37-2.21.94.24-.01.49-.07.39.06-.34.18-.8.3-.8.17.03-.02.05-.05.08-.07-1.98,1.35-4.55,3.02-4.86,4.44,0-.03.01-.05.02-.08-.19.44-.36.88-.52,1.32-.38.52.03-.41-.36-.09-.46,1.51-1.26,2.08-1.4,3.3-1.12.51-.76,2.99-1.35,3.77.07.01.13.02.2.03.16.36-.15.27-.22.44.16.05.21-.2.3.02,0,.58-.02,1.15-.1,1.66-.02.26-.09.49-.13.74-.04.11-.07.22-.1.33-.02.06-.03.11-.04.11-.02.02-.04.04-.06.06-.11.09-.3,0-.41-.12-.06-.07-.03-.06-.13-.18-.27-.26-.54-.55-.81-.86-.74-.9-1.24-.34-1.82-1.7.17.1.35.2.53.3-1.83-1.98-2.39-4.23-3.08-6.18.09.1.18.09.22.28.1-.48-.27-1.58-.44-1.55-.02-.32.15-.11.22-.33.08-.46-.36-1.01-.14-1.29.03-.05.07.1.09.18-.12-.26,0-1.3-.25-.97.12-.74-.04-1.38.19-2.04-.24-.34.3-1.42-.11-1.45.21-.03.34-.43.36-.88.02-.45-.1-.94-.26-1.12.17.09.05-.51.28-.42-.07-.29-.18-.51-.34-.77-.22-.14-.35-.14-.42-.01-.04-.27-.16-.48-.34-.62-.18-.12-.4-.2-.6-.28-.41-.12-.77-.2-.76-.64-1.52-.32-2.91-.39-4.22-.51.26-.45,1.41.21,1.6-.26-1.32-.06-2.18.23-3.3-.08-.28-.11.25-.17.39-.22-1.27,0-2.25-.43-3.32-.48.02-.04.14-.06.26-.06-.2-.04-.43-.19-.49.01.07,0,.14,0,.21,0,.18.39-1.01.35-1.11.48.56-.42-.87-.54-.04-1.02-.13-.02-.33,0-.37.15-.16-.12-.18-.21.07-.28-.34-.09-.47-.1-.6-.08-.06,0-.12,0-.2-.01-.08-.01-.13-.03-.21-.13.07-.08.16-.04.24-.11-.1.02-.28-.01-.44-.08-.1-.03-.12-.1-.18-.16-.04-.07-.12-.15-.1-.25.06,0,.12-.07.13.03-.08-.24-.18-.49-.11-.91.12-.41.34-.88.88-1.25.03.55.39-.21.7.02.15-.17.29-.35.47-.52-.11.01-.22.03-.33.04.48-.38.81-.92,1.35-1.15-.11.13-.22.26-.32.4.33-.25.67-.5,1.01-.74-.23.09-.45.18-.68.28.48-.52-.32-.33.51-.74-.14.13.59-.36,1.02-.38,0,0,0,0,0,0,.24-.28.48-.56.99-.78.18.02.12.38.24.39.07-.2.46-.52.72-.68.38-.24.77-.48.9-.73-.1.14-.02.3.05.31.05-.12.1-.23.15-.35.34-.1.41-.09.43.06.95-.48-.51-.19.67-.67-.07.07-.01.07-.17.21.57-.29,1.08-.64,1.58-.99.48-.38.94-.75,1.47-1.05.55.04-.8.67-.26.65,1.42-1.1,2.53-2.65,3.15-4.02-.05.08-.1.17-.14.25-.27-.15-.1-.37.13-.69.26-.31.44-.71.33-1.05.03.17.34.21.27.16.23-1-.2-1.92-.88-3.13.07.04.15.08.22.12-.03-.55-.44-1.33-.63-1.88-.24-.11-.36-.42-.5-.16.09-1.86-2.15-2.97-2.18-4.6.1.17.36.38.29.25-.26-.4-.58-.79-.83-1.21-.21.14-.08.2-.14.49-.25-.13-.55-.48-.72-.79.48.55.42-.08.43-.34-.06.05-.19-.02-.26.02.12-.72-.6-.03-.74-.99.05.01.11.02.16.04-.23-.32-.56-.64-.63-1.01.27-.12.26.36.54.39-.11-.24-.32-.48-.48-.73-.14-.24-.23-.52,0-.61.03.21.06.46.18.66.32-.31.26-.3.38-.49,0,0-.01,0-.02.01.11-.11.28-.17.49-.14-.07-.02-.13-.04-.2-.05-.15-.4.18-.45.55-.39.4.06.85.19,1.35.15-.96.1-.12.18-.17.44.27.15.66.37.56.41.47-.07.8.45,1.53.42.02.1.54.22.4.38.65.2-.13-.21-.07-.29,1.07.12,2.24,1.35,3.76,1.75,1.27.52,1.63.41,2.8.93.3.33-.46.09-.46.09.53.46.97.7,1.57.95-.15,0-.07.12.04.3.44.24.47-.09.96.36-.15.02-.36.08-.62.03.55.25,1.14.41,1.69.65.05.22-.44.02-.68-.01.62.3,1.58.78,1.88.65-.11-.1-.21-.19-.32-.29.22.11,0,.25-.18.2-.6-.12-.66-.5-.65-.59.13.06.26.11.39.17-.1-.66-1.51-.8-2.25-1.3.17-.04.34-.08.51-.12-.31-.07-.62-.14-.94-.21-.11-.18-.12-.43.28-.24-.46-.49-.55-.18-.93-.64-.04-.06,0-.06.05-.04-.2-.08-.4-.16-.61-.23.15,0,.03-.27.34-.03-.92-.77-1.76-.71-2.05-1.16.03,0,.06.02.1.03-1.52-.68-.24.15-1.44-.15-.18-.32-.37-.65-.58-.97-.07.06-.14.11-.21.17-.15-.09-.46-.25-.39-.32-.63-.11.08.15-.3.16-.73-.6-2.1-.79-2.28-1.27-.27.1.74.44-.07.27-.26-.55-.94-.29-1.66-.72.17-.18.88.18.12-.28-.34.28-1.43-.52-2.05-.5.07.18-.28.16-.67.23-.43.04-.72.4-.73.83-.07-.08-.22.32-.16.85.05.53.25,1.15.36,1.54-.03,0-.05-.01-.08-.02.49.11.8.88,1.17,1.4-.27.02-.41-.06-.68-.34.09.17.17.34.26.51.2.1.33.25.57.57-.13-.02-.26-.05-.39-.07.4.69,1.09,1.31,1.34,2.21.33-.03.48-.87,1.16-.04-.14.07-.4.18-.6-.04.06.07.28.24.29.41-.15-.1-.31-.19-.46-.29.08.42.34.14.47.46-.24.06-.05.27-.25.28-.07-.07-.04-.29-.2-.39.13.36.23.81.12,1,.12-.07.32-.09.48.16.35.65-.17.3-.1.72.25.11.28.57.64.48.09.19-.06.27-.12.37.33.29.74,1.53.96,1.05,0-.03,0-.06-.01-.09.01.02.02.03.04.05,0,0,0,0,0,0,0,0,0,0,0,0,.82.99.63,2.31.76,3.34-.04,0-.08,0-.12,0,.12.63-.15,1.4-.17,1.89-.11.19-.46.38-.54.27-.16.48-.18.57-.85,1.12.21-.51-.27.07.26-.5-.54.52-.81.51-1.21,1.21.02-.33-.67.17-.94.42.19-.07.39-.13.58-.2-.32.27-.65.47-.97.68-.02-.12-.04-.24-.06-.35-1.54.59-2.14,2.1-3.61,2.15-.27.4.87-.3.66.11-.17.08-.36.14-.55.19-.09.02-.19.04-.28.06-.05,0-.09.02-.14.02-.07.02-.14.04-.21.06-.46.15-.62.13-.75.2-.95.38-.54.87-1.52,1.33.19.02.46.2-.15.72-.64.36-1.04.1-.71-.23.15-.1.24-.12.26-.09.18-.16.42-.37.1-.32,0,.05-.01.1-.02.15-.39.1-1.24.69-1.15.4-.4.41-.08.29.3.1-.9.41-1.23.85-2.04,1.43.16-.07.37-.07.25.04-.57.45-.63.61-.63.75,0,.13.05.22-.21.62-.42.42-.29-.42-.62.61-.32.64-.35.07-.33-.28-.04.3-.11.56-.15.83-.02.29-.06.58-.05.85.03.27.06.54.11.79.06.23.14.4.22.56-.13-.18-.28-.32-.38-.55.21.38.39.61.55.9-.01-.16-.02-.31-.03-.45.15.36.33.52.26.59.3.1.1-.43.61-.2.05.09.12.19.23.27.1.05.2.1.29.16.17.09.31.2.29.37-.76-.58-.02.36-.78-.04.19.07.32.16.51.32.01.05-.05.04-.12.03.66.71.51-.12,1.3.26-.17.13.06.39.21.4-.32-.13-.04-.34.3-.36.46.33.59.08.85.18-.09-.05-.19-.1-.28-.15.17-.14.41-.04.79,0-.02.15-.36,0-.25.1.51-.21.78.54,1.41.44.21.17-.1.33.1.46.7-.11.58.37,1.29.29-.09-.27-.15-.22.4-.37-.38,0-.76-.01-1.13-.02.27-.07.54-.15.82-.22-.32-.06-.74.03-.92-.05.4-.13.35-.08.27-.31.3.43.97-.05,1.38.27-.09.19-.17.39-.26.58.64.4,1.48-.07,2.36.31-.08-.06-.17-.12-.25-.17.24-.2.61.1.95.1-.14.18.01.31.07.47.08-.16.62.24.94-.1.08.13.14.27.2.42.29.21.55.18.81.17.27-.02.56-.04.76.25-.31.04-.22.37-.64.19.15.16.25.32.37.21,0,.11.12.09.2.16.12.11.2.26.14.42.09.05.31-.03.33.27-.03.05-.09.04-.09.04.1-.05.16.41.36.05-.26.55-.28,1.14-.32,1.78-.04.63-.08,1.28-.34,1.75,0,.69.11,1.52.15,2.14-.05-.03-.09.02-.08-.1-.09.9.52.41.47,1.44-.2.57-.22-.49-.28-.15-.54.27.25,1.17.12,1.91-.02-.05-.05-.1-.07-.15-.06.55.54,1.18.83,2.02,0,0-.06-.03-.08.02.49.5,1.08,1.54,1.65,2.32-.35-.19-.32-.33-.44-.13.25.35.26-.19.76.5.03.26.29.8.13.92-.17-.22-.32-.44-.48-.67-.06.42.61.86.84,1.23-.05,0-.1,0-.16-.01.41.5.74.75,1.08,1.01.35.26.66.52,1.31,1.09-.02-.05-.04-.1-.06-.16.92.44.59.7,1.63,1.15.11.16.24.33.39.49.37.16,1.08.39,1.48.26.41-.1.48-.48.53-.75.14.26.18.61-.02.82-.18.22-.7.24-1.2.12.42.16,1.07.27,1.38.14.34-.11.38-.42.3-.58,0,.17-.03.38-.23.4.06-.55-.12-1.2-.1-1.77.5.31.57-.06.59-.55.03-.49.02-1.09.38-1.18-.34-1.39.17-2.46.44-3.98-.75.26.08-.44-.58-.62.05-.36.11-.49.16-.5.23-.29.48-.59.74-.88.27-.17.01.39.17.42.33-.73.38-.2.74-.62-.26,0-.21-.4.08-.78-.19.15-.37.31-.56.46.18-1.2.91-.61,1.23-1.87-.01.15-.02.3-.03.45.23-.67,1.21-2.07,1.16-2.78.13-.06.37-.09.24.15.48-.58.9-1.25,1.43-1.8.51-.55,1.16-.99,1.7-1.05-.02.06-.04.12-.05.18.21-.13.34-.41.68-.36-.01.06-.08.17.03.15.11-.08.67-.42,1.03-.36-.11.07-.22.13-.32.21,1.31,0,2.3-.53,3.68-.54-.17.43,1.02.69,1.69.81-.01.02-.03.04-.04.06,1.9.19,3.41-.08,5.36-.09,1.05.58,3.99.52,6.24.75-.35-.09.06-.32.48-.41.57.06,1.45-.46,1.45-.06-.07,0-.13.01-.2.02.26.16.64.2,1.23.07.48-.08,1.37-.4,1.85-.74-.11-.16-.24-.31-.37-.46.76-.25,1.3-.95,1.19-1.71-.08-.77-.66-1.47-1.01-1.82-.81-.81-1.56-1.33-1.59-1.88-.42-.18-.78-.5-1.18-.64.09-.07.17-.13.26-.2-.74-.75-1.11-1.11-2.08-1.84.12,0,.23,0,.35,0-.5-.46-1.31.09-1.78-.3.07-.15.14-.3.22-.45-.84-.74-1.33-1.78-2.26-2.2.07-.03.18-.11.3,0-.07-.09-.16-.23-.24-.37-.03-.05-.01-.03-.08-.13-.04-.08-.12-.16-.14-.19-.07-.08-.13-.16-.19-.23-.26-.29-.52-.44-.71-.15.31-.32-.66-.79-1.12-1.05.1-.05.2-.11.29-.16-.58-.05-.69.02-1.12-.39-.05-.14.13-.27.17-.07-.13-.49-.45-.1-.6-.69.09.02.18.03.26.05-.21-.43-.28-.32-.58-.42-.25-.19-.24-.92,0-1.13-.17.04-.42-.13-.39-.46.09-.09.16,0,.2.03.07-.75-.2-1.05-.11-1.58,0-.06.02-.13.03-.19.02-.05.04-.11.06-.17.09-.04.13-.09.16-.14,0,.08-.01.16-.02.24,0,0,0,.15-.01.2-.07.52-.08.87-.09.84.25-.11.29-.63.63-.36-.09-.13-.17-.33-.25-.56,0-.06-.01-.23-.03-.21-.11-.22-.12-.53.01-.84.03-.03.06-.06.1-.08,0,.02,0,.04.01.05.05-.13.06-.24.06-.36.09-.19.14-.31.21-.5.2-.07.32-.71.43-1.04-.24.01-.07-.41-.39-.03.03-.05.01.06-.05.28,0,.05-.02.11-.02.14,0,0,0-.02-.01-.02-.06.21-.14.48-.23.8-.04-.25-.07-.52.18-.88-.1-.17-.2-.37-.24-.49.48-.43.91-1.28,1.13-1.38.17-1.02.52-2.41.17-3.12-.01-.3.17-.32.25-.42.02.18-.01.38.04.48,0-.6.13-1.75-.18-1.93.14-.73.28.46.23-.58.03.05.06.1.09.15.23-.98-.07-1.85-.48-2.72-.44-.9-.85-1.71-1.47-3,.1.18.14.27.12.32-.32-.53-.8-1.11-1.53-1.6-.73-.5-1.59-.74-2.14-.71-1.08.09-1.54.64-2.11,1.08,0,0,.01-.01.02-.02-.37.25-.74.51-1.13.76-.44.33-.21.58-.23.99-.12-.05-.25-.1-.38-.15.01.25.02.49.02.74-.26.86-1.54.58-1.87,1.73.09.02.18.04.28.06-.3.26-.88.95-1.01.7,0,.05.05.26-.17.26-.04-.04-.08-.09-.12-.13-.21.27-.46.51-.73.73-.42.09-.46-.07-.55-.2-.08-.13-.21-.25-.71-.16-.3.12-1.07.38-.94.51.18.03.48.16.51.32-.15,0-.31.01-.47.02-.06.22-.22.43-.21.65,0,.2.22.49,1.02.69.36-.11.7-.21.98-.38.13.05.25.1.38.15-.28.06-.53.15-.84.16.54.16.81-.11,1.06-.32.11.09.27.13.47.1.24-.24.41-.5.56-.76.2.11-.14.5.43.32.22-.37-.54-.18-.1-.61.44-.02.48.19.71-.21.13.06.12.19,0,.33.23-.35.77-.66.71-.99.48-.03.78-.87,1.11-.5,0-.16.11-.7.28-.94.11.81.73-.8,1.12-.25-.17-.67.64-1.19.82-1.79.01.06.04.16-.02.18.26-.2.46-.12.69-.16-.11-.13-.14-.27-.14-.4.02-.01.03-.03.05-.04,0-.24.12-.49.11-.75.67.14.23.55.65.82-.31-.3.27-.62-.07-.81.45.09.33.02.7.28-.32-.51.16-.13.17-.46.46.28.32.45.49.36.07.15-.01.29.01.29ZM162.86,117.1s0,0,0,0c.04-.16.07-.3.09-.38-.02.08-.04.19-.08.38ZM162.64,118.59c.01-.09.03-.2.05-.33,0-.03,0,0,0-.07,0-.05,0-.11.01-.18.1-.08.19-.05.18.1-.01-.02-.03,0-.05.03-.03.07-.04.06-.06.1-.04.11-.09.24-.14.36ZM165.04,115.44c-.03.21-.1.28-.15.3.03-.1.05-.21.08-.37,0,0-.01-.02-.02-.03.04.02.07.05.09.09Z"/>
          <path class="cls-2" d="M164.85,115.05s0-.05.01-.09c-.03.04-.07.08-.09.13.02.03.03.05.05.08.01-.04.02-.08.03-.12Z"/>
          <path class="cls-2" d="M136.32,110.19s0,.02,0,.03c0-.03,0-.05.02-.07,0,.02-.02.03-.03.04Z"/>
          <path class="cls-2" d="M172.38,132.46s.04-.03.07-.05c-.05-.01-.1-.02-.15-.04.03.03.06.06.08.09Z"/>
          <path class="cls-2" d="M133.56,102.46s.03-.05.03-.11c-.02,0-.02.05-.03.11Z"/>
          <path class="cls-2" d="M132.69,99.75c.07-.05.17-.08.25-.1-.13.01-.21.06-.25.1Z"/>
          <path class="cls-2" d="M134.67,99.86s.04-.07.04-.1c0,0,0,0,0,0-.01.03-.02.07-.03.1Z"/>
          <path class="cls-2" d="M126.57,129.11s.06,0,.08,0c.21,0,.07-.02-.08,0Z"/>
          <path class="cls-2" d="M127.99,122.7c-.11.12-.21.24-.33.35.23-.12.4-.22.33-.35Z"/>
          <path class="cls-2" d="M137.62,133.03s0,0,0,0c0,.03.01.06.02.09,0-.03-.01-.06-.02-.09Z"/>
          <path class="cls-2" d="M127.1,123.39c.24-.09.41-.21.56-.34-.19.09-.41.2-.56.34Z"/>
          <path class="cls-2" d="M147.31,106.53s.09.06.13.09c0-.02.02-.02.04-.03-.06-.02-.11-.04-.17-.06Z"/>
          <path class="cls-2" d="M147.47,106.59c.06.02.11.04.17.06-.07-.04-.13-.07-.17-.06Z"/>
          <path class="cls-2" d="M147.98,106.77c-.11-.04-.23-.08-.35-.12.11.06.24.15.35.12Z"/>
          <path class="cls-2" d="M143.7,104.17s-.06.03-.09.05c.03,0,.07-.02.09-.05Z"/>
          <path class="cls-2" d="M142.53,103.5c.27.18.59.58,1,.76.03-.01.05-.03.08-.04-.25,0-.73-.69-1.08-.72Z"/>
          <path class="cls-2" d="M137.58,99.83c.38.19.77.36,1.14.56-.18-.18-.44-.42.09-.2-1.44-.91.28.32-1.22-.36Z"/>
          <path class="cls-2" d="M133.99,98.44c.62.12-.05-.15-.04-.2-.38,0-.46,0,.04.2Z"/>
          <path class="cls-2" d="M136.07,115.79c-.08-.04-.17-.08-.25-.13-.13.3.1.04.25.13Z"/>
          <path class="cls-2" d="M133.77,119.54c.16-.05.32-.1.48-.16.01-.1.02-.2.04-.29-.17.15-.34.3-.51.45Z"/>
          <path class="cls-2" d="M130.43,119.54s.1-.08.15-.12c-.2.14-.39.28-.58.41.15-.1.29-.2.44-.3Z"/>
          <path class="cls-2" d="M135.23,137.62c.1-.05.19-.11.29-.16-.03-.23-.35-.21-.29.16Z"/>
          <path class="cls-2" d="M140.94,151.63c.05.11.15.26.38.46.25.22.57.44.83.55-.32-.21-.57-.45-.79-.64-.19-.17-.3-.29-.42-.38Z"/>
          <path class="cls-2" d="M177.17,135.11c-.03.16-.06.33-.11.5.14-.3.24-.61.23-.93-.03.14-.05.29-.11.42Z"/>
        </g>
      </g>
      <g>
        <path class="cls-2" d="M152.19,131.37c-.13.08-.2.28.04.26.11-.11.22-.21.34-.32-.13.02-.25.04-.38.06Z"/>
        <path class="cls-2" d="M153.36,132.12c.34-.14.75-.4.71-.72-.39.3-.39.16-.84.51-.24.02-.34-.14-.24-.26-.12.08-.3-.1-.53.09.15.28.53.33,1.01.15.05.08-.07.16-.11.22Z"/>
        <path class="cls-2" d="M168.93,129.44s.04.08.06.12c0-.04-.03-.08-.06-.12Z"/>
        <path class="cls-2" d="M162.17,120.56c.03.07.07.08.1.07-.04-.06-.08-.1-.1-.07Z"/>
        <path class="cls-2" d="M162.31,118.59s-.02.08-.03.12c.03-.05.05-.1.03-.12Z"/>
        <path class="cls-2" d="M168.93,129.44c-.05-.1-.1-.2-.15-.31-.13.06.05.17.15.31Z"/>
        <path class="cls-2" d="M156.61,131.58c-.08.01-.14.04-.21.07.06,0,.13-.02.19-.02,0-.02.01-.03.02-.05Z"/>
        <path class="cls-2" d="M172.1,134.05s-.08.02-.12.03c.01.03.03.07.07.12.02-.05.04-.1.06-.15Z"/>
        <path class="cls-2" d="M166.23,134.02c.14.02-.02-.26-.06-.38.01.11-.04.16-.14.17.04.05.1.12.2.21Z"/>
        <path class="cls-2" d="M157.54,132.84s-.1.02-.14.03c.04,0,.1-.02.14-.03Z"/>
        <path class="cls-2" d="M171.73,131.37c.06-.01.1-.04.11-.06-.06,0-.09.03-.11.06Z"/>
        <path class="cls-2" d="M140.95,145.59s.02.04.03.07c-.01-.04-.02-.07-.03-.07Z"/>
        <path class="cls-2" d="M143.72,142.89s-.01.05-.02.07c.04.03.09.07.14.09-.04-.05-.08-.11-.12-.16Z"/>
        <path class="cls-2" d="M163.4,114.79s0,.01,0,.02c0,.1.01.04,0-.02Z"/>
        <path class="cls-2" d="M137.56,100.88c.46.3.08.22-.18.19-.28-.04-.43-.02.14.34-.06-.07.18-.08.35-.11.17-.04.26-.11-.32-.42Z"/>
        <path class="cls-2" d="M156.72,131.63c.06,0,.12,0,.18.01-.08-.02-.14-.02-.18-.01Z"/>
        <path class="cls-2" d="M137.52,101.41s0,0,0,0c.04.02.08.05.11.07-.05-.03-.07-.05-.11-.07Z"/>
        <path class="cls-2" d="M164.02,105.02s-.06.06-.07.11c.02,0,.05-.03.07-.11Z"/>
        <path class="cls-2" d="M163.55,112.38c.03-.06.05-.12.08-.17-.04.07-.06.12-.08.17Z"/>
        <path class="cls-2" d="M159.8,101.98c-.11.03-.17.02-.27.13.02,0,.04,0,.07,0,.01-.06.06-.13.2-.14Z"/>
        <path class="cls-2" d="M157.63,104.43s.06,0,.09,0c.01-.03.03-.06.05-.09-.04.03-.09.06-.13.08Z"/>
        <path class="cls-2" d="M139.18,136.91c-.08.1-.17.17-.26.23.2-.1.22.45.26-.23Z"/>
        <path class="cls-2" d="M156.59,131.74c.04-.07.07-.1.14-.11-.04,0-.09,0-.13,0-.02.04-.03.08,0,.11Z"/>
        <path class="cls-2" d="M161.21,104.26s-.03,0-.04,0c0,0-.01,0-.03,0-.03.02-.05.03-.08.05.14-.08.11-.03.15-.06Z"/>
        <path class="cls-2" d="M130.91,122.72s-.09.08-.13.11c.06-.03.11-.07.13-.11Z"/>
        <path class="cls-2" d="M160.19,105.35c-.14,0-.25.02-.34.07,0,.03,0,.07.02.1.11-.06.22-.11.32-.17Z"/>
        <path class="cls-2" d="M138.92,137.15s0,0,0,0c0,0,0,0,0,0Z"/>
        <path class="cls-2" d="M139.62,141.04c-.06-.59-.37-.2-.58-.28-.17-.67.22-.38.38-.66-.12-.41-.46-.67-.45-1,.06-.04.08-.11.15-.05-.29-.4,0-1.36-.3-1.82.03-.05.07-.07.09-.09-.19.13-.37.18-.49.2.01-.26-.18-.43.06-.59-.02.16.07.15.14.21-.03-.08-.05-.17-.07-.25.36-.33.08.35.33.29-.06-.51-.26-1.07-.11-1.5.35-.16-.02.93.35.32-.07.22-.14.44-.21.66.58-.6-.08.39.53-.18.21-.86-.05-.9.19-1.74-.16-.15-.29.13-.45-.02-.14-1.11,1.05-1.18.72-2-.21-.18-.63-.1-.38-.83.13.02.27.04.4.06.03-.45-.13-.51-.26-.57-.13-.07-.22-.14-.19-.62.21.04.25.55.28.4.23-.74-.3-.27-.41-.65.11-.1.21-.21.32-.31-.04-.07-.11-.25-.2-.31-.08-.07-.16-.15-.24-.22-.15-.15-.36-.24-.54-.35-.39-.2-.81-.34-1.22-.49.12-.07.34-.11.24-.29-1.11-.31-2.19-.8-3.15-1.23-.19.07-.39.14-.58.21-.09-.02-.1-.16.03-.2-.36-.19-.13.18-.39.26-.25-.02-.22-.22-.02-.28-.88.11-2.37.17-2.97-.28.06-.02.13-.04.19-.06-.54-.23-.95.47-1.36.07.04,0,.09-.02.13-.03-.62-.23-1.31-.3-1.8-.54-.54-.26-.69-.52-.47-.76-.23.04-.19-.14-.09-.26.05-.06.08-.1.1-.18.03-.08.02-.17-.08-.26.72-.33.61-.14,1.63-.64.26-.15.27-.56.61-.84.05.08.1.16.15.24.12-.19.25-.38.38-.57.15.04.3.08.44.13.11-.09.22-.19.34-.28-.16.07-.37.07-.39-.01.52-.45,1.53-.66,1.61-.54.44-.34.88-.68,1.33-1.02.02.12-.21.29-.36.46.65-.69.27.19.87-.45-.13,0-.03-.18-.04-.23.44-.06,1.27-.52,1.86-.97,0,.08-.01.16-.02.23,1.15-.64,2.41-1.57,3.62-2.7-.52.34-.68.03-.38-.29.13.02.27.03.4.05.05-.3-.45.25-.21-.28.41-.4.59-.12.44.2.13-.2.26-.4.39-.6.12,0,.05.16.13.25,0-.16.31-.36.57-.61.25-.26.49-.55.41-.78.04,0,.08,0,.12-.01.7-1.39.64-2.02.64-3.04-.34.02-.28-.38-.58-.63,0-.71.08-1.56-.32-2.33-.41-.51-.34-.08-.65-.27.29-.14-.15-.9.27-.57-.29-.45-.48-.73-.72-1.04-.12-.15-.26-.32-.41-.49,0,.02-.03-.02-.05-.03-.04-.06-.09-.12-.13-.18-.09-.13-.2-.25-.32-.39-.03.17,0,.33-.14.28-.17-.2-.18-.53-.03-.54.02.02.04.03.07.05-.63-.59-.96-1.38-1.3-2.12-.08-.18-.16-.36-.25-.53-.06-.14,0-.11-.03-.17-.01-.06-.07-.1-.32-.23.02,0,.03.02.05.03-.2-.13-.43-.34-.63-.6.05-.14.37.33.65.39-.23-.2-.26-.35-.18-.36.07-.02.19.02.29.07.23.11.32.2.53.15-.08.33.79.71,1.58,1.07.8.36,1.67.76,2.08,1.27.01-.06.02-.12.03-.18.38.03.29.28.47.44.05-.12-.22-.31.01-.28,1.27.63,2.43,1.46,3.52,2.32.27.21.53.42.79.63.29.23.57.46.85.69.29.23.65.44.97.65.35.2.72.36,1.08.53,1.17.35.91-.66,2.21-.09-.14.11-.29.2-.45.3,2.37-.14,4.59-.68,5.87-1.96-.04.12.01.21-.14.3.48,0,1.13-.79.98-.95.21-.15.16.1.35.08.38-.12.42-.83.72-.77.05,0-.01.13-.04.18.09-.24.71-.71.36-.77.03-.02.05-.04.08-.06,0,0,.02,0,.02,0,.02,0,.11-.09.16-.13.1-.1.19-.22.27-.32.15-.21.28-.4.48-.5-.08-.46.68-.54.36-.94.18.19.39.11.56-.05.09-.07.15-.18.21-.27.05-.09,0-.12,0-.2.07.15.15.1.24.31.02-.03.07-.13,0-.4.16.31.19.21.33.25.11.02.26.18,0,.3.03.02.03,0,.07.06.04.07.08.14.13.22.08.15.16.3.23.45.14.29.26.63.36.95.21.63.34,1.23.4,1.84-.38-.08-.13-1.32-.57-1.29.32,1.11.65,1.81.44,2.94-.09.29-.15-.19-.21-.3.06,1.17-.38,2.24-.44,3.32-.04,0-.05-.12-.05-.24-.04.21-.19.48,0,.47,0-.07,0-.14,0-.21.35-.31.32.87.45.91-.42-.38-.42,1.04-.93.45,0,.14.03.32.16.29-.1.21-.19.27-.27.06-.13.77.16.49-.05,1.19-.09,0-.09-.14-.17-.2.08.35.16.68-.07,1.28-.05-.03-.14.05-.09-.13-.23,1.03.08,1.61-.19,2.72-.42-.16-.17.42-.54.63.04.18.07.36.14.51.06-.1.11-.2.17-.31.02.49.37.72.33,1.15-.07-.08-.15-.15-.22-.23.07.27.17.5.27.75,0-.17.01-.35.02-.52.32.29.47-.33.52.26-.08-.08.13.38,0,.72,0,0,0,0,0,0,.21.09.41.19.46.51-.08.15-.44.25-.5.35.4-.05.57.74,1.04.68-.12,0-.31.14-.34.19.11-.02.23-.04.34-.06.03.21,0,.26-.16.36.29.47.35-.51.55.17-.05-.02-.07.03-.17-.03.31.6.97.85,1.26,1.41-.23.43-.45-.33-.61.08.67.59,1.65,1.02,2.15,1.76-.02-.05-.05-.1-.07-.16.59-.31.19.69.75.84-.12-.05-.39.11-.31.09.34.51,1.01.83,1.91,1.41-.08,0-.15,0-.23,0,.15.35.68.75.95,1.08.24,0,.41.18.51-.05.1.39.07.5.24.64.14.13.38.24.67.39.28.14.62.32.82.5.17.17.29.36-.27.4.07-.1-.31-.31-.29-.25.09.12.03.24-.05.29-.07.06-.16.09-.25.12.56.26.4.16,1.04.33.2.18.07.32-.26.31.25-.18-.76-.42-1.1-.58.15.08.21.17.35.25-1.14-.49.61.52-.66.15-.03-.04-.06-.09-.09-.13-.26.04-.41.2-.81.13-.43-.31.23-.11.02-.35-.47-.02-.49.48-1.21.15.15-.06.45-.04.59-.11-.79-.38-.76-.3-1.16-.38.01,0,.03,0,.04.01-.31-.07-.61-.15-.92-.22.09.04.18.07.27.11-.07.71-1.12.04-1.64.47.53-.4-.03-.26-.14-.58-.25-.11-.6-.23-.56-.32-.24.23-.69-.26-1.03.08-.06-.11-.39-.04-.4-.3-.43.04.17.19.18.32-.64.29-1.79-.57-2.71-.18-.86.12-1.01.45-1.88.54-.28-.18.25-.35.24-.35-.45-.19-.77-.19-1.21-.11.1-.08.02-.16-.09-.29-.33,0-.29.34-.7.16.1-.1.23-.27.41-.37-.4.06-.82.21-1.25.26-.05-.18.32-.24.48-.34-.46.04-1.18.05-1.42.31.08.04.17.08.25.12-.17,0,0-.24.13-.28.45-.18.52.14.51.25-.1.01-.2.02-.31.04.13.61,1.2.01,1.76.1-.1.13-.21.27-.32.4.23-.1.45-.2.67-.3.11.12.19.37-.13.4.42.24.4-.11.77.15.04.04.02.06-.02.07.15-.03.3-.06.44-.09-.09.08.07.3-.21.22.81.31,1.28-.21,1.6.14-.02,0-.04.01-.07.02,1.1-.05.09-.29.84-.6.23.27.47.54.72.82.01-.1.03-.2.04-.3.12.02.36.06.35.18.38-.17-.11-.14.09-.32.65.33,1.49,0,1.82.5.1-.22-.62-.23-.09-.34.41.54.66-.03,1.31.25-.01.26-.61.07.07.36.06-.44,1.12.18,1.55.13-.24-.37.9-.08,1.59-.14.05.12,1.67.32,2.6.51.02.02.03.04.05.06-.25-.36.67-.29,1.1-.42.26.15.28.23.11.36.18-.03.35-.06.51-.1-.04-.11.04-.17.3-.3.07.06.14.13.21.19.14-.07.27-.15.37-.3.11-.16.08-.35.01-.49-.13-.3-.37-.54-.43-.81-.48-.06-.7.21-1.74-.32.14,0,.33.02.51.05.15.02.31.07.44.14-.08-.05-.38-.18-.38-.27.22.08.43.17.63.26-.06-.23-.46-.16-.63-.34.35.02.09-.14.39-.11.09.06.05.18.26.27-.15-.23-.29-.54-.19-.68-.15.04-.44.04-.69-.14-.6-.47.15-.24-.1-.59-.33-.06-.57-.51-.86-.3-.12-.11,0-.21.03-.31-.36-.11-1.03-.87-1.12-.45.01.02.02.04.03.06-.01,0-.03-.01-.05-.02,0,0,0,0,0,0,0,0,0,0,0,0-.97-.42-1.19-1.4-1.89-1.93.03-.02.06-.05.1-.07-.46-.29-.82-.77-1.24-.87-.09-.11-.05-.39.1-.44-.31-.22-.43-.18-.63-.69.4.13.06-.22.36.18-.23-.43-.16-.62-.73-.78.34-.08.06-.51-.15-.61.01.13.03.25.05.38-.2-.15-.32-.33-.43-.51.13-.06.25-.12.38-.18-.22-1.01-1.67-.71-1.4-1.78-.35-.01.11.52-.26.55-.19-.37.06-1.08,0-1.19-.07-.6-.71-.09-.8-.71-.09.14-.39.44-.64.08-.08-.44.36-.79.52-.61.04.09.01.15-.03.17.08.1.18.22.26,0-.04,0-.09.02-.13.03.05-.26-.08-.79.14-.77-.18-.22-.22-.02-.24.24.05-.59-.13-.81-.03-1.4-.07.11-.2.25-.2.16.19-.89-.22-.28-.18-.89.24-.41.39.02.36-.57.19-.41.32-.14.38-.02-.11-.52.36-1.09.47-1.41,0,.1.01.19.02.29-.02-.17.03-.32.06-.47-.09.07-.17.13-.26.2.09-.18.12-.34.21-.34-.09-.18-.39.17-.49-.19.18-.25.1-.77.4-.85-.3.78.3-.09.17.56,0-.12.04-.28.13-.46.04-.03.05.03.05.07.45-.73-.22-.34,0-1.12.12.11.34-.17.34-.29-.09.31-.29.14-.33-.16.25-.5.06-.56.14-.83-.04.1-.09.2-.13.3-.13-.12-.04-.37,0-.74.13-.02,0,.34.08.21-.17-.43.48-.87.4-1.45.15-.25.29.01.39-.21-.1-.66.31-.66.21-1.35-.22.17-.17.21-.33-.29.03.37.04.75.04,1.12-.07-.25-.14-.5-.22-.74-.03.33.05.72,0,.91-.12-.36-.07-.32-.26-.18.36-.41-.08-.92.15-1.42.17.02.34.05.5.07.24-.78-.25-1.47-.33-2.5,0,.11-.02.22-.03.33-.23-.15-.14-.63-.31-.98.18.04.19-.18.25-.33-.11.01-.25-.8-.66-.92-.03-.23-.07-.48-.16-.75-.37-.66-.77-.89-1.09-1.02-.16-.08-.33-.09-.51-.14-.18-.05-.38-.08-.62-.13.26-.15-.3-.43.49-.31-.42-.17-.79-.24-.74-.1-.14-.09-.35,0-.55.1-.18.13-.34.26-.52.26-.03.15.1.36-.11.53-.06-.02-.09-.09-.09-.08.08.08-.13.38.21.41-1.02-.06-1.05,1.45-1.9,1.46-.06.09-.12.19-.18.29-.05.06-.21.28-.25.36-.14.22-.28.43-.43.59-.03-.07-.08-.08,0-.12-.56.3.21.72-.49,1.05-.51-.01.15-.39-.11-.34-.56-.46-.57.64-1.26.58.02-.03.05-.07.07-.1-.44.02-.59.71-1.2.91,0,0,0-.07-.05-.09-.21.48-1,.86-1.65.99.16-.27.26-.17.09-.41-.27.07.18.4-.41.54-.21-.14-.64-.27-.69-.54.17,0,.34,0,.52-.01-.29-.35-.65,0-.94-.11.02-.05.03-.1.05-.15-.75-.08-.87.28-1.75-.09.01.05.03.09.04.14-.66.12-.29-.39-.92-.38.02-.14.05-.27.07-.41-.18-.06-.5-.16-.85-.27-.38-.13-.79-.29-1.11-.45.49-.02,1.32.32,1.78.42-.26-.17-1.11-.66-1.38-.61.15.05.37.08.48.21-.59-.01-1.19-.23-1.87-.66.54-.51-1.69-1.26-1.98-2.03-1.44-.54-2.68-1.6-4.49-2.37.51.78-.51-.22-.52.35-.48-.17-.69-.26-.74-.32-.52-.33-1.19-.69-1.83-.98-.26-.14-.16-.15-.02-.15.14,0,.41.09.33,0-.73-.26-.84-.28-1.01-.41-.15-.1-.26-.21-.78-.38.38.26-.11.27-.66.32.33.02.68.11,1.06.23-.54.13-.88.08-1.25.1-.18.02-.33.07-.44.17-.16.08-.12.33,0,.7-.11-.18-.17-.36-.25-.54.04.36.05.97.44,1.76.36.78,1.01,1.62,1.53,1.93,0,.15-.04.41-.34.05.19.3.25.39.37.56.12.15.24.31.37.45.26.3.53.58.79.86.51.55.93,1.07.97,1.52-.07,0-.14-.02-.21-.03.07.09.19.14.3.23.08.1.13.15.2.25.03.05.05.11.05.19-.08.01-.22-.02-.17.08.12.08.61.42.66.72-.11-.05-.21-.1-.32-.16.2.55.51.91.83,1.24.32.33.71.63.87,1.07-.55.13-.46.98-.57,1.38-.03,0-.05,0-.08,0,.01,1.14.38,1.87-.12,2.94-.48.21-.9.64-1.49,1.12-.31.23-.64.47-.97.7-.36.21-.72.41-1.06.56.24-.06.17.28-.04.45-.35.11-.69.74-.85.4.04-.02.07-.04.11-.06-.43-.17-1.03.27-1.53.55.06.16.12.31.18.47-1.73.13-3.33,2.18-4.38,2.06-.12.15-.27.28-.43.4-.17.15-.33.3-.45.46-.05-.07-.1-.15-.15-.22-.48.3-.82.53-1.18.87-.32.3-.82.81-1.1,1.74-.03-.13-.07-.27-.07-.41-.23.54-.06.9.14,1.16.21.26.45.43.6.74-.11.14-.2.27-.27.42.18.32.48.65.7.84.23.21.45.36.68.5.46.25.95.4,1.46.3-.04.06-.12.17-.27.15.22.06.57.23.89.31.33.07.63.06.68-.25-.16.38.89.22,1.43.14-.07.09-.14.17-.2.26.56-.28.62-.37,1.23-.37.11.06,0,.24-.13.14.36.22.47-.2.92.05-.1.05-.19.09-.29.14.43.11.44,0,.8-.15.34-.05.79.24.7.51.14-.14.5-.28.71-.15-.03.1-.15.13-.21.15.56.37,1.23-.02,1.48.42-.06.09-.06.15-.05.19-.48-.21-.91-.35-.85-.36-.16.25.21.43-.33.66.44-.08,1.29-.29,1.55.02,0,.03,0,.06-.02.11-.02,0-.04,0-.06,0,.06.07.15.08.25.07.08.1.1.17.2.24-.12.21.24.35.36.48.24-.25.36-.04.41-.39,0,.04-.06,0-.16-.07-.03-.01-.06-.03-.08-.03.01,0,.02,0,.03-.01-.09-.08-.23-.17-.4-.27.24-.04.49-.06.51.22.23-.09.48-.18.6-.2-.11.27-.09.55-.18.74-.06.24-.14.44-.25.55.34.41.23,1.35.67,1.7.03.21-.19.3-.28.4-.03-.12,0-.27-.07-.31.08.39-.15,1.32.19,1.35-.25.63-.28-.26-.34.55-.03-.03-.06-.06-.09-.09-.75,1.74.57,2.41-.06,4.36.04-.13.05-.2.11-.24-.11,1.05.09,2.08.38,3.12.15.52.31,1.03.48,1.55.18.54.29,1,.48,1.64.37.85.63.85.99,1.09,0,.13,0,.27.02.4.25.13.48.23.69.28.22.12.45.29.71.39.26.11.49.14.7.14.41,0,.81-.27.8-1.1-.08,0-.16-.01-.24-.03.09-.17.17-.53.25-.79.06-.22.14-.38.24-.29-.03-.05-.17-.22-.02-.3.05.02.11.05.16.07,0-.33,0-.65.03-.98.37-.6.56.41.97-.53.08-.39.04-1.23-.12-1.15-.08.14-.27.32-.42.25.03-.12.06-.24.09-.36-.39-.29-.68-.77-1.38-.13-.01.23-.02.46-.02.69-.1.02-.19.04-.29.07.07-.16.14-.31.21-.47-.32.16-.23.42-.19.67-.13-.01-.24.02-.33.11.06.25.12.5.19.75-.2-.03-.24-.42-.48-.12.09.35.47-.03.44.45-.29.15-.43-.02-.37.37-.13-.02-.18-.12-.18-.27,0,.08,0,.17-.01.25,0,.04-.02.09-.02.13,0,.02,0,.04,0,.05,0,.07.02.15.11.28-.13-.05-.15.03-.19.09-.04.06-.09.07-.21-.23.06.14.09.62-.06.64.02-.41-.08-.4-.15-.47-.08-.08-.14-.19-.02-.49-.09.26-.19.21-.25.13-.05-.06-.05-.05-.13-.19-.08-.14-.18-.28-.3-.44.05.03.14.09.15.15-.11-.38-.02-.52-.03-.79-.37.03-.66-.55-.96-.82.21-.55.49.19.78-.03-.29.09-.51-.75-.7-.54.13-.41.03-.33.29-.59-.46.04-.15-.32-.47-.55.14-.57.4-.23.19-.78.11-.31.33.17.33.17ZM137.39,128.73s0,0,0,0c.1.04.18.08.23.1-.05-.02-.12-.05-.24-.09ZM136.44,128.36c.12.05.26.1.41.16-.04.11-.15.19-.24.14.1-.04-.08-.18-.17-.31ZM136.67,131.02c-.13-.04-.12-.11-.09-.17.05.03.12.06.2.1.01,0,.03-.01.04-.02-.05.04-.1.07-.15.09Z"/>
        <path class="cls-2" d="M137.15,130.85s.04,0,.06.02c0-.04,0-.07,0-.1-.04.02-.07.03-.11.05.02.01.04.03.05.04Z"/>
        <path class="cls-2" d="M169,129.58s0-.01-.01-.02c0,.02,0,.04,0,.06,0-.02.01-.03.01-.04Z"/>
        <path class="cls-2" d="M129.66,123.61s-.02-.04-.03-.06c-.02.04-.05.07-.07.11.04-.02.07-.04.11-.06Z"/>
        <path class="cls-2" d="M169.49,132.96c-.05-.03-.11-.06-.18-.09.03.02.1.05.18.09Z"/>
        <path class="cls-2" d="M166.53,132.67c-.17-.05-.34-.1-.51-.14.23.08.39.12.51.14Z"/>
        <path class="cls-2" d="M164.12,132.33c0,.05.01.09.03.13,0,0,0,0,0,0-.01-.04-.02-.09-.03-.13Z"/>
        <path class="cls-2" d="M161.89,112.36s0-.06,0-.09c0-.2-.01-.07,0,.09Z"/>
        <path class="cls-2" d="M161.42,122.17c-.09-.04-.17-.09-.24-.16.03.16.07.26.24.16Z"/>
        <polygon class="cls-2" points="161.22 104.27 161.21 104.26 161.21 104.26 161.22 104.27"/>
        <path class="cls-2" d="M161.05,121.64c0,.18.05.29.13.37-.02-.13-.05-.28-.13-.37Z"/>
        <path class="cls-2" d="M154.78,131.39s-.06-.01-.09-.02c0,.02-.02.03-.03.04.04,0,.08-.02.12-.02Z"/>
        <path class="cls-2" d="M154.66,131.41s-.08.02-.12.02c.05,0,.09,0,.12-.02Z"/>
        <path class="cls-2" d="M154.28,131.48c.09-.02.17-.03.26-.05-.08,0-.17-.03-.26.05Z"/>
        <path class="cls-2" d="M157.51,131.77s.03-.07.04-.1c-.02.02-.03.05-.04.1Z"/>
        <path class="cls-2" d="M158.37,131.81c-.21-.04-.5-.27-.78-.23-.01.03-.02.05-.03.08.14-.14.61.31.82.15Z"/>
        <path class="cls-2" d="M162.5,133.44c-.29-.05-.58-.1-.87-.15.18.12.42.28.04.28,1.19.41-.3-.26.82-.13Z"/>
        <path class="cls-2" d="M165.26,133.81c-.44.01.11.16.12.22.24-.08.3-.1-.12-.22Z"/>
        <path class="cls-2" d="M166.05,126.12c.09-.06.17-.11.26-.17-.2-.17-.09.07-.26.17Z"/>
        <path class="cls-2" d="M163.14,125.26c0,.1,0,.2,0,.3.1-.03.2-.07.3-.1-.1-.07-.2-.13-.3-.2Z"/>
        <path class="cls-2" d="M163.95,122.71s.06.03.09.05c-.1-.08-.2-.16-.31-.23.07.06.14.12.21.18Z"/>
        <path class="cls-2" d="M157.73,103.81c.11.06.23.12.34.19.04-.17-.28-.47-.34-.19Z"/>
        <path class="cls-2" d="M149.19,107.66c-.06-.17-.3-.43-.55-.38.23.13.4.38.55.38Z"/>
        <path class="cls-2" d="M131.73,119.72c.07-.08.13-.15.2-.23-.15.11-.29.22-.43.34.08-.04.16-.07.23-.11Z"/>
      </g>
    </g>
  </g>
</svg>